<?xml version="1.0" encoding="utf-8" standalone="no"?>
<!DOCTYPE svg PUBLIC "-//W3C//DTD SVG 1.1//EN"
  "http://www.w3.org/Graphics/SVG/1.1/DTD/svg11.dtd">
<svg xmlns:xlink="http://www.w3.org/1999/xlink" width="864pt" height="432pt" viewBox="0 0 864 432" xmlns="http://www.w3.org/2000/svg" version="1.1">
 <metadata>
  <rdf:RDF xmlns:dc="http://purl.org/dc/elements/1.1/" xmlns:cc="http://creativecommons.org/ns#" xmlns:rdf="http://www.w3.org/1999/02/22-rdf-syntax-ns#">
   <cc:Work>
    <dc:type rdf:resource="http://purl.org/dc/dcmitype/StillImage"/>
    <dc:date>2024-08-22T15:01:36.343861</dc:date>
    <dc:format>image/svg+xml</dc:format>
    <dc:creator>
     <cc:Agent>
      <dc:title>Matplotlib v3.9.2, https://matplotlib.org/</dc:title>
     </cc:Agent>
    </dc:creator>
   </cc:Work>
  </rdf:RDF>
 </metadata>
 <defs>
  <style type="text/css">*{stroke-linejoin: round; stroke-linecap: butt}</style>
 </defs>
 <g id="figure_1">
  <g id="patch_1">
   <path d="M 0 432 
L 864 432 
L 864 0 
L 0 0 
z
" style="fill: #ffffff"/>
  </g>
  <g id="axes_1">
   <g id="patch_2">
    <path d="M 108 384.48 
L 777.6 384.48 
L 777.6 51.84 
L 108 51.84 
z
" style="fill: #ffffff"/>
   </g>
   <g id="matplotlib.axis_1">
    <g id="xtick_1">
     <g id="line2d_1">
      <defs>
       <path id="m3d1a1d6584" d="M 0 0 
L 0 3.5 
" style="stroke: #000000; stroke-width: 0.8"/>
      </defs>
      <g>
       <use xlink:href="#m3d1a1d6584" x="132.160825" y="384.48" style="stroke: #000000; stroke-width: 0.8"/>
      </g>
     </g>
     <g id="text_1">
      <!-- 0 -->
      <g transform="translate(128.979575 399.078438) scale(0.1 -0.1)">
       <defs>
        <path id="DejaVuSans-30" d="M 2034 4250 
Q 1547 4250 1301 3770 
Q 1056 3291 1056 2328 
Q 1056 1369 1301 889 
Q 1547 409 2034 409 
Q 2525 409 2770 889 
Q 3016 1369 3016 2328 
Q 3016 3291 2770 3770 
Q 2525 4250 2034 4250 
z
M 2034 4750 
Q 2819 4750 3233 4129 
Q 3647 3509 3647 2328 
Q 3647 1150 3233 529 
Q 2819 -91 2034 -91 
Q 1250 -91 836 529 
Q 422 1150 422 2328 
Q 422 3509 836 4129 
Q 1250 4750 2034 4750 
z
" transform="scale(0.015625)"/>
       </defs>
       <use xlink:href="#DejaVuSans-30"/>
      </g>
     </g>
    </g>
    <g id="xtick_2">
     <g id="line2d_2">
      <g>
       <use xlink:href="#m3d1a1d6584" x="257.671603" y="384.48" style="stroke: #000000; stroke-width: 0.8"/>
      </g>
     </g>
     <g id="text_2">
      <!-- 20 -->
      <g transform="translate(251.309103 399.078438) scale(0.1 -0.1)">
       <defs>
        <path id="DejaVuSans-32" d="M 1228 531 
L 3431 531 
L 3431 0 
L 469 0 
L 469 531 
Q 828 903 1448 1529 
Q 2069 2156 2228 2338 
Q 2531 2678 2651 2914 
Q 2772 3150 2772 3378 
Q 2772 3750 2511 3984 
Q 2250 4219 1831 4219 
Q 1534 4219 1204 4116 
Q 875 4013 500 3803 
L 500 4441 
Q 881 4594 1212 4672 
Q 1544 4750 1819 4750 
Q 2544 4750 2975 4387 
Q 3406 4025 3406 3419 
Q 3406 3131 3298 2873 
Q 3191 2616 2906 2266 
Q 2828 2175 2409 1742 
Q 1991 1309 1228 531 
z
" transform="scale(0.015625)"/>
       </defs>
       <use xlink:href="#DejaVuSans-32"/>
       <use xlink:href="#DejaVuSans-30" x="63.623047"/>
      </g>
     </g>
    </g>
    <g id="xtick_3">
     <g id="line2d_3">
      <g>
       <use xlink:href="#m3d1a1d6584" x="383.182381" y="384.48" style="stroke: #000000; stroke-width: 0.8"/>
      </g>
     </g>
     <g id="text_3">
      <!-- 40 -->
      <g transform="translate(376.819881 399.078438) scale(0.1 -0.1)">
       <defs>
        <path id="DejaVuSans-34" d="M 2419 4116 
L 825 1625 
L 2419 1625 
L 2419 4116 
z
M 2253 4666 
L 3047 4666 
L 3047 1625 
L 3713 1625 
L 3713 1100 
L 3047 1100 
L 3047 0 
L 2419 0 
L 2419 1100 
L 313 1100 
L 313 1709 
L 2253 4666 
z
" transform="scale(0.015625)"/>
       </defs>
       <use xlink:href="#DejaVuSans-34"/>
       <use xlink:href="#DejaVuSans-30" x="63.623047"/>
      </g>
     </g>
    </g>
    <g id="xtick_4">
     <g id="line2d_4">
      <g>
       <use xlink:href="#m3d1a1d6584" x="508.693158" y="384.48" style="stroke: #000000; stroke-width: 0.8"/>
      </g>
     </g>
     <g id="text_4">
      <!-- 60 -->
      <g transform="translate(502.330658 399.078438) scale(0.1 -0.1)">
       <defs>
        <path id="DejaVuSans-36" d="M 2113 2584 
Q 1688 2584 1439 2293 
Q 1191 2003 1191 1497 
Q 1191 994 1439 701 
Q 1688 409 2113 409 
Q 2538 409 2786 701 
Q 3034 994 3034 1497 
Q 3034 2003 2786 2293 
Q 2538 2584 2113 2584 
z
M 3366 4563 
L 3366 3988 
Q 3128 4100 2886 4159 
Q 2644 4219 2406 4219 
Q 1781 4219 1451 3797 
Q 1122 3375 1075 2522 
Q 1259 2794 1537 2939 
Q 1816 3084 2150 3084 
Q 2853 3084 3261 2657 
Q 3669 2231 3669 1497 
Q 3669 778 3244 343 
Q 2819 -91 2113 -91 
Q 1303 -91 875 529 
Q 447 1150 447 2328 
Q 447 3434 972 4092 
Q 1497 4750 2381 4750 
Q 2619 4750 2861 4703 
Q 3103 4656 3366 4563 
z
" transform="scale(0.015625)"/>
       </defs>
       <use xlink:href="#DejaVuSans-36"/>
       <use xlink:href="#DejaVuSans-30" x="63.623047"/>
      </g>
     </g>
    </g>
    <g id="xtick_5">
     <g id="line2d_5">
      <g>
       <use xlink:href="#m3d1a1d6584" x="634.203936" y="384.48" style="stroke: #000000; stroke-width: 0.8"/>
      </g>
     </g>
     <g id="text_5">
      <!-- 80 -->
      <g transform="translate(627.841436 399.078438) scale(0.1 -0.1)">
       <defs>
        <path id="DejaVuSans-38" d="M 2034 2216 
Q 1584 2216 1326 1975 
Q 1069 1734 1069 1313 
Q 1069 891 1326 650 
Q 1584 409 2034 409 
Q 2484 409 2743 651 
Q 3003 894 3003 1313 
Q 3003 1734 2745 1975 
Q 2488 2216 2034 2216 
z
M 1403 2484 
Q 997 2584 770 2862 
Q 544 3141 544 3541 
Q 544 4100 942 4425 
Q 1341 4750 2034 4750 
Q 2731 4750 3128 4425 
Q 3525 4100 3525 3541 
Q 3525 3141 3298 2862 
Q 3072 2584 2669 2484 
Q 3125 2378 3379 2068 
Q 3634 1759 3634 1313 
Q 3634 634 3220 271 
Q 2806 -91 2034 -91 
Q 1263 -91 848 271 
Q 434 634 434 1313 
Q 434 1759 690 2068 
Q 947 2378 1403 2484 
z
M 1172 3481 
Q 1172 3119 1398 2916 
Q 1625 2713 2034 2713 
Q 2441 2713 2670 2916 
Q 2900 3119 2900 3481 
Q 2900 3844 2670 4047 
Q 2441 4250 2034 4250 
Q 1625 4250 1398 4047 
Q 1172 3844 1172 3481 
z
" transform="scale(0.015625)"/>
       </defs>
       <use xlink:href="#DejaVuSans-38"/>
       <use xlink:href="#DejaVuSans-30" x="63.623047"/>
      </g>
     </g>
    </g>
    <g id="xtick_6">
     <g id="line2d_6">
      <g>
       <use xlink:href="#m3d1a1d6584" x="759.714714" y="384.48" style="stroke: #000000; stroke-width: 0.8"/>
      </g>
     </g>
     <g id="text_6">
      <!-- 100 -->
      <g transform="translate(750.170964 399.078438) scale(0.1 -0.1)">
       <defs>
        <path id="DejaVuSans-31" d="M 794 531 
L 1825 531 
L 1825 4091 
L 703 3866 
L 703 4441 
L 1819 4666 
L 2450 4666 
L 2450 531 
L 3481 531 
L 3481 0 
L 794 0 
L 794 531 
z
" transform="scale(0.015625)"/>
       </defs>
       <use xlink:href="#DejaVuSans-31"/>
       <use xlink:href="#DejaVuSans-30" x="63.623047"/>
       <use xlink:href="#DejaVuSans-30" x="127.246094"/>
      </g>
     </g>
    </g>
    <g id="text_7">
     <!-- Epochs -->
     <g transform="translate(424.884375 412.756563) scale(0.1 -0.1)">
      <defs>
       <path id="DejaVuSans-45" d="M 628 4666 
L 3578 4666 
L 3578 4134 
L 1259 4134 
L 1259 2753 
L 3481 2753 
L 3481 2222 
L 1259 2222 
L 1259 531 
L 3634 531 
L 3634 0 
L 628 0 
L 628 4666 
z
" transform="scale(0.015625)"/>
       <path id="DejaVuSans-70" d="M 1159 525 
L 1159 -1331 
L 581 -1331 
L 581 3500 
L 1159 3500 
L 1159 2969 
Q 1341 3281 1617 3432 
Q 1894 3584 2278 3584 
Q 2916 3584 3314 3078 
Q 3713 2572 3713 1747 
Q 3713 922 3314 415 
Q 2916 -91 2278 -91 
Q 1894 -91 1617 61 
Q 1341 213 1159 525 
z
M 3116 1747 
Q 3116 2381 2855 2742 
Q 2594 3103 2138 3103 
Q 1681 3103 1420 2742 
Q 1159 2381 1159 1747 
Q 1159 1113 1420 752 
Q 1681 391 2138 391 
Q 2594 391 2855 752 
Q 3116 1113 3116 1747 
z
" transform="scale(0.015625)"/>
       <path id="DejaVuSans-6f" d="M 1959 3097 
Q 1497 3097 1228 2736 
Q 959 2375 959 1747 
Q 959 1119 1226 758 
Q 1494 397 1959 397 
Q 2419 397 2687 759 
Q 2956 1122 2956 1747 
Q 2956 2369 2687 2733 
Q 2419 3097 1959 3097 
z
M 1959 3584 
Q 2709 3584 3137 3096 
Q 3566 2609 3566 1747 
Q 3566 888 3137 398 
Q 2709 -91 1959 -91 
Q 1206 -91 779 398 
Q 353 888 353 1747 
Q 353 2609 779 3096 
Q 1206 3584 1959 3584 
z
" transform="scale(0.015625)"/>
       <path id="DejaVuSans-63" d="M 3122 3366 
L 3122 2828 
Q 2878 2963 2633 3030 
Q 2388 3097 2138 3097 
Q 1578 3097 1268 2742 
Q 959 2388 959 1747 
Q 959 1106 1268 751 
Q 1578 397 2138 397 
Q 2388 397 2633 464 
Q 2878 531 3122 666 
L 3122 134 
Q 2881 22 2623 -34 
Q 2366 -91 2075 -91 
Q 1284 -91 818 406 
Q 353 903 353 1747 
Q 353 2603 823 3093 
Q 1294 3584 2113 3584 
Q 2378 3584 2631 3529 
Q 2884 3475 3122 3366 
z
" transform="scale(0.015625)"/>
       <path id="DejaVuSans-68" d="M 3513 2113 
L 3513 0 
L 2938 0 
L 2938 2094 
Q 2938 2591 2744 2837 
Q 2550 3084 2163 3084 
Q 1697 3084 1428 2787 
Q 1159 2491 1159 1978 
L 1159 0 
L 581 0 
L 581 4863 
L 1159 4863 
L 1159 2956 
Q 1366 3272 1645 3428 
Q 1925 3584 2291 3584 
Q 2894 3584 3203 3211 
Q 3513 2838 3513 2113 
z
" transform="scale(0.015625)"/>
       <path id="DejaVuSans-73" d="M 2834 3397 
L 2834 2853 
Q 2591 2978 2328 3040 
Q 2066 3103 1784 3103 
Q 1356 3103 1142 2972 
Q 928 2841 928 2578 
Q 928 2378 1081 2264 
Q 1234 2150 1697 2047 
L 1894 2003 
Q 2506 1872 2764 1633 
Q 3022 1394 3022 966 
Q 3022 478 2636 193 
Q 2250 -91 1575 -91 
Q 1294 -91 989 -36 
Q 684 19 347 128 
L 347 722 
Q 666 556 975 473 
Q 1284 391 1588 391 
Q 1994 391 2212 530 
Q 2431 669 2431 922 
Q 2431 1156 2273 1281 
Q 2116 1406 1581 1522 
L 1381 1569 
Q 847 1681 609 1914 
Q 372 2147 372 2553 
Q 372 3047 722 3315 
Q 1072 3584 1716 3584 
Q 2034 3584 2315 3537 
Q 2597 3491 2834 3397 
z
" transform="scale(0.015625)"/>
      </defs>
      <use xlink:href="#DejaVuSans-45"/>
      <use xlink:href="#DejaVuSans-70" x="63.183594"/>
      <use xlink:href="#DejaVuSans-6f" x="126.660156"/>
      <use xlink:href="#DejaVuSans-63" x="187.841797"/>
      <use xlink:href="#DejaVuSans-68" x="242.822266"/>
      <use xlink:href="#DejaVuSans-73" x="306.201172"/>
     </g>
    </g>
   </g>
   <g id="matplotlib.axis_2">
    <g id="ytick_1">
     <g id="line2d_7">
      <defs>
       <path id="me4967fba70" d="M 0 0 
L -3.5 0 
" style="stroke: #000000; stroke-width: 0.8"/>
      </defs>
      <g>
       <use xlink:href="#me4967fba70" x="108" y="365.876268" style="stroke: #000000; stroke-width: 0.8"/>
      </g>
     </g>
     <g id="text_8">
      <!-- 0.1 -->
      <g transform="translate(85.096875 369.675487) scale(0.1 -0.1)">
       <defs>
        <path id="DejaVuSans-2e" d="M 684 794 
L 1344 794 
L 1344 0 
L 684 0 
L 684 794 
z
" transform="scale(0.015625)"/>
       </defs>
       <use xlink:href="#DejaVuSans-30"/>
       <use xlink:href="#DejaVuSans-2e" x="63.623047"/>
       <use xlink:href="#DejaVuSans-31" x="95.410156"/>
      </g>
     </g>
    </g>
    <g id="ytick_2">
     <g id="line2d_8">
      <g>
       <use xlink:href="#me4967fba70" x="108" y="317.141581" style="stroke: #000000; stroke-width: 0.8"/>
      </g>
     </g>
     <g id="text_9">
      <!-- 0.2 -->
      <g transform="translate(85.096875 320.9408) scale(0.1 -0.1)">
       <use xlink:href="#DejaVuSans-30"/>
       <use xlink:href="#DejaVuSans-2e" x="63.623047"/>
       <use xlink:href="#DejaVuSans-32" x="95.410156"/>
      </g>
     </g>
    </g>
    <g id="ytick_3">
     <g id="line2d_9">
      <g>
       <use xlink:href="#me4967fba70" x="108" y="268.406893" style="stroke: #000000; stroke-width: 0.8"/>
      </g>
     </g>
     <g id="text_10">
      <!-- 0.3 -->
      <g transform="translate(85.096875 272.206112) scale(0.1 -0.1)">
       <defs>
        <path id="DejaVuSans-33" d="M 2597 2516 
Q 3050 2419 3304 2112 
Q 3559 1806 3559 1356 
Q 3559 666 3084 287 
Q 2609 -91 1734 -91 
Q 1441 -91 1130 -33 
Q 819 25 488 141 
L 488 750 
Q 750 597 1062 519 
Q 1375 441 1716 441 
Q 2309 441 2620 675 
Q 2931 909 2931 1356 
Q 2931 1769 2642 2001 
Q 2353 2234 1838 2234 
L 1294 2234 
L 1294 2753 
L 1863 2753 
Q 2328 2753 2575 2939 
Q 2822 3125 2822 3475 
Q 2822 3834 2567 4026 
Q 2313 4219 1838 4219 
Q 1578 4219 1281 4162 
Q 984 4106 628 3988 
L 628 4550 
Q 988 4650 1302 4700 
Q 1616 4750 1894 4750 
Q 2613 4750 3031 4423 
Q 3450 4097 3450 3541 
Q 3450 3153 3228 2886 
Q 3006 2619 2597 2516 
z
" transform="scale(0.015625)"/>
       </defs>
       <use xlink:href="#DejaVuSans-30"/>
       <use xlink:href="#DejaVuSans-2e" x="63.623047"/>
       <use xlink:href="#DejaVuSans-33" x="95.410156"/>
      </g>
     </g>
    </g>
    <g id="ytick_4">
     <g id="line2d_10">
      <g>
       <use xlink:href="#me4967fba70" x="108" y="219.672205" style="stroke: #000000; stroke-width: 0.8"/>
      </g>
     </g>
     <g id="text_11">
      <!-- 0.4 -->
      <g transform="translate(85.096875 223.471424) scale(0.1 -0.1)">
       <use xlink:href="#DejaVuSans-30"/>
       <use xlink:href="#DejaVuSans-2e" x="63.623047"/>
       <use xlink:href="#DejaVuSans-34" x="95.410156"/>
      </g>
     </g>
    </g>
    <g id="ytick_5">
     <g id="line2d_11">
      <g>
       <use xlink:href="#me4967fba70" x="108" y="170.937518" style="stroke: #000000; stroke-width: 0.8"/>
      </g>
     </g>
     <g id="text_12">
      <!-- 0.5 -->
      <g transform="translate(85.096875 174.736736) scale(0.1 -0.1)">
       <defs>
        <path id="DejaVuSans-35" d="M 691 4666 
L 3169 4666 
L 3169 4134 
L 1269 4134 
L 1269 2991 
Q 1406 3038 1543 3061 
Q 1681 3084 1819 3084 
Q 2600 3084 3056 2656 
Q 3513 2228 3513 1497 
Q 3513 744 3044 326 
Q 2575 -91 1722 -91 
Q 1428 -91 1123 -41 
Q 819 9 494 109 
L 494 744 
Q 775 591 1075 516 
Q 1375 441 1709 441 
Q 2250 441 2565 725 
Q 2881 1009 2881 1497 
Q 2881 1984 2565 2268 
Q 2250 2553 1709 2553 
Q 1456 2553 1204 2497 
Q 953 2441 691 2322 
L 691 4666 
z
" transform="scale(0.015625)"/>
       </defs>
       <use xlink:href="#DejaVuSans-30"/>
       <use xlink:href="#DejaVuSans-2e" x="63.623047"/>
       <use xlink:href="#DejaVuSans-35" x="95.410156"/>
      </g>
     </g>
    </g>
    <g id="ytick_6">
     <g id="line2d_12">
      <g>
       <use xlink:href="#me4967fba70" x="108" y="122.20283" style="stroke: #000000; stroke-width: 0.8"/>
      </g>
     </g>
     <g id="text_13">
      <!-- 0.6 -->
      <g transform="translate(85.096875 126.002049) scale(0.1 -0.1)">
       <use xlink:href="#DejaVuSans-30"/>
       <use xlink:href="#DejaVuSans-2e" x="63.623047"/>
       <use xlink:href="#DejaVuSans-36" x="95.410156"/>
      </g>
     </g>
    </g>
    <g id="ytick_7">
     <g id="line2d_13">
      <g>
       <use xlink:href="#me4967fba70" x="108" y="73.468142" style="stroke: #000000; stroke-width: 0.8"/>
      </g>
     </g>
     <g id="text_14">
      <!-- 0.7 -->
      <g transform="translate(85.096875 77.267361) scale(0.1 -0.1)">
       <defs>
        <path id="DejaVuSans-37" d="M 525 4666 
L 3525 4666 
L 3525 4397 
L 1831 0 
L 1172 0 
L 2766 4134 
L 525 4134 
L 525 4666 
z
" transform="scale(0.015625)"/>
       </defs>
       <use xlink:href="#DejaVuSans-30"/>
       <use xlink:href="#DejaVuSans-2e" x="63.623047"/>
       <use xlink:href="#DejaVuSans-37" x="95.410156"/>
      </g>
     </g>
    </g>
    <g id="text_15">
     <!-- Loss -->
     <g transform="translate(79.017187 229.127187) rotate(-90) scale(0.1 -0.1)">
      <defs>
       <path id="DejaVuSans-4c" d="M 628 4666 
L 1259 4666 
L 1259 531 
L 3531 531 
L 3531 0 
L 628 0 
L 628 4666 
z
" transform="scale(0.015625)"/>
      </defs>
      <use xlink:href="#DejaVuSans-4c"/>
      <use xlink:href="#DejaVuSans-6f" x="53.962891"/>
      <use xlink:href="#DejaVuSans-73" x="115.144531"/>
      <use xlink:href="#DejaVuSans-73" x="167.244141"/>
     </g>
    </g>
   </g>
   <g id="line2d_14">
    <path d="M 138.436364 79.864693 
L 144.711903 95.734504 
L 150.987441 106.61736 
L 157.26298 117.035794 
L 163.538519 125.016276 
L 169.814058 132.596097 
L 176.089597 137.523358 
L 182.365136 142.194531 
L 188.640675 146.298684 
L 194.916214 149.784025 
L 201.191753 153.05807 
L 207.467291 155.210653 
L 213.74283 158.052984 
L 220.018369 160.70473 
L 226.293908 162.165154 
L 232.569447 164.657659 
L 238.844986 165.438008 
L 245.120525 167.642326 
L 251.396064 170.247479 
L 257.671603 171.37597 
L 263.947142 172.861753 
L 270.22268 174.003912 
L 276.498219 175.944574 
L 282.773758 178.078625 
L 289.049297 180.009004 
L 295.324836 180.861044 
L 301.600375 182.989067 
L 307.875914 185.194431 
L 314.151453 186.342645 
L 320.426992 186.624485 
L 326.70253 189.663908 
L 332.978069 190.504503 
L 339.253608 193.278222 
L 345.529147 194.792255 
L 351.804686 195.951842 
L 358.080225 197.702413 
L 364.355764 198.971585 
L 370.631303 200.674822 
L 376.906842 203.052558 
L 383.182381 205.427083 
L 389.457919 206.982553 
L 395.733458 209.063692 
L 402.008997 210.03374 
L 408.284536 212.662437 
L 414.560075 215.030107 
L 420.835614 218.205344 
L 427.111153 220.409067 
L 433.386692 221.80024 
L 439.662231 224.855843 
L 445.937769 227.428534 
L 452.213308 230.109271 
L 458.488847 232.719435 
L 464.764386 235.540024 
L 471.039925 236.944821 
L 477.315464 240.545366 
L 483.591003 242.678981 
L 489.866542 246.280718 
L 496.142081 249.25484 
L 502.417619 252.594955 
L 508.693158 256.030972 
L 514.968697 258.231383 
L 521.244236 261.799351 
L 527.519775 265.109822 
L 533.795314 268.110219 
L 540.070853 271.22078 
L 546.346392 274.160089 
L 552.621931 277.771005 
L 558.89747 280.494297 
L 565.173008 284.187448 
L 571.448547 288.575125 
L 577.724086 290.334135 
L 583.999625 294.085477 
L 590.275164 298.409111 
L 596.550703 300.871122 
L 602.826242 304.370253 
L 609.101781 308.285078 
L 615.37732 311.097679 
L 621.652858 313.605107 
L 627.928397 317.427965 
L 634.203936 320.538214 
L 640.479475 323.443885 
L 646.755014 326.940787 
" clip-path="url(#p139916a16c)" style="fill: none; stroke: #1f77b4; stroke-width: 1.5; stroke-linecap: square"/>
   </g>
   <g id="line2d_15">
    <path d="M 138.436364 99.198785 
L 144.711903 111.316767 
L 150.987441 122.235904 
L 157.26298 130.636742 
L 163.538519 136.712014 
L 169.814058 143.347771 
L 176.089597 147.791642 
L 182.365136 152.258287 
L 188.640675 154.975595 
L 194.916214 157.662809 
L 201.191753 160.357082 
L 207.467291 162.143165 
L 213.74283 165.133787 
L 220.018369 166.678683 
L 226.293908 168.659417 
L 232.569447 171.282421 
L 238.844986 173.062999 
L 245.120525 173.707853 
L 251.396064 175.497175 
L 257.671603 177.457358 
L 263.947142 179.144532 
L 270.22268 180.171383 
L 276.498219 181.242025 
L 282.773758 184.129206 
L 289.049297 185.133313 
L 295.324836 185.873039 
L 301.600375 188.81775 
L 307.875914 189.418974 
L 314.151453 190.568728 
L 320.426992 193.004415 
L 326.70253 195.979568 
L 332.978069 197.220941 
L 339.253608 198.63557 
L 345.529147 200.638498 
L 351.804686 203.401121 
L 358.080225 204.025234 
L 364.355764 205.849196 
L 370.631303 207.596543 
L 376.906842 210.774308 
L 383.182381 212.138699 
L 389.457919 214.410002 
L 395.733458 217.451981 
L 402.008997 218.950806 
L 408.284536 221.74165 
L 414.560075 224.720624 
L 420.835614 226.376977 
L 427.111153 228.562167 
L 433.386692 232.37658 
L 439.662231 233.94181 
L 445.937769 237.189624 
L 452.213308 238.923478 
L 458.488847 241.81185 
L 464.764386 246.074243 
L 471.039925 246.797745 
L 477.315464 251.514233 
L 483.591003 254.017776 
L 489.866542 257.607923 
L 496.142081 259.799082 
L 502.417619 263.066823 
L 508.693158 266.042935 
L 514.968697 269.287932 
L 521.244236 272.786417 
L 527.519775 276.681206 
L 533.795314 281.145033 
L 540.070853 282.213351 
L 546.346392 286.088721 
L 552.621931 288.997137 
L 558.89747 292.818172 
L 565.173008 295.971725 
L 571.448547 299.05939 
L 577.724086 302.342512 
L 583.999625 305.437497 
L 590.275164 309.156254 
L 596.550703 311.287632 
L 602.826242 315.727284 
L 609.101781 317.348453 
L 615.37732 320.151889 
L 621.652858 323.775804 
L 627.928397 325.939817 
L 634.203936 329.524619 
L 640.479475 332.11763 
L 646.755014 334.26245 
L 653.030553 338.198494 
L 659.306092 339.595114 
L 665.581631 342.726445 
L 671.85717 344.919943 
L 678.132709 347.933244 
L 684.408247 350.306085 
L 690.683786 353.339567 
L 696.959325 355.047736 
L 703.234864 357.25669 
L 709.510403 357.60245 
L 715.785942 360.809895 
L 722.061481 362.849644 
L 728.33702 364.609947 
L 734.612559 366.442147 
L 740.888097 368.654519 
L 747.163636 369.36 
" clip-path="url(#p139916a16c)" style="fill: none; stroke: #ff7f0e; stroke-width: 1.5; stroke-linecap: square"/>
   </g>
   <g id="line2d_16">
    <path d="M 138.436364 81.206862 
L 144.711903 98.07439 
L 150.987441 112.246685 
L 157.26298 122.977677 
L 163.538519 132.257541 
L 169.814058 140.106667 
L 176.089597 146.290086 
L 182.365136 151.74611 
L 188.640675 154.738679 
L 194.916214 159.419379 
L 201.191753 163.013592 
L 207.467291 166.51093 
L 213.74283 168.627639 
L 220.018369 170.590538 
L 226.293908 173.127457 
L 232.569447 174.232157 
L 238.844986 175.895004 
L 245.120525 178.677496 
L 251.396064 180.381198 
L 257.671603 181.477678 
L 263.947142 183.891288 
L 270.22268 185.357333 
L 276.498219 186.935823 
L 282.773758 188.313968 
L 289.049297 190.300585 
L 295.324836 192.885128 
L 301.600375 194.641931 
L 307.875914 196.007411 
L 314.151453 198.911484 
L 320.426992 200.289324 
L 326.70253 202.296623 
L 332.978069 204.343922 
L 339.253608 206.244251 
L 345.529147 207.869683 
L 351.804686 210.158284 
L 358.080225 211.920707 
L 364.355764 213.881805 
L 370.631303 216.402021 
L 376.906842 218.606644 
L 383.182381 220.663441 
L 389.457919 223.038998 
L 395.733458 224.887273 
L 402.008997 226.867629 
L 408.284536 229.112949 
L 414.560075 231.232156 
L 420.835614 234.641361 
L 427.111153 237.671678 
L 433.386692 240.204036 
L 439.662231 242.471708 
L 445.937769 244.958722 
L 452.213308 247.730902 
L 458.488847 250.584054 
L 464.764386 254.911936 
L 471.039925 256.453187 
L 477.315464 261.472138 
L 483.591003 263.277146 
L 489.866542 266.071562 
L 496.142081 268.947967 
L 502.417619 272.72774 
L 508.693158 276.572188 
L 514.968697 279.769734 
L 521.244236 282.224941 
L 527.519775 286.100209 
L 533.795314 288.076165 
L 540.070853 292.842834 
L 546.346392 295.612705 
L 552.621931 299.811511 
L 558.89747 302.035865 
L 565.173008 306.125022 
L 571.448547 309.159928 
L 577.724086 312.481822 
L 583.999625 314.485047 
L 590.275164 317.906591 
L 596.550703 321.866963 
L 602.826242 324.668816 
L 609.101781 327.587072 
L 615.37732 330.424182 
L 621.652858 333.980828 
L 627.928397 336.452578 
L 634.203936 338.94135 
L 640.479475 342.238742 
L 646.755014 344.64607 
L 653.030553 347.938858 
L 659.306092 351.080131 
L 665.581631 352.349861 
L 671.85717 355.156546 
L 678.132709 359.019146 
L 684.408247 361.190553 
L 690.683786 362.851994 
" clip-path="url(#p139916a16c)" style="fill: none; stroke: #2ca02c; stroke-width: 1.5; stroke-linecap: square"/>
   </g>
   <g id="line2d_17">
    <path d="M 138.436364 76.845982 
L 144.711903 91.159684 
L 150.987441 104.533272 
L 157.26298 113.433389 
L 163.538519 122.34954 
L 169.814058 130.034283 
L 176.089597 136.850371 
L 182.365136 143.933846 
L 188.640675 148.57446 
L 194.916214 152.812438 
L 201.191753 157.162484 
L 207.467291 161.177866 
L 213.74283 164.202707 
L 220.018369 166.596303 
L 226.293908 169.147165 
L 232.569447 172.430113 
L 238.844986 174.297458 
L 245.120525 176.774189 
L 251.396064 179.730621 
L 257.671603 180.343842 
L 263.947142 183.166072 
L 270.22268 184.24996 
L 276.498219 185.76604 
L 282.773758 187.014209 
L 289.049297 189.398524 
L 295.324836 191.553562 
L 301.600375 192.708095 
L 307.875914 194.661262 
L 314.151453 196.288612 
L 320.426992 198.130481 
L 326.70253 199.990535 
L 332.978069 201.242975 
L 339.253608 203.651922 
L 345.529147 204.872627 
L 351.804686 207.239687 
L 358.080225 209.733615 
L 364.355764 211.595528 
L 370.631303 212.811613 
L 376.906842 215.084848 
L 383.182381 217.037275 
L 389.457919 219.2429 
L 395.733458 222.095543 
L 402.008997 224.281198 
L 408.284536 227.586266 
L 414.560075 228.531608 
L 420.835614 231.406212 
L 427.111153 233.825617 
L 433.386692 236.675995 
L 439.662231 239.385677 
L 445.937769 241.904296 
L 452.213308 245.823616 
L 458.488847 248.885609 
L 464.764386 251.689684 
L 471.039925 255.013793 
L 477.315464 257.123923 
L 483.591003 260.463282 
L 489.866542 264.01141 
L 496.142081 268.179891 
L 502.417619 270.241117 
L 508.693158 274.307697 
L 514.968697 276.934956 
L 521.244236 279.908919 
L 527.519775 283.392574 
L 533.795314 288.10745 
L 540.070853 290.606563 
L 546.346392 294.095767 
L 552.621931 297.776413 
L 558.89747 300.818022 
L 565.173008 304.546125 
L 571.448547 307.562128 
L 577.724086 312.523848 
L 583.999625 314.625386 
L 590.275164 317.766499 
L 596.550703 321.452642 
L 602.826242 324.701292 
L 609.101781 329.056893 
L 615.37732 331.158809 
L 621.652858 333.574764 
L 627.928397 336.088735 
L 634.203936 339.244198 
L 640.479475 341.91601 
" clip-path="url(#p139916a16c)" style="fill: none; stroke: #d62728; stroke-width: 1.5; stroke-linecap: square"/>
   </g>
   <g id="line2d_18">
    <path d="M 138.436364 66.96 
L 144.711903 82.887268 
L 150.987441 95.428569 
L 157.26298 106.90023 
L 163.538519 115.36968 
L 169.814058 124.024572 
L 176.089597 130.876273 
L 182.365136 137.375939 
L 188.640675 142.614422 
L 194.916214 147.756639 
L 201.191753 152.064536 
L 207.467291 155.35418 
L 213.74283 158.958124 
L 220.018369 161.995804 
L 226.293908 164.120268 
L 232.569447 167.993198 
L 238.844986 169.973381 
L 245.120525 172.2648 
L 251.396064 175.959723 
L 257.671603 177.650905 
L 263.947142 178.95691 
L 270.22268 181.137989 
L 276.498219 183.301523 
L 282.773758 184.584739 
L 289.049297 185.889814 
L 295.324836 188.819725 
L 301.600375 190.231218 
L 307.875914 191.558747 
L 314.151453 194.015522 
L 320.426992 195.631049 
L 326.70253 196.949544 
L 332.978069 199.579606 
L 339.253608 200.747079 
L 345.529147 202.099808 
L 351.804686 204.527375 
L 358.080225 205.756736 
L 364.355764 208.36995 
L 370.631303 210.014162 
L 376.906842 212.644006 
L 383.182381 213.999159 
L 389.457919 214.988176 
L 395.733458 217.823405 
L 402.008997 219.482126 
L 408.284536 221.850304 
L 414.560075 224.498013 
L 420.835614 227.147915 
L 427.111153 229.116115 
L 433.386692 231.61029 
L 439.662231 234.423951 
L 445.937769 236.432949 
L 452.213308 238.52607 
L 458.488847 240.736692 
L 464.764386 244.564612 
L 471.039925 246.369213 
L 477.315464 249.296176 
L 483.591003 252.855822 
L 489.866542 255.127052 
L 496.142081 258.083775 
L 502.417619 260.806515 
L 508.693158 263.599261 
L 514.968697 267.042888 
L 521.244236 269.768504 
L 527.519775 272.681103 
L 533.795314 275.995597 
L 540.070853 279.726583 
L 546.346392 282.971682 
L 552.621931 286.267207 
L 558.89747 289.043222 
L 565.173008 293.423543 
L 571.448547 295.703088 
L 577.724086 298.80219 
L 583.999625 302.326811 
L 590.275164 304.055059 
L 596.550703 308.300808 
L 602.826242 312.2698 
L 609.101781 315.1072 
L 615.37732 318.428448 
L 621.652858 320.019698 
L 627.928397 323.382165 
L 634.203936 326.389838 
L 640.479475 329.403183 
L 646.755014 332.743886 
L 653.030553 334.912816 
L 659.306092 337.945434 
L 665.581631 341.537926 
L 671.85717 342.834664 
L 678.132709 343.990882 
" clip-path="url(#p139916a16c)" style="fill: none; stroke: #9467bd; stroke-width: 1.5; stroke-linecap: square"/>
   </g>
   <g id="patch_3">
    <path d="M 108 384.48 
L 108 51.84 
" style="fill: none; stroke: #000000; stroke-width: 0.8; stroke-linejoin: miter; stroke-linecap: square"/>
   </g>
   <g id="patch_4">
    <path d="M 777.6 384.48 
L 777.6 51.84 
" style="fill: none; stroke: #000000; stroke-width: 0.8; stroke-linejoin: miter; stroke-linecap: square"/>
   </g>
   <g id="patch_5">
    <path d="M 108 384.48 
L 777.6 384.48 
" style="fill: none; stroke: #000000; stroke-width: 0.8; stroke-linejoin: miter; stroke-linecap: square"/>
   </g>
   <g id="patch_6">
    <path d="M 108 51.84 
L 777.6 51.84 
" style="fill: none; stroke: #000000; stroke-width: 0.8; stroke-linejoin: miter; stroke-linecap: square"/>
   </g>
   <g id="text_16">
    <!-- Training Loss for Each Fold -->
    <g transform="translate(363.140625 45.84) scale(0.12 -0.12)">
     <defs>
      <path id="DejaVuSans-54" d="M -19 4666 
L 3928 4666 
L 3928 4134 
L 2272 4134 
L 2272 0 
L 1638 0 
L 1638 4134 
L -19 4134 
L -19 4666 
z
" transform="scale(0.015625)"/>
      <path id="DejaVuSans-72" d="M 2631 2963 
Q 2534 3019 2420 3045 
Q 2306 3072 2169 3072 
Q 1681 3072 1420 2755 
Q 1159 2438 1159 1844 
L 1159 0 
L 581 0 
L 581 3500 
L 1159 3500 
L 1159 2956 
Q 1341 3275 1631 3429 
Q 1922 3584 2338 3584 
Q 2397 3584 2469 3576 
Q 2541 3569 2628 3553 
L 2631 2963 
z
" transform="scale(0.015625)"/>
      <path id="DejaVuSans-61" d="M 2194 1759 
Q 1497 1759 1228 1600 
Q 959 1441 959 1056 
Q 959 750 1161 570 
Q 1363 391 1709 391 
Q 2188 391 2477 730 
Q 2766 1069 2766 1631 
L 2766 1759 
L 2194 1759 
z
M 3341 1997 
L 3341 0 
L 2766 0 
L 2766 531 
Q 2569 213 2275 61 
Q 1981 -91 1556 -91 
Q 1019 -91 701 211 
Q 384 513 384 1019 
Q 384 1609 779 1909 
Q 1175 2209 1959 2209 
L 2766 2209 
L 2766 2266 
Q 2766 2663 2505 2880 
Q 2244 3097 1772 3097 
Q 1472 3097 1187 3025 
Q 903 2953 641 2809 
L 641 3341 
Q 956 3463 1253 3523 
Q 1550 3584 1831 3584 
Q 2591 3584 2966 3190 
Q 3341 2797 3341 1997 
z
" transform="scale(0.015625)"/>
      <path id="DejaVuSans-69" d="M 603 3500 
L 1178 3500 
L 1178 0 
L 603 0 
L 603 3500 
z
M 603 4863 
L 1178 4863 
L 1178 4134 
L 603 4134 
L 603 4863 
z
" transform="scale(0.015625)"/>
      <path id="DejaVuSans-6e" d="M 3513 2113 
L 3513 0 
L 2938 0 
L 2938 2094 
Q 2938 2591 2744 2837 
Q 2550 3084 2163 3084 
Q 1697 3084 1428 2787 
Q 1159 2491 1159 1978 
L 1159 0 
L 581 0 
L 581 3500 
L 1159 3500 
L 1159 2956 
Q 1366 3272 1645 3428 
Q 1925 3584 2291 3584 
Q 2894 3584 3203 3211 
Q 3513 2838 3513 2113 
z
" transform="scale(0.015625)"/>
      <path id="DejaVuSans-67" d="M 2906 1791 
Q 2906 2416 2648 2759 
Q 2391 3103 1925 3103 
Q 1463 3103 1205 2759 
Q 947 2416 947 1791 
Q 947 1169 1205 825 
Q 1463 481 1925 481 
Q 2391 481 2648 825 
Q 2906 1169 2906 1791 
z
M 3481 434 
Q 3481 -459 3084 -895 
Q 2688 -1331 1869 -1331 
Q 1566 -1331 1297 -1286 
Q 1028 -1241 775 -1147 
L 775 -588 
Q 1028 -725 1275 -790 
Q 1522 -856 1778 -856 
Q 2344 -856 2625 -561 
Q 2906 -266 2906 331 
L 2906 616 
Q 2728 306 2450 153 
Q 2172 0 1784 0 
Q 1141 0 747 490 
Q 353 981 353 1791 
Q 353 2603 747 3093 
Q 1141 3584 1784 3584 
Q 2172 3584 2450 3431 
Q 2728 3278 2906 2969 
L 2906 3500 
L 3481 3500 
L 3481 434 
z
" transform="scale(0.015625)"/>
      <path id="DejaVuSans-20" transform="scale(0.015625)"/>
      <path id="DejaVuSans-66" d="M 2375 4863 
L 2375 4384 
L 1825 4384 
Q 1516 4384 1395 4259 
Q 1275 4134 1275 3809 
L 1275 3500 
L 2222 3500 
L 2222 3053 
L 1275 3053 
L 1275 0 
L 697 0 
L 697 3053 
L 147 3053 
L 147 3500 
L 697 3500 
L 697 3744 
Q 697 4328 969 4595 
Q 1241 4863 1831 4863 
L 2375 4863 
z
" transform="scale(0.015625)"/>
      <path id="DejaVuSans-46" d="M 628 4666 
L 3309 4666 
L 3309 4134 
L 1259 4134 
L 1259 2759 
L 3109 2759 
L 3109 2228 
L 1259 2228 
L 1259 0 
L 628 0 
L 628 4666 
z
" transform="scale(0.015625)"/>
      <path id="DejaVuSans-6c" d="M 603 4863 
L 1178 4863 
L 1178 0 
L 603 0 
L 603 4863 
z
" transform="scale(0.015625)"/>
      <path id="DejaVuSans-64" d="M 2906 2969 
L 2906 4863 
L 3481 4863 
L 3481 0 
L 2906 0 
L 2906 525 
Q 2725 213 2448 61 
Q 2172 -91 1784 -91 
Q 1150 -91 751 415 
Q 353 922 353 1747 
Q 353 2572 751 3078 
Q 1150 3584 1784 3584 
Q 2172 3584 2448 3432 
Q 2725 3281 2906 2969 
z
M 947 1747 
Q 947 1113 1208 752 
Q 1469 391 1925 391 
Q 2381 391 2643 752 
Q 2906 1113 2906 1747 
Q 2906 2381 2643 2742 
Q 2381 3103 1925 3103 
Q 1469 3103 1208 2742 
Q 947 2381 947 1747 
z
" transform="scale(0.015625)"/>
     </defs>
     <use xlink:href="#DejaVuSans-54"/>
     <use xlink:href="#DejaVuSans-72" x="46.333984"/>
     <use xlink:href="#DejaVuSans-61" x="87.447266"/>
     <use xlink:href="#DejaVuSans-69" x="148.726562"/>
     <use xlink:href="#DejaVuSans-6e" x="176.509766"/>
     <use xlink:href="#DejaVuSans-69" x="239.888672"/>
     <use xlink:href="#DejaVuSans-6e" x="267.671875"/>
     <use xlink:href="#DejaVuSans-67" x="331.050781"/>
     <use xlink:href="#DejaVuSans-20" x="394.527344"/>
     <use xlink:href="#DejaVuSans-4c" x="426.314453"/>
     <use xlink:href="#DejaVuSans-6f" x="480.277344"/>
     <use xlink:href="#DejaVuSans-73" x="541.458984"/>
     <use xlink:href="#DejaVuSans-73" x="593.558594"/>
     <use xlink:href="#DejaVuSans-20" x="645.658203"/>
     <use xlink:href="#DejaVuSans-66" x="677.445312"/>
     <use xlink:href="#DejaVuSans-6f" x="712.650391"/>
     <use xlink:href="#DejaVuSans-72" x="773.832031"/>
     <use xlink:href="#DejaVuSans-20" x="814.945312"/>
     <use xlink:href="#DejaVuSans-45" x="846.732422"/>
     <use xlink:href="#DejaVuSans-61" x="909.916016"/>
     <use xlink:href="#DejaVuSans-63" x="971.195312"/>
     <use xlink:href="#DejaVuSans-68" x="1026.175781"/>
     <use xlink:href="#DejaVuSans-20" x="1089.554688"/>
     <use xlink:href="#DejaVuSans-46" x="1121.341797"/>
     <use xlink:href="#DejaVuSans-6f" x="1175.236328"/>
     <use xlink:href="#DejaVuSans-6c" x="1236.417969"/>
     <use xlink:href="#DejaVuSans-64" x="1264.201172"/>
    </g>
   </g>
   <g id="legend_1">
    <g id="patch_7">
     <path d="M 640.682812 133.230625 
L 770.6 133.230625 
Q 772.6 133.230625 772.6 131.230625 
L 772.6 58.84 
Q 772.6 56.84 770.6 56.84 
L 640.682812 56.84 
Q 638.682812 56.84 638.682812 58.84 
L 638.682812 131.230625 
Q 638.682812 133.230625 640.682812 133.230625 
z
" style="fill: #ffffff; opacity: 0.8; stroke: #cccccc; stroke-linejoin: miter"/>
    </g>
    <g id="line2d_19">
     <path d="M 642.682812 64.938437 
L 652.682812 64.938437 
L 662.682812 64.938437 
" style="fill: none; stroke: #1f77b4; stroke-width: 1.5; stroke-linecap: square"/>
    </g>
    <g id="text_17">
     <!-- Fold 1 Training Loss -->
     <g transform="translate(670.682812 68.438437) scale(0.1 -0.1)">
      <use xlink:href="#DejaVuSans-46"/>
      <use xlink:href="#DejaVuSans-6f" x="53.894531"/>
      <use xlink:href="#DejaVuSans-6c" x="115.076172"/>
      <use xlink:href="#DejaVuSans-64" x="142.859375"/>
      <use xlink:href="#DejaVuSans-20" x="206.335938"/>
      <use xlink:href="#DejaVuSans-31" x="238.123047"/>
      <use xlink:href="#DejaVuSans-20" x="301.746094"/>
      <use xlink:href="#DejaVuSans-54" x="333.533203"/>
      <use xlink:href="#DejaVuSans-72" x="379.867188"/>
      <use xlink:href="#DejaVuSans-61" x="420.980469"/>
      <use xlink:href="#DejaVuSans-69" x="482.259766"/>
      <use xlink:href="#DejaVuSans-6e" x="510.042969"/>
      <use xlink:href="#DejaVuSans-69" x="573.421875"/>
      <use xlink:href="#DejaVuSans-6e" x="601.205078"/>
      <use xlink:href="#DejaVuSans-67" x="664.583984"/>
      <use xlink:href="#DejaVuSans-20" x="728.060547"/>
      <use xlink:href="#DejaVuSans-4c" x="759.847656"/>
      <use xlink:href="#DejaVuSans-6f" x="813.810547"/>
      <use xlink:href="#DejaVuSans-73" x="874.992188"/>
      <use xlink:href="#DejaVuSans-73" x="927.091797"/>
     </g>
    </g>
    <g id="line2d_20">
     <path d="M 642.682812 79.616562 
L 652.682812 79.616562 
L 662.682812 79.616562 
" style="fill: none; stroke: #ff7f0e; stroke-width: 1.5; stroke-linecap: square"/>
    </g>
    <g id="text_18">
     <!-- Fold 2 Training Loss -->
     <g transform="translate(670.682812 83.116562) scale(0.1 -0.1)">
      <use xlink:href="#DejaVuSans-46"/>
      <use xlink:href="#DejaVuSans-6f" x="53.894531"/>
      <use xlink:href="#DejaVuSans-6c" x="115.076172"/>
      <use xlink:href="#DejaVuSans-64" x="142.859375"/>
      <use xlink:href="#DejaVuSans-20" x="206.335938"/>
      <use xlink:href="#DejaVuSans-32" x="238.123047"/>
      <use xlink:href="#DejaVuSans-20" x="301.746094"/>
      <use xlink:href="#DejaVuSans-54" x="333.533203"/>
      <use xlink:href="#DejaVuSans-72" x="379.867188"/>
      <use xlink:href="#DejaVuSans-61" x="420.980469"/>
      <use xlink:href="#DejaVuSans-69" x="482.259766"/>
      <use xlink:href="#DejaVuSans-6e" x="510.042969"/>
      <use xlink:href="#DejaVuSans-69" x="573.421875"/>
      <use xlink:href="#DejaVuSans-6e" x="601.205078"/>
      <use xlink:href="#DejaVuSans-67" x="664.583984"/>
      <use xlink:href="#DejaVuSans-20" x="728.060547"/>
      <use xlink:href="#DejaVuSans-4c" x="759.847656"/>
      <use xlink:href="#DejaVuSans-6f" x="813.810547"/>
      <use xlink:href="#DejaVuSans-73" x="874.992188"/>
      <use xlink:href="#DejaVuSans-73" x="927.091797"/>
     </g>
    </g>
    <g id="line2d_21">
     <path d="M 642.682812 94.294687 
L 652.682812 94.294687 
L 662.682812 94.294687 
" style="fill: none; stroke: #2ca02c; stroke-width: 1.5; stroke-linecap: square"/>
    </g>
    <g id="text_19">
     <!-- Fold 3 Training Loss -->
     <g transform="translate(670.682812 97.794687) scale(0.1 -0.1)">
      <use xlink:href="#DejaVuSans-46"/>
      <use xlink:href="#DejaVuSans-6f" x="53.894531"/>
      <use xlink:href="#DejaVuSans-6c" x="115.076172"/>
      <use xlink:href="#DejaVuSans-64" x="142.859375"/>
      <use xlink:href="#DejaVuSans-20" x="206.335938"/>
      <use xlink:href="#DejaVuSans-33" x="238.123047"/>
      <use xlink:href="#DejaVuSans-20" x="301.746094"/>
      <use xlink:href="#DejaVuSans-54" x="333.533203"/>
      <use xlink:href="#DejaVuSans-72" x="379.867188"/>
      <use xlink:href="#DejaVuSans-61" x="420.980469"/>
      <use xlink:href="#DejaVuSans-69" x="482.259766"/>
      <use xlink:href="#DejaVuSans-6e" x="510.042969"/>
      <use xlink:href="#DejaVuSans-69" x="573.421875"/>
      <use xlink:href="#DejaVuSans-6e" x="601.205078"/>
      <use xlink:href="#DejaVuSans-67" x="664.583984"/>
      <use xlink:href="#DejaVuSans-20" x="728.060547"/>
      <use xlink:href="#DejaVuSans-4c" x="759.847656"/>
      <use xlink:href="#DejaVuSans-6f" x="813.810547"/>
      <use xlink:href="#DejaVuSans-73" x="874.992188"/>
      <use xlink:href="#DejaVuSans-73" x="927.091797"/>
     </g>
    </g>
    <g id="line2d_22">
     <path d="M 642.682812 108.972812 
L 652.682812 108.972812 
L 662.682812 108.972812 
" style="fill: none; stroke: #d62728; stroke-width: 1.5; stroke-linecap: square"/>
    </g>
    <g id="text_20">
     <!-- Fold 4 Training Loss -->
     <g transform="translate(670.682812 112.472812) scale(0.1 -0.1)">
      <use xlink:href="#DejaVuSans-46"/>
      <use xlink:href="#DejaVuSans-6f" x="53.894531"/>
      <use xlink:href="#DejaVuSans-6c" x="115.076172"/>
      <use xlink:href="#DejaVuSans-64" x="142.859375"/>
      <use xlink:href="#DejaVuSans-20" x="206.335938"/>
      <use xlink:href="#DejaVuSans-34" x="238.123047"/>
      <use xlink:href="#DejaVuSans-20" x="301.746094"/>
      <use xlink:href="#DejaVuSans-54" x="333.533203"/>
      <use xlink:href="#DejaVuSans-72" x="379.867188"/>
      <use xlink:href="#DejaVuSans-61" x="420.980469"/>
      <use xlink:href="#DejaVuSans-69" x="482.259766"/>
      <use xlink:href="#DejaVuSans-6e" x="510.042969"/>
      <use xlink:href="#DejaVuSans-69" x="573.421875"/>
      <use xlink:href="#DejaVuSans-6e" x="601.205078"/>
      <use xlink:href="#DejaVuSans-67" x="664.583984"/>
      <use xlink:href="#DejaVuSans-20" x="728.060547"/>
      <use xlink:href="#DejaVuSans-4c" x="759.847656"/>
      <use xlink:href="#DejaVuSans-6f" x="813.810547"/>
      <use xlink:href="#DejaVuSans-73" x="874.992188"/>
      <use xlink:href="#DejaVuSans-73" x="927.091797"/>
     </g>
    </g>
    <g id="line2d_23">
     <path d="M 642.682812 123.650937 
L 652.682812 123.650937 
L 662.682812 123.650937 
" style="fill: none; stroke: #9467bd; stroke-width: 1.5; stroke-linecap: square"/>
    </g>
    <g id="text_21">
     <!-- Fold 5 Training Loss -->
     <g transform="translate(670.682812 127.150937) scale(0.1 -0.1)">
      <use xlink:href="#DejaVuSans-46"/>
      <use xlink:href="#DejaVuSans-6f" x="53.894531"/>
      <use xlink:href="#DejaVuSans-6c" x="115.076172"/>
      <use xlink:href="#DejaVuSans-64" x="142.859375"/>
      <use xlink:href="#DejaVuSans-20" x="206.335938"/>
      <use xlink:href="#DejaVuSans-35" x="238.123047"/>
      <use xlink:href="#DejaVuSans-20" x="301.746094"/>
      <use xlink:href="#DejaVuSans-54" x="333.533203"/>
      <use xlink:href="#DejaVuSans-72" x="379.867188"/>
      <use xlink:href="#DejaVuSans-61" x="420.980469"/>
      <use xlink:href="#DejaVuSans-69" x="482.259766"/>
      <use xlink:href="#DejaVuSans-6e" x="510.042969"/>
      <use xlink:href="#DejaVuSans-69" x="573.421875"/>
      <use xlink:href="#DejaVuSans-6e" x="601.205078"/>
      <use xlink:href="#DejaVuSans-67" x="664.583984"/>
      <use xlink:href="#DejaVuSans-20" x="728.060547"/>
      <use xlink:href="#DejaVuSans-4c" x="759.847656"/>
      <use xlink:href="#DejaVuSans-6f" x="813.810547"/>
      <use xlink:href="#DejaVuSans-73" x="874.992188"/>
      <use xlink:href="#DejaVuSans-73" x="927.091797"/>
     </g>
    </g>
   </g>
  </g>
 </g>
 <defs>
  <clipPath id="p139916a16c">
   <rect x="108" y="51.84" width="669.6" height="332.64"/>
  </clipPath>
 </defs>
</svg>
