<?xml version="1.0" encoding="utf-8" standalone="no"?>
<!DOCTYPE svg PUBLIC "-//W3C//DTD SVG 1.1//EN"
  "http://www.w3.org/Graphics/SVG/1.1/DTD/svg11.dtd">
<svg xmlns:xlink="http://www.w3.org/1999/xlink" width="864pt" height="432pt" viewBox="0 0 864 432" xmlns="http://www.w3.org/2000/svg" version="1.1">
 <metadata>
  <rdf:RDF xmlns:dc="http://purl.org/dc/elements/1.1/" xmlns:cc="http://creativecommons.org/ns#" xmlns:rdf="http://www.w3.org/1999/02/22-rdf-syntax-ns#">
   <cc:Work>
    <dc:type rdf:resource="http://purl.org/dc/dcmitype/StillImage"/>
    <dc:date>2025-02-15T19:55:15.972781</dc:date>
    <dc:format>image/svg+xml</dc:format>
    <dc:creator>
     <cc:Agent>
      <dc:title>Matplotlib v3.10.0, https://matplotlib.org/</dc:title>
     </cc:Agent>
    </dc:creator>
   </cc:Work>
  </rdf:RDF>
 </metadata>
 <defs>
  <style type="text/css">*{stroke-linejoin: round; stroke-linecap: butt}</style>
 </defs>
 <g id="figure_1">
  <g id="patch_1">
   <path d="M 0 432 
L 864 432 
L 864 0 
L 0 0 
z
" style="fill: #ffffff"/>
  </g>
  <g id="axes_1">
   <g id="patch_2">
    <path d="M 108 384.48 
L 777.6 384.48 
L 777.6 51.84 
L 108 51.84 
z
" style="fill: #ffffff"/>
   </g>
   <g id="matplotlib.axis_1">
    <g id="xtick_1">
     <g id="line2d_1">
      <defs>
       <path id="me2f9be071a" d="M 0 0 
L 0 3.5 
" style="stroke: #000000; stroke-width: 0.8"/>
      </defs>
      <g>
       <use xlink:href="#me2f9be071a" x="192.147594" y="384.48" style="stroke: #000000; stroke-width: 0.8"/>
      </g>
     </g>
     <g id="text_1">
      <!-- 2.5 -->
      <g transform="translate(184.196031 399.078438) scale(0.1 -0.1)">
       <defs>
        <path id="DejaVuSans-32" d="M 1228 531 
L 3431 531 
L 3431 0 
L 469 0 
L 469 531 
Q 828 903 1448 1529 
Q 2069 2156 2228 2338 
Q 2531 2678 2651 2914 
Q 2772 3150 2772 3378 
Q 2772 3750 2511 3984 
Q 2250 4219 1831 4219 
Q 1534 4219 1204 4116 
Q 875 4013 500 3803 
L 500 4441 
Q 881 4594 1212 4672 
Q 1544 4750 1819 4750 
Q 2544 4750 2975 4387 
Q 3406 4025 3406 3419 
Q 3406 3131 3298 2873 
Q 3191 2616 2906 2266 
Q 2828 2175 2409 1742 
Q 1991 1309 1228 531 
z
" transform="scale(0.015625)"/>
        <path id="DejaVuSans-2e" d="M 684 794 
L 1344 794 
L 1344 0 
L 684 0 
L 684 794 
z
" transform="scale(0.015625)"/>
        <path id="DejaVuSans-35" d="M 691 4666 
L 3169 4666 
L 3169 4134 
L 1269 4134 
L 1269 2991 
Q 1406 3038 1543 3061 
Q 1681 3084 1819 3084 
Q 2600 3084 3056 2656 
Q 3513 2228 3513 1497 
Q 3513 744 3044 326 
Q 2575 -91 1722 -91 
Q 1428 -91 1123 -41 
Q 819 9 494 109 
L 494 744 
Q 775 591 1075 516 
Q 1375 441 1709 441 
Q 2250 441 2565 725 
Q 2881 1009 2881 1497 
Q 2881 1984 2565 2268 
Q 2250 2553 1709 2553 
Q 1456 2553 1204 2497 
Q 953 2441 691 2322 
L 691 4666 
z
" transform="scale(0.015625)"/>
       </defs>
       <use xlink:href="#DejaVuSans-32"/>
       <use xlink:href="#DejaVuSans-2e" transform="translate(63.623047 0)"/>
       <use xlink:href="#DejaVuSans-35" transform="translate(95.410156 0)"/>
      </g>
     </g>
    </g>
    <g id="xtick_2">
     <g id="line2d_2">
      <g>
       <use xlink:href="#me2f9be071a" x="281.66631" y="384.48" style="stroke: #000000; stroke-width: 0.8"/>
      </g>
     </g>
     <g id="text_2">
      <!-- 5.0 -->
      <g transform="translate(273.714748 399.078438) scale(0.1 -0.1)">
       <defs>
        <path id="DejaVuSans-30" d="M 2034 4250 
Q 1547 4250 1301 3770 
Q 1056 3291 1056 2328 
Q 1056 1369 1301 889 
Q 1547 409 2034 409 
Q 2525 409 2770 889 
Q 3016 1369 3016 2328 
Q 3016 3291 2770 3770 
Q 2525 4250 2034 4250 
z
M 2034 4750 
Q 2819 4750 3233 4129 
Q 3647 3509 3647 2328 
Q 3647 1150 3233 529 
Q 2819 -91 2034 -91 
Q 1250 -91 836 529 
Q 422 1150 422 2328 
Q 422 3509 836 4129 
Q 1250 4750 2034 4750 
z
" transform="scale(0.015625)"/>
       </defs>
       <use xlink:href="#DejaVuSans-35"/>
       <use xlink:href="#DejaVuSans-2e" transform="translate(63.623047 0)"/>
       <use xlink:href="#DejaVuSans-30" transform="translate(95.410156 0)"/>
      </g>
     </g>
    </g>
    <g id="xtick_3">
     <g id="line2d_3">
      <g>
       <use xlink:href="#me2f9be071a" x="371.185027" y="384.48" style="stroke: #000000; stroke-width: 0.8"/>
      </g>
     </g>
     <g id="text_3">
      <!-- 7.5 -->
      <g transform="translate(363.233464 399.078438) scale(0.1 -0.1)">
       <defs>
        <path id="DejaVuSans-37" d="M 525 4666 
L 3525 4666 
L 3525 4397 
L 1831 0 
L 1172 0 
L 2766 4134 
L 525 4134 
L 525 4666 
z
" transform="scale(0.015625)"/>
       </defs>
       <use xlink:href="#DejaVuSans-37"/>
       <use xlink:href="#DejaVuSans-2e" transform="translate(63.623047 0)"/>
       <use xlink:href="#DejaVuSans-35" transform="translate(95.410156 0)"/>
      </g>
     </g>
    </g>
    <g id="xtick_4">
     <g id="line2d_4">
      <g>
       <use xlink:href="#me2f9be071a" x="460.703743" y="384.48" style="stroke: #000000; stroke-width: 0.8"/>
      </g>
     </g>
     <g id="text_4">
      <!-- 10.0 -->
      <g transform="translate(449.570931 399.078438) scale(0.1 -0.1)">
       <defs>
        <path id="DejaVuSans-31" d="M 794 531 
L 1825 531 
L 1825 4091 
L 703 3866 
L 703 4441 
L 1819 4666 
L 2450 4666 
L 2450 531 
L 3481 531 
L 3481 0 
L 794 0 
L 794 531 
z
" transform="scale(0.015625)"/>
       </defs>
       <use xlink:href="#DejaVuSans-31"/>
       <use xlink:href="#DejaVuSans-30" transform="translate(63.623047 0)"/>
       <use xlink:href="#DejaVuSans-2e" transform="translate(127.246094 0)"/>
       <use xlink:href="#DejaVuSans-30" transform="translate(159.033203 0)"/>
      </g>
     </g>
    </g>
    <g id="xtick_5">
     <g id="line2d_5">
      <g>
       <use xlink:href="#me2f9be071a" x="550.22246" y="384.48" style="stroke: #000000; stroke-width: 0.8"/>
      </g>
     </g>
     <g id="text_5">
      <!-- 12.5 -->
      <g transform="translate(539.089647 399.078438) scale(0.1 -0.1)">
       <use xlink:href="#DejaVuSans-31"/>
       <use xlink:href="#DejaVuSans-32" transform="translate(63.623047 0)"/>
       <use xlink:href="#DejaVuSans-2e" transform="translate(127.246094 0)"/>
       <use xlink:href="#DejaVuSans-35" transform="translate(159.033203 0)"/>
      </g>
     </g>
    </g>
    <g id="xtick_6">
     <g id="line2d_6">
      <g>
       <use xlink:href="#me2f9be071a" x="639.741176" y="384.48" style="stroke: #000000; stroke-width: 0.8"/>
      </g>
     </g>
     <g id="text_6">
      <!-- 15.0 -->
      <g transform="translate(628.608364 399.078438) scale(0.1 -0.1)">
       <use xlink:href="#DejaVuSans-31"/>
       <use xlink:href="#DejaVuSans-35" transform="translate(63.623047 0)"/>
       <use xlink:href="#DejaVuSans-2e" transform="translate(127.246094 0)"/>
       <use xlink:href="#DejaVuSans-30" transform="translate(159.033203 0)"/>
      </g>
     </g>
    </g>
    <g id="xtick_7">
     <g id="line2d_7">
      <g>
       <use xlink:href="#me2f9be071a" x="729.259893" y="384.48" style="stroke: #000000; stroke-width: 0.8"/>
      </g>
     </g>
     <g id="text_7">
      <!-- 17.5 -->
      <g transform="translate(718.127081 399.078438) scale(0.1 -0.1)">
       <use xlink:href="#DejaVuSans-31"/>
       <use xlink:href="#DejaVuSans-37" transform="translate(63.623047 0)"/>
       <use xlink:href="#DejaVuSans-2e" transform="translate(127.246094 0)"/>
       <use xlink:href="#DejaVuSans-35" transform="translate(159.033203 0)"/>
      </g>
     </g>
    </g>
    <g id="text_8">
     <!-- Epochs -->
     <g transform="translate(424.884375 412.756563) scale(0.1 -0.1)">
      <defs>
       <path id="DejaVuSans-45" d="M 628 4666 
L 3578 4666 
L 3578 4134 
L 1259 4134 
L 1259 2753 
L 3481 2753 
L 3481 2222 
L 1259 2222 
L 1259 531 
L 3634 531 
L 3634 0 
L 628 0 
L 628 4666 
z
" transform="scale(0.015625)"/>
       <path id="DejaVuSans-70" d="M 1159 525 
L 1159 -1331 
L 581 -1331 
L 581 3500 
L 1159 3500 
L 1159 2969 
Q 1341 3281 1617 3432 
Q 1894 3584 2278 3584 
Q 2916 3584 3314 3078 
Q 3713 2572 3713 1747 
Q 3713 922 3314 415 
Q 2916 -91 2278 -91 
Q 1894 -91 1617 61 
Q 1341 213 1159 525 
z
M 3116 1747 
Q 3116 2381 2855 2742 
Q 2594 3103 2138 3103 
Q 1681 3103 1420 2742 
Q 1159 2381 1159 1747 
Q 1159 1113 1420 752 
Q 1681 391 2138 391 
Q 2594 391 2855 752 
Q 3116 1113 3116 1747 
z
" transform="scale(0.015625)"/>
       <path id="DejaVuSans-6f" d="M 1959 3097 
Q 1497 3097 1228 2736 
Q 959 2375 959 1747 
Q 959 1119 1226 758 
Q 1494 397 1959 397 
Q 2419 397 2687 759 
Q 2956 1122 2956 1747 
Q 2956 2369 2687 2733 
Q 2419 3097 1959 3097 
z
M 1959 3584 
Q 2709 3584 3137 3096 
Q 3566 2609 3566 1747 
Q 3566 888 3137 398 
Q 2709 -91 1959 -91 
Q 1206 -91 779 398 
Q 353 888 353 1747 
Q 353 2609 779 3096 
Q 1206 3584 1959 3584 
z
" transform="scale(0.015625)"/>
       <path id="DejaVuSans-63" d="M 3122 3366 
L 3122 2828 
Q 2878 2963 2633 3030 
Q 2388 3097 2138 3097 
Q 1578 3097 1268 2742 
Q 959 2388 959 1747 
Q 959 1106 1268 751 
Q 1578 397 2138 397 
Q 2388 397 2633 464 
Q 2878 531 3122 666 
L 3122 134 
Q 2881 22 2623 -34 
Q 2366 -91 2075 -91 
Q 1284 -91 818 406 
Q 353 903 353 1747 
Q 353 2603 823 3093 
Q 1294 3584 2113 3584 
Q 2378 3584 2631 3529 
Q 2884 3475 3122 3366 
z
" transform="scale(0.015625)"/>
       <path id="DejaVuSans-68" d="M 3513 2113 
L 3513 0 
L 2938 0 
L 2938 2094 
Q 2938 2591 2744 2837 
Q 2550 3084 2163 3084 
Q 1697 3084 1428 2787 
Q 1159 2491 1159 1978 
L 1159 0 
L 581 0 
L 581 4863 
L 1159 4863 
L 1159 2956 
Q 1366 3272 1645 3428 
Q 1925 3584 2291 3584 
Q 2894 3584 3203 3211 
Q 3513 2838 3513 2113 
z
" transform="scale(0.015625)"/>
       <path id="DejaVuSans-73" d="M 2834 3397 
L 2834 2853 
Q 2591 2978 2328 3040 
Q 2066 3103 1784 3103 
Q 1356 3103 1142 2972 
Q 928 2841 928 2578 
Q 928 2378 1081 2264 
Q 1234 2150 1697 2047 
L 1894 2003 
Q 2506 1872 2764 1633 
Q 3022 1394 3022 966 
Q 3022 478 2636 193 
Q 2250 -91 1575 -91 
Q 1294 -91 989 -36 
Q 684 19 347 128 
L 347 722 
Q 666 556 975 473 
Q 1284 391 1588 391 
Q 1994 391 2212 530 
Q 2431 669 2431 922 
Q 2431 1156 2273 1281 
Q 2116 1406 1581 1522 
L 1381 1569 
Q 847 1681 609 1914 
Q 372 2147 372 2553 
Q 372 3047 722 3315 
Q 1072 3584 1716 3584 
Q 2034 3584 2315 3537 
Q 2597 3491 2834 3397 
z
" transform="scale(0.015625)"/>
      </defs>
      <use xlink:href="#DejaVuSans-45"/>
      <use xlink:href="#DejaVuSans-70" transform="translate(63.183594 0)"/>
      <use xlink:href="#DejaVuSans-6f" transform="translate(126.660156 0)"/>
      <use xlink:href="#DejaVuSans-63" transform="translate(187.841797 0)"/>
      <use xlink:href="#DejaVuSans-68" transform="translate(242.822266 0)"/>
      <use xlink:href="#DejaVuSans-73" transform="translate(306.201172 0)"/>
     </g>
    </g>
   </g>
   <g id="matplotlib.axis_2">
    <g id="ytick_1">
     <g id="line2d_8">
      <defs>
       <path id="m4856e850fc" d="M 0 0 
L -3.5 0 
" style="stroke: #000000; stroke-width: 0.8"/>
      </defs>
      <g>
       <use xlink:href="#m4856e850fc" x="108" y="339.121645" style="stroke: #000000; stroke-width: 0.8"/>
      </g>
     </g>
     <g id="text_9">
      <!-- 0.3 -->
      <g transform="translate(85.096875 342.920864) scale(0.1 -0.1)">
       <defs>
        <path id="DejaVuSans-33" d="M 2597 2516 
Q 3050 2419 3304 2112 
Q 3559 1806 3559 1356 
Q 3559 666 3084 287 
Q 2609 -91 1734 -91 
Q 1441 -91 1130 -33 
Q 819 25 488 141 
L 488 750 
Q 750 597 1062 519 
Q 1375 441 1716 441 
Q 2309 441 2620 675 
Q 2931 909 2931 1356 
Q 2931 1769 2642 2001 
Q 2353 2234 1838 2234 
L 1294 2234 
L 1294 2753 
L 1863 2753 
Q 2328 2753 2575 2939 
Q 2822 3125 2822 3475 
Q 2822 3834 2567 4026 
Q 2313 4219 1838 4219 
Q 1578 4219 1281 4162 
Q 984 4106 628 3988 
L 628 4550 
Q 988 4650 1302 4700 
Q 1616 4750 1894 4750 
Q 2613 4750 3031 4423 
Q 3450 4097 3450 3541 
Q 3450 3153 3228 2886 
Q 3006 2619 2597 2516 
z
" transform="scale(0.015625)"/>
       </defs>
       <use xlink:href="#DejaVuSans-30"/>
       <use xlink:href="#DejaVuSans-2e" transform="translate(63.623047 0)"/>
       <use xlink:href="#DejaVuSans-33" transform="translate(95.410156 0)"/>
      </g>
     </g>
    </g>
    <g id="ytick_2">
     <g id="line2d_9">
      <g>
       <use xlink:href="#m4856e850fc" x="108" y="268.443417" style="stroke: #000000; stroke-width: 0.8"/>
      </g>
     </g>
     <g id="text_10">
      <!-- 0.4 -->
      <g transform="translate(85.096875 272.242636) scale(0.1 -0.1)">
       <defs>
        <path id="DejaVuSans-34" d="M 2419 4116 
L 825 1625 
L 2419 1625 
L 2419 4116 
z
M 2253 4666 
L 3047 4666 
L 3047 1625 
L 3713 1625 
L 3713 1100 
L 3047 1100 
L 3047 0 
L 2419 0 
L 2419 1100 
L 313 1100 
L 313 1709 
L 2253 4666 
z
" transform="scale(0.015625)"/>
       </defs>
       <use xlink:href="#DejaVuSans-30"/>
       <use xlink:href="#DejaVuSans-2e" transform="translate(63.623047 0)"/>
       <use xlink:href="#DejaVuSans-34" transform="translate(95.410156 0)"/>
      </g>
     </g>
    </g>
    <g id="ytick_3">
     <g id="line2d_10">
      <g>
       <use xlink:href="#m4856e850fc" x="108" y="197.765189" style="stroke: #000000; stroke-width: 0.8"/>
      </g>
     </g>
     <g id="text_11">
      <!-- 0.5 -->
      <g transform="translate(85.096875 201.564408) scale(0.1 -0.1)">
       <use xlink:href="#DejaVuSans-30"/>
       <use xlink:href="#DejaVuSans-2e" transform="translate(63.623047 0)"/>
       <use xlink:href="#DejaVuSans-35" transform="translate(95.410156 0)"/>
      </g>
     </g>
    </g>
    <g id="ytick_4">
     <g id="line2d_11">
      <g>
       <use xlink:href="#m4856e850fc" x="108" y="127.086961" style="stroke: #000000; stroke-width: 0.8"/>
      </g>
     </g>
     <g id="text_12">
      <!-- 0.6 -->
      <g transform="translate(85.096875 130.886179) scale(0.1 -0.1)">
       <defs>
        <path id="DejaVuSans-36" d="M 2113 2584 
Q 1688 2584 1439 2293 
Q 1191 2003 1191 1497 
Q 1191 994 1439 701 
Q 1688 409 2113 409 
Q 2538 409 2786 701 
Q 3034 994 3034 1497 
Q 3034 2003 2786 2293 
Q 2538 2584 2113 2584 
z
M 3366 4563 
L 3366 3988 
Q 3128 4100 2886 4159 
Q 2644 4219 2406 4219 
Q 1781 4219 1451 3797 
Q 1122 3375 1075 2522 
Q 1259 2794 1537 2939 
Q 1816 3084 2150 3084 
Q 2853 3084 3261 2657 
Q 3669 2231 3669 1497 
Q 3669 778 3244 343 
Q 2819 -91 2113 -91 
Q 1303 -91 875 529 
Q 447 1150 447 2328 
Q 447 3434 972 4092 
Q 1497 4750 2381 4750 
Q 2619 4750 2861 4703 
Q 3103 4656 3366 4563 
z
" transform="scale(0.015625)"/>
       </defs>
       <use xlink:href="#DejaVuSans-30"/>
       <use xlink:href="#DejaVuSans-2e" transform="translate(63.623047 0)"/>
       <use xlink:href="#DejaVuSans-36" transform="translate(95.410156 0)"/>
      </g>
     </g>
    </g>
    <g id="ytick_5">
     <g id="line2d_12">
      <g>
       <use xlink:href="#m4856e850fc" x="108" y="56.408732" style="stroke: #000000; stroke-width: 0.8"/>
      </g>
     </g>
     <g id="text_13">
      <!-- 0.7 -->
      <g transform="translate(85.096875 60.207951) scale(0.1 -0.1)">
       <use xlink:href="#DejaVuSans-30"/>
       <use xlink:href="#DejaVuSans-2e" transform="translate(63.623047 0)"/>
       <use xlink:href="#DejaVuSans-37" transform="translate(95.410156 0)"/>
      </g>
     </g>
    </g>
    <g id="text_14">
     <!-- Loss -->
     <g transform="translate(79.017187 229.127187) rotate(-90) scale(0.1 -0.1)">
      <defs>
       <path id="DejaVuSans-4c" d="M 628 4666 
L 1259 4666 
L 1259 531 
L 3531 531 
L 3531 0 
L 628 0 
L 628 4666 
z
" transform="scale(0.015625)"/>
      </defs>
      <use xlink:href="#DejaVuSans-4c"/>
      <use xlink:href="#DejaVuSans-6f" transform="translate(53.962891 0)"/>
      <use xlink:href="#DejaVuSans-73" transform="translate(115.144531 0)"/>
      <use xlink:href="#DejaVuSans-73" transform="translate(167.244141 0)"/>
     </g>
    </g>
   </g>
   <g id="line2d_13">
    <path d="M 138.436364 86.041458 
L 174.24385 151.36565 
L 210.051337 199.804383 
L 245.858824 210.710016 
L 281.66631 220.930314 
L 317.473797 229.340786 
L 353.281283 235.460389 
L 389.08877 232.173939 
L 424.896257 238.028478 
" clip-path="url(#p770b75d268)" style="fill: none; stroke: #440154; stroke-width: 1.5; stroke-linecap: square"/>
   </g>
   <g id="line2d_14">
    <path d="M 138.436364 80.009601 
L 174.24385 135.874632 
L 210.051337 178.284123 
L 245.858824 196.19716 
L 281.66631 211.317701 
L 317.473797 225.204813 
L 353.281283 230.408781 
L 389.08877 247.96245 
L 424.896257 261.202515 
L 460.703743 258.920832 
L 496.51123 261.148463 
L 532.318717 259.947394 
L 568.126203 262.296747 
L 603.93369 263.729533 
L 639.741176 264.930034 
" clip-path="url(#p770b75d268)" style="fill: none; stroke: #440154; stroke-width: 1.5; stroke-linecap: square"/>
   </g>
   <g id="line2d_15">
    <path d="M 138.436364 74.198554 
L 174.24385 124.844046 
L 210.051337 165.008742 
L 245.858824 185.859348 
L 281.66631 196.14277 
L 317.473797 202.70606 
L 353.281283 215.927239 
L 389.08877 223.122222 
L 424.896257 229.147776 
L 460.703743 243.098262 
L 496.51123 244.325554 
L 532.318717 244.030344 
L 568.126203 241.72052 
L 603.93369 241.794099 
L 639.741176 239.454521 
L 675.548663 246.37519 
" clip-path="url(#p770b75d268)" style="fill: none; stroke: #440154; stroke-width: 1.5; stroke-linecap: square"/>
   </g>
   <g id="line2d_16">
    <path d="M 138.436364 86.832439 
L 174.24385 141.992019 
L 210.051337 185.321431 
L 245.858824 200.560751 
L 281.66631 209.279168 
L 317.473797 213.239751 
L 353.281283 223.768281 
L 389.08877 235.860578 
L 424.896257 248.178422 
L 460.703743 250.75667 
L 496.51123 274.415474 
L 532.318717 272.668776 
L 568.126203 276.465673 
L 603.93369 283.7487 
L 639.741176 281.646146 
L 675.548663 280.823476 
" clip-path="url(#p770b75d268)" style="fill: none; stroke: #440154; stroke-width: 1.5; stroke-linecap: square"/>
   </g>
   <g id="line2d_17">
    <path d="M 138.436364 85.449706 
L 174.24385 140.52113 
L 210.051337 178.935334 
L 245.858824 196.119561 
L 281.66631 206.689037 
L 317.473797 215.807756 
L 353.281283 226.148114 
L 389.08877 224.885136 
L 424.896257 246.095842 
L 460.703743 259.473788 
L 496.51123 267.527664 
L 532.318717 280.753584 
L 568.126203 297.472265 
L 603.93369 299.260124 
L 639.741176 304.974151 
" clip-path="url(#p770b75d268)" style="fill: none; stroke: #440154; stroke-width: 1.5; stroke-linecap: square"/>
   </g>
   <g id="line2d_18">
    <path d="M 138.436364 80.418899 
L 174.24385 141.754356 
L 210.051337 181.878434 
L 245.858824 205.916301 
L 281.66631 219.701522 
L 317.473797 234.660675 
L 353.281283 243.811547 
L 389.08877 242.13781 
L 424.896257 242.993569 
" clip-path="url(#p770b75d268)" style="fill: none; stroke: #3b528b; stroke-width: 1.5; stroke-linecap: square"/>
   </g>
   <g id="line2d_19">
    <path d="M 138.436364 86.550004 
L 174.24385 137.570689 
L 210.051337 176.155681 
L 245.858824 199.137874 
L 281.66631 212.341738 
L 317.473797 224.883529 
L 353.281283 231.411442 
L 389.08877 244.467166 
L 424.896257 256.523482 
L 460.703743 256.323912 
L 496.51123 257.657227 
L 532.318717 263.159019 
L 568.126203 258.207083 
L 603.93369 261.295761 
L 639.741176 267.922081 
L 675.548663 263.629373 
L 711.35615 267.328741 
" clip-path="url(#p770b75d268)" style="fill: none; stroke: #3b528b; stroke-width: 1.5; stroke-linecap: square"/>
   </g>
   <g id="line2d_20">
    <path d="M 138.436364 90.899158 
L 174.24385 142.948073 
L 210.051337 183.988277 
L 245.858824 202.491204 
L 281.66631 207.604942 
L 317.473797 218.357067 
L 353.281283 227.712894 
L 389.08877 238.590433 
L 424.896257 249.950125 
L 460.703743 263.687389 
L 496.51123 276.767263 
L 532.318717 286.869791 
L 568.126203 302.834889 
L 603.93369 325.271123 
L 639.741176 343.656775 
L 675.548663 352.181756 
L 711.35615 362.685561 
L 747.163636 369.36 
" clip-path="url(#p770b75d268)" style="fill: none; stroke: #3b528b; stroke-width: 1.5; stroke-linecap: square"/>
   </g>
   <g id="line2d_21">
    <path d="M 138.436364 90.301934 
L 174.24385 149.004144 
L 210.051337 188.961218 
L 245.858824 200.020472 
L 281.66631 213.563809 
L 317.473797 220.814168 
L 353.281283 232.491384 
L 389.08877 241.805013 
L 424.896257 251.461931 
L 460.703743 250.065672 
L 496.51123 251.258437 
" clip-path="url(#p770b75d268)" style="fill: none; stroke: #3b528b; stroke-width: 1.5; stroke-linecap: square"/>
   </g>
   <g id="line2d_22">
    <path d="M 138.436364 81.263339 
L 174.24385 136.149694 
L 210.051337 177.95021 
L 245.858824 198.906224 
L 281.66631 204.483461 
L 317.473797 214.26254 
L 353.281283 220.587828 
L 389.08877 229.055995 
L 424.896257 237.826355 
L 460.703743 249.551353 
L 496.51123 260.51828 
L 532.318717 270.84677 
L 568.126203 294.170212 
L 603.93369 311.239931 
L 639.741176 326.991381 
L 675.548663 346.800751 
L 711.35615 348.900967 
L 747.163636 352.960566 
" clip-path="url(#p770b75d268)" style="fill: none; stroke: #3b528b; stroke-width: 1.5; stroke-linecap: square"/>
   </g>
   <g id="line2d_23">
    <path d="M 138.436364 66.96 
L 174.24385 139.288014 
L 210.051337 187.387162 
L 245.858824 198.160378 
L 281.66631 212.605395 
L 317.473797 225.627821 
L 353.281283 229.541901 
L 389.08877 230.061472 
L 424.896257 232.39431 
" clip-path="url(#p770b75d268)" style="fill: none; stroke: #21918c; stroke-width: 1.5; stroke-linecap: square"/>
   </g>
   <g id="line2d_24">
    <path d="M 138.436364 71.96812 
L 174.24385 135.501407 
L 210.051337 182.001418 
L 245.858824 199.283352 
L 281.66631 214.794057 
L 317.473797 222.36392 
L 353.281283 232.998945 
L 389.08877 232.724715 
L 424.896257 237.438707 
L 460.703743 237.435148 
L 496.51123 241.221455 
L 532.318717 239.840694 
L 568.126203 235.219879 
" clip-path="url(#p770b75d268)" style="fill: none; stroke: #21918c; stroke-width: 1.5; stroke-linecap: square"/>
   </g>
   <g id="line2d_25">
    <path d="M 138.436364 82.908319 
L 174.24385 140.801491 
L 210.051337 173.110338 
L 245.858824 190.81067 
L 281.66631 197.392729 
L 317.473797 205.089515 
L 353.281283 221.211071 
L 389.08877 226.846391 
L 424.896257 241.404223 
L 460.703743 255.315066 
L 496.51123 261.134288 
L 532.318717 278.041995 
L 568.126203 283.75234 
L 603.93369 281.06251 
" clip-path="url(#p770b75d268)" style="fill: none; stroke: #21918c; stroke-width: 1.5; stroke-linecap: square"/>
   </g>
   <g id="line2d_26">
    <path d="M 138.436364 95.415134 
L 174.24385 153.084828 
L 210.051337 190.489929 
L 245.858824 202.214192 
L 281.66631 210.916032 
L 317.473797 216.741947 
L 353.281283 225.984885 
L 389.08877 231.494814 
L 424.896257 242.698032 
L 460.703743 252.72663 
L 496.51123 262.525694 
L 532.318717 272.052936 
L 568.126203 278.343101 
L 603.93369 276.577503 
" clip-path="url(#p770b75d268)" style="fill: none; stroke: #21918c; stroke-width: 1.5; stroke-linecap: square"/>
   </g>
   <g id="line2d_27">
    <path d="M 138.436364 116.580104 
L 174.24385 167.125051 
L 210.051337 201.25293 
L 245.858824 214.311754 
L 281.66631 225.76559 
L 317.473797 228.688994 
L 353.281283 241.059912 
L 389.08877 246.330579 
L 424.896257 254.517148 
L 460.703743 269.16682 
L 496.51123 269.348336 
L 532.318717 271.966907 
" clip-path="url(#p770b75d268)" style="fill: none; stroke: #21918c; stroke-width: 1.5; stroke-linecap: square"/>
   </g>
   <g id="line2d_28">
    <path d="M 138.436364 87.710995 
L 174.24385 133.676854 
L 210.051337 176.037769 
L 245.858824 200.790383 
L 281.66631 211.864874 
L 317.473797 216.130459 
L 353.281283 227.55768 
L 389.08877 239.858327 
L 424.896257 247.105046 
L 460.703743 252.50136 
L 496.51123 270.843276 
L 532.318717 276.208858 
L 568.126203 293.970652 
L 603.93369 312.992524 
L 639.741176 309.139552 
L 675.548663 310.397323 
" clip-path="url(#p770b75d268)" style="fill: none; stroke: #5ec962; stroke-width: 1.5; stroke-linecap: square"/>
   </g>
   <g id="line2d_29">
    <path d="M 138.436364 87.543941 
L 174.24385 143.765639 
L 210.051337 183.592036 
L 245.858824 197.656879 
L 281.66631 213.078951 
L 317.473797 230.914068 
L 353.281283 236.083852 
L 389.08877 244.593095 
L 424.896257 245.147039 
L 460.703743 247.797296 
" clip-path="url(#p770b75d268)" style="fill: none; stroke: #5ec962; stroke-width: 1.5; stroke-linecap: square"/>
   </g>
   <g id="line2d_30">
    <path d="M 138.436364 100.863936 
L 174.24385 149.074268 
L 210.051337 177.97142 
L 245.858824 198.246918 
L 281.66631 209.499363 
L 317.473797 219.983791 
L 353.281283 230.294417 
L 389.08877 236.935266 
L 424.896257 251.815639 
L 460.703743 264.58039 
L 496.51123 269.00566 
L 532.318717 268.078868 
" clip-path="url(#p770b75d268)" style="fill: none; stroke: #5ec962; stroke-width: 1.5; stroke-linecap: square"/>
   </g>
   <g id="line2d_31">
    <path d="M 138.436364 79.416096 
L 174.24385 137.461454 
L 210.051337 179.020284 
L 245.858824 195.844298 
L 281.66631 207.345949 
L 317.473797 216.995688 
L 353.281283 228.039392 
L 389.08877 238.374139 
L 424.896257 251.038455 
L 460.703743 257.976289 
L 496.51123 268.391685 
L 532.318717 289.003606 
L 568.126203 287.391501 
L 603.93369 284.599759 
" clip-path="url(#p770b75d268)" style="fill: none; stroke: #5ec962; stroke-width: 1.5; stroke-linecap: square"/>
   </g>
   <g id="line2d_32">
    <path d="M 138.436364 84.771119 
L 174.24385 138.183123 
L 210.051337 177.058568 
L 245.858824 198.577122 
L 281.66631 209.400511 
L 317.473797 220.335557 
L 353.281283 224.965971 
L 389.08877 236.941298 
L 424.896257 244.354157 
L 460.703743 251.368923 
L 496.51123 261.634201 
L 532.318717 267.051272 
L 568.126203 293.306699 
L 603.93369 303.052609 
L 639.741176 322.600142 
L 675.548663 328.265335 
L 711.35615 327.123431 
" clip-path="url(#p770b75d268)" style="fill: none; stroke: #5ec962; stroke-width: 1.5; stroke-linecap: square"/>
   </g>
   <g id="line2d_33">
    <path d="M 138.436364 97.862201 
L 174.24385 157.970684 
L 210.051337 196.694329 
L 245.858824 217.847357 
L 281.66631 225.17921 
L 317.473797 234.049362 
L 353.281283 242.780512 
L 389.08877 253.41363 
L 424.896257 263.848918 
L 460.703743 267.142223 
L 496.51123 269.640743 
" clip-path="url(#p770b75d268)" style="fill: none; stroke: #fde725; stroke-width: 1.5; stroke-linecap: square"/>
   </g>
   <g id="line2d_34">
    <path d="M 138.436364 83.918535 
L 174.24385 146.816507 
L 210.051337 187.28688 
L 245.858824 200.203595 
L 281.66631 206.159555 
L 317.473797 223.14985 
L 353.281283 234.581314 
L 389.08877 248.09288 
L 424.896257 247.128081 
L 460.703743 244.457243 
" clip-path="url(#p770b75d268)" style="fill: none; stroke: #fde725; stroke-width: 1.5; stroke-linecap: square"/>
   </g>
   <g id="line2d_35">
    <path d="M 138.436364 91.023454 
L 174.24385 142.066053 
L 210.051337 183.891582 
L 245.858824 201.686826 
L 281.66631 211.572902 
L 317.473797 221.331388 
L 353.281283 228.046787 
L 389.08877 241.199456 
L 424.896257 245.542072 
L 460.703743 241.949078 
" clip-path="url(#p770b75d268)" style="fill: none; stroke: #fde725; stroke-width: 1.5; stroke-linecap: square"/>
   </g>
   <g id="line2d_36">
    <path d="M 138.436364 85.417307 
L 174.24385 151.550119 
L 210.051337 197.003756 
L 245.858824 214.057438 
L 281.66631 219.803369 
L 317.473797 230.332931 
L 353.281283 237.79691 
L 389.08877 247.238468 
L 424.896257 249.59757 
L 460.703743 244.661179 
L 496.51123 247.165551 
L 532.318717 246.440907 
L 568.126203 250.73961 
L 603.93369 256.486189 
" clip-path="url(#p770b75d268)" style="fill: none; stroke: #fde725; stroke-width: 1.5; stroke-linecap: square"/>
   </g>
   <g id="line2d_37">
    <path d="M 138.436364 77.414233 
L 174.24385 143.135088 
L 210.051337 188.734555 
L 245.858824 202.669964 
L 281.66631 215.486744 
L 317.473797 231.207226 
L 353.281283 239.425708 
L 389.08877 252.728021 
L 424.896257 257.666223 
L 460.703743 262.70037 
L 496.51123 265.117524 
" clip-path="url(#p770b75d268)" style="fill: none; stroke: #fde725; stroke-width: 1.5; stroke-linecap: square"/>
   </g>
   <g id="patch_3">
    <path d="M 108 384.48 
L 108 51.84 
" style="fill: none; stroke: #000000; stroke-width: 0.8; stroke-linejoin: miter; stroke-linecap: square"/>
   </g>
   <g id="patch_4">
    <path d="M 777.6 384.48 
L 777.6 51.84 
" style="fill: none; stroke: #000000; stroke-width: 0.8; stroke-linejoin: miter; stroke-linecap: square"/>
   </g>
   <g id="patch_5">
    <path d="M 108 384.48 
L 777.6 384.48 
" style="fill: none; stroke: #000000; stroke-width: 0.8; stroke-linejoin: miter; stroke-linecap: square"/>
   </g>
   <g id="patch_6">
    <path d="M 108 51.84 
L 777.6 51.84 
" style="fill: none; stroke: #000000; stroke-width: 0.8; stroke-linejoin: miter; stroke-linecap: square"/>
   </g>
   <g id="text_15">
    <!-- Training Loss for Each Fold -->
    <g transform="translate(363.140625 45.84) scale(0.12 -0.12)">
     <defs>
      <path id="DejaVuSans-54" d="M -19 4666 
L 3928 4666 
L 3928 4134 
L 2272 4134 
L 2272 0 
L 1638 0 
L 1638 4134 
L -19 4134 
L -19 4666 
z
" transform="scale(0.015625)"/>
      <path id="DejaVuSans-72" d="M 2631 2963 
Q 2534 3019 2420 3045 
Q 2306 3072 2169 3072 
Q 1681 3072 1420 2755 
Q 1159 2438 1159 1844 
L 1159 0 
L 581 0 
L 581 3500 
L 1159 3500 
L 1159 2956 
Q 1341 3275 1631 3429 
Q 1922 3584 2338 3584 
Q 2397 3584 2469 3576 
Q 2541 3569 2628 3553 
L 2631 2963 
z
" transform="scale(0.015625)"/>
      <path id="DejaVuSans-61" d="M 2194 1759 
Q 1497 1759 1228 1600 
Q 959 1441 959 1056 
Q 959 750 1161 570 
Q 1363 391 1709 391 
Q 2188 391 2477 730 
Q 2766 1069 2766 1631 
L 2766 1759 
L 2194 1759 
z
M 3341 1997 
L 3341 0 
L 2766 0 
L 2766 531 
Q 2569 213 2275 61 
Q 1981 -91 1556 -91 
Q 1019 -91 701 211 
Q 384 513 384 1019 
Q 384 1609 779 1909 
Q 1175 2209 1959 2209 
L 2766 2209 
L 2766 2266 
Q 2766 2663 2505 2880 
Q 2244 3097 1772 3097 
Q 1472 3097 1187 3025 
Q 903 2953 641 2809 
L 641 3341 
Q 956 3463 1253 3523 
Q 1550 3584 1831 3584 
Q 2591 3584 2966 3190 
Q 3341 2797 3341 1997 
z
" transform="scale(0.015625)"/>
      <path id="DejaVuSans-69" d="M 603 3500 
L 1178 3500 
L 1178 0 
L 603 0 
L 603 3500 
z
M 603 4863 
L 1178 4863 
L 1178 4134 
L 603 4134 
L 603 4863 
z
" transform="scale(0.015625)"/>
      <path id="DejaVuSans-6e" d="M 3513 2113 
L 3513 0 
L 2938 0 
L 2938 2094 
Q 2938 2591 2744 2837 
Q 2550 3084 2163 3084 
Q 1697 3084 1428 2787 
Q 1159 2491 1159 1978 
L 1159 0 
L 581 0 
L 581 3500 
L 1159 3500 
L 1159 2956 
Q 1366 3272 1645 3428 
Q 1925 3584 2291 3584 
Q 2894 3584 3203 3211 
Q 3513 2838 3513 2113 
z
" transform="scale(0.015625)"/>
      <path id="DejaVuSans-67" d="M 2906 1791 
Q 2906 2416 2648 2759 
Q 2391 3103 1925 3103 
Q 1463 3103 1205 2759 
Q 947 2416 947 1791 
Q 947 1169 1205 825 
Q 1463 481 1925 481 
Q 2391 481 2648 825 
Q 2906 1169 2906 1791 
z
M 3481 434 
Q 3481 -459 3084 -895 
Q 2688 -1331 1869 -1331 
Q 1566 -1331 1297 -1286 
Q 1028 -1241 775 -1147 
L 775 -588 
Q 1028 -725 1275 -790 
Q 1522 -856 1778 -856 
Q 2344 -856 2625 -561 
Q 2906 -266 2906 331 
L 2906 616 
Q 2728 306 2450 153 
Q 2172 0 1784 0 
Q 1141 0 747 490 
Q 353 981 353 1791 
Q 353 2603 747 3093 
Q 1141 3584 1784 3584 
Q 2172 3584 2450 3431 
Q 2728 3278 2906 2969 
L 2906 3500 
L 3481 3500 
L 3481 434 
z
" transform="scale(0.015625)"/>
      <path id="DejaVuSans-20" transform="scale(0.015625)"/>
      <path id="DejaVuSans-66" d="M 2375 4863 
L 2375 4384 
L 1825 4384 
Q 1516 4384 1395 4259 
Q 1275 4134 1275 3809 
L 1275 3500 
L 2222 3500 
L 2222 3053 
L 1275 3053 
L 1275 0 
L 697 0 
L 697 3053 
L 147 3053 
L 147 3500 
L 697 3500 
L 697 3744 
Q 697 4328 969 4595 
Q 1241 4863 1831 4863 
L 2375 4863 
z
" transform="scale(0.015625)"/>
      <path id="DejaVuSans-46" d="M 628 4666 
L 3309 4666 
L 3309 4134 
L 1259 4134 
L 1259 2759 
L 3109 2759 
L 3109 2228 
L 1259 2228 
L 1259 0 
L 628 0 
L 628 4666 
z
" transform="scale(0.015625)"/>
      <path id="DejaVuSans-6c" d="M 603 4863 
L 1178 4863 
L 1178 0 
L 603 0 
L 603 4863 
z
" transform="scale(0.015625)"/>
      <path id="DejaVuSans-64" d="M 2906 2969 
L 2906 4863 
L 3481 4863 
L 3481 0 
L 2906 0 
L 2906 525 
Q 2725 213 2448 61 
Q 2172 -91 1784 -91 
Q 1150 -91 751 415 
Q 353 922 353 1747 
Q 353 2572 751 3078 
Q 1150 3584 1784 3584 
Q 2172 3584 2448 3432 
Q 2725 3281 2906 2969 
z
M 947 1747 
Q 947 1113 1208 752 
Q 1469 391 1925 391 
Q 2381 391 2643 752 
Q 2906 1113 2906 1747 
Q 2906 2381 2643 2742 
Q 2381 3103 1925 3103 
Q 1469 3103 1208 2742 
Q 947 2381 947 1747 
z
" transform="scale(0.015625)"/>
     </defs>
     <use xlink:href="#DejaVuSans-54"/>
     <use xlink:href="#DejaVuSans-72" transform="translate(46.333984 0)"/>
     <use xlink:href="#DejaVuSans-61" transform="translate(87.447266 0)"/>
     <use xlink:href="#DejaVuSans-69" transform="translate(148.726562 0)"/>
     <use xlink:href="#DejaVuSans-6e" transform="translate(176.509766 0)"/>
     <use xlink:href="#DejaVuSans-69" transform="translate(239.888672 0)"/>
     <use xlink:href="#DejaVuSans-6e" transform="translate(267.671875 0)"/>
     <use xlink:href="#DejaVuSans-67" transform="translate(331.050781 0)"/>
     <use xlink:href="#DejaVuSans-20" transform="translate(394.527344 0)"/>
     <use xlink:href="#DejaVuSans-4c" transform="translate(426.314453 0)"/>
     <use xlink:href="#DejaVuSans-6f" transform="translate(480.277344 0)"/>
     <use xlink:href="#DejaVuSans-73" transform="translate(541.458984 0)"/>
     <use xlink:href="#DejaVuSans-73" transform="translate(593.558594 0)"/>
     <use xlink:href="#DejaVuSans-20" transform="translate(645.658203 0)"/>
     <use xlink:href="#DejaVuSans-66" transform="translate(677.445312 0)"/>
     <use xlink:href="#DejaVuSans-6f" transform="translate(712.650391 0)"/>
     <use xlink:href="#DejaVuSans-72" transform="translate(773.832031 0)"/>
     <use xlink:href="#DejaVuSans-20" transform="translate(814.945312 0)"/>
     <use xlink:href="#DejaVuSans-45" transform="translate(846.732422 0)"/>
     <use xlink:href="#DejaVuSans-61" transform="translate(909.916016 0)"/>
     <use xlink:href="#DejaVuSans-63" transform="translate(971.195312 0)"/>
     <use xlink:href="#DejaVuSans-68" transform="translate(1026.175781 0)"/>
     <use xlink:href="#DejaVuSans-20" transform="translate(1089.554688 0)"/>
     <use xlink:href="#DejaVuSans-46" transform="translate(1121.341797 0)"/>
     <use xlink:href="#DejaVuSans-6f" transform="translate(1175.236328 0)"/>
     <use xlink:href="#DejaVuSans-6c" transform="translate(1236.417969 0)"/>
     <use xlink:href="#DejaVuSans-64" transform="translate(1264.201172 0)"/>
    </g>
   </g>
   <g id="legend_1">
    <g id="patch_7">
     <path d="M 634.320312 426.793125 
L 770.6 426.793125 
Q 772.6 426.793125 772.6 424.793125 
L 772.6 58.84 
Q 772.6 56.84 770.6 56.84 
L 634.320312 56.84 
Q 632.320312 56.84 632.320312 58.84 
L 632.320312 424.793125 
Q 632.320312 426.793125 634.320312 426.793125 
z
" style="fill: #ffffff; opacity: 0.8; stroke: #cccccc; stroke-linejoin: miter"/>
    </g>
    <g id="line2d_38">
     <path d="M 636.320312 64.938437 
L 646.320312 64.938437 
L 656.320312 64.938437 
" style="fill: none; stroke: #440154; stroke-width: 1.5; stroke-linecap: square"/>
    </g>
    <g id="text_16">
     <!-- Fold 1 Training Loss -->
     <g transform="translate(664.320312 68.438437) scale(0.1 -0.1)">
      <use xlink:href="#DejaVuSans-46"/>
      <use xlink:href="#DejaVuSans-6f" transform="translate(53.894531 0)"/>
      <use xlink:href="#DejaVuSans-6c" transform="translate(115.076172 0)"/>
      <use xlink:href="#DejaVuSans-64" transform="translate(142.859375 0)"/>
      <use xlink:href="#DejaVuSans-20" transform="translate(206.335938 0)"/>
      <use xlink:href="#DejaVuSans-31" transform="translate(238.123047 0)"/>
      <use xlink:href="#DejaVuSans-20" transform="translate(301.746094 0)"/>
      <use xlink:href="#DejaVuSans-54" transform="translate(333.533203 0)"/>
      <use xlink:href="#DejaVuSans-72" transform="translate(379.867188 0)"/>
      <use xlink:href="#DejaVuSans-61" transform="translate(420.980469 0)"/>
      <use xlink:href="#DejaVuSans-69" transform="translate(482.259766 0)"/>
      <use xlink:href="#DejaVuSans-6e" transform="translate(510.042969 0)"/>
      <use xlink:href="#DejaVuSans-69" transform="translate(573.421875 0)"/>
      <use xlink:href="#DejaVuSans-6e" transform="translate(601.205078 0)"/>
      <use xlink:href="#DejaVuSans-67" transform="translate(664.583984 0)"/>
      <use xlink:href="#DejaVuSans-20" transform="translate(728.060547 0)"/>
      <use xlink:href="#DejaVuSans-4c" transform="translate(759.847656 0)"/>
      <use xlink:href="#DejaVuSans-6f" transform="translate(813.810547 0)"/>
      <use xlink:href="#DejaVuSans-73" transform="translate(874.992188 0)"/>
      <use xlink:href="#DejaVuSans-73" transform="translate(927.091797 0)"/>
     </g>
    </g>
    <g id="line2d_39">
     <path d="M 636.320312 79.616562 
L 646.320312 79.616562 
L 656.320312 79.616562 
" style="fill: none; stroke: #440154; stroke-width: 1.5; stroke-linecap: square"/>
    </g>
    <g id="text_17">
     <!-- Fold 2 Training Loss -->
     <g transform="translate(664.320312 83.116562) scale(0.1 -0.1)">
      <use xlink:href="#DejaVuSans-46"/>
      <use xlink:href="#DejaVuSans-6f" transform="translate(53.894531 0)"/>
      <use xlink:href="#DejaVuSans-6c" transform="translate(115.076172 0)"/>
      <use xlink:href="#DejaVuSans-64" transform="translate(142.859375 0)"/>
      <use xlink:href="#DejaVuSans-20" transform="translate(206.335938 0)"/>
      <use xlink:href="#DejaVuSans-32" transform="translate(238.123047 0)"/>
      <use xlink:href="#DejaVuSans-20" transform="translate(301.746094 0)"/>
      <use xlink:href="#DejaVuSans-54" transform="translate(333.533203 0)"/>
      <use xlink:href="#DejaVuSans-72" transform="translate(379.867188 0)"/>
      <use xlink:href="#DejaVuSans-61" transform="translate(420.980469 0)"/>
      <use xlink:href="#DejaVuSans-69" transform="translate(482.259766 0)"/>
      <use xlink:href="#DejaVuSans-6e" transform="translate(510.042969 0)"/>
      <use xlink:href="#DejaVuSans-69" transform="translate(573.421875 0)"/>
      <use xlink:href="#DejaVuSans-6e" transform="translate(601.205078 0)"/>
      <use xlink:href="#DejaVuSans-67" transform="translate(664.583984 0)"/>
      <use xlink:href="#DejaVuSans-20" transform="translate(728.060547 0)"/>
      <use xlink:href="#DejaVuSans-4c" transform="translate(759.847656 0)"/>
      <use xlink:href="#DejaVuSans-6f" transform="translate(813.810547 0)"/>
      <use xlink:href="#DejaVuSans-73" transform="translate(874.992188 0)"/>
      <use xlink:href="#DejaVuSans-73" transform="translate(927.091797 0)"/>
     </g>
    </g>
    <g id="line2d_40">
     <path d="M 636.320312 94.294687 
L 646.320312 94.294687 
L 656.320312 94.294687 
" style="fill: none; stroke: #440154; stroke-width: 1.5; stroke-linecap: square"/>
    </g>
    <g id="text_18">
     <!-- Fold 3 Training Loss -->
     <g transform="translate(664.320312 97.794687) scale(0.1 -0.1)">
      <use xlink:href="#DejaVuSans-46"/>
      <use xlink:href="#DejaVuSans-6f" transform="translate(53.894531 0)"/>
      <use xlink:href="#DejaVuSans-6c" transform="translate(115.076172 0)"/>
      <use xlink:href="#DejaVuSans-64" transform="translate(142.859375 0)"/>
      <use xlink:href="#DejaVuSans-20" transform="translate(206.335938 0)"/>
      <use xlink:href="#DejaVuSans-33" transform="translate(238.123047 0)"/>
      <use xlink:href="#DejaVuSans-20" transform="translate(301.746094 0)"/>
      <use xlink:href="#DejaVuSans-54" transform="translate(333.533203 0)"/>
      <use xlink:href="#DejaVuSans-72" transform="translate(379.867188 0)"/>
      <use xlink:href="#DejaVuSans-61" transform="translate(420.980469 0)"/>
      <use xlink:href="#DejaVuSans-69" transform="translate(482.259766 0)"/>
      <use xlink:href="#DejaVuSans-6e" transform="translate(510.042969 0)"/>
      <use xlink:href="#DejaVuSans-69" transform="translate(573.421875 0)"/>
      <use xlink:href="#DejaVuSans-6e" transform="translate(601.205078 0)"/>
      <use xlink:href="#DejaVuSans-67" transform="translate(664.583984 0)"/>
      <use xlink:href="#DejaVuSans-20" transform="translate(728.060547 0)"/>
      <use xlink:href="#DejaVuSans-4c" transform="translate(759.847656 0)"/>
      <use xlink:href="#DejaVuSans-6f" transform="translate(813.810547 0)"/>
      <use xlink:href="#DejaVuSans-73" transform="translate(874.992188 0)"/>
      <use xlink:href="#DejaVuSans-73" transform="translate(927.091797 0)"/>
     </g>
    </g>
    <g id="line2d_41">
     <path d="M 636.320312 108.972812 
L 646.320312 108.972812 
L 656.320312 108.972812 
" style="fill: none; stroke: #440154; stroke-width: 1.5; stroke-linecap: square"/>
    </g>
    <g id="text_19">
     <!-- Fold 4 Training Loss -->
     <g transform="translate(664.320312 112.472812) scale(0.1 -0.1)">
      <use xlink:href="#DejaVuSans-46"/>
      <use xlink:href="#DejaVuSans-6f" transform="translate(53.894531 0)"/>
      <use xlink:href="#DejaVuSans-6c" transform="translate(115.076172 0)"/>
      <use xlink:href="#DejaVuSans-64" transform="translate(142.859375 0)"/>
      <use xlink:href="#DejaVuSans-20" transform="translate(206.335938 0)"/>
      <use xlink:href="#DejaVuSans-34" transform="translate(238.123047 0)"/>
      <use xlink:href="#DejaVuSans-20" transform="translate(301.746094 0)"/>
      <use xlink:href="#DejaVuSans-54" transform="translate(333.533203 0)"/>
      <use xlink:href="#DejaVuSans-72" transform="translate(379.867188 0)"/>
      <use xlink:href="#DejaVuSans-61" transform="translate(420.980469 0)"/>
      <use xlink:href="#DejaVuSans-69" transform="translate(482.259766 0)"/>
      <use xlink:href="#DejaVuSans-6e" transform="translate(510.042969 0)"/>
      <use xlink:href="#DejaVuSans-69" transform="translate(573.421875 0)"/>
      <use xlink:href="#DejaVuSans-6e" transform="translate(601.205078 0)"/>
      <use xlink:href="#DejaVuSans-67" transform="translate(664.583984 0)"/>
      <use xlink:href="#DejaVuSans-20" transform="translate(728.060547 0)"/>
      <use xlink:href="#DejaVuSans-4c" transform="translate(759.847656 0)"/>
      <use xlink:href="#DejaVuSans-6f" transform="translate(813.810547 0)"/>
      <use xlink:href="#DejaVuSans-73" transform="translate(874.992188 0)"/>
      <use xlink:href="#DejaVuSans-73" transform="translate(927.091797 0)"/>
     </g>
    </g>
    <g id="line2d_42">
     <path d="M 636.320312 123.650937 
L 646.320312 123.650937 
L 656.320312 123.650937 
" style="fill: none; stroke: #440154; stroke-width: 1.5; stroke-linecap: square"/>
    </g>
    <g id="text_20">
     <!-- Fold 5 Training Loss -->
     <g transform="translate(664.320312 127.150937) scale(0.1 -0.1)">
      <use xlink:href="#DejaVuSans-46"/>
      <use xlink:href="#DejaVuSans-6f" transform="translate(53.894531 0)"/>
      <use xlink:href="#DejaVuSans-6c" transform="translate(115.076172 0)"/>
      <use xlink:href="#DejaVuSans-64" transform="translate(142.859375 0)"/>
      <use xlink:href="#DejaVuSans-20" transform="translate(206.335938 0)"/>
      <use xlink:href="#DejaVuSans-35" transform="translate(238.123047 0)"/>
      <use xlink:href="#DejaVuSans-20" transform="translate(301.746094 0)"/>
      <use xlink:href="#DejaVuSans-54" transform="translate(333.533203 0)"/>
      <use xlink:href="#DejaVuSans-72" transform="translate(379.867188 0)"/>
      <use xlink:href="#DejaVuSans-61" transform="translate(420.980469 0)"/>
      <use xlink:href="#DejaVuSans-69" transform="translate(482.259766 0)"/>
      <use xlink:href="#DejaVuSans-6e" transform="translate(510.042969 0)"/>
      <use xlink:href="#DejaVuSans-69" transform="translate(573.421875 0)"/>
      <use xlink:href="#DejaVuSans-6e" transform="translate(601.205078 0)"/>
      <use xlink:href="#DejaVuSans-67" transform="translate(664.583984 0)"/>
      <use xlink:href="#DejaVuSans-20" transform="translate(728.060547 0)"/>
      <use xlink:href="#DejaVuSans-4c" transform="translate(759.847656 0)"/>
      <use xlink:href="#DejaVuSans-6f" transform="translate(813.810547 0)"/>
      <use xlink:href="#DejaVuSans-73" transform="translate(874.992188 0)"/>
      <use xlink:href="#DejaVuSans-73" transform="translate(927.091797 0)"/>
     </g>
    </g>
    <g id="line2d_43">
     <path d="M 636.320312 138.329062 
L 646.320312 138.329062 
L 656.320312 138.329062 
" style="fill: none; stroke: #3b528b; stroke-width: 1.5; stroke-linecap: square"/>
    </g>
    <g id="text_21">
     <!-- Fold 6 Training Loss -->
     <g transform="translate(664.320312 141.829062) scale(0.1 -0.1)">
      <use xlink:href="#DejaVuSans-46"/>
      <use xlink:href="#DejaVuSans-6f" transform="translate(53.894531 0)"/>
      <use xlink:href="#DejaVuSans-6c" transform="translate(115.076172 0)"/>
      <use xlink:href="#DejaVuSans-64" transform="translate(142.859375 0)"/>
      <use xlink:href="#DejaVuSans-20" transform="translate(206.335938 0)"/>
      <use xlink:href="#DejaVuSans-36" transform="translate(238.123047 0)"/>
      <use xlink:href="#DejaVuSans-20" transform="translate(301.746094 0)"/>
      <use xlink:href="#DejaVuSans-54" transform="translate(333.533203 0)"/>
      <use xlink:href="#DejaVuSans-72" transform="translate(379.867188 0)"/>
      <use xlink:href="#DejaVuSans-61" transform="translate(420.980469 0)"/>
      <use xlink:href="#DejaVuSans-69" transform="translate(482.259766 0)"/>
      <use xlink:href="#DejaVuSans-6e" transform="translate(510.042969 0)"/>
      <use xlink:href="#DejaVuSans-69" transform="translate(573.421875 0)"/>
      <use xlink:href="#DejaVuSans-6e" transform="translate(601.205078 0)"/>
      <use xlink:href="#DejaVuSans-67" transform="translate(664.583984 0)"/>
      <use xlink:href="#DejaVuSans-20" transform="translate(728.060547 0)"/>
      <use xlink:href="#DejaVuSans-4c" transform="translate(759.847656 0)"/>
      <use xlink:href="#DejaVuSans-6f" transform="translate(813.810547 0)"/>
      <use xlink:href="#DejaVuSans-73" transform="translate(874.992188 0)"/>
      <use xlink:href="#DejaVuSans-73" transform="translate(927.091797 0)"/>
     </g>
    </g>
    <g id="line2d_44">
     <path d="M 636.320312 153.007187 
L 646.320312 153.007187 
L 656.320312 153.007187 
" style="fill: none; stroke: #3b528b; stroke-width: 1.5; stroke-linecap: square"/>
    </g>
    <g id="text_22">
     <!-- Fold 7 Training Loss -->
     <g transform="translate(664.320312 156.507187) scale(0.1 -0.1)">
      <use xlink:href="#DejaVuSans-46"/>
      <use xlink:href="#DejaVuSans-6f" transform="translate(53.894531 0)"/>
      <use xlink:href="#DejaVuSans-6c" transform="translate(115.076172 0)"/>
      <use xlink:href="#DejaVuSans-64" transform="translate(142.859375 0)"/>
      <use xlink:href="#DejaVuSans-20" transform="translate(206.335938 0)"/>
      <use xlink:href="#DejaVuSans-37" transform="translate(238.123047 0)"/>
      <use xlink:href="#DejaVuSans-20" transform="translate(301.746094 0)"/>
      <use xlink:href="#DejaVuSans-54" transform="translate(333.533203 0)"/>
      <use xlink:href="#DejaVuSans-72" transform="translate(379.867188 0)"/>
      <use xlink:href="#DejaVuSans-61" transform="translate(420.980469 0)"/>
      <use xlink:href="#DejaVuSans-69" transform="translate(482.259766 0)"/>
      <use xlink:href="#DejaVuSans-6e" transform="translate(510.042969 0)"/>
      <use xlink:href="#DejaVuSans-69" transform="translate(573.421875 0)"/>
      <use xlink:href="#DejaVuSans-6e" transform="translate(601.205078 0)"/>
      <use xlink:href="#DejaVuSans-67" transform="translate(664.583984 0)"/>
      <use xlink:href="#DejaVuSans-20" transform="translate(728.060547 0)"/>
      <use xlink:href="#DejaVuSans-4c" transform="translate(759.847656 0)"/>
      <use xlink:href="#DejaVuSans-6f" transform="translate(813.810547 0)"/>
      <use xlink:href="#DejaVuSans-73" transform="translate(874.992188 0)"/>
      <use xlink:href="#DejaVuSans-73" transform="translate(927.091797 0)"/>
     </g>
    </g>
    <g id="line2d_45">
     <path d="M 636.320312 167.685312 
L 646.320312 167.685312 
L 656.320312 167.685312 
" style="fill: none; stroke: #3b528b; stroke-width: 1.5; stroke-linecap: square"/>
    </g>
    <g id="text_23">
     <!-- Fold 8 Training Loss -->
     <g transform="translate(664.320312 171.185312) scale(0.1 -0.1)">
      <defs>
       <path id="DejaVuSans-38" d="M 2034 2216 
Q 1584 2216 1326 1975 
Q 1069 1734 1069 1313 
Q 1069 891 1326 650 
Q 1584 409 2034 409 
Q 2484 409 2743 651 
Q 3003 894 3003 1313 
Q 3003 1734 2745 1975 
Q 2488 2216 2034 2216 
z
M 1403 2484 
Q 997 2584 770 2862 
Q 544 3141 544 3541 
Q 544 4100 942 4425 
Q 1341 4750 2034 4750 
Q 2731 4750 3128 4425 
Q 3525 4100 3525 3541 
Q 3525 3141 3298 2862 
Q 3072 2584 2669 2484 
Q 3125 2378 3379 2068 
Q 3634 1759 3634 1313 
Q 3634 634 3220 271 
Q 2806 -91 2034 -91 
Q 1263 -91 848 271 
Q 434 634 434 1313 
Q 434 1759 690 2068 
Q 947 2378 1403 2484 
z
M 1172 3481 
Q 1172 3119 1398 2916 
Q 1625 2713 2034 2713 
Q 2441 2713 2670 2916 
Q 2900 3119 2900 3481 
Q 2900 3844 2670 4047 
Q 2441 4250 2034 4250 
Q 1625 4250 1398 4047 
Q 1172 3844 1172 3481 
z
" transform="scale(0.015625)"/>
      </defs>
      <use xlink:href="#DejaVuSans-46"/>
      <use xlink:href="#DejaVuSans-6f" transform="translate(53.894531 0)"/>
      <use xlink:href="#DejaVuSans-6c" transform="translate(115.076172 0)"/>
      <use xlink:href="#DejaVuSans-64" transform="translate(142.859375 0)"/>
      <use xlink:href="#DejaVuSans-20" transform="translate(206.335938 0)"/>
      <use xlink:href="#DejaVuSans-38" transform="translate(238.123047 0)"/>
      <use xlink:href="#DejaVuSans-20" transform="translate(301.746094 0)"/>
      <use xlink:href="#DejaVuSans-54" transform="translate(333.533203 0)"/>
      <use xlink:href="#DejaVuSans-72" transform="translate(379.867188 0)"/>
      <use xlink:href="#DejaVuSans-61" transform="translate(420.980469 0)"/>
      <use xlink:href="#DejaVuSans-69" transform="translate(482.259766 0)"/>
      <use xlink:href="#DejaVuSans-6e" transform="translate(510.042969 0)"/>
      <use xlink:href="#DejaVuSans-69" transform="translate(573.421875 0)"/>
      <use xlink:href="#DejaVuSans-6e" transform="translate(601.205078 0)"/>
      <use xlink:href="#DejaVuSans-67" transform="translate(664.583984 0)"/>
      <use xlink:href="#DejaVuSans-20" transform="translate(728.060547 0)"/>
      <use xlink:href="#DejaVuSans-4c" transform="translate(759.847656 0)"/>
      <use xlink:href="#DejaVuSans-6f" transform="translate(813.810547 0)"/>
      <use xlink:href="#DejaVuSans-73" transform="translate(874.992188 0)"/>
      <use xlink:href="#DejaVuSans-73" transform="translate(927.091797 0)"/>
     </g>
    </g>
    <g id="line2d_46">
     <path d="M 636.320312 182.363437 
L 646.320312 182.363437 
L 656.320312 182.363437 
" style="fill: none; stroke: #3b528b; stroke-width: 1.5; stroke-linecap: square"/>
    </g>
    <g id="text_24">
     <!-- Fold 9 Training Loss -->
     <g transform="translate(664.320312 185.863437) scale(0.1 -0.1)">
      <defs>
       <path id="DejaVuSans-39" d="M 703 97 
L 703 672 
Q 941 559 1184 500 
Q 1428 441 1663 441 
Q 2288 441 2617 861 
Q 2947 1281 2994 2138 
Q 2813 1869 2534 1725 
Q 2256 1581 1919 1581 
Q 1219 1581 811 2004 
Q 403 2428 403 3163 
Q 403 3881 828 4315 
Q 1253 4750 1959 4750 
Q 2769 4750 3195 4129 
Q 3622 3509 3622 2328 
Q 3622 1225 3098 567 
Q 2575 -91 1691 -91 
Q 1453 -91 1209 -44 
Q 966 3 703 97 
z
M 1959 2075 
Q 2384 2075 2632 2365 
Q 2881 2656 2881 3163 
Q 2881 3666 2632 3958 
Q 2384 4250 1959 4250 
Q 1534 4250 1286 3958 
Q 1038 3666 1038 3163 
Q 1038 2656 1286 2365 
Q 1534 2075 1959 2075 
z
" transform="scale(0.015625)"/>
      </defs>
      <use xlink:href="#DejaVuSans-46"/>
      <use xlink:href="#DejaVuSans-6f" transform="translate(53.894531 0)"/>
      <use xlink:href="#DejaVuSans-6c" transform="translate(115.076172 0)"/>
      <use xlink:href="#DejaVuSans-64" transform="translate(142.859375 0)"/>
      <use xlink:href="#DejaVuSans-20" transform="translate(206.335938 0)"/>
      <use xlink:href="#DejaVuSans-39" transform="translate(238.123047 0)"/>
      <use xlink:href="#DejaVuSans-20" transform="translate(301.746094 0)"/>
      <use xlink:href="#DejaVuSans-54" transform="translate(333.533203 0)"/>
      <use xlink:href="#DejaVuSans-72" transform="translate(379.867188 0)"/>
      <use xlink:href="#DejaVuSans-61" transform="translate(420.980469 0)"/>
      <use xlink:href="#DejaVuSans-69" transform="translate(482.259766 0)"/>
      <use xlink:href="#DejaVuSans-6e" transform="translate(510.042969 0)"/>
      <use xlink:href="#DejaVuSans-69" transform="translate(573.421875 0)"/>
      <use xlink:href="#DejaVuSans-6e" transform="translate(601.205078 0)"/>
      <use xlink:href="#DejaVuSans-67" transform="translate(664.583984 0)"/>
      <use xlink:href="#DejaVuSans-20" transform="translate(728.060547 0)"/>
      <use xlink:href="#DejaVuSans-4c" transform="translate(759.847656 0)"/>
      <use xlink:href="#DejaVuSans-6f" transform="translate(813.810547 0)"/>
      <use xlink:href="#DejaVuSans-73" transform="translate(874.992188 0)"/>
      <use xlink:href="#DejaVuSans-73" transform="translate(927.091797 0)"/>
     </g>
    </g>
    <g id="line2d_47">
     <path d="M 636.320312 197.041562 
L 646.320312 197.041562 
L 656.320312 197.041562 
" style="fill: none; stroke: #3b528b; stroke-width: 1.5; stroke-linecap: square"/>
    </g>
    <g id="text_25">
     <!-- Fold 10 Training Loss -->
     <g transform="translate(664.320312 200.541562) scale(0.1 -0.1)">
      <use xlink:href="#DejaVuSans-46"/>
      <use xlink:href="#DejaVuSans-6f" transform="translate(53.894531 0)"/>
      <use xlink:href="#DejaVuSans-6c" transform="translate(115.076172 0)"/>
      <use xlink:href="#DejaVuSans-64" transform="translate(142.859375 0)"/>
      <use xlink:href="#DejaVuSans-20" transform="translate(206.335938 0)"/>
      <use xlink:href="#DejaVuSans-31" transform="translate(238.123047 0)"/>
      <use xlink:href="#DejaVuSans-30" transform="translate(301.746094 0)"/>
      <use xlink:href="#DejaVuSans-20" transform="translate(365.369141 0)"/>
      <use xlink:href="#DejaVuSans-54" transform="translate(397.15625 0)"/>
      <use xlink:href="#DejaVuSans-72" transform="translate(443.490234 0)"/>
      <use xlink:href="#DejaVuSans-61" transform="translate(484.603516 0)"/>
      <use xlink:href="#DejaVuSans-69" transform="translate(545.882812 0)"/>
      <use xlink:href="#DejaVuSans-6e" transform="translate(573.666016 0)"/>
      <use xlink:href="#DejaVuSans-69" transform="translate(637.044922 0)"/>
      <use xlink:href="#DejaVuSans-6e" transform="translate(664.828125 0)"/>
      <use xlink:href="#DejaVuSans-67" transform="translate(728.207031 0)"/>
      <use xlink:href="#DejaVuSans-20" transform="translate(791.683594 0)"/>
      <use xlink:href="#DejaVuSans-4c" transform="translate(823.470703 0)"/>
      <use xlink:href="#DejaVuSans-6f" transform="translate(877.433594 0)"/>
      <use xlink:href="#DejaVuSans-73" transform="translate(938.615234 0)"/>
      <use xlink:href="#DejaVuSans-73" transform="translate(990.714844 0)"/>
     </g>
    </g>
    <g id="line2d_48">
     <path d="M 636.320312 211.719687 
L 646.320312 211.719687 
L 656.320312 211.719687 
" style="fill: none; stroke: #21918c; stroke-width: 1.5; stroke-linecap: square"/>
    </g>
    <g id="text_26">
     <!-- Fold 11 Training Loss -->
     <g transform="translate(664.320312 215.219687) scale(0.1 -0.1)">
      <use xlink:href="#DejaVuSans-46"/>
      <use xlink:href="#DejaVuSans-6f" transform="translate(53.894531 0)"/>
      <use xlink:href="#DejaVuSans-6c" transform="translate(115.076172 0)"/>
      <use xlink:href="#DejaVuSans-64" transform="translate(142.859375 0)"/>
      <use xlink:href="#DejaVuSans-20" transform="translate(206.335938 0)"/>
      <use xlink:href="#DejaVuSans-31" transform="translate(238.123047 0)"/>
      <use xlink:href="#DejaVuSans-31" transform="translate(301.746094 0)"/>
      <use xlink:href="#DejaVuSans-20" transform="translate(365.369141 0)"/>
      <use xlink:href="#DejaVuSans-54" transform="translate(397.15625 0)"/>
      <use xlink:href="#DejaVuSans-72" transform="translate(443.490234 0)"/>
      <use xlink:href="#DejaVuSans-61" transform="translate(484.603516 0)"/>
      <use xlink:href="#DejaVuSans-69" transform="translate(545.882812 0)"/>
      <use xlink:href="#DejaVuSans-6e" transform="translate(573.666016 0)"/>
      <use xlink:href="#DejaVuSans-69" transform="translate(637.044922 0)"/>
      <use xlink:href="#DejaVuSans-6e" transform="translate(664.828125 0)"/>
      <use xlink:href="#DejaVuSans-67" transform="translate(728.207031 0)"/>
      <use xlink:href="#DejaVuSans-20" transform="translate(791.683594 0)"/>
      <use xlink:href="#DejaVuSans-4c" transform="translate(823.470703 0)"/>
      <use xlink:href="#DejaVuSans-6f" transform="translate(877.433594 0)"/>
      <use xlink:href="#DejaVuSans-73" transform="translate(938.615234 0)"/>
      <use xlink:href="#DejaVuSans-73" transform="translate(990.714844 0)"/>
     </g>
    </g>
    <g id="line2d_49">
     <path d="M 636.320312 226.397812 
L 646.320312 226.397812 
L 656.320312 226.397812 
" style="fill: none; stroke: #21918c; stroke-width: 1.5; stroke-linecap: square"/>
    </g>
    <g id="text_27">
     <!-- Fold 12 Training Loss -->
     <g transform="translate(664.320312 229.897812) scale(0.1 -0.1)">
      <use xlink:href="#DejaVuSans-46"/>
      <use xlink:href="#DejaVuSans-6f" transform="translate(53.894531 0)"/>
      <use xlink:href="#DejaVuSans-6c" transform="translate(115.076172 0)"/>
      <use xlink:href="#DejaVuSans-64" transform="translate(142.859375 0)"/>
      <use xlink:href="#DejaVuSans-20" transform="translate(206.335938 0)"/>
      <use xlink:href="#DejaVuSans-31" transform="translate(238.123047 0)"/>
      <use xlink:href="#DejaVuSans-32" transform="translate(301.746094 0)"/>
      <use xlink:href="#DejaVuSans-20" transform="translate(365.369141 0)"/>
      <use xlink:href="#DejaVuSans-54" transform="translate(397.15625 0)"/>
      <use xlink:href="#DejaVuSans-72" transform="translate(443.490234 0)"/>
      <use xlink:href="#DejaVuSans-61" transform="translate(484.603516 0)"/>
      <use xlink:href="#DejaVuSans-69" transform="translate(545.882812 0)"/>
      <use xlink:href="#DejaVuSans-6e" transform="translate(573.666016 0)"/>
      <use xlink:href="#DejaVuSans-69" transform="translate(637.044922 0)"/>
      <use xlink:href="#DejaVuSans-6e" transform="translate(664.828125 0)"/>
      <use xlink:href="#DejaVuSans-67" transform="translate(728.207031 0)"/>
      <use xlink:href="#DejaVuSans-20" transform="translate(791.683594 0)"/>
      <use xlink:href="#DejaVuSans-4c" transform="translate(823.470703 0)"/>
      <use xlink:href="#DejaVuSans-6f" transform="translate(877.433594 0)"/>
      <use xlink:href="#DejaVuSans-73" transform="translate(938.615234 0)"/>
      <use xlink:href="#DejaVuSans-73" transform="translate(990.714844 0)"/>
     </g>
    </g>
    <g id="line2d_50">
     <path d="M 636.320312 241.075937 
L 646.320312 241.075937 
L 656.320312 241.075937 
" style="fill: none; stroke: #21918c; stroke-width: 1.5; stroke-linecap: square"/>
    </g>
    <g id="text_28">
     <!-- Fold 13 Training Loss -->
     <g transform="translate(664.320312 244.575937) scale(0.1 -0.1)">
      <use xlink:href="#DejaVuSans-46"/>
      <use xlink:href="#DejaVuSans-6f" transform="translate(53.894531 0)"/>
      <use xlink:href="#DejaVuSans-6c" transform="translate(115.076172 0)"/>
      <use xlink:href="#DejaVuSans-64" transform="translate(142.859375 0)"/>
      <use xlink:href="#DejaVuSans-20" transform="translate(206.335938 0)"/>
      <use xlink:href="#DejaVuSans-31" transform="translate(238.123047 0)"/>
      <use xlink:href="#DejaVuSans-33" transform="translate(301.746094 0)"/>
      <use xlink:href="#DejaVuSans-20" transform="translate(365.369141 0)"/>
      <use xlink:href="#DejaVuSans-54" transform="translate(397.15625 0)"/>
      <use xlink:href="#DejaVuSans-72" transform="translate(443.490234 0)"/>
      <use xlink:href="#DejaVuSans-61" transform="translate(484.603516 0)"/>
      <use xlink:href="#DejaVuSans-69" transform="translate(545.882812 0)"/>
      <use xlink:href="#DejaVuSans-6e" transform="translate(573.666016 0)"/>
      <use xlink:href="#DejaVuSans-69" transform="translate(637.044922 0)"/>
      <use xlink:href="#DejaVuSans-6e" transform="translate(664.828125 0)"/>
      <use xlink:href="#DejaVuSans-67" transform="translate(728.207031 0)"/>
      <use xlink:href="#DejaVuSans-20" transform="translate(791.683594 0)"/>
      <use xlink:href="#DejaVuSans-4c" transform="translate(823.470703 0)"/>
      <use xlink:href="#DejaVuSans-6f" transform="translate(877.433594 0)"/>
      <use xlink:href="#DejaVuSans-73" transform="translate(938.615234 0)"/>
      <use xlink:href="#DejaVuSans-73" transform="translate(990.714844 0)"/>
     </g>
    </g>
    <g id="line2d_51">
     <path d="M 636.320312 255.754062 
L 646.320312 255.754062 
L 656.320312 255.754062 
" style="fill: none; stroke: #21918c; stroke-width: 1.5; stroke-linecap: square"/>
    </g>
    <g id="text_29">
     <!-- Fold 14 Training Loss -->
     <g transform="translate(664.320312 259.254062) scale(0.1 -0.1)">
      <use xlink:href="#DejaVuSans-46"/>
      <use xlink:href="#DejaVuSans-6f" transform="translate(53.894531 0)"/>
      <use xlink:href="#DejaVuSans-6c" transform="translate(115.076172 0)"/>
      <use xlink:href="#DejaVuSans-64" transform="translate(142.859375 0)"/>
      <use xlink:href="#DejaVuSans-20" transform="translate(206.335938 0)"/>
      <use xlink:href="#DejaVuSans-31" transform="translate(238.123047 0)"/>
      <use xlink:href="#DejaVuSans-34" transform="translate(301.746094 0)"/>
      <use xlink:href="#DejaVuSans-20" transform="translate(365.369141 0)"/>
      <use xlink:href="#DejaVuSans-54" transform="translate(397.15625 0)"/>
      <use xlink:href="#DejaVuSans-72" transform="translate(443.490234 0)"/>
      <use xlink:href="#DejaVuSans-61" transform="translate(484.603516 0)"/>
      <use xlink:href="#DejaVuSans-69" transform="translate(545.882812 0)"/>
      <use xlink:href="#DejaVuSans-6e" transform="translate(573.666016 0)"/>
      <use xlink:href="#DejaVuSans-69" transform="translate(637.044922 0)"/>
      <use xlink:href="#DejaVuSans-6e" transform="translate(664.828125 0)"/>
      <use xlink:href="#DejaVuSans-67" transform="translate(728.207031 0)"/>
      <use xlink:href="#DejaVuSans-20" transform="translate(791.683594 0)"/>
      <use xlink:href="#DejaVuSans-4c" transform="translate(823.470703 0)"/>
      <use xlink:href="#DejaVuSans-6f" transform="translate(877.433594 0)"/>
      <use xlink:href="#DejaVuSans-73" transform="translate(938.615234 0)"/>
      <use xlink:href="#DejaVuSans-73" transform="translate(990.714844 0)"/>
     </g>
    </g>
    <g id="line2d_52">
     <path d="M 636.320312 270.432187 
L 646.320312 270.432187 
L 656.320312 270.432187 
" style="fill: none; stroke: #21918c; stroke-width: 1.5; stroke-linecap: square"/>
    </g>
    <g id="text_30">
     <!-- Fold 15 Training Loss -->
     <g transform="translate(664.320312 273.932187) scale(0.1 -0.1)">
      <use xlink:href="#DejaVuSans-46"/>
      <use xlink:href="#DejaVuSans-6f" transform="translate(53.894531 0)"/>
      <use xlink:href="#DejaVuSans-6c" transform="translate(115.076172 0)"/>
      <use xlink:href="#DejaVuSans-64" transform="translate(142.859375 0)"/>
      <use xlink:href="#DejaVuSans-20" transform="translate(206.335938 0)"/>
      <use xlink:href="#DejaVuSans-31" transform="translate(238.123047 0)"/>
      <use xlink:href="#DejaVuSans-35" transform="translate(301.746094 0)"/>
      <use xlink:href="#DejaVuSans-20" transform="translate(365.369141 0)"/>
      <use xlink:href="#DejaVuSans-54" transform="translate(397.15625 0)"/>
      <use xlink:href="#DejaVuSans-72" transform="translate(443.490234 0)"/>
      <use xlink:href="#DejaVuSans-61" transform="translate(484.603516 0)"/>
      <use xlink:href="#DejaVuSans-69" transform="translate(545.882812 0)"/>
      <use xlink:href="#DejaVuSans-6e" transform="translate(573.666016 0)"/>
      <use xlink:href="#DejaVuSans-69" transform="translate(637.044922 0)"/>
      <use xlink:href="#DejaVuSans-6e" transform="translate(664.828125 0)"/>
      <use xlink:href="#DejaVuSans-67" transform="translate(728.207031 0)"/>
      <use xlink:href="#DejaVuSans-20" transform="translate(791.683594 0)"/>
      <use xlink:href="#DejaVuSans-4c" transform="translate(823.470703 0)"/>
      <use xlink:href="#DejaVuSans-6f" transform="translate(877.433594 0)"/>
      <use xlink:href="#DejaVuSans-73" transform="translate(938.615234 0)"/>
      <use xlink:href="#DejaVuSans-73" transform="translate(990.714844 0)"/>
     </g>
    </g>
    <g id="line2d_53">
     <path d="M 636.320312 285.110312 
L 646.320312 285.110312 
L 656.320312 285.110312 
" style="fill: none; stroke: #5ec962; stroke-width: 1.5; stroke-linecap: square"/>
    </g>
    <g id="text_31">
     <!-- Fold 16 Training Loss -->
     <g transform="translate(664.320312 288.610312) scale(0.1 -0.1)">
      <use xlink:href="#DejaVuSans-46"/>
      <use xlink:href="#DejaVuSans-6f" transform="translate(53.894531 0)"/>
      <use xlink:href="#DejaVuSans-6c" transform="translate(115.076172 0)"/>
      <use xlink:href="#DejaVuSans-64" transform="translate(142.859375 0)"/>
      <use xlink:href="#DejaVuSans-20" transform="translate(206.335938 0)"/>
      <use xlink:href="#DejaVuSans-31" transform="translate(238.123047 0)"/>
      <use xlink:href="#DejaVuSans-36" transform="translate(301.746094 0)"/>
      <use xlink:href="#DejaVuSans-20" transform="translate(365.369141 0)"/>
      <use xlink:href="#DejaVuSans-54" transform="translate(397.15625 0)"/>
      <use xlink:href="#DejaVuSans-72" transform="translate(443.490234 0)"/>
      <use xlink:href="#DejaVuSans-61" transform="translate(484.603516 0)"/>
      <use xlink:href="#DejaVuSans-69" transform="translate(545.882812 0)"/>
      <use xlink:href="#DejaVuSans-6e" transform="translate(573.666016 0)"/>
      <use xlink:href="#DejaVuSans-69" transform="translate(637.044922 0)"/>
      <use xlink:href="#DejaVuSans-6e" transform="translate(664.828125 0)"/>
      <use xlink:href="#DejaVuSans-67" transform="translate(728.207031 0)"/>
      <use xlink:href="#DejaVuSans-20" transform="translate(791.683594 0)"/>
      <use xlink:href="#DejaVuSans-4c" transform="translate(823.470703 0)"/>
      <use xlink:href="#DejaVuSans-6f" transform="translate(877.433594 0)"/>
      <use xlink:href="#DejaVuSans-73" transform="translate(938.615234 0)"/>
      <use xlink:href="#DejaVuSans-73" transform="translate(990.714844 0)"/>
     </g>
    </g>
    <g id="line2d_54">
     <path d="M 636.320312 299.788437 
L 646.320312 299.788437 
L 656.320312 299.788437 
" style="fill: none; stroke: #5ec962; stroke-width: 1.5; stroke-linecap: square"/>
    </g>
    <g id="text_32">
     <!-- Fold 17 Training Loss -->
     <g transform="translate(664.320312 303.288437) scale(0.1 -0.1)">
      <use xlink:href="#DejaVuSans-46"/>
      <use xlink:href="#DejaVuSans-6f" transform="translate(53.894531 0)"/>
      <use xlink:href="#DejaVuSans-6c" transform="translate(115.076172 0)"/>
      <use xlink:href="#DejaVuSans-64" transform="translate(142.859375 0)"/>
      <use xlink:href="#DejaVuSans-20" transform="translate(206.335938 0)"/>
      <use xlink:href="#DejaVuSans-31" transform="translate(238.123047 0)"/>
      <use xlink:href="#DejaVuSans-37" transform="translate(301.746094 0)"/>
      <use xlink:href="#DejaVuSans-20" transform="translate(365.369141 0)"/>
      <use xlink:href="#DejaVuSans-54" transform="translate(397.15625 0)"/>
      <use xlink:href="#DejaVuSans-72" transform="translate(443.490234 0)"/>
      <use xlink:href="#DejaVuSans-61" transform="translate(484.603516 0)"/>
      <use xlink:href="#DejaVuSans-69" transform="translate(545.882812 0)"/>
      <use xlink:href="#DejaVuSans-6e" transform="translate(573.666016 0)"/>
      <use xlink:href="#DejaVuSans-69" transform="translate(637.044922 0)"/>
      <use xlink:href="#DejaVuSans-6e" transform="translate(664.828125 0)"/>
      <use xlink:href="#DejaVuSans-67" transform="translate(728.207031 0)"/>
      <use xlink:href="#DejaVuSans-20" transform="translate(791.683594 0)"/>
      <use xlink:href="#DejaVuSans-4c" transform="translate(823.470703 0)"/>
      <use xlink:href="#DejaVuSans-6f" transform="translate(877.433594 0)"/>
      <use xlink:href="#DejaVuSans-73" transform="translate(938.615234 0)"/>
      <use xlink:href="#DejaVuSans-73" transform="translate(990.714844 0)"/>
     </g>
    </g>
    <g id="line2d_55">
     <path d="M 636.320312 314.466562 
L 646.320312 314.466562 
L 656.320312 314.466562 
" style="fill: none; stroke: #5ec962; stroke-width: 1.5; stroke-linecap: square"/>
    </g>
    <g id="text_33">
     <!-- Fold 18 Training Loss -->
     <g transform="translate(664.320312 317.966562) scale(0.1 -0.1)">
      <use xlink:href="#DejaVuSans-46"/>
      <use xlink:href="#DejaVuSans-6f" transform="translate(53.894531 0)"/>
      <use xlink:href="#DejaVuSans-6c" transform="translate(115.076172 0)"/>
      <use xlink:href="#DejaVuSans-64" transform="translate(142.859375 0)"/>
      <use xlink:href="#DejaVuSans-20" transform="translate(206.335938 0)"/>
      <use xlink:href="#DejaVuSans-31" transform="translate(238.123047 0)"/>
      <use xlink:href="#DejaVuSans-38" transform="translate(301.746094 0)"/>
      <use xlink:href="#DejaVuSans-20" transform="translate(365.369141 0)"/>
      <use xlink:href="#DejaVuSans-54" transform="translate(397.15625 0)"/>
      <use xlink:href="#DejaVuSans-72" transform="translate(443.490234 0)"/>
      <use xlink:href="#DejaVuSans-61" transform="translate(484.603516 0)"/>
      <use xlink:href="#DejaVuSans-69" transform="translate(545.882812 0)"/>
      <use xlink:href="#DejaVuSans-6e" transform="translate(573.666016 0)"/>
      <use xlink:href="#DejaVuSans-69" transform="translate(637.044922 0)"/>
      <use xlink:href="#DejaVuSans-6e" transform="translate(664.828125 0)"/>
      <use xlink:href="#DejaVuSans-67" transform="translate(728.207031 0)"/>
      <use xlink:href="#DejaVuSans-20" transform="translate(791.683594 0)"/>
      <use xlink:href="#DejaVuSans-4c" transform="translate(823.470703 0)"/>
      <use xlink:href="#DejaVuSans-6f" transform="translate(877.433594 0)"/>
      <use xlink:href="#DejaVuSans-73" transform="translate(938.615234 0)"/>
      <use xlink:href="#DejaVuSans-73" transform="translate(990.714844 0)"/>
     </g>
    </g>
    <g id="line2d_56">
     <path d="M 636.320312 329.144687 
L 646.320312 329.144687 
L 656.320312 329.144687 
" style="fill: none; stroke: #5ec962; stroke-width: 1.5; stroke-linecap: square"/>
    </g>
    <g id="text_34">
     <!-- Fold 19 Training Loss -->
     <g transform="translate(664.320312 332.644687) scale(0.1 -0.1)">
      <use xlink:href="#DejaVuSans-46"/>
      <use xlink:href="#DejaVuSans-6f" transform="translate(53.894531 0)"/>
      <use xlink:href="#DejaVuSans-6c" transform="translate(115.076172 0)"/>
      <use xlink:href="#DejaVuSans-64" transform="translate(142.859375 0)"/>
      <use xlink:href="#DejaVuSans-20" transform="translate(206.335938 0)"/>
      <use xlink:href="#DejaVuSans-31" transform="translate(238.123047 0)"/>
      <use xlink:href="#DejaVuSans-39" transform="translate(301.746094 0)"/>
      <use xlink:href="#DejaVuSans-20" transform="translate(365.369141 0)"/>
      <use xlink:href="#DejaVuSans-54" transform="translate(397.15625 0)"/>
      <use xlink:href="#DejaVuSans-72" transform="translate(443.490234 0)"/>
      <use xlink:href="#DejaVuSans-61" transform="translate(484.603516 0)"/>
      <use xlink:href="#DejaVuSans-69" transform="translate(545.882812 0)"/>
      <use xlink:href="#DejaVuSans-6e" transform="translate(573.666016 0)"/>
      <use xlink:href="#DejaVuSans-69" transform="translate(637.044922 0)"/>
      <use xlink:href="#DejaVuSans-6e" transform="translate(664.828125 0)"/>
      <use xlink:href="#DejaVuSans-67" transform="translate(728.207031 0)"/>
      <use xlink:href="#DejaVuSans-20" transform="translate(791.683594 0)"/>
      <use xlink:href="#DejaVuSans-4c" transform="translate(823.470703 0)"/>
      <use xlink:href="#DejaVuSans-6f" transform="translate(877.433594 0)"/>
      <use xlink:href="#DejaVuSans-73" transform="translate(938.615234 0)"/>
      <use xlink:href="#DejaVuSans-73" transform="translate(990.714844 0)"/>
     </g>
    </g>
    <g id="line2d_57">
     <path d="M 636.320312 343.822812 
L 646.320312 343.822812 
L 656.320312 343.822812 
" style="fill: none; stroke: #5ec962; stroke-width: 1.5; stroke-linecap: square"/>
    </g>
    <g id="text_35">
     <!-- Fold 20 Training Loss -->
     <g transform="translate(664.320312 347.322812) scale(0.1 -0.1)">
      <use xlink:href="#DejaVuSans-46"/>
      <use xlink:href="#DejaVuSans-6f" transform="translate(53.894531 0)"/>
      <use xlink:href="#DejaVuSans-6c" transform="translate(115.076172 0)"/>
      <use xlink:href="#DejaVuSans-64" transform="translate(142.859375 0)"/>
      <use xlink:href="#DejaVuSans-20" transform="translate(206.335938 0)"/>
      <use xlink:href="#DejaVuSans-32" transform="translate(238.123047 0)"/>
      <use xlink:href="#DejaVuSans-30" transform="translate(301.746094 0)"/>
      <use xlink:href="#DejaVuSans-20" transform="translate(365.369141 0)"/>
      <use xlink:href="#DejaVuSans-54" transform="translate(397.15625 0)"/>
      <use xlink:href="#DejaVuSans-72" transform="translate(443.490234 0)"/>
      <use xlink:href="#DejaVuSans-61" transform="translate(484.603516 0)"/>
      <use xlink:href="#DejaVuSans-69" transform="translate(545.882812 0)"/>
      <use xlink:href="#DejaVuSans-6e" transform="translate(573.666016 0)"/>
      <use xlink:href="#DejaVuSans-69" transform="translate(637.044922 0)"/>
      <use xlink:href="#DejaVuSans-6e" transform="translate(664.828125 0)"/>
      <use xlink:href="#DejaVuSans-67" transform="translate(728.207031 0)"/>
      <use xlink:href="#DejaVuSans-20" transform="translate(791.683594 0)"/>
      <use xlink:href="#DejaVuSans-4c" transform="translate(823.470703 0)"/>
      <use xlink:href="#DejaVuSans-6f" transform="translate(877.433594 0)"/>
      <use xlink:href="#DejaVuSans-73" transform="translate(938.615234 0)"/>
      <use xlink:href="#DejaVuSans-73" transform="translate(990.714844 0)"/>
     </g>
    </g>
    <g id="line2d_58">
     <path d="M 636.320312 358.500937 
L 646.320312 358.500937 
L 656.320312 358.500937 
" style="fill: none; stroke: #fde725; stroke-width: 1.5; stroke-linecap: square"/>
    </g>
    <g id="text_36">
     <!-- Fold 21 Training Loss -->
     <g transform="translate(664.320312 362.000937) scale(0.1 -0.1)">
      <use xlink:href="#DejaVuSans-46"/>
      <use xlink:href="#DejaVuSans-6f" transform="translate(53.894531 0)"/>
      <use xlink:href="#DejaVuSans-6c" transform="translate(115.076172 0)"/>
      <use xlink:href="#DejaVuSans-64" transform="translate(142.859375 0)"/>
      <use xlink:href="#DejaVuSans-20" transform="translate(206.335938 0)"/>
      <use xlink:href="#DejaVuSans-32" transform="translate(238.123047 0)"/>
      <use xlink:href="#DejaVuSans-31" transform="translate(301.746094 0)"/>
      <use xlink:href="#DejaVuSans-20" transform="translate(365.369141 0)"/>
      <use xlink:href="#DejaVuSans-54" transform="translate(397.15625 0)"/>
      <use xlink:href="#DejaVuSans-72" transform="translate(443.490234 0)"/>
      <use xlink:href="#DejaVuSans-61" transform="translate(484.603516 0)"/>
      <use xlink:href="#DejaVuSans-69" transform="translate(545.882812 0)"/>
      <use xlink:href="#DejaVuSans-6e" transform="translate(573.666016 0)"/>
      <use xlink:href="#DejaVuSans-69" transform="translate(637.044922 0)"/>
      <use xlink:href="#DejaVuSans-6e" transform="translate(664.828125 0)"/>
      <use xlink:href="#DejaVuSans-67" transform="translate(728.207031 0)"/>
      <use xlink:href="#DejaVuSans-20" transform="translate(791.683594 0)"/>
      <use xlink:href="#DejaVuSans-4c" transform="translate(823.470703 0)"/>
      <use xlink:href="#DejaVuSans-6f" transform="translate(877.433594 0)"/>
      <use xlink:href="#DejaVuSans-73" transform="translate(938.615234 0)"/>
      <use xlink:href="#DejaVuSans-73" transform="translate(990.714844 0)"/>
     </g>
    </g>
    <g id="line2d_59">
     <path d="M 636.320312 373.179062 
L 646.320312 373.179062 
L 656.320312 373.179062 
" style="fill: none; stroke: #fde725; stroke-width: 1.5; stroke-linecap: square"/>
    </g>
    <g id="text_37">
     <!-- Fold 22 Training Loss -->
     <g transform="translate(664.320312 376.679062) scale(0.1 -0.1)">
      <use xlink:href="#DejaVuSans-46"/>
      <use xlink:href="#DejaVuSans-6f" transform="translate(53.894531 0)"/>
      <use xlink:href="#DejaVuSans-6c" transform="translate(115.076172 0)"/>
      <use xlink:href="#DejaVuSans-64" transform="translate(142.859375 0)"/>
      <use xlink:href="#DejaVuSans-20" transform="translate(206.335938 0)"/>
      <use xlink:href="#DejaVuSans-32" transform="translate(238.123047 0)"/>
      <use xlink:href="#DejaVuSans-32" transform="translate(301.746094 0)"/>
      <use xlink:href="#DejaVuSans-20" transform="translate(365.369141 0)"/>
      <use xlink:href="#DejaVuSans-54" transform="translate(397.15625 0)"/>
      <use xlink:href="#DejaVuSans-72" transform="translate(443.490234 0)"/>
      <use xlink:href="#DejaVuSans-61" transform="translate(484.603516 0)"/>
      <use xlink:href="#DejaVuSans-69" transform="translate(545.882812 0)"/>
      <use xlink:href="#DejaVuSans-6e" transform="translate(573.666016 0)"/>
      <use xlink:href="#DejaVuSans-69" transform="translate(637.044922 0)"/>
      <use xlink:href="#DejaVuSans-6e" transform="translate(664.828125 0)"/>
      <use xlink:href="#DejaVuSans-67" transform="translate(728.207031 0)"/>
      <use xlink:href="#DejaVuSans-20" transform="translate(791.683594 0)"/>
      <use xlink:href="#DejaVuSans-4c" transform="translate(823.470703 0)"/>
      <use xlink:href="#DejaVuSans-6f" transform="translate(877.433594 0)"/>
      <use xlink:href="#DejaVuSans-73" transform="translate(938.615234 0)"/>
      <use xlink:href="#DejaVuSans-73" transform="translate(990.714844 0)"/>
     </g>
    </g>
    <g id="line2d_60">
     <path d="M 636.320312 387.857188 
L 646.320312 387.857188 
L 656.320312 387.857188 
" style="fill: none; stroke: #fde725; stroke-width: 1.5; stroke-linecap: square"/>
    </g>
    <g id="text_38">
     <!-- Fold 23 Training Loss -->
     <g transform="translate(664.320312 391.357188) scale(0.1 -0.1)">
      <use xlink:href="#DejaVuSans-46"/>
      <use xlink:href="#DejaVuSans-6f" transform="translate(53.894531 0)"/>
      <use xlink:href="#DejaVuSans-6c" transform="translate(115.076172 0)"/>
      <use xlink:href="#DejaVuSans-64" transform="translate(142.859375 0)"/>
      <use xlink:href="#DejaVuSans-20" transform="translate(206.335938 0)"/>
      <use xlink:href="#DejaVuSans-32" transform="translate(238.123047 0)"/>
      <use xlink:href="#DejaVuSans-33" transform="translate(301.746094 0)"/>
      <use xlink:href="#DejaVuSans-20" transform="translate(365.369141 0)"/>
      <use xlink:href="#DejaVuSans-54" transform="translate(397.15625 0)"/>
      <use xlink:href="#DejaVuSans-72" transform="translate(443.490234 0)"/>
      <use xlink:href="#DejaVuSans-61" transform="translate(484.603516 0)"/>
      <use xlink:href="#DejaVuSans-69" transform="translate(545.882812 0)"/>
      <use xlink:href="#DejaVuSans-6e" transform="translate(573.666016 0)"/>
      <use xlink:href="#DejaVuSans-69" transform="translate(637.044922 0)"/>
      <use xlink:href="#DejaVuSans-6e" transform="translate(664.828125 0)"/>
      <use xlink:href="#DejaVuSans-67" transform="translate(728.207031 0)"/>
      <use xlink:href="#DejaVuSans-20" transform="translate(791.683594 0)"/>
      <use xlink:href="#DejaVuSans-4c" transform="translate(823.470703 0)"/>
      <use xlink:href="#DejaVuSans-6f" transform="translate(877.433594 0)"/>
      <use xlink:href="#DejaVuSans-73" transform="translate(938.615234 0)"/>
      <use xlink:href="#DejaVuSans-73" transform="translate(990.714844 0)"/>
     </g>
    </g>
    <g id="line2d_61">
     <path d="M 636.320312 402.535313 
L 646.320312 402.535313 
L 656.320312 402.535313 
" style="fill: none; stroke: #fde725; stroke-width: 1.5; stroke-linecap: square"/>
    </g>
    <g id="text_39">
     <!-- Fold 24 Training Loss -->
     <g transform="translate(664.320312 406.035313) scale(0.1 -0.1)">
      <use xlink:href="#DejaVuSans-46"/>
      <use xlink:href="#DejaVuSans-6f" transform="translate(53.894531 0)"/>
      <use xlink:href="#DejaVuSans-6c" transform="translate(115.076172 0)"/>
      <use xlink:href="#DejaVuSans-64" transform="translate(142.859375 0)"/>
      <use xlink:href="#DejaVuSans-20" transform="translate(206.335938 0)"/>
      <use xlink:href="#DejaVuSans-32" transform="translate(238.123047 0)"/>
      <use xlink:href="#DejaVuSans-34" transform="translate(301.746094 0)"/>
      <use xlink:href="#DejaVuSans-20" transform="translate(365.369141 0)"/>
      <use xlink:href="#DejaVuSans-54" transform="translate(397.15625 0)"/>
      <use xlink:href="#DejaVuSans-72" transform="translate(443.490234 0)"/>
      <use xlink:href="#DejaVuSans-61" transform="translate(484.603516 0)"/>
      <use xlink:href="#DejaVuSans-69" transform="translate(545.882812 0)"/>
      <use xlink:href="#DejaVuSans-6e" transform="translate(573.666016 0)"/>
      <use xlink:href="#DejaVuSans-69" transform="translate(637.044922 0)"/>
      <use xlink:href="#DejaVuSans-6e" transform="translate(664.828125 0)"/>
      <use xlink:href="#DejaVuSans-67" transform="translate(728.207031 0)"/>
      <use xlink:href="#DejaVuSans-20" transform="translate(791.683594 0)"/>
      <use xlink:href="#DejaVuSans-4c" transform="translate(823.470703 0)"/>
      <use xlink:href="#DejaVuSans-6f" transform="translate(877.433594 0)"/>
      <use xlink:href="#DejaVuSans-73" transform="translate(938.615234 0)"/>
      <use xlink:href="#DejaVuSans-73" transform="translate(990.714844 0)"/>
     </g>
    </g>
    <g id="line2d_62">
     <path d="M 636.320312 417.213438 
L 646.320312 417.213438 
L 656.320312 417.213438 
" style="fill: none; stroke: #fde725; stroke-width: 1.5; stroke-linecap: square"/>
    </g>
    <g id="text_40">
     <!-- Fold 25 Training Loss -->
     <g transform="translate(664.320312 420.713438) scale(0.1 -0.1)">
      <use xlink:href="#DejaVuSans-46"/>
      <use xlink:href="#DejaVuSans-6f" transform="translate(53.894531 0)"/>
      <use xlink:href="#DejaVuSans-6c" transform="translate(115.076172 0)"/>
      <use xlink:href="#DejaVuSans-64" transform="translate(142.859375 0)"/>
      <use xlink:href="#DejaVuSans-20" transform="translate(206.335938 0)"/>
      <use xlink:href="#DejaVuSans-32" transform="translate(238.123047 0)"/>
      <use xlink:href="#DejaVuSans-35" transform="translate(301.746094 0)"/>
      <use xlink:href="#DejaVuSans-20" transform="translate(365.369141 0)"/>
      <use xlink:href="#DejaVuSans-54" transform="translate(397.15625 0)"/>
      <use xlink:href="#DejaVuSans-72" transform="translate(443.490234 0)"/>
      <use xlink:href="#DejaVuSans-61" transform="translate(484.603516 0)"/>
      <use xlink:href="#DejaVuSans-69" transform="translate(545.882812 0)"/>
      <use xlink:href="#DejaVuSans-6e" transform="translate(573.666016 0)"/>
      <use xlink:href="#DejaVuSans-69" transform="translate(637.044922 0)"/>
      <use xlink:href="#DejaVuSans-6e" transform="translate(664.828125 0)"/>
      <use xlink:href="#DejaVuSans-67" transform="translate(728.207031 0)"/>
      <use xlink:href="#DejaVuSans-20" transform="translate(791.683594 0)"/>
      <use xlink:href="#DejaVuSans-4c" transform="translate(823.470703 0)"/>
      <use xlink:href="#DejaVuSans-6f" transform="translate(877.433594 0)"/>
      <use xlink:href="#DejaVuSans-73" transform="translate(938.615234 0)"/>
      <use xlink:href="#DejaVuSans-73" transform="translate(990.714844 0)"/>
     </g>
    </g>
   </g>
  </g>
 </g>
 <defs>
  <clipPath id="p770b75d268">
   <rect x="108" y="51.84" width="669.6" height="332.64"/>
  </clipPath>
 </defs>
</svg>
