<?xml version="1.0" encoding="utf-8" standalone="no"?>
<!DOCTYPE svg PUBLIC "-//W3C//DTD SVG 1.1//EN"
  "http://www.w3.org/Graphics/SVG/1.1/DTD/svg11.dtd">
<svg xmlns:xlink="http://www.w3.org/1999/xlink" width="864pt" height="432pt" viewBox="0 0 864 432" xmlns="http://www.w3.org/2000/svg" version="1.1">
 <metadata>
  <rdf:RDF xmlns:dc="http://purl.org/dc/elements/1.1/" xmlns:cc="http://creativecommons.org/ns#" xmlns:rdf="http://www.w3.org/1999/02/22-rdf-syntax-ns#">
   <cc:Work>
    <dc:type rdf:resource="http://purl.org/dc/dcmitype/StillImage"/>
    <dc:date>2024-08-21T23:07:28.417387</dc:date>
    <dc:format>image/svg+xml</dc:format>
    <dc:creator>
     <cc:Agent>
      <dc:title>Matplotlib v3.9.2, https://matplotlib.org/</dc:title>
     </cc:Agent>
    </dc:creator>
   </cc:Work>
  </rdf:RDF>
 </metadata>
 <defs>
  <style type="text/css">*{stroke-linejoin: round; stroke-linecap: butt}</style>
 </defs>
 <g id="figure_1">
  <g id="patch_1">
   <path d="M 0 432 
L 864 432 
L 864 0 
L 0 0 
z
" style="fill: #ffffff"/>
  </g>
  <g id="axes_1">
   <g id="patch_2">
    <path d="M 108 384.48 
L 777.6 384.48 
L 777.6 51.84 
L 108 51.84 
z
" style="fill: #ffffff"/>
   </g>
   <g id="matplotlib.axis_1">
    <g id="xtick_1">
     <g id="line2d_1">
      <defs>
       <path id="m5bc1df706a" d="M 0 0 
L 0 3.5 
" style="stroke: #000000; stroke-width: 0.8"/>
      </defs>
      <g>
       <use xlink:href="#m5bc1df706a" x="133.527273" y="384.48" style="stroke: #000000; stroke-width: 0.8"/>
      </g>
     </g>
     <g id="text_1">
      <!-- 0 -->
      <g transform="translate(130.346023 399.078438) scale(0.1 -0.1)">
       <defs>
        <path id="DejaVuSans-30" d="M 2034 4250 
Q 1547 4250 1301 3770 
Q 1056 3291 1056 2328 
Q 1056 1369 1301 889 
Q 1547 409 2034 409 
Q 2525 409 2770 889 
Q 3016 1369 3016 2328 
Q 3016 3291 2770 3770 
Q 2525 4250 2034 4250 
z
M 2034 4750 
Q 2819 4750 3233 4129 
Q 3647 3509 3647 2328 
Q 3647 1150 3233 529 
Q 2819 -91 2034 -91 
Q 1250 -91 836 529 
Q 422 1150 422 2328 
Q 422 3509 836 4129 
Q 1250 4750 2034 4750 
z
" transform="scale(0.015625)"/>
       </defs>
       <use xlink:href="#DejaVuSans-30"/>
      </g>
     </g>
    </g>
    <g id="xtick_2">
     <g id="line2d_2">
      <g>
       <use xlink:href="#m5bc1df706a" x="231.709091" y="384.48" style="stroke: #000000; stroke-width: 0.8"/>
      </g>
     </g>
     <g id="text_2">
      <!-- 20 -->
      <g transform="translate(225.346591 399.078438) scale(0.1 -0.1)">
       <defs>
        <path id="DejaVuSans-32" d="M 1228 531 
L 3431 531 
L 3431 0 
L 469 0 
L 469 531 
Q 828 903 1448 1529 
Q 2069 2156 2228 2338 
Q 2531 2678 2651 2914 
Q 2772 3150 2772 3378 
Q 2772 3750 2511 3984 
Q 2250 4219 1831 4219 
Q 1534 4219 1204 4116 
Q 875 4013 500 3803 
L 500 4441 
Q 881 4594 1212 4672 
Q 1544 4750 1819 4750 
Q 2544 4750 2975 4387 
Q 3406 4025 3406 3419 
Q 3406 3131 3298 2873 
Q 3191 2616 2906 2266 
Q 2828 2175 2409 1742 
Q 1991 1309 1228 531 
z
" transform="scale(0.015625)"/>
       </defs>
       <use xlink:href="#DejaVuSans-32"/>
       <use xlink:href="#DejaVuSans-30" x="63.623047"/>
      </g>
     </g>
    </g>
    <g id="xtick_3">
     <g id="line2d_3">
      <g>
       <use xlink:href="#m5bc1df706a" x="329.890909" y="384.48" style="stroke: #000000; stroke-width: 0.8"/>
      </g>
     </g>
     <g id="text_3">
      <!-- 40 -->
      <g transform="translate(323.528409 399.078438) scale(0.1 -0.1)">
       <defs>
        <path id="DejaVuSans-34" d="M 2419 4116 
L 825 1625 
L 2419 1625 
L 2419 4116 
z
M 2253 4666 
L 3047 4666 
L 3047 1625 
L 3713 1625 
L 3713 1100 
L 3047 1100 
L 3047 0 
L 2419 0 
L 2419 1100 
L 313 1100 
L 313 1709 
L 2253 4666 
z
" transform="scale(0.015625)"/>
       </defs>
       <use xlink:href="#DejaVuSans-34"/>
       <use xlink:href="#DejaVuSans-30" x="63.623047"/>
      </g>
     </g>
    </g>
    <g id="xtick_4">
     <g id="line2d_4">
      <g>
       <use xlink:href="#m5bc1df706a" x="428.072727" y="384.48" style="stroke: #000000; stroke-width: 0.8"/>
      </g>
     </g>
     <g id="text_4">
      <!-- 60 -->
      <g transform="translate(421.710227 399.078438) scale(0.1 -0.1)">
       <defs>
        <path id="DejaVuSans-36" d="M 2113 2584 
Q 1688 2584 1439 2293 
Q 1191 2003 1191 1497 
Q 1191 994 1439 701 
Q 1688 409 2113 409 
Q 2538 409 2786 701 
Q 3034 994 3034 1497 
Q 3034 2003 2786 2293 
Q 2538 2584 2113 2584 
z
M 3366 4563 
L 3366 3988 
Q 3128 4100 2886 4159 
Q 2644 4219 2406 4219 
Q 1781 4219 1451 3797 
Q 1122 3375 1075 2522 
Q 1259 2794 1537 2939 
Q 1816 3084 2150 3084 
Q 2853 3084 3261 2657 
Q 3669 2231 3669 1497 
Q 3669 778 3244 343 
Q 2819 -91 2113 -91 
Q 1303 -91 875 529 
Q 447 1150 447 2328 
Q 447 3434 972 4092 
Q 1497 4750 2381 4750 
Q 2619 4750 2861 4703 
Q 3103 4656 3366 4563 
z
" transform="scale(0.015625)"/>
       </defs>
       <use xlink:href="#DejaVuSans-36"/>
       <use xlink:href="#DejaVuSans-30" x="63.623047"/>
      </g>
     </g>
    </g>
    <g id="xtick_5">
     <g id="line2d_5">
      <g>
       <use xlink:href="#m5bc1df706a" x="526.254545" y="384.48" style="stroke: #000000; stroke-width: 0.8"/>
      </g>
     </g>
     <g id="text_5">
      <!-- 80 -->
      <g transform="translate(519.892045 399.078438) scale(0.1 -0.1)">
       <defs>
        <path id="DejaVuSans-38" d="M 2034 2216 
Q 1584 2216 1326 1975 
Q 1069 1734 1069 1313 
Q 1069 891 1326 650 
Q 1584 409 2034 409 
Q 2484 409 2743 651 
Q 3003 894 3003 1313 
Q 3003 1734 2745 1975 
Q 2488 2216 2034 2216 
z
M 1403 2484 
Q 997 2584 770 2862 
Q 544 3141 544 3541 
Q 544 4100 942 4425 
Q 1341 4750 2034 4750 
Q 2731 4750 3128 4425 
Q 3525 4100 3525 3541 
Q 3525 3141 3298 2862 
Q 3072 2584 2669 2484 
Q 3125 2378 3379 2068 
Q 3634 1759 3634 1313 
Q 3634 634 3220 271 
Q 2806 -91 2034 -91 
Q 1263 -91 848 271 
Q 434 634 434 1313 
Q 434 1759 690 2068 
Q 947 2378 1403 2484 
z
M 1172 3481 
Q 1172 3119 1398 2916 
Q 1625 2713 2034 2713 
Q 2441 2713 2670 2916 
Q 2900 3119 2900 3481 
Q 2900 3844 2670 4047 
Q 2441 4250 2034 4250 
Q 1625 4250 1398 4047 
Q 1172 3844 1172 3481 
z
" transform="scale(0.015625)"/>
       </defs>
       <use xlink:href="#DejaVuSans-38"/>
       <use xlink:href="#DejaVuSans-30" x="63.623047"/>
      </g>
     </g>
    </g>
    <g id="xtick_6">
     <g id="line2d_6">
      <g>
       <use xlink:href="#m5bc1df706a" x="624.436364" y="384.48" style="stroke: #000000; stroke-width: 0.8"/>
      </g>
     </g>
     <g id="text_6">
      <!-- 100 -->
      <g transform="translate(614.892614 399.078438) scale(0.1 -0.1)">
       <defs>
        <path id="DejaVuSans-31" d="M 794 531 
L 1825 531 
L 1825 4091 
L 703 3866 
L 703 4441 
L 1819 4666 
L 2450 4666 
L 2450 531 
L 3481 531 
L 3481 0 
L 794 0 
L 794 531 
z
" transform="scale(0.015625)"/>
       </defs>
       <use xlink:href="#DejaVuSans-31"/>
       <use xlink:href="#DejaVuSans-30" x="63.623047"/>
       <use xlink:href="#DejaVuSans-30" x="127.246094"/>
      </g>
     </g>
    </g>
    <g id="xtick_7">
     <g id="line2d_7">
      <g>
       <use xlink:href="#m5bc1df706a" x="722.618182" y="384.48" style="stroke: #000000; stroke-width: 0.8"/>
      </g>
     </g>
     <g id="text_7">
      <!-- 120 -->
      <g transform="translate(713.074432 399.078438) scale(0.1 -0.1)">
       <use xlink:href="#DejaVuSans-31"/>
       <use xlink:href="#DejaVuSans-32" x="63.623047"/>
       <use xlink:href="#DejaVuSans-30" x="127.246094"/>
      </g>
     </g>
    </g>
    <g id="text_8">
     <!-- Epochs -->
     <g transform="translate(424.884375 412.756563) scale(0.1 -0.1)">
      <defs>
       <path id="DejaVuSans-45" d="M 628 4666 
L 3578 4666 
L 3578 4134 
L 1259 4134 
L 1259 2753 
L 3481 2753 
L 3481 2222 
L 1259 2222 
L 1259 531 
L 3634 531 
L 3634 0 
L 628 0 
L 628 4666 
z
" transform="scale(0.015625)"/>
       <path id="DejaVuSans-70" d="M 1159 525 
L 1159 -1331 
L 581 -1331 
L 581 3500 
L 1159 3500 
L 1159 2969 
Q 1341 3281 1617 3432 
Q 1894 3584 2278 3584 
Q 2916 3584 3314 3078 
Q 3713 2572 3713 1747 
Q 3713 922 3314 415 
Q 2916 -91 2278 -91 
Q 1894 -91 1617 61 
Q 1341 213 1159 525 
z
M 3116 1747 
Q 3116 2381 2855 2742 
Q 2594 3103 2138 3103 
Q 1681 3103 1420 2742 
Q 1159 2381 1159 1747 
Q 1159 1113 1420 752 
Q 1681 391 2138 391 
Q 2594 391 2855 752 
Q 3116 1113 3116 1747 
z
" transform="scale(0.015625)"/>
       <path id="DejaVuSans-6f" d="M 1959 3097 
Q 1497 3097 1228 2736 
Q 959 2375 959 1747 
Q 959 1119 1226 758 
Q 1494 397 1959 397 
Q 2419 397 2687 759 
Q 2956 1122 2956 1747 
Q 2956 2369 2687 2733 
Q 2419 3097 1959 3097 
z
M 1959 3584 
Q 2709 3584 3137 3096 
Q 3566 2609 3566 1747 
Q 3566 888 3137 398 
Q 2709 -91 1959 -91 
Q 1206 -91 779 398 
Q 353 888 353 1747 
Q 353 2609 779 3096 
Q 1206 3584 1959 3584 
z
" transform="scale(0.015625)"/>
       <path id="DejaVuSans-63" d="M 3122 3366 
L 3122 2828 
Q 2878 2963 2633 3030 
Q 2388 3097 2138 3097 
Q 1578 3097 1268 2742 
Q 959 2388 959 1747 
Q 959 1106 1268 751 
Q 1578 397 2138 397 
Q 2388 397 2633 464 
Q 2878 531 3122 666 
L 3122 134 
Q 2881 22 2623 -34 
Q 2366 -91 2075 -91 
Q 1284 -91 818 406 
Q 353 903 353 1747 
Q 353 2603 823 3093 
Q 1294 3584 2113 3584 
Q 2378 3584 2631 3529 
Q 2884 3475 3122 3366 
z
" transform="scale(0.015625)"/>
       <path id="DejaVuSans-68" d="M 3513 2113 
L 3513 0 
L 2938 0 
L 2938 2094 
Q 2938 2591 2744 2837 
Q 2550 3084 2163 3084 
Q 1697 3084 1428 2787 
Q 1159 2491 1159 1978 
L 1159 0 
L 581 0 
L 581 4863 
L 1159 4863 
L 1159 2956 
Q 1366 3272 1645 3428 
Q 1925 3584 2291 3584 
Q 2894 3584 3203 3211 
Q 3513 2838 3513 2113 
z
" transform="scale(0.015625)"/>
       <path id="DejaVuSans-73" d="M 2834 3397 
L 2834 2853 
Q 2591 2978 2328 3040 
Q 2066 3103 1784 3103 
Q 1356 3103 1142 2972 
Q 928 2841 928 2578 
Q 928 2378 1081 2264 
Q 1234 2150 1697 2047 
L 1894 2003 
Q 2506 1872 2764 1633 
Q 3022 1394 3022 966 
Q 3022 478 2636 193 
Q 2250 -91 1575 -91 
Q 1294 -91 989 -36 
Q 684 19 347 128 
L 347 722 
Q 666 556 975 473 
Q 1284 391 1588 391 
Q 1994 391 2212 530 
Q 2431 669 2431 922 
Q 2431 1156 2273 1281 
Q 2116 1406 1581 1522 
L 1381 1569 
Q 847 1681 609 1914 
Q 372 2147 372 2553 
Q 372 3047 722 3315 
Q 1072 3584 1716 3584 
Q 2034 3584 2315 3537 
Q 2597 3491 2834 3397 
z
" transform="scale(0.015625)"/>
      </defs>
      <use xlink:href="#DejaVuSans-45"/>
      <use xlink:href="#DejaVuSans-70" x="63.183594"/>
      <use xlink:href="#DejaVuSans-6f" x="126.660156"/>
      <use xlink:href="#DejaVuSans-63" x="187.841797"/>
      <use xlink:href="#DejaVuSans-68" x="242.822266"/>
      <use xlink:href="#DejaVuSans-73" x="306.201172"/>
     </g>
    </g>
   </g>
   <g id="matplotlib.axis_2">
    <g id="ytick_1">
     <g id="line2d_8">
      <defs>
       <path id="m52c2bdb0d4" d="M 0 0 
L -3.5 0 
" style="stroke: #000000; stroke-width: 0.8"/>
      </defs>
      <g>
       <use xlink:href="#m52c2bdb0d4" x="108" y="357.030742" style="stroke: #000000; stroke-width: 0.8"/>
      </g>
     </g>
     <g id="text_9">
      <!-- 0.3 -->
      <g transform="translate(85.096875 360.829961) scale(0.1 -0.1)">
       <defs>
        <path id="DejaVuSans-2e" d="M 684 794 
L 1344 794 
L 1344 0 
L 684 0 
L 684 794 
z
" transform="scale(0.015625)"/>
        <path id="DejaVuSans-33" d="M 2597 2516 
Q 3050 2419 3304 2112 
Q 3559 1806 3559 1356 
Q 3559 666 3084 287 
Q 2609 -91 1734 -91 
Q 1441 -91 1130 -33 
Q 819 25 488 141 
L 488 750 
Q 750 597 1062 519 
Q 1375 441 1716 441 
Q 2309 441 2620 675 
Q 2931 909 2931 1356 
Q 2931 1769 2642 2001 
Q 2353 2234 1838 2234 
L 1294 2234 
L 1294 2753 
L 1863 2753 
Q 2328 2753 2575 2939 
Q 2822 3125 2822 3475 
Q 2822 3834 2567 4026 
Q 2313 4219 1838 4219 
Q 1578 4219 1281 4162 
Q 984 4106 628 3988 
L 628 4550 
Q 988 4650 1302 4700 
Q 1616 4750 1894 4750 
Q 2613 4750 3031 4423 
Q 3450 4097 3450 3541 
Q 3450 3153 3228 2886 
Q 3006 2619 2597 2516 
z
" transform="scale(0.015625)"/>
       </defs>
       <use xlink:href="#DejaVuSans-30"/>
       <use xlink:href="#DejaVuSans-2e" x="63.623047"/>
       <use xlink:href="#DejaVuSans-33" x="95.410156"/>
      </g>
     </g>
    </g>
    <g id="ytick_2">
     <g id="line2d_9">
      <g>
       <use xlink:href="#m52c2bdb0d4" x="108" y="296.842759" style="stroke: #000000; stroke-width: 0.8"/>
      </g>
     </g>
     <g id="text_10">
      <!-- 0.4 -->
      <g transform="translate(85.096875 300.641978) scale(0.1 -0.1)">
       <use xlink:href="#DejaVuSans-30"/>
       <use xlink:href="#DejaVuSans-2e" x="63.623047"/>
       <use xlink:href="#DejaVuSans-34" x="95.410156"/>
      </g>
     </g>
    </g>
    <g id="ytick_3">
     <g id="line2d_10">
      <g>
       <use xlink:href="#m52c2bdb0d4" x="108" y="236.654777" style="stroke: #000000; stroke-width: 0.8"/>
      </g>
     </g>
     <g id="text_11">
      <!-- 0.5 -->
      <g transform="translate(85.096875 240.453996) scale(0.1 -0.1)">
       <defs>
        <path id="DejaVuSans-35" d="M 691 4666 
L 3169 4666 
L 3169 4134 
L 1269 4134 
L 1269 2991 
Q 1406 3038 1543 3061 
Q 1681 3084 1819 3084 
Q 2600 3084 3056 2656 
Q 3513 2228 3513 1497 
Q 3513 744 3044 326 
Q 2575 -91 1722 -91 
Q 1428 -91 1123 -41 
Q 819 9 494 109 
L 494 744 
Q 775 591 1075 516 
Q 1375 441 1709 441 
Q 2250 441 2565 725 
Q 2881 1009 2881 1497 
Q 2881 1984 2565 2268 
Q 2250 2553 1709 2553 
Q 1456 2553 1204 2497 
Q 953 2441 691 2322 
L 691 4666 
z
" transform="scale(0.015625)"/>
       </defs>
       <use xlink:href="#DejaVuSans-30"/>
       <use xlink:href="#DejaVuSans-2e" x="63.623047"/>
       <use xlink:href="#DejaVuSans-35" x="95.410156"/>
      </g>
     </g>
    </g>
    <g id="ytick_4">
     <g id="line2d_11">
      <g>
       <use xlink:href="#m52c2bdb0d4" x="108" y="176.466794" style="stroke: #000000; stroke-width: 0.8"/>
      </g>
     </g>
     <g id="text_12">
      <!-- 0.6 -->
      <g transform="translate(85.096875 180.266013) scale(0.1 -0.1)">
       <use xlink:href="#DejaVuSans-30"/>
       <use xlink:href="#DejaVuSans-2e" x="63.623047"/>
       <use xlink:href="#DejaVuSans-36" x="95.410156"/>
      </g>
     </g>
    </g>
    <g id="ytick_5">
     <g id="line2d_12">
      <g>
       <use xlink:href="#m52c2bdb0d4" x="108" y="116.278812" style="stroke: #000000; stroke-width: 0.8"/>
      </g>
     </g>
     <g id="text_13">
      <!-- 0.7 -->
      <g transform="translate(85.096875 120.078031) scale(0.1 -0.1)">
       <defs>
        <path id="DejaVuSans-37" d="M 525 4666 
L 3525 4666 
L 3525 4397 
L 1831 0 
L 1172 0 
L 2766 4134 
L 525 4134 
L 525 4666 
z
" transform="scale(0.015625)"/>
       </defs>
       <use xlink:href="#DejaVuSans-30"/>
       <use xlink:href="#DejaVuSans-2e" x="63.623047"/>
       <use xlink:href="#DejaVuSans-37" x="95.410156"/>
      </g>
     </g>
    </g>
    <g id="ytick_6">
     <g id="line2d_13">
      <g>
       <use xlink:href="#m52c2bdb0d4" x="108" y="56.09083" style="stroke: #000000; stroke-width: 0.8"/>
      </g>
     </g>
     <g id="text_14">
      <!-- 0.8 -->
      <g transform="translate(85.096875 59.890048) scale(0.1 -0.1)">
       <use xlink:href="#DejaVuSans-30"/>
       <use xlink:href="#DejaVuSans-2e" x="63.623047"/>
       <use xlink:href="#DejaVuSans-38" x="95.410156"/>
      </g>
     </g>
    </g>
    <g id="text_15">
     <!-- Loss -->
     <g transform="translate(79.017187 229.127187) rotate(-90) scale(0.1 -0.1)">
      <defs>
       <path id="DejaVuSans-4c" d="M 628 4666 
L 1259 4666 
L 1259 531 
L 3531 531 
L 3531 0 
L 628 0 
L 628 4666 
z
" transform="scale(0.015625)"/>
      </defs>
      <use xlink:href="#DejaVuSans-4c"/>
      <use xlink:href="#DejaVuSans-6f" x="53.962891"/>
      <use xlink:href="#DejaVuSans-73" x="115.144531"/>
      <use xlink:href="#DejaVuSans-73" x="167.244141"/>
     </g>
    </g>
   </g>
   <g id="line2d_14">
    <path d="M 138.436364 101.293722 
L 143.345455 110.587528 
L 148.254545 120.212279 
L 153.163636 125.528679 
L 158.072727 130.566438 
L 162.981818 137.925586 
L 167.890909 142.905515 
L 172.8 148.424392 
L 177.709091 153.149215 
L 182.618182 156.855946 
L 187.527273 161.237124 
L 192.436364 165.645352 
L 197.345455 168.540487 
L 202.254545 173.7244 
L 207.163636 180.728495 
L 212.072727 180.961394 
L 216.981818 187.133408 
L 221.890909 187.929901 
L 226.8 195.093281 
L 231.709091 201.147087 
L 236.618182 197.03558 
L 241.527273 203.732299 
L 246.436364 202.918263 
L 251.345455 209.605404 
L 256.254545 207.650835 
L 261.163636 212.822982 
L 266.072727 214.425511 
L 270.981818 212.676038 
L 275.890909 218.414182 
L 280.8 221.665375 
L 285.709091 219.711596 
L 290.618182 221.772676 
L 295.527273 228.16428 
L 300.436364 229.009384 
L 305.345455 225.801851 
L 310.254545 227.094564 
L 315.163636 233.255278 
L 320.072727 232.354281 
L 324.981818 231.03563 
L 329.890909 238.102291 
L 334.8 238.628054 
L 339.709091 241.497305 
L 344.618182 235.833136 
L 349.527273 242.738557 
L 354.436364 240.127784 
L 359.345455 239.837933 
L 364.254545 247.960228 
L 369.163636 238.788361 
L 374.072727 243.099188 
L 378.981818 242.690771 
L 383.890909 252.146911 
L 388.8 255.30117 
L 393.709091 246.753094 
L 398.618182 258.507268 
L 403.527273 249.147865 
L 408.436364 253.781117 
L 413.345455 255.30691 
L 418.254545 255.97124 
L 423.163636 254.358056 
L 428.072727 259.245608 
L 432.981818 253.766427 
L 437.890909 261.313056 
L 442.8 262.626649 
L 447.709091 265.81307 
L 452.618182 269.340535 
L 457.527273 268.027767 
L 462.436364 267.262449 
L 467.345455 271.951523 
L 472.254545 271.537384 
L 477.163636 274.588825 
L 482.072727 275.559581 
L 486.981818 273.333637 
L 491.890909 276.414621 
L 496.8 274.403119 
L 501.709091 279.455839 
L 506.618182 276.156735 
L 511.527273 284.429077 
L 516.436364 289.135712 
L 521.345455 287.16317 
L 526.254545 283.05925 
L 531.163636 285.685019 
L 536.072727 288.025475 
L 540.981818 290.539063 
L 545.890909 294.248055 
L 550.8 295.60398 
L 555.709091 300.530886 
L 560.618182 297.07535 
L 565.527273 296.586 
L 570.436364 298.015881 
L 575.345455 303.352119 
L 580.254545 301.194606 
L 585.163636 305.23022 
L 590.072727 305.21883 
L 594.981818 306.345712 
" clip-path="url(#pba3a633bc9)" style="fill: none; stroke: #1f77b4; stroke-width: 1.5; stroke-linecap: square"/>
   </g>
   <g id="line2d_15">
    <path d="M 138.436364 93.401151 
L 143.345455 104.664521 
L 148.254545 118.596369 
L 153.163636 123.243021 
L 158.072727 134.663344 
L 162.981818 138.101875 
L 167.890909 145.413632 
L 172.8 156.423654 
L 177.709091 154.521822 
L 182.618182 158.674047 
L 187.527273 161.770153 
L 192.436364 168.99599 
L 197.345455 171.18335 
L 202.254545 177.648569 
L 207.163636 179.83923 
L 212.072727 183.154746 
L 216.981818 185.011914 
L 221.890909 194.716631 
L 226.8 194.092157 
L 231.709091 202.350221 
L 236.618182 196.260289 
L 241.527273 199.507535 
L 246.436364 197.61277 
L 251.345455 208.93641 
L 256.254545 203.065852 
L 261.163636 203.270949 
L 266.072727 214.371698 
L 270.981818 212.448018 
L 275.890909 213.424639 
L 280.8 216.818434 
L 285.709091 220.155654 
L 290.618182 214.189382 
L 295.527273 212.733151 
L 300.436364 225.742872 
L 305.345455 221.97519 
L 310.254545 225.544449 
L 315.163636 223.788196 
L 320.072727 227.563018 
L 324.981818 230.11788 
L 329.890909 228.997222 
L 334.8 232.253617 
L 339.709091 234.952516 
L 344.618182 231.078142 
L 349.527273 231.444926 
L 354.436364 236.003613 
L 359.345455 232.444148 
L 364.254545 228.624483 
L 369.163636 237.181724 
L 374.072727 243.510529 
L 378.981818 236.773092 
L 383.890909 239.889288 
L 388.8 252.912319 
L 393.709091 237.713049 
L 398.618182 246.37648 
L 403.527273 244.853378 
L 408.436364 242.626394 
L 413.345455 246.908073 
L 418.254545 251.138972 
L 423.163636 248.217433 
L 428.072727 251.685005 
L 432.981818 254.101802 
L 437.890909 251.213448 
L 442.8 255.567254 
L 447.709091 256.440088 
L 452.618182 258.836455 
L 457.527273 262.971586 
L 462.436364 257.62055 
L 467.345455 258.739073 
L 472.254545 268.552167 
L 477.163636 266.755556 
L 482.072727 264.426041 
L 486.981818 268.306963 
L 491.890909 268.924602 
L 496.8 272.37072 
L 501.709091 273.682932 
L 506.618182 273.094244 
L 511.527273 281.126942 
L 516.436364 283.577139 
L 521.345455 279.024731 
L 526.254545 277.841919 
L 531.163636 283.948534 
L 536.072727 278.479182 
L 540.981818 287.190758 
L 545.890909 284.11867 
L 550.8 280.579725 
L 555.709091 288.005565 
L 560.618182 291.167662 
L 565.527273 290.984665 
L 570.436364 296.933089 
L 575.345455 298.569824 
L 580.254545 299.743846 
L 585.163636 298.118895 
L 590.072727 303.66545 
L 594.981818 304.445835 
L 599.890909 296.96934 
L 604.8 304.100809 
L 609.709091 307.275068 
L 614.618182 312.499466 
L 619.527273 309.979725 
L 624.436364 312.263463 
L 629.345455 313.786673 
L 634.254545 317.102117 
L 639.163636 311.963532 
L 644.072727 314.110945 
" clip-path="url(#pba3a633bc9)" style="fill: none; stroke: #ff7f0e; stroke-width: 1.5; stroke-linecap: square"/>
   </g>
   <g id="line2d_16">
    <path d="M 138.436364 66.96 
L 143.345455 89.593612 
L 148.254545 101.300538 
L 153.163636 112.867087 
L 158.072727 130.014862 
L 162.981818 134.022261 
L 167.890909 144.544277 
L 172.8 149.64575 
L 177.709091 156.785811 
L 182.618182 167.814883 
L 187.527273 176.894839 
L 192.436364 181.304753 
L 197.345455 183.89696 
L 202.254545 193.260005 
L 207.163636 194.556952 
L 212.072727 200.263239 
L 216.981818 207.781169 
L 221.890909 214.275805 
L 226.8 211.751652 
L 231.709091 212.864919 
L 236.618182 222.599053 
L 241.527273 223.211185 
L 246.436364 228.936665 
L 251.345455 230.611159 
L 256.254545 228.669721 
L 261.163636 221.772605 
L 266.072727 232.718483 
L 270.981818 232.998055 
L 275.890909 233.282686 
L 280.8 241.902332 
L 285.709091 236.377608 
L 290.618182 238.469505 
L 295.527273 246.656573 
L 300.436364 245.261795 
L 305.345455 248.35878 
L 310.254545 244.484585 
L 315.163636 250.098942 
L 320.072727 250.10818 
L 324.981818 256.879788 
L 329.890909 254.689091 
L 334.8 256.464896 
L 339.709091 256.984722 
L 344.618182 252.636674 
L 349.527273 260.742126 
L 354.436364 257.271434 
L 359.345455 262.637502 
L 364.254545 256.694674 
L 369.163636 264.362722 
L 374.072727 263.588238 
L 378.981818 267.171004 
L 383.890909 267.540371 
L 388.8 268.736205 
L 393.709091 269.280731 
L 398.618182 269.177268 
L 403.527273 272.598292 
L 408.436364 270.725949 
L 413.345455 272.575117 
L 418.254545 275.495185 
L 423.163636 277.754367 
L 428.072727 286.92566 
L 432.981818 281.454677 
L 437.890909 284.691591 
L 442.8 280.048365 
L 447.709091 280.094949 
L 452.618182 289.053773 
L 457.527273 286.687003 
L 462.436364 290.182808 
L 467.345455 295.013193 
L 472.254545 285.645377 
L 477.163636 292.360626 
L 482.072727 293.206913 
L 486.981818 292.871842 
L 491.890909 291.517388 
L 496.8 300.18516 
L 501.709091 297.705958 
L 506.618182 302.398315 
L 511.527273 306.987585 
L 516.436364 303.130932 
L 521.345455 307.483375 
L 526.254545 309.240865 
L 531.163636 307.873245 
L 536.072727 311.283417 
L 540.981818 307.590569 
L 545.890909 312.185633 
L 550.8 313.816269 
L 555.709091 315.12249 
L 560.618182 317.750035 
L 565.527273 324.143271 
L 570.436364 326.231329 
L 575.345455 319.530915 
L 580.254545 326.130701 
L 585.163636 325.649296 
L 590.072727 326.394255 
L 594.981818 329.900338 
L 599.890909 331.241734 
L 604.8 329.175075 
L 609.709091 329.784445 
L 614.618182 340.289923 
L 619.527273 338.558353 
L 624.436364 339.339581 
L 629.345455 340.509316 
L 634.254545 340.155967 
L 639.163636 340.245725 
L 644.072727 342.436476 
L 648.981818 343.371733 
L 653.890909 345.815329 
L 658.8 353.114799 
L 663.709091 348.849264 
" clip-path="url(#pba3a633bc9)" style="fill: none; stroke: #2ca02c; stroke-width: 1.5; stroke-linecap: square"/>
   </g>
   <g id="line2d_17">
    <path d="M 138.436364 104.941009 
L 143.345455 112.697506 
L 148.254545 120.347635 
L 153.163636 126.078245 
L 158.072727 130.496087 
L 162.981818 133.232835 
L 167.890909 141.38392 
L 172.8 146.047576 
L 177.709091 151.368245 
L 182.618182 157.958236 
L 187.527273 161.438203 
L 192.436364 167.267181 
L 197.345455 172.670362 
L 202.254545 174.830529 
L 207.163636 181.867736 
L 212.072727 184.409145 
L 216.981818 188.02827 
L 221.890909 191.041505 
L 226.8 196.774375 
L 231.709091 202.030756 
L 236.618182 203.029834 
L 241.527273 207.377864 
L 246.436364 212.87231 
L 251.345455 216.34015 
L 256.254545 211.628996 
L 261.163636 219.226066 
L 266.072727 217.569473 
L 270.981818 220.577435 
L 275.890909 223.946081 
L 280.8 225.452573 
L 285.709091 225.299747 
L 290.618182 222.471375 
L 295.527273 235.002167 
L 300.436364 229.142443 
L 305.345455 234.246643 
L 310.254545 232.221222 
L 315.163636 232.006367 
L 320.072727 235.69491 
L 324.981818 237.958074 
L 329.890909 235.112374 
L 334.8 240.083676 
L 339.709091 242.660672 
L 344.618182 235.271551 
L 349.527273 246.920863 
L 354.436364 242.265206 
L 359.345455 249.60561 
L 364.254545 247.117403 
L 369.163636 245.607682 
L 374.072727 249.020742 
L 378.981818 244.397283 
L 383.890909 255.524975 
L 388.8 249.691512 
L 393.709091 252.908336 
L 398.618182 260.006298 
L 403.527273 260.58121 
L 408.436364 257.821915 
L 413.345455 255.786969 
L 418.254545 259.809453 
L 423.163636 259.871265 
L 428.072727 257.780193 
L 432.981818 265.512941 
L 437.890909 262.728408 
L 442.8 263.981445 
L 447.709091 267.106071 
L 452.618182 260.758539 
L 457.527273 275.509607 
L 462.436364 271.537671 
L 467.345455 272.530686 
L 472.254545 277.243384 
L 477.163636 280.921577 
L 482.072727 275.263416 
L 486.981818 282.111688 
L 491.890909 285.416891 
L 496.8 283.552153 
L 501.709091 285.671369 
L 506.618182 279.762228 
L 511.527273 286.034906 
L 516.436364 280.62134 
L 521.345455 292.45451 
L 526.254545 287.304248 
L 531.163636 289.397508 
L 536.072727 294.32167 
L 540.981818 286.06888 
L 545.890909 298.043899 
L 550.8 292.542224 
L 555.709091 295.607496 
L 560.618182 300.685489 
L 565.527273 307.683 
L 570.436364 298.56986 
L 575.345455 310.072426 
L 580.254545 308.848161 
L 585.163636 312.301831 
L 590.072727 306.854363 
L 594.981818 314.424294 
L 599.890909 312.436093 
L 604.8 320.150886 
L 609.709091 320.378028 
L 614.618182 319.029206 
L 619.527273 326.617701 
L 624.436364 322.589298 
L 629.345455 324.145692 
L 634.254545 324.163414 
L 639.163636 323.269952 
L 644.072727 333.437991 
L 648.981818 333.493615 
L 653.890909 338.610084 
L 658.8 336.349342 
L 663.709091 341.499784 
L 668.618182 338.040625 
L 673.527273 343.237633 
L 678.436364 341.761042 
L 683.345455 347.460531 
L 688.254545 352.443868 
L 693.163636 355.532046 
L 698.072727 355.003071 
L 702.981818 346.45261 
L 707.890909 358.998039 
L 712.8 357.195526 
L 717.709091 354.211045 
L 722.618182 359.012891 
L 727.527273 361.046904 
L 732.436364 360.001512 
L 737.345455 366.945408 
L 742.254545 369.257093 
L 747.163636 369.36 
" clip-path="url(#pba3a633bc9)" style="fill: none; stroke: #d62728; stroke-width: 1.5; stroke-linecap: square"/>
   </g>
   <g id="line2d_18">
    <path d="M 138.436364 113.38659 
L 143.345455 114.151872 
L 148.254545 123.618164 
L 153.163636 128.183165 
L 158.072727 136.547562 
L 162.981818 139.562985 
L 167.890909 147.024089 
L 172.8 157.277188 
L 177.709091 162.012164 
L 182.618182 167.29911 
L 187.527273 171.853277 
L 192.436364 186.030867 
L 197.345455 188.749319 
L 202.254545 188.256255 
L 207.163636 200.067254 
L 212.072727 201.667451 
L 216.981818 204.320395 
L 221.890909 206.732511 
L 226.8 209.351841 
L 231.709091 216.98579 
L 236.618182 205.274666 
L 241.527273 215.455513 
L 246.436364 212.208554 
L 251.345455 227.286674 
L 256.254545 220.102488 
L 261.163636 214.462856 
L 266.072727 226.147576 
L 270.981818 228.917831 
L 275.890909 224.276525 
L 280.8 228.823767 
L 285.709091 230.82196 
L 290.618182 233.908953 
L 295.527273 239.373515 
L 300.436364 226.195433 
L 305.345455 229.72132 
L 310.254545 235.31069 
L 315.163636 242.715956 
L 320.072727 235.395929 
L 324.981818 241.54084 
L 329.890909 244.9525 
L 334.8 244.648856 
L 339.709091 251.663426 
L 344.618182 239.766094 
L 349.527273 251.741077 
L 354.436364 249.370163 
L 359.345455 245.988655 
L 364.254545 251.852343 
L 369.163636 252.296007 
L 374.072727 255.715112 
L 378.981818 261.698819 
L 383.890909 253.097971 
L 388.8 254.378075 
L 393.709091 258.945228 
L 398.618182 256.48416 
L 403.527273 266.042615 
L 408.436364 263.587575 
L 413.345455 258.453922 
L 418.254545 268.989553 
L 423.163636 267.123542 
L 428.072727 273.778808 
L 432.981818 266.729259 
L 437.890909 271.298242 
L 442.8 272.152117 
L 447.709091 273.157133 
L 452.618182 279.279819 
L 457.527273 272.8339 
L 462.436364 274.930964 
L 467.345455 273.542249 
L 472.254545 287.998121 
L 477.163636 276.020178 
L 482.072727 284.112141 
L 486.981818 290.551135 
L 491.890909 291.183734 
L 496.8 293.347094 
L 501.709091 288.005654 
L 506.618182 285.7725 
L 511.527273 292.539875 
L 516.436364 293.017261 
L 521.345455 295.003722 
L 526.254545 300.847015 
L 531.163636 298.180152 
L 536.072727 295.015453 
L 540.981818 298.59838 
L 545.890909 306.068256 
L 550.8 295.222989 
L 555.709091 300.666726 
L 560.618182 311.418127 
L 565.527273 304.751596 
L 570.436364 304.252936 
L 575.345455 315.240769 
L 580.254545 311.987747 
L 585.163636 306.262267 
L 590.072727 317.93696 
L 594.981818 311.110984 
L 599.890909 318.543281 
L 604.8 314.342069 
L 609.709091 318.518743 
L 614.618182 320.72056 
L 619.527273 324.936194 
L 624.436364 323.626045 
L 629.345455 324.151952 
L 634.254545 325.863254 
L 639.163636 329.324135 
L 644.072727 332.365316 
L 648.981818 329.648963 
L 653.890909 329.003324 
L 658.8 327.835634 
L 663.709091 334.143685 
L 668.618182 337.118068 
L 673.527273 343.606103 
L 678.436364 338.478926 
L 683.345455 342.998007 
L 688.254545 347.867387 
L 693.163636 346.390851 
L 698.072727 342.596352 
L 702.981818 349.19359 
L 707.890909 346.799107 
L 712.8 350.174211 
L 717.709091 356.668309 
L 722.618182 352.560085 
" clip-path="url(#pba3a633bc9)" style="fill: none; stroke: #9467bd; stroke-width: 1.5; stroke-linecap: square"/>
   </g>
   <g id="patch_3">
    <path d="M 108 384.48 
L 108 51.84 
" style="fill: none; stroke: #000000; stroke-width: 0.8; stroke-linejoin: miter; stroke-linecap: square"/>
   </g>
   <g id="patch_4">
    <path d="M 777.6 384.48 
L 777.6 51.84 
" style="fill: none; stroke: #000000; stroke-width: 0.8; stroke-linejoin: miter; stroke-linecap: square"/>
   </g>
   <g id="patch_5">
    <path d="M 108 384.48 
L 777.6 384.48 
" style="fill: none; stroke: #000000; stroke-width: 0.8; stroke-linejoin: miter; stroke-linecap: square"/>
   </g>
   <g id="patch_6">
    <path d="M 108 51.84 
L 777.6 51.84 
" style="fill: none; stroke: #000000; stroke-width: 0.8; stroke-linejoin: miter; stroke-linecap: square"/>
   </g>
   <g id="text_16">
    <!-- Training Loss for Each Fold -->
    <g transform="translate(363.140625 45.84) scale(0.12 -0.12)">
     <defs>
      <path id="DejaVuSans-54" d="M -19 4666 
L 3928 4666 
L 3928 4134 
L 2272 4134 
L 2272 0 
L 1638 0 
L 1638 4134 
L -19 4134 
L -19 4666 
z
" transform="scale(0.015625)"/>
      <path id="DejaVuSans-72" d="M 2631 2963 
Q 2534 3019 2420 3045 
Q 2306 3072 2169 3072 
Q 1681 3072 1420 2755 
Q 1159 2438 1159 1844 
L 1159 0 
L 581 0 
L 581 3500 
L 1159 3500 
L 1159 2956 
Q 1341 3275 1631 3429 
Q 1922 3584 2338 3584 
Q 2397 3584 2469 3576 
Q 2541 3569 2628 3553 
L 2631 2963 
z
" transform="scale(0.015625)"/>
      <path id="DejaVuSans-61" d="M 2194 1759 
Q 1497 1759 1228 1600 
Q 959 1441 959 1056 
Q 959 750 1161 570 
Q 1363 391 1709 391 
Q 2188 391 2477 730 
Q 2766 1069 2766 1631 
L 2766 1759 
L 2194 1759 
z
M 3341 1997 
L 3341 0 
L 2766 0 
L 2766 531 
Q 2569 213 2275 61 
Q 1981 -91 1556 -91 
Q 1019 -91 701 211 
Q 384 513 384 1019 
Q 384 1609 779 1909 
Q 1175 2209 1959 2209 
L 2766 2209 
L 2766 2266 
Q 2766 2663 2505 2880 
Q 2244 3097 1772 3097 
Q 1472 3097 1187 3025 
Q 903 2953 641 2809 
L 641 3341 
Q 956 3463 1253 3523 
Q 1550 3584 1831 3584 
Q 2591 3584 2966 3190 
Q 3341 2797 3341 1997 
z
" transform="scale(0.015625)"/>
      <path id="DejaVuSans-69" d="M 603 3500 
L 1178 3500 
L 1178 0 
L 603 0 
L 603 3500 
z
M 603 4863 
L 1178 4863 
L 1178 4134 
L 603 4134 
L 603 4863 
z
" transform="scale(0.015625)"/>
      <path id="DejaVuSans-6e" d="M 3513 2113 
L 3513 0 
L 2938 0 
L 2938 2094 
Q 2938 2591 2744 2837 
Q 2550 3084 2163 3084 
Q 1697 3084 1428 2787 
Q 1159 2491 1159 1978 
L 1159 0 
L 581 0 
L 581 3500 
L 1159 3500 
L 1159 2956 
Q 1366 3272 1645 3428 
Q 1925 3584 2291 3584 
Q 2894 3584 3203 3211 
Q 3513 2838 3513 2113 
z
" transform="scale(0.015625)"/>
      <path id="DejaVuSans-67" d="M 2906 1791 
Q 2906 2416 2648 2759 
Q 2391 3103 1925 3103 
Q 1463 3103 1205 2759 
Q 947 2416 947 1791 
Q 947 1169 1205 825 
Q 1463 481 1925 481 
Q 2391 481 2648 825 
Q 2906 1169 2906 1791 
z
M 3481 434 
Q 3481 -459 3084 -895 
Q 2688 -1331 1869 -1331 
Q 1566 -1331 1297 -1286 
Q 1028 -1241 775 -1147 
L 775 -588 
Q 1028 -725 1275 -790 
Q 1522 -856 1778 -856 
Q 2344 -856 2625 -561 
Q 2906 -266 2906 331 
L 2906 616 
Q 2728 306 2450 153 
Q 2172 0 1784 0 
Q 1141 0 747 490 
Q 353 981 353 1791 
Q 353 2603 747 3093 
Q 1141 3584 1784 3584 
Q 2172 3584 2450 3431 
Q 2728 3278 2906 2969 
L 2906 3500 
L 3481 3500 
L 3481 434 
z
" transform="scale(0.015625)"/>
      <path id="DejaVuSans-20" transform="scale(0.015625)"/>
      <path id="DejaVuSans-66" d="M 2375 4863 
L 2375 4384 
L 1825 4384 
Q 1516 4384 1395 4259 
Q 1275 4134 1275 3809 
L 1275 3500 
L 2222 3500 
L 2222 3053 
L 1275 3053 
L 1275 0 
L 697 0 
L 697 3053 
L 147 3053 
L 147 3500 
L 697 3500 
L 697 3744 
Q 697 4328 969 4595 
Q 1241 4863 1831 4863 
L 2375 4863 
z
" transform="scale(0.015625)"/>
      <path id="DejaVuSans-46" d="M 628 4666 
L 3309 4666 
L 3309 4134 
L 1259 4134 
L 1259 2759 
L 3109 2759 
L 3109 2228 
L 1259 2228 
L 1259 0 
L 628 0 
L 628 4666 
z
" transform="scale(0.015625)"/>
      <path id="DejaVuSans-6c" d="M 603 4863 
L 1178 4863 
L 1178 0 
L 603 0 
L 603 4863 
z
" transform="scale(0.015625)"/>
      <path id="DejaVuSans-64" d="M 2906 2969 
L 2906 4863 
L 3481 4863 
L 3481 0 
L 2906 0 
L 2906 525 
Q 2725 213 2448 61 
Q 2172 -91 1784 -91 
Q 1150 -91 751 415 
Q 353 922 353 1747 
Q 353 2572 751 3078 
Q 1150 3584 1784 3584 
Q 2172 3584 2448 3432 
Q 2725 3281 2906 2969 
z
M 947 1747 
Q 947 1113 1208 752 
Q 1469 391 1925 391 
Q 2381 391 2643 752 
Q 2906 1113 2906 1747 
Q 2906 2381 2643 2742 
Q 2381 3103 1925 3103 
Q 1469 3103 1208 2742 
Q 947 2381 947 1747 
z
" transform="scale(0.015625)"/>
     </defs>
     <use xlink:href="#DejaVuSans-54"/>
     <use xlink:href="#DejaVuSans-72" x="46.333984"/>
     <use xlink:href="#DejaVuSans-61" x="87.447266"/>
     <use xlink:href="#DejaVuSans-69" x="148.726562"/>
     <use xlink:href="#DejaVuSans-6e" x="176.509766"/>
     <use xlink:href="#DejaVuSans-69" x="239.888672"/>
     <use xlink:href="#DejaVuSans-6e" x="267.671875"/>
     <use xlink:href="#DejaVuSans-67" x="331.050781"/>
     <use xlink:href="#DejaVuSans-20" x="394.527344"/>
     <use xlink:href="#DejaVuSans-4c" x="426.314453"/>
     <use xlink:href="#DejaVuSans-6f" x="480.277344"/>
     <use xlink:href="#DejaVuSans-73" x="541.458984"/>
     <use xlink:href="#DejaVuSans-73" x="593.558594"/>
     <use xlink:href="#DejaVuSans-20" x="645.658203"/>
     <use xlink:href="#DejaVuSans-66" x="677.445312"/>
     <use xlink:href="#DejaVuSans-6f" x="712.650391"/>
     <use xlink:href="#DejaVuSans-72" x="773.832031"/>
     <use xlink:href="#DejaVuSans-20" x="814.945312"/>
     <use xlink:href="#DejaVuSans-45" x="846.732422"/>
     <use xlink:href="#DejaVuSans-61" x="909.916016"/>
     <use xlink:href="#DejaVuSans-63" x="971.195312"/>
     <use xlink:href="#DejaVuSans-68" x="1026.175781"/>
     <use xlink:href="#DejaVuSans-20" x="1089.554688"/>
     <use xlink:href="#DejaVuSans-46" x="1121.341797"/>
     <use xlink:href="#DejaVuSans-6f" x="1175.236328"/>
     <use xlink:href="#DejaVuSans-6c" x="1236.417969"/>
     <use xlink:href="#DejaVuSans-64" x="1264.201172"/>
    </g>
   </g>
   <g id="legend_1">
    <g id="patch_7">
     <path d="M 640.682812 133.230625 
L 770.6 133.230625 
Q 772.6 133.230625 772.6 131.230625 
L 772.6 58.84 
Q 772.6 56.84 770.6 56.84 
L 640.682812 56.84 
Q 638.682812 56.84 638.682812 58.84 
L 638.682812 131.230625 
Q 638.682812 133.230625 640.682812 133.230625 
z
" style="fill: #ffffff; opacity: 0.8; stroke: #cccccc; stroke-linejoin: miter"/>
    </g>
    <g id="line2d_19">
     <path d="M 642.682812 64.938437 
L 652.682812 64.938437 
L 662.682812 64.938437 
" style="fill: none; stroke: #1f77b4; stroke-width: 1.5; stroke-linecap: square"/>
    </g>
    <g id="text_17">
     <!-- Fold 1 Training Loss -->
     <g transform="translate(670.682812 68.438437) scale(0.1 -0.1)">
      <use xlink:href="#DejaVuSans-46"/>
      <use xlink:href="#DejaVuSans-6f" x="53.894531"/>
      <use xlink:href="#DejaVuSans-6c" x="115.076172"/>
      <use xlink:href="#DejaVuSans-64" x="142.859375"/>
      <use xlink:href="#DejaVuSans-20" x="206.335938"/>
      <use xlink:href="#DejaVuSans-31" x="238.123047"/>
      <use xlink:href="#DejaVuSans-20" x="301.746094"/>
      <use xlink:href="#DejaVuSans-54" x="333.533203"/>
      <use xlink:href="#DejaVuSans-72" x="379.867188"/>
      <use xlink:href="#DejaVuSans-61" x="420.980469"/>
      <use xlink:href="#DejaVuSans-69" x="482.259766"/>
      <use xlink:href="#DejaVuSans-6e" x="510.042969"/>
      <use xlink:href="#DejaVuSans-69" x="573.421875"/>
      <use xlink:href="#DejaVuSans-6e" x="601.205078"/>
      <use xlink:href="#DejaVuSans-67" x="664.583984"/>
      <use xlink:href="#DejaVuSans-20" x="728.060547"/>
      <use xlink:href="#DejaVuSans-4c" x="759.847656"/>
      <use xlink:href="#DejaVuSans-6f" x="813.810547"/>
      <use xlink:href="#DejaVuSans-73" x="874.992188"/>
      <use xlink:href="#DejaVuSans-73" x="927.091797"/>
     </g>
    </g>
    <g id="line2d_20">
     <path d="M 642.682812 79.616562 
L 652.682812 79.616562 
L 662.682812 79.616562 
" style="fill: none; stroke: #ff7f0e; stroke-width: 1.5; stroke-linecap: square"/>
    </g>
    <g id="text_18">
     <!-- Fold 2 Training Loss -->
     <g transform="translate(670.682812 83.116562) scale(0.1 -0.1)">
      <use xlink:href="#DejaVuSans-46"/>
      <use xlink:href="#DejaVuSans-6f" x="53.894531"/>
      <use xlink:href="#DejaVuSans-6c" x="115.076172"/>
      <use xlink:href="#DejaVuSans-64" x="142.859375"/>
      <use xlink:href="#DejaVuSans-20" x="206.335938"/>
      <use xlink:href="#DejaVuSans-32" x="238.123047"/>
      <use xlink:href="#DejaVuSans-20" x="301.746094"/>
      <use xlink:href="#DejaVuSans-54" x="333.533203"/>
      <use xlink:href="#DejaVuSans-72" x="379.867188"/>
      <use xlink:href="#DejaVuSans-61" x="420.980469"/>
      <use xlink:href="#DejaVuSans-69" x="482.259766"/>
      <use xlink:href="#DejaVuSans-6e" x="510.042969"/>
      <use xlink:href="#DejaVuSans-69" x="573.421875"/>
      <use xlink:href="#DejaVuSans-6e" x="601.205078"/>
      <use xlink:href="#DejaVuSans-67" x="664.583984"/>
      <use xlink:href="#DejaVuSans-20" x="728.060547"/>
      <use xlink:href="#DejaVuSans-4c" x="759.847656"/>
      <use xlink:href="#DejaVuSans-6f" x="813.810547"/>
      <use xlink:href="#DejaVuSans-73" x="874.992188"/>
      <use xlink:href="#DejaVuSans-73" x="927.091797"/>
     </g>
    </g>
    <g id="line2d_21">
     <path d="M 642.682812 94.294687 
L 652.682812 94.294687 
L 662.682812 94.294687 
" style="fill: none; stroke: #2ca02c; stroke-width: 1.5; stroke-linecap: square"/>
    </g>
    <g id="text_19">
     <!-- Fold 3 Training Loss -->
     <g transform="translate(670.682812 97.794687) scale(0.1 -0.1)">
      <use xlink:href="#DejaVuSans-46"/>
      <use xlink:href="#DejaVuSans-6f" x="53.894531"/>
      <use xlink:href="#DejaVuSans-6c" x="115.076172"/>
      <use xlink:href="#DejaVuSans-64" x="142.859375"/>
      <use xlink:href="#DejaVuSans-20" x="206.335938"/>
      <use xlink:href="#DejaVuSans-33" x="238.123047"/>
      <use xlink:href="#DejaVuSans-20" x="301.746094"/>
      <use xlink:href="#DejaVuSans-54" x="333.533203"/>
      <use xlink:href="#DejaVuSans-72" x="379.867188"/>
      <use xlink:href="#DejaVuSans-61" x="420.980469"/>
      <use xlink:href="#DejaVuSans-69" x="482.259766"/>
      <use xlink:href="#DejaVuSans-6e" x="510.042969"/>
      <use xlink:href="#DejaVuSans-69" x="573.421875"/>
      <use xlink:href="#DejaVuSans-6e" x="601.205078"/>
      <use xlink:href="#DejaVuSans-67" x="664.583984"/>
      <use xlink:href="#DejaVuSans-20" x="728.060547"/>
      <use xlink:href="#DejaVuSans-4c" x="759.847656"/>
      <use xlink:href="#DejaVuSans-6f" x="813.810547"/>
      <use xlink:href="#DejaVuSans-73" x="874.992188"/>
      <use xlink:href="#DejaVuSans-73" x="927.091797"/>
     </g>
    </g>
    <g id="line2d_22">
     <path d="M 642.682812 108.972812 
L 652.682812 108.972812 
L 662.682812 108.972812 
" style="fill: none; stroke: #d62728; stroke-width: 1.5; stroke-linecap: square"/>
    </g>
    <g id="text_20">
     <!-- Fold 4 Training Loss -->
     <g transform="translate(670.682812 112.472812) scale(0.1 -0.1)">
      <use xlink:href="#DejaVuSans-46"/>
      <use xlink:href="#DejaVuSans-6f" x="53.894531"/>
      <use xlink:href="#DejaVuSans-6c" x="115.076172"/>
      <use xlink:href="#DejaVuSans-64" x="142.859375"/>
      <use xlink:href="#DejaVuSans-20" x="206.335938"/>
      <use xlink:href="#DejaVuSans-34" x="238.123047"/>
      <use xlink:href="#DejaVuSans-20" x="301.746094"/>
      <use xlink:href="#DejaVuSans-54" x="333.533203"/>
      <use xlink:href="#DejaVuSans-72" x="379.867188"/>
      <use xlink:href="#DejaVuSans-61" x="420.980469"/>
      <use xlink:href="#DejaVuSans-69" x="482.259766"/>
      <use xlink:href="#DejaVuSans-6e" x="510.042969"/>
      <use xlink:href="#DejaVuSans-69" x="573.421875"/>
      <use xlink:href="#DejaVuSans-6e" x="601.205078"/>
      <use xlink:href="#DejaVuSans-67" x="664.583984"/>
      <use xlink:href="#DejaVuSans-20" x="728.060547"/>
      <use xlink:href="#DejaVuSans-4c" x="759.847656"/>
      <use xlink:href="#DejaVuSans-6f" x="813.810547"/>
      <use xlink:href="#DejaVuSans-73" x="874.992188"/>
      <use xlink:href="#DejaVuSans-73" x="927.091797"/>
     </g>
    </g>
    <g id="line2d_23">
     <path d="M 642.682812 123.650937 
L 652.682812 123.650937 
L 662.682812 123.650937 
" style="fill: none; stroke: #9467bd; stroke-width: 1.5; stroke-linecap: square"/>
    </g>
    <g id="text_21">
     <!-- Fold 5 Training Loss -->
     <g transform="translate(670.682812 127.150937) scale(0.1 -0.1)">
      <use xlink:href="#DejaVuSans-46"/>
      <use xlink:href="#DejaVuSans-6f" x="53.894531"/>
      <use xlink:href="#DejaVuSans-6c" x="115.076172"/>
      <use xlink:href="#DejaVuSans-64" x="142.859375"/>
      <use xlink:href="#DejaVuSans-20" x="206.335938"/>
      <use xlink:href="#DejaVuSans-35" x="238.123047"/>
      <use xlink:href="#DejaVuSans-20" x="301.746094"/>
      <use xlink:href="#DejaVuSans-54" x="333.533203"/>
      <use xlink:href="#DejaVuSans-72" x="379.867188"/>
      <use xlink:href="#DejaVuSans-61" x="420.980469"/>
      <use xlink:href="#DejaVuSans-69" x="482.259766"/>
      <use xlink:href="#DejaVuSans-6e" x="510.042969"/>
      <use xlink:href="#DejaVuSans-69" x="573.421875"/>
      <use xlink:href="#DejaVuSans-6e" x="601.205078"/>
      <use xlink:href="#DejaVuSans-67" x="664.583984"/>
      <use xlink:href="#DejaVuSans-20" x="728.060547"/>
      <use xlink:href="#DejaVuSans-4c" x="759.847656"/>
      <use xlink:href="#DejaVuSans-6f" x="813.810547"/>
      <use xlink:href="#DejaVuSans-73" x="874.992188"/>
      <use xlink:href="#DejaVuSans-73" x="927.091797"/>
     </g>
    </g>
   </g>
  </g>
 </g>
 <defs>
  <clipPath id="pba3a633bc9">
   <rect x="108" y="51.84" width="669.6" height="332.64"/>
  </clipPath>
 </defs>
</svg>
