<?xml version="1.0" encoding="utf-8" standalone="no"?>
<!DOCTYPE svg PUBLIC "-//W3C//DTD SVG 1.1//EN"
  "http://www.w3.org/Graphics/SVG/1.1/DTD/svg11.dtd">
<svg xmlns:xlink="http://www.w3.org/1999/xlink" width="864pt" height="432pt" viewBox="0 0 864 432" xmlns="http://www.w3.org/2000/svg" version="1.1">
 <metadata>
  <rdf:RDF xmlns:dc="http://purl.org/dc/elements/1.1/" xmlns:cc="http://creativecommons.org/ns#" xmlns:rdf="http://www.w3.org/1999/02/22-rdf-syntax-ns#">
   <cc:Work>
    <dc:type rdf:resource="http://purl.org/dc/dcmitype/StillImage"/>
    <dc:date>2025-02-16T19:55:51.609699</dc:date>
    <dc:format>image/svg+xml</dc:format>
    <dc:creator>
     <cc:Agent>
      <dc:title>Matplotlib v3.10.0, https://matplotlib.org/</dc:title>
     </cc:Agent>
    </dc:creator>
   </cc:Work>
  </rdf:RDF>
 </metadata>
 <defs>
  <style type="text/css">*{stroke-linejoin: round; stroke-linecap: butt}</style>
 </defs>
 <g id="figure_1">
  <g id="patch_1">
   <path d="M 0 432 
L 864 432 
L 864 0 
L 0 0 
z
" style="fill: #ffffff"/>
  </g>
  <g id="axes_1">
   <g id="patch_2">
    <path d="M 108 384.48 
L 777.6 384.48 
L 777.6 51.84 
L 108 51.84 
z
" style="fill: #ffffff"/>
   </g>
   <g id="matplotlib.axis_1">
    <g id="xtick_1">
     <g id="line2d_1">
      <defs>
       <path id="m609a257366" d="M 0 0 
L 0 3.5 
" style="stroke: #000000; stroke-width: 0.8"/>
      </defs>
      <g>
       <use xlink:href="#m609a257366" x="126.013358" y="384.48" style="stroke: #000000; stroke-width: 0.8"/>
      </g>
     </g>
     <g id="text_1">
      <!-- 0 -->
      <g transform="translate(122.832108 399.078438) scale(0.1 -0.1)">
       <defs>
        <path id="DejaVuSans-30" d="M 2034 4250 
Q 1547 4250 1301 3770 
Q 1056 3291 1056 2328 
Q 1056 1369 1301 889 
Q 1547 409 2034 409 
Q 2525 409 2770 889 
Q 3016 1369 3016 2328 
Q 3016 3291 2770 3770 
Q 2525 4250 2034 4250 
z
M 2034 4750 
Q 2819 4750 3233 4129 
Q 3647 3509 3647 2328 
Q 3647 1150 3233 529 
Q 2819 -91 2034 -91 
Q 1250 -91 836 529 
Q 422 1150 422 2328 
Q 422 3509 836 4129 
Q 1250 4750 2034 4750 
z
" transform="scale(0.015625)"/>
       </defs>
       <use xlink:href="#DejaVuSans-30"/>
      </g>
     </g>
    </g>
    <g id="xtick_2">
     <g id="line2d_2">
      <g>
       <use xlink:href="#m609a257366" x="250.243414" y="384.48" style="stroke: #000000; stroke-width: 0.8"/>
      </g>
     </g>
     <g id="text_2">
      <!-- 10 -->
      <g transform="translate(243.880914 399.078438) scale(0.1 -0.1)">
       <defs>
        <path id="DejaVuSans-31" d="M 794 531 
L 1825 531 
L 1825 4091 
L 703 3866 
L 703 4441 
L 1819 4666 
L 2450 4666 
L 2450 531 
L 3481 531 
L 3481 0 
L 794 0 
L 794 531 
z
" transform="scale(0.015625)"/>
       </defs>
       <use xlink:href="#DejaVuSans-31"/>
       <use xlink:href="#DejaVuSans-30" transform="translate(63.623047 0)"/>
      </g>
     </g>
    </g>
    <g id="xtick_3">
     <g id="line2d_3">
      <g>
       <use xlink:href="#m609a257366" x="374.473469" y="384.48" style="stroke: #000000; stroke-width: 0.8"/>
      </g>
     </g>
     <g id="text_3">
      <!-- 20 -->
      <g transform="translate(368.110969 399.078438) scale(0.1 -0.1)">
       <defs>
        <path id="DejaVuSans-32" d="M 1228 531 
L 3431 531 
L 3431 0 
L 469 0 
L 469 531 
Q 828 903 1448 1529 
Q 2069 2156 2228 2338 
Q 2531 2678 2651 2914 
Q 2772 3150 2772 3378 
Q 2772 3750 2511 3984 
Q 2250 4219 1831 4219 
Q 1534 4219 1204 4116 
Q 875 4013 500 3803 
L 500 4441 
Q 881 4594 1212 4672 
Q 1544 4750 1819 4750 
Q 2544 4750 2975 4387 
Q 3406 4025 3406 3419 
Q 3406 3131 3298 2873 
Q 3191 2616 2906 2266 
Q 2828 2175 2409 1742 
Q 1991 1309 1228 531 
z
" transform="scale(0.015625)"/>
       </defs>
       <use xlink:href="#DejaVuSans-32"/>
       <use xlink:href="#DejaVuSans-30" transform="translate(63.623047 0)"/>
      </g>
     </g>
    </g>
    <g id="xtick_4">
     <g id="line2d_4">
      <g>
       <use xlink:href="#m609a257366" x="498.703525" y="384.48" style="stroke: #000000; stroke-width: 0.8"/>
      </g>
     </g>
     <g id="text_4">
      <!-- 30 -->
      <g transform="translate(492.341025 399.078438) scale(0.1 -0.1)">
       <defs>
        <path id="DejaVuSans-33" d="M 2597 2516 
Q 3050 2419 3304 2112 
Q 3559 1806 3559 1356 
Q 3559 666 3084 287 
Q 2609 -91 1734 -91 
Q 1441 -91 1130 -33 
Q 819 25 488 141 
L 488 750 
Q 750 597 1062 519 
Q 1375 441 1716 441 
Q 2309 441 2620 675 
Q 2931 909 2931 1356 
Q 2931 1769 2642 2001 
Q 2353 2234 1838 2234 
L 1294 2234 
L 1294 2753 
L 1863 2753 
Q 2328 2753 2575 2939 
Q 2822 3125 2822 3475 
Q 2822 3834 2567 4026 
Q 2313 4219 1838 4219 
Q 1578 4219 1281 4162 
Q 984 4106 628 3988 
L 628 4550 
Q 988 4650 1302 4700 
Q 1616 4750 1894 4750 
Q 2613 4750 3031 4423 
Q 3450 4097 3450 3541 
Q 3450 3153 3228 2886 
Q 3006 2619 2597 2516 
z
" transform="scale(0.015625)"/>
       </defs>
       <use xlink:href="#DejaVuSans-33"/>
       <use xlink:href="#DejaVuSans-30" transform="translate(63.623047 0)"/>
      </g>
     </g>
    </g>
    <g id="xtick_5">
     <g id="line2d_5">
      <g>
       <use xlink:href="#m609a257366" x="622.933581" y="384.48" style="stroke: #000000; stroke-width: 0.8"/>
      </g>
     </g>
     <g id="text_5">
      <!-- 40 -->
      <g transform="translate(616.571081 399.078438) scale(0.1 -0.1)">
       <defs>
        <path id="DejaVuSans-34" d="M 2419 4116 
L 825 1625 
L 2419 1625 
L 2419 4116 
z
M 2253 4666 
L 3047 4666 
L 3047 1625 
L 3713 1625 
L 3713 1100 
L 3047 1100 
L 3047 0 
L 2419 0 
L 2419 1100 
L 313 1100 
L 313 1709 
L 2253 4666 
z
" transform="scale(0.015625)"/>
       </defs>
       <use xlink:href="#DejaVuSans-34"/>
       <use xlink:href="#DejaVuSans-30" transform="translate(63.623047 0)"/>
      </g>
     </g>
    </g>
    <g id="xtick_6">
     <g id="line2d_6">
      <g>
       <use xlink:href="#m609a257366" x="747.163636" y="384.48" style="stroke: #000000; stroke-width: 0.8"/>
      </g>
     </g>
     <g id="text_6">
      <!-- 50 -->
      <g transform="translate(740.801136 399.078438) scale(0.1 -0.1)">
       <defs>
        <path id="DejaVuSans-35" d="M 691 4666 
L 3169 4666 
L 3169 4134 
L 1269 4134 
L 1269 2991 
Q 1406 3038 1543 3061 
Q 1681 3084 1819 3084 
Q 2600 3084 3056 2656 
Q 3513 2228 3513 1497 
Q 3513 744 3044 326 
Q 2575 -91 1722 -91 
Q 1428 -91 1123 -41 
Q 819 9 494 109 
L 494 744 
Q 775 591 1075 516 
Q 1375 441 1709 441 
Q 2250 441 2565 725 
Q 2881 1009 2881 1497 
Q 2881 1984 2565 2268 
Q 2250 2553 1709 2553 
Q 1456 2553 1204 2497 
Q 953 2441 691 2322 
L 691 4666 
z
" transform="scale(0.015625)"/>
       </defs>
       <use xlink:href="#DejaVuSans-35"/>
       <use xlink:href="#DejaVuSans-30" transform="translate(63.623047 0)"/>
      </g>
     </g>
    </g>
    <g id="text_7">
     <!-- Epochs -->
     <g transform="translate(424.884375 412.756563) scale(0.1 -0.1)">
      <defs>
       <path id="DejaVuSans-45" d="M 628 4666 
L 3578 4666 
L 3578 4134 
L 1259 4134 
L 1259 2753 
L 3481 2753 
L 3481 2222 
L 1259 2222 
L 1259 531 
L 3634 531 
L 3634 0 
L 628 0 
L 628 4666 
z
" transform="scale(0.015625)"/>
       <path id="DejaVuSans-70" d="M 1159 525 
L 1159 -1331 
L 581 -1331 
L 581 3500 
L 1159 3500 
L 1159 2969 
Q 1341 3281 1617 3432 
Q 1894 3584 2278 3584 
Q 2916 3584 3314 3078 
Q 3713 2572 3713 1747 
Q 3713 922 3314 415 
Q 2916 -91 2278 -91 
Q 1894 -91 1617 61 
Q 1341 213 1159 525 
z
M 3116 1747 
Q 3116 2381 2855 2742 
Q 2594 3103 2138 3103 
Q 1681 3103 1420 2742 
Q 1159 2381 1159 1747 
Q 1159 1113 1420 752 
Q 1681 391 2138 391 
Q 2594 391 2855 752 
Q 3116 1113 3116 1747 
z
" transform="scale(0.015625)"/>
       <path id="DejaVuSans-6f" d="M 1959 3097 
Q 1497 3097 1228 2736 
Q 959 2375 959 1747 
Q 959 1119 1226 758 
Q 1494 397 1959 397 
Q 2419 397 2687 759 
Q 2956 1122 2956 1747 
Q 2956 2369 2687 2733 
Q 2419 3097 1959 3097 
z
M 1959 3584 
Q 2709 3584 3137 3096 
Q 3566 2609 3566 1747 
Q 3566 888 3137 398 
Q 2709 -91 1959 -91 
Q 1206 -91 779 398 
Q 353 888 353 1747 
Q 353 2609 779 3096 
Q 1206 3584 1959 3584 
z
" transform="scale(0.015625)"/>
       <path id="DejaVuSans-63" d="M 3122 3366 
L 3122 2828 
Q 2878 2963 2633 3030 
Q 2388 3097 2138 3097 
Q 1578 3097 1268 2742 
Q 959 2388 959 1747 
Q 959 1106 1268 751 
Q 1578 397 2138 397 
Q 2388 397 2633 464 
Q 2878 531 3122 666 
L 3122 134 
Q 2881 22 2623 -34 
Q 2366 -91 2075 -91 
Q 1284 -91 818 406 
Q 353 903 353 1747 
Q 353 2603 823 3093 
Q 1294 3584 2113 3584 
Q 2378 3584 2631 3529 
Q 2884 3475 3122 3366 
z
" transform="scale(0.015625)"/>
       <path id="DejaVuSans-68" d="M 3513 2113 
L 3513 0 
L 2938 0 
L 2938 2094 
Q 2938 2591 2744 2837 
Q 2550 3084 2163 3084 
Q 1697 3084 1428 2787 
Q 1159 2491 1159 1978 
L 1159 0 
L 581 0 
L 581 4863 
L 1159 4863 
L 1159 2956 
Q 1366 3272 1645 3428 
Q 1925 3584 2291 3584 
Q 2894 3584 3203 3211 
Q 3513 2838 3513 2113 
z
" transform="scale(0.015625)"/>
       <path id="DejaVuSans-73" d="M 2834 3397 
L 2834 2853 
Q 2591 2978 2328 3040 
Q 2066 3103 1784 3103 
Q 1356 3103 1142 2972 
Q 928 2841 928 2578 
Q 928 2378 1081 2264 
Q 1234 2150 1697 2047 
L 1894 2003 
Q 2506 1872 2764 1633 
Q 3022 1394 3022 966 
Q 3022 478 2636 193 
Q 2250 -91 1575 -91 
Q 1294 -91 989 -36 
Q 684 19 347 128 
L 347 722 
Q 666 556 975 473 
Q 1284 391 1588 391 
Q 1994 391 2212 530 
Q 2431 669 2431 922 
Q 2431 1156 2273 1281 
Q 2116 1406 1581 1522 
L 1381 1569 
Q 847 1681 609 1914 
Q 372 2147 372 2553 
Q 372 3047 722 3315 
Q 1072 3584 1716 3584 
Q 2034 3584 2315 3537 
Q 2597 3491 2834 3397 
z
" transform="scale(0.015625)"/>
      </defs>
      <use xlink:href="#DejaVuSans-45"/>
      <use xlink:href="#DejaVuSans-70" transform="translate(63.183594 0)"/>
      <use xlink:href="#DejaVuSans-6f" transform="translate(126.660156 0)"/>
      <use xlink:href="#DejaVuSans-63" transform="translate(187.841797 0)"/>
      <use xlink:href="#DejaVuSans-68" transform="translate(242.822266 0)"/>
      <use xlink:href="#DejaVuSans-73" transform="translate(306.201172 0)"/>
     </g>
    </g>
   </g>
   <g id="matplotlib.axis_2">
    <g id="ytick_1">
     <g id="line2d_7">
      <defs>
       <path id="m920c6409c6" d="M 0 0 
L -3.5 0 
" style="stroke: #000000; stroke-width: 0.8"/>
      </defs>
      <g>
       <use xlink:href="#m920c6409c6" x="108" y="340.319108" style="stroke: #000000; stroke-width: 0.8"/>
      </g>
     </g>
     <g id="text_8">
      <!-- 0.40 -->
      <g transform="translate(78.734375 344.118326) scale(0.1 -0.1)">
       <defs>
        <path id="DejaVuSans-2e" d="M 684 794 
L 1344 794 
L 1344 0 
L 684 0 
L 684 794 
z
" transform="scale(0.015625)"/>
       </defs>
       <use xlink:href="#DejaVuSans-30"/>
       <use xlink:href="#DejaVuSans-2e" transform="translate(63.623047 0)"/>
       <use xlink:href="#DejaVuSans-34" transform="translate(95.410156 0)"/>
       <use xlink:href="#DejaVuSans-30" transform="translate(159.033203 0)"/>
      </g>
     </g>
    </g>
    <g id="ytick_2">
     <g id="line2d_8">
      <g>
       <use xlink:href="#m920c6409c6" x="108" y="294.216318" style="stroke: #000000; stroke-width: 0.8"/>
      </g>
     </g>
     <g id="text_9">
      <!-- 0.45 -->
      <g transform="translate(78.734375 298.015537) scale(0.1 -0.1)">
       <use xlink:href="#DejaVuSans-30"/>
       <use xlink:href="#DejaVuSans-2e" transform="translate(63.623047 0)"/>
       <use xlink:href="#DejaVuSans-34" transform="translate(95.410156 0)"/>
       <use xlink:href="#DejaVuSans-35" transform="translate(159.033203 0)"/>
      </g>
     </g>
    </g>
    <g id="ytick_3">
     <g id="line2d_9">
      <g>
       <use xlink:href="#m920c6409c6" x="108" y="248.113529" style="stroke: #000000; stroke-width: 0.8"/>
      </g>
     </g>
     <g id="text_10">
      <!-- 0.50 -->
      <g transform="translate(78.734375 251.912747) scale(0.1 -0.1)">
       <use xlink:href="#DejaVuSans-30"/>
       <use xlink:href="#DejaVuSans-2e" transform="translate(63.623047 0)"/>
       <use xlink:href="#DejaVuSans-35" transform="translate(95.410156 0)"/>
       <use xlink:href="#DejaVuSans-30" transform="translate(159.033203 0)"/>
      </g>
     </g>
    </g>
    <g id="ytick_4">
     <g id="line2d_10">
      <g>
       <use xlink:href="#m920c6409c6" x="108" y="202.010739" style="stroke: #000000; stroke-width: 0.8"/>
      </g>
     </g>
     <g id="text_11">
      <!-- 0.55 -->
      <g transform="translate(78.734375 205.809958) scale(0.1 -0.1)">
       <use xlink:href="#DejaVuSans-30"/>
       <use xlink:href="#DejaVuSans-2e" transform="translate(63.623047 0)"/>
       <use xlink:href="#DejaVuSans-35" transform="translate(95.410156 0)"/>
       <use xlink:href="#DejaVuSans-35" transform="translate(159.033203 0)"/>
      </g>
     </g>
    </g>
    <g id="ytick_5">
     <g id="line2d_11">
      <g>
       <use xlink:href="#m920c6409c6" x="108" y="155.90795" style="stroke: #000000; stroke-width: 0.8"/>
      </g>
     </g>
     <g id="text_12">
      <!-- 0.60 -->
      <g transform="translate(78.734375 159.707168) scale(0.1 -0.1)">
       <defs>
        <path id="DejaVuSans-36" d="M 2113 2584 
Q 1688 2584 1439 2293 
Q 1191 2003 1191 1497 
Q 1191 994 1439 701 
Q 1688 409 2113 409 
Q 2538 409 2786 701 
Q 3034 994 3034 1497 
Q 3034 2003 2786 2293 
Q 2538 2584 2113 2584 
z
M 3366 4563 
L 3366 3988 
Q 3128 4100 2886 4159 
Q 2644 4219 2406 4219 
Q 1781 4219 1451 3797 
Q 1122 3375 1075 2522 
Q 1259 2794 1537 2939 
Q 1816 3084 2150 3084 
Q 2853 3084 3261 2657 
Q 3669 2231 3669 1497 
Q 3669 778 3244 343 
Q 2819 -91 2113 -91 
Q 1303 -91 875 529 
Q 447 1150 447 2328 
Q 447 3434 972 4092 
Q 1497 4750 2381 4750 
Q 2619 4750 2861 4703 
Q 3103 4656 3366 4563 
z
" transform="scale(0.015625)"/>
       </defs>
       <use xlink:href="#DejaVuSans-30"/>
       <use xlink:href="#DejaVuSans-2e" transform="translate(63.623047 0)"/>
       <use xlink:href="#DejaVuSans-36" transform="translate(95.410156 0)"/>
       <use xlink:href="#DejaVuSans-30" transform="translate(159.033203 0)"/>
      </g>
     </g>
    </g>
    <g id="ytick_6">
     <g id="line2d_12">
      <g>
       <use xlink:href="#m920c6409c6" x="108" y="109.80516" style="stroke: #000000; stroke-width: 0.8"/>
      </g>
     </g>
     <g id="text_13">
      <!-- 0.65 -->
      <g transform="translate(78.734375 113.604379) scale(0.1 -0.1)">
       <use xlink:href="#DejaVuSans-30"/>
       <use xlink:href="#DejaVuSans-2e" transform="translate(63.623047 0)"/>
       <use xlink:href="#DejaVuSans-36" transform="translate(95.410156 0)"/>
       <use xlink:href="#DejaVuSans-35" transform="translate(159.033203 0)"/>
      </g>
     </g>
    </g>
    <g id="ytick_7">
     <g id="line2d_13">
      <g>
       <use xlink:href="#m920c6409c6" x="108" y="63.702371" style="stroke: #000000; stroke-width: 0.8"/>
      </g>
     </g>
     <g id="text_14">
      <!-- 0.70 -->
      <g transform="translate(78.734375 67.501589) scale(0.1 -0.1)">
       <defs>
        <path id="DejaVuSans-37" d="M 525 4666 
L 3525 4666 
L 3525 4397 
L 1831 0 
L 1172 0 
L 2766 4134 
L 525 4134 
L 525 4666 
z
" transform="scale(0.015625)"/>
       </defs>
       <use xlink:href="#DejaVuSans-30"/>
       <use xlink:href="#DejaVuSans-2e" transform="translate(63.623047 0)"/>
       <use xlink:href="#DejaVuSans-37" transform="translate(95.410156 0)"/>
       <use xlink:href="#DejaVuSans-30" transform="translate(159.033203 0)"/>
      </g>
     </g>
    </g>
    <g id="text_15">
     <!-- Loss -->
     <g transform="translate(72.654687 229.127187) rotate(-90) scale(0.1 -0.1)">
      <defs>
       <path id="DejaVuSans-4c" d="M 628 4666 
L 1259 4666 
L 1259 531 
L 3531 531 
L 3531 0 
L 628 0 
L 628 4666 
z
" transform="scale(0.015625)"/>
      </defs>
      <use xlink:href="#DejaVuSans-4c"/>
      <use xlink:href="#DejaVuSans-6f" transform="translate(53.962891 0)"/>
      <use xlink:href="#DejaVuSans-73" transform="translate(115.144531 0)"/>
      <use xlink:href="#DejaVuSans-73" transform="translate(167.244141 0)"/>
     </g>
    </g>
   </g>
   <g id="line2d_14">
    <path d="M 138.436364 81.362775 
L 150.859369 116.930354 
L 163.282375 150.429399 
L 175.70538 182.228937 
L 188.128386 217.879532 
L 200.551391 239.914262 
L 212.974397 251.384375 
L 225.397403 259.348132 
L 237.820408 266.761091 
L 250.243414 264.226682 
L 262.666419 276.985561 
L 275.089425 283.889737 
L 287.51243 282.964197 
L 299.935436 284.022968 
L 312.358442 288.198046 
L 324.781447 291.293041 
L 337.204453 293.217302 
L 349.627458 293.637803 
L 362.050464 292.659569 
L 374.473469 291.72474 
" clip-path="url(#p43aabfa1fe)" style="fill: none; stroke: #440154; stroke-width: 1.5; stroke-linecap: square"/>
   </g>
   <g id="line2d_15">
    <path d="M 138.436364 67.765026 
L 150.859369 103.000425 
L 163.282375 134.897447 
L 175.70538 164.777362 
L 188.128386 194.070091 
L 200.551391 222.375583 
L 212.974397 236.02394 
L 225.397403 244.65358 
L 237.820408 264.539382 
L 250.243414 260.53264 
L 262.666419 266.225717 
L 275.089425 279.361583 
L 287.51243 277.753538 
L 299.935436 281.284051 
L 312.358442 289.058586 
L 324.781447 283.173815 
L 337.204453 290.640289 
L 349.627458 280.984816 
L 362.050464 288.083692 
L 374.473469 288.071865 
L 386.896475 286.384666 
L 399.319481 285.903058 
L 411.742486 297.028415 
L 424.165492 285.494769 
L 436.588497 287.230732 
" clip-path="url(#p43aabfa1fe)" style="fill: none; stroke: #440154; stroke-width: 1.5; stroke-linecap: square"/>
   </g>
   <g id="line2d_16">
    <path d="M 138.436364 79.232736 
L 150.859369 114.843472 
L 163.282375 142.297609 
L 175.70538 173.084979 
L 188.128386 204.753839 
L 200.551391 226.894448 
L 212.974397 236.277369 
L 225.397403 245.230065 
L 237.820408 249.835408 
L 250.243414 260.156689 
L 262.666419 266.165475 
L 275.089425 276.075504 
L 287.51243 275.983258 
L 299.935436 279.164707 
L 312.358442 285.683281 
L 324.781447 297.282786 
L 337.204453 302.270549 
L 349.627458 306.180451 
L 362.050464 321.195648 
L 374.473469 299.943925 
L 386.896475 305.891429 
L 399.319481 318.923572 
L 411.742486 312.779692 
L 424.165492 310.725508 
" clip-path="url(#p43aabfa1fe)" style="fill: none; stroke: #440154; stroke-width: 1.5; stroke-linecap: square"/>
   </g>
   <g id="line2d_17">
    <path d="M 138.436364 90.047647 
L 150.859369 116.690799 
L 163.282375 150.00742 
L 175.70538 186.366981 
L 188.128386 219.437751 
L 200.551391 236.096719 
L 212.974397 250.765159 
L 225.397403 264.566977 
L 237.820408 266.558816 
L 250.243414 274.307162 
L 262.666419 280.412181 
L 275.089425 282.231563 
L 287.51243 293.884164 
L 299.935436 305.958921 
L 312.358442 294.035026 
L 324.781447 300.276798 
L 337.204453 302.097762 
L 349.627458 297.27421 
L 362.050464 303.662455 
L 374.473469 297.265239 
L 386.896475 297.39191 
L 399.319481 306.03405 
L 411.742486 306.876299 
L 424.165492 304.291513 
L 436.588497 303.133318 
L 449.011503 299.06823 
L 461.434508 301.580967 
" clip-path="url(#p43aabfa1fe)" style="fill: none; stroke: #440154; stroke-width: 1.5; stroke-linecap: square"/>
   </g>
   <g id="line2d_18">
    <path d="M 138.436364 92.335086 
L 150.859369 119.626387 
L 163.282375 144.440073 
L 175.70538 174.441191 
L 188.128386 199.982459 
L 200.551391 219.18446 
L 212.974397 240.401039 
L 225.397403 249.654602 
L 237.820408 249.912617 
L 250.243414 261.055979 
L 262.666419 258.599138 
L 275.089425 269.857076 
L 287.51243 280.913624 
L 299.935436 283.808781 
L 312.358442 292.952739 
L 324.781447 298.162339 
L 337.204453 288.56028 
L 349.627458 292.486648 
L 362.050464 291.511135 
L 374.473469 296.890776 
L 386.896475 296.209769 
L 399.319481 289.275272 
L 411.742486 292.810254 
L 424.165492 288.161246 
L 436.588497 295.901158 
L 449.011503 297.490247 
L 461.434508 285.345877 
L 473.857514 287.259901 
" clip-path="url(#p43aabfa1fe)" style="fill: none; stroke: #440154; stroke-width: 1.5; stroke-linecap: square"/>
   </g>
   <g id="line2d_19">
    <path d="M 138.436364 87.464408 
L 150.859369 112.536437 
L 163.282375 142.763699 
L 175.70538 175.989378 
L 188.128386 208.015164 
L 200.551391 236.020274 
L 212.974397 259.960395 
L 225.397403 269.791695 
L 237.820408 285.201182 
L 250.243414 287.233943 
L 262.666419 298.388231 
L 275.089425 292.804627 
L 287.51243 297.585955 
L 299.935436 295.269245 
L 312.358442 296.320913 
L 324.781447 302.823683 
L 337.204453 305.51396 
L 349.627458 302.654943 
L 362.050464 296.396382 
L 374.473469 308.603006 
L 386.896475 295.651863 
L 399.319481 302.60917 
L 411.742486 301.263298 
L 424.165492 297.309652 
L 436.588497 300.690043 
L 449.011503 294.561226 
L 461.434508 303.845477 
" clip-path="url(#p43aabfa1fe)" style="fill: none; stroke: #3b528b; stroke-width: 1.5; stroke-linecap: square"/>
   </g>
   <g id="line2d_20">
    <path d="M 138.436364 83.771253 
L 150.859369 108.767326 
L 163.282375 135.499113 
L 175.70538 168.528902 
L 188.128386 200.959954 
L 200.551391 229.596054 
L 212.974397 249.256916 
L 225.397403 259.831517 
L 237.820408 268.378182 
L 250.243414 273.553754 
L 262.666419 272.288891 
L 275.089425 286.369708 
L 287.51243 296.893111 
L 299.935436 290.935868 
L 312.358442 286.10708 
L 324.781447 292.721417 
L 337.204453 291.377879 
L 349.627458 295.667205 
L 362.050464 297.307043 
L 374.473469 303.967331 
L 386.896475 301.853053 
L 399.319481 295.999531 
L 411.742486 294.780024 
L 424.165492 295.77713 
L 436.588497 294.91267 
L 449.011503 292.03704 
L 461.434508 297.705341 
L 473.857514 295.318838 
L 486.280519 298.481908 
L 498.703525 292.356291 
L 511.126531 291.614691 
L 523.549536 292.60454 
L 535.972542 297.977752 
L 548.395547 293.949809 
L 560.818553 294.246128 
L 573.241558 289.469982 
L 585.664564 292.53906 
L 598.08757 295.341525 
L 610.510575 298.51967 
L 622.933581 298.276358 
L 635.356586 293.811361 
L 647.779592 294.810065 
L 660.202597 297.205536 
L 672.625603 296.600029 
L 685.048609 295.234421 
L 697.471614 297.908373 
L 709.89462 299.684273 
L 722.317625 290.304573 
L 734.740631 298.537965 
L 747.163636 290.634107 
" clip-path="url(#p43aabfa1fe)" style="fill: none; stroke: #3b528b; stroke-width: 1.5; stroke-linecap: square"/>
   </g>
   <g id="line2d_21">
    <path d="M 138.436364 84.516238 
L 150.859369 115.733766 
L 163.282375 141.67744 
L 175.70538 174.361823 
L 188.128386 202.877558 
L 200.551391 228.799703 
L 212.974397 238.313675 
L 225.397403 253.861048 
L 237.820408 258.974847 
L 250.243414 271.32308 
L 262.666419 284.627486 
L 275.089425 276.850696 
L 287.51243 292.293788 
L 299.935436 305.541817 
L 312.358442 301.525295 
L 324.781447 307.751733 
L 337.204453 310.172629 
L 349.627458 312.443954 
L 362.050464 310.631801 
L 374.473469 307.070661 
L 386.896475 303.651808 
" clip-path="url(#p43aabfa1fe)" style="fill: none; stroke: #3b528b; stroke-width: 1.5; stroke-linecap: square"/>
   </g>
   <g id="line2d_22">
    <path d="M 138.436364 66.96 
L 150.859369 102.888744 
L 163.282375 137.454869 
L 175.70538 170.259225 
L 188.128386 203.523842 
L 200.551391 237.466802 
L 212.974397 255.56617 
L 225.397403 263.563888 
L 237.820408 274.691616 
L 250.243414 278.375278 
L 262.666419 285.376456 
L 275.089425 290.572691 
L 287.51243 300.134327 
L 299.935436 306.976398 
L 312.358442 310.133192 
L 324.781447 311.259669 
L 337.204453 312.114983 
L 349.627458 310.007524 
L 362.050464 304.49677 
L 374.473469 310.153027 
L 386.896475 312.533704 
L 399.319481 302.660162 
L 411.742486 307.284634 
L 424.165492 305.760489 
L 436.588497 309.654327 
L 449.011503 311.26395 
" clip-path="url(#p43aabfa1fe)" style="fill: none; stroke: #3b528b; stroke-width: 1.5; stroke-linecap: square"/>
   </g>
   <g id="line2d_23">
    <path d="M 138.436364 76.980807 
L 150.859369 106.546194 
L 163.282375 134.866894 
L 175.70538 162.45603 
L 188.128386 190.349374 
L 200.551391 216.771945 
L 212.974397 234.438707 
L 225.397403 246.55015 
L 237.820408 252.173148 
L 250.243414 264.473533 
L 262.666419 268.189226 
L 275.089425 273.781908 
L 287.51243 279.195409 
L 299.935436 288.015729 
L 312.358442 292.265714 
L 324.781447 310.869162 
L 337.204453 313.950209 
L 349.627458 314.019358 
L 362.050464 309.290562 
L 374.473469 306.306681 
L 386.896475 310.883335 
L 399.319481 322.061806 
L 411.742486 314.168899 
L 424.165492 317.615479 
L 436.588497 317.793023 
L 449.011503 313.096349 
L 461.434508 309.528057 
L 473.857514 317.215012 
L 486.280519 306.872802 
L 498.703525 316.856194 
L 511.126531 312.552348 
L 523.549536 316.410628 
L 535.972542 316.552638 
L 548.395547 315.388144 
L 560.818553 313.36933 
L 573.241558 317.833285 
" clip-path="url(#p43aabfa1fe)" style="fill: none; stroke: #3b528b; stroke-width: 1.5; stroke-linecap: square"/>
   </g>
   <g id="line2d_24">
    <path d="M 138.436364 83.879815 
L 150.859369 118.419442 
L 163.282375 148.400628 
L 175.70538 179.751966 
L 188.128386 207.918483 
L 200.551391 227.103711 
L 212.974397 239.688081 
L 225.397403 255.843035 
L 237.820408 262.485278 
L 250.243414 267.942919 
L 262.666419 275.636943 
L 275.089425 283.165672 
L 287.51243 289.526912 
L 299.935436 288.351666 
L 312.358442 300.25191 
L 324.781447 310.558575 
L 337.204453 317.525486 
L 349.627458 320.639424 
L 362.050464 329.704365 
L 374.473469 335.049583 
L 386.896475 344.731379 
L 399.319481 356.608593 
L 411.742486 365.307374 
L 424.165492 359.493902 
L 436.588497 366.335647 
L 449.011503 356.738201 
L 461.434508 369.36 
L 473.857514 363.016567 
L 486.280519 357.281308 
" clip-path="url(#p43aabfa1fe)" style="fill: none; stroke: #21918c; stroke-width: 1.5; stroke-linecap: square"/>
   </g>
   <g id="line2d_25">
    <path d="M 138.436364 71.130179 
L 150.859369 103.352682 
L 163.282375 137.881581 
L 175.70538 170.806984 
L 188.128386 214.801323 
L 200.551391 228.049031 
L 212.974397 244.518818 
L 225.397403 258.062117 
L 237.820408 260.01592 
L 250.243414 273.819417 
L 262.666419 280.836032 
L 275.089425 285.608591 
L 287.51243 290.142952 
L 299.935436 294.697511 
L 312.358442 297.829473 
L 324.781447 304.288638 
L 337.204453 309.512621 
L 349.627458 312.805033 
L 362.050464 308.793651 
L 374.473469 314.675614 
L 386.896475 316.436752 
L 399.319481 314.732376 
" clip-path="url(#p43aabfa1fe)" style="fill: none; stroke: #21918c; stroke-width: 1.5; stroke-linecap: square"/>
   </g>
   <g id="line2d_26">
    <path d="M 138.436364 68.873358 
L 150.859369 105.642796 
L 163.282375 136.712556 
L 175.70538 174.415799 
L 188.128386 201.06674 
L 200.551391 216.093798 
L 212.974397 232.618519 
L 225.397403 241.913671 
L 237.820408 251.199641 
L 250.243414 255.485616 
L 262.666419 263.146743 
L 275.089425 265.239665 
L 287.51243 269.747493 
L 299.935436 273.01132 
L 312.358442 288.305628 
L 324.781447 292.291221 
L 337.204453 298.201912 
L 349.627458 304.81652 
L 362.050464 305.538954 
L 374.473469 304.363736 
L 386.896475 315.520627 
L 399.319481 308.748455 
L 411.742486 304.869635 
L 424.165492 303.671149 
L 436.588497 309.635719 
L 449.011503 311.212435 
L 461.434508 311.007821 
L 473.857514 308.615857 
L 486.280519 305.786154 
L 498.703525 303.649932 
L 511.126531 305.430012 
L 523.549536 304.272992 
L 535.972542 305.943978 
L 548.395547 312.132401 
L 560.818553 306.932352 
L 573.241558 309.206496 
L 585.664564 308.099456 
L 598.08757 308.827423 
L 610.510575 310.041501 
" clip-path="url(#p43aabfa1fe)" style="fill: none; stroke: #21918c; stroke-width: 1.5; stroke-linecap: square"/>
   </g>
   <g id="line2d_27">
    <path d="M 138.436364 99.44103 
L 150.859369 125.735772 
L 163.282375 154.226322 
L 175.70538 183.860989 
L 188.128386 211.402849 
L 200.551391 244.950956 
L 212.974397 251.375702 
L 225.397403 260.602105 
L 237.820408 269.714695 
L 250.243414 274.805801 
L 262.666419 283.063565 
L 275.089425 285.539185 
L 287.51243 298.176183 
L 299.935436 298.998881 
L 312.358442 304.72777 
L 324.781447 299.8828 
L 337.204453 305.474265 
L 349.627458 305.185492 
L 362.050464 310.737441 
L 374.473469 298.093412 
L 386.896475 298.202552 
L 399.319481 304.665019 
L 411.742486 301.332121 
L 424.165492 303.917064 
L 436.588497 301.964993 
L 449.011503 305.517273 
L 461.434508 302.308565 
L 473.857514 302.344711 
L 486.280519 306.514043 
L 498.703525 303.483335 
L 511.126531 304.851155 
L 523.549536 309.40883 
L 535.972542 307.215308 
L 548.395547 298.25164 
L 560.818553 300.154594 
L 573.241558 304.477549 
L 585.664564 298.614372 
L 598.08757 302.670707 
L 610.510575 304.914846 
L 622.933581 310.235478 
" clip-path="url(#p43aabfa1fe)" style="fill: none; stroke: #21918c; stroke-width: 1.5; stroke-linecap: square"/>
   </g>
   <g id="line2d_28">
    <path d="M 138.436364 81.867053 
L 150.859369 111.103695 
L 163.282375 137.598916 
L 175.70538 167.176104 
L 188.128386 196.084172 
L 200.551391 222.99954 
L 212.974397 247.456723 
L 225.397403 259.543527 
L 237.820408 266.843958 
L 250.243414 280.526312 
L 262.666419 282.458652 
L 275.089425 290.932998 
L 287.51243 294.013568 
L 299.935436 299.857319 
L 312.358442 297.057952 
L 324.781447 301.41545 
L 337.204453 306.157954 
L 349.627458 309.211743 
L 362.050464 312.204805 
L 374.473469 308.714712 
L 386.896475 308.556307 
L 399.319481 303.450757 
L 411.742486 311.142327 
L 424.165492 310.360709 
L 436.588497 307.065713 
L 449.011503 308.607674 
L 461.434508 307.098924 
L 473.857514 306.246338 
L 486.280519 309.148326 
L 498.703525 313.002686 
L 511.126531 307.88618 
L 523.549536 307.628982 
L 535.972542 309.102726 
L 548.395547 305.891525 
" clip-path="url(#p43aabfa1fe)" style="fill: none; stroke: #21918c; stroke-width: 1.5; stroke-linecap: square"/>
   </g>
   <g id="line2d_29">
    <path d="M 138.436364 84.059668 
L 150.859369 115.660651 
L 163.282375 153.079299 
L 175.70538 184.103843 
L 188.128386 215.695126 
L 200.551391 232.251062 
L 212.974397 245.937639 
L 225.397403 257.178783 
L 237.820408 256.028715 
L 250.243414 265.937205 
L 262.666419 278.106306 
L 275.089425 278.831427 
L 287.51243 283.338117 
L 299.935436 285.98469 
L 312.358442 288.572746 
L 324.781447 294.459255 
L 337.204453 299.458392 
L 349.627458 293.269024 
L 362.050464 296.447047 
" clip-path="url(#p43aabfa1fe)" style="fill: none; stroke: #5ec962; stroke-width: 1.5; stroke-linecap: square"/>
   </g>
   <g id="line2d_30">
    <path d="M 138.436364 92.059227 
L 150.859369 122.419273 
L 163.282375 153.918085 
L 175.70538 184.349996 
L 188.128386 213.642034 
L 200.551391 230.190253 
L 212.974397 242.750142 
L 225.397403 251.859623 
L 237.820408 263.500548 
L 250.243414 271.8169 
L 262.666419 274.48293 
L 275.089425 278.946525 
L 287.51243 296.131775 
L 299.935436 292.061887 
L 312.358442 294.213276 
L 324.781447 304.280697 
L 337.204453 311.526549 
L 349.627458 318.483773 
L 362.050464 328.670049 
L 374.473469 323.314771 
L 386.896475 329.434495 
L 399.319481 330.68575 
L 411.742486 332.712299 
L 424.165492 324.059922 
L 436.588497 332.608318 
" clip-path="url(#p43aabfa1fe)" style="fill: none; stroke: #5ec962; stroke-width: 1.5; stroke-linecap: square"/>
   </g>
   <g id="line2d_31">
    <path d="M 138.436364 82.499838 
L 150.859369 111.882822 
L 163.282375 144.679067 
L 175.70538 175.775901 
L 188.128386 197.95489 
L 200.551391 216.916049 
L 212.974397 229.076417 
L 225.397403 238.754309 
L 237.820408 246.257078 
L 250.243414 263.797763 
L 262.666419 268.07007 
L 275.089425 275.298092 
L 287.51243 285.054585 
L 299.935436 293.795951 
L 312.358442 305.832724 
L 324.781447 311.373091 
L 337.204453 315.676386 
L 349.627458 324.48542 
L 362.050464 321.846773 
L 374.473469 322.579202 
L 386.896475 317.578675 
L 399.319481 324.077045 
L 411.742486 328.195429 
" clip-path="url(#p43aabfa1fe)" style="fill: none; stroke: #5ec962; stroke-width: 1.5; stroke-linecap: square"/>
   </g>
   <g id="line2d_32">
    <path d="M 138.436364 85.898533 
L 150.859369 113.833413 
L 163.282375 144.608897 
L 175.70538 170.386918 
L 188.128386 197.248379 
L 200.551391 229.304617 
L 212.974397 238.363592 
L 225.397403 250.826964 
L 237.820408 254.648146 
L 250.243414 267.285443 
L 262.666419 272.292783 
L 275.089425 286.683999 
L 287.51243 288.935207 
L 299.935436 293.066758 
L 312.358442 302.371005 
L 324.781447 313.885468 
L 337.204453 313.830241 
L 349.627458 327.525417 
L 362.050464 331.498156 
L 374.473469 342.424039 
L 386.896475 345.240576 
L 399.319481 338.682716 
L 411.742486 339.288799 
L 424.165492 349.827396 
L 436.588497 343.864241 
L 449.011503 349.456999 
" clip-path="url(#p43aabfa1fe)" style="fill: none; stroke: #5ec962; stroke-width: 1.5; stroke-linecap: square"/>
   </g>
   <g id="line2d_33">
    <path d="M 138.436364 90.021059 
L 150.859369 118.037694 
L 163.282375 148.310439 
L 175.70538 183.672359 
L 188.128386 213.217509 
L 200.551391 233.187596 
L 212.974397 254.111186 
L 225.397403 264.431403 
L 237.820408 269.604417 
L 250.243414 274.729327 
L 262.666419 278.587381 
L 275.089425 286.693398 
L 287.51243 290.50953 
L 299.935436 287.594478 
L 312.358442 284.657367 
L 324.781447 286.714927 
L 337.204453 288.414537 
L 349.627458 291.930661 
L 362.050464 288.787971 
L 374.473469 297.020289 
L 386.896475 290.340748 
L 399.319481 287.687349 
L 411.742486 286.830668 
L 424.165492 288.596145 
L 436.588497 290.845736 
L 449.011503 288.328879 
L 461.434508 289.218406 
L 473.857514 286.496508 
L 486.280519 292.527032 
L 498.703525 289.221786 
L 511.126531 286.883824 
L 523.549536 288.737541 
L 535.972542 291.428145 
" clip-path="url(#p43aabfa1fe)" style="fill: none; stroke: #5ec962; stroke-width: 1.5; stroke-linecap: square"/>
   </g>
   <g id="line2d_34">
    <path d="M 138.436364 89.860196 
L 150.859369 126.879777 
L 163.282375 153.755869 
L 175.70538 191.160271 
L 188.128386 213.153542 
L 200.551391 237.883005 
L 212.974397 253.146805 
L 225.397403 263.476529 
L 237.820408 269.44516 
L 250.243414 274.877306 
L 262.666419 280.641609 
L 275.089425 292.093262 
L 287.51243 298.595633 
L 299.935436 307.133349 
L 312.358442 302.264813 
L 324.781447 315.079722 
L 337.204453 322.109188 
L 349.627458 330.857918 
L 362.050464 337.13543 
L 374.473469 331.123411 
L 386.896475 335.166562 
L 399.319481 334.381479 
L 411.742486 339.022993 
L 424.165492 340.153041 
L 436.588497 338.492739 
" clip-path="url(#p43aabfa1fe)" style="fill: none; stroke: #fde725; stroke-width: 1.5; stroke-linecap: square"/>
   </g>
   <g id="line2d_35">
    <path d="M 138.436364 80.023661 
L 150.859369 108.73615 
L 163.282375 141.178537 
L 175.70538 176.116733 
L 188.128386 208.162616 
L 200.551391 230.855481 
L 212.974397 241.052232 
L 225.397403 259.689709 
L 237.820408 259.618108 
L 250.243414 261.296451 
L 262.666419 283.932204 
L 275.089425 282.067139 
L 287.51243 291.455142 
L 299.935436 300.71072 
L 312.358442 306.608674 
L 324.781447 317.891415 
L 337.204453 320.482672 
L 349.627458 329.069279 
L 362.050464 342.733247 
L 374.473469 348.159421 
L 386.896475 340.962882 
L 399.319481 337.713536 
L 411.742486 346.054959 
L 424.165492 342.374133 
L 436.588497 348.391562 
L 449.011503 338.811415 
L 461.434508 344.014007 
L 473.857514 341.911942 
L 486.280519 340.613352 
L 498.703525 340.167854 
L 511.126531 341.744861 
L 523.549536 341.884508 
L 535.972542 349.67732 
L 548.395547 340.659864 
L 560.818553 341.983646 
L 573.241558 343.013856 
L 585.664564 335.107875 
L 598.08757 336.798503 
L 610.510575 345.340121 
L 622.933581 337.542899 
L 635.356586 339.197966 
L 647.779592 342.345326 
" clip-path="url(#p43aabfa1fe)" style="fill: none; stroke: #fde725; stroke-width: 1.5; stroke-linecap: square"/>
   </g>
   <g id="line2d_36">
    <path d="M 138.436364 102.335604 
L 150.859369 129.3869 
L 163.282375 153.947124 
L 175.70538 180.917663 
L 188.128386 202.089144 
L 200.551391 225.054987 
L 212.974397 232.675901 
L 225.397403 245.721482 
L 237.820408 250.203403 
L 250.243414 266.74911 
L 262.666419 267.662595 
L 275.089425 281.01192 
L 287.51243 287.13139 
L 299.935436 302.352851 
L 312.358442 301.351044 
L 324.781447 314.218698 
L 337.204453 310.981612 
L 349.627458 313.342735 
L 362.050464 312.183244 
L 374.473469 315.576264 
L 386.896475 317.914387 
L 399.319481 317.444872 
" clip-path="url(#p43aabfa1fe)" style="fill: none; stroke: #fde725; stroke-width: 1.5; stroke-linecap: square"/>
   </g>
   <g id="line2d_37">
    <path d="M 138.436364 105.50436 
L 150.859369 133.694481 
L 163.282375 160.322827 
L 175.70538 192.058522 
L 188.128386 223.768024 
L 200.551391 237.664218 
L 212.974397 252.471999 
L 225.397403 263.408561 
L 237.820408 270.969482 
L 250.243414 277.083479 
L 262.666419 283.019175 
L 275.089425 290.133356 
L 287.51243 294.783538 
L 299.935436 308.79503 
L 312.358442 315.73378 
L 324.781447 308.514875 
L 337.204453 322.126889 
L 349.627458 312.369681 
L 362.050464 313.136183 
L 374.473469 315.417008 
L 386.896475 323.206595 
L 399.319481 317.179011 
" clip-path="url(#p43aabfa1fe)" style="fill: none; stroke: #fde725; stroke-width: 1.5; stroke-linecap: square"/>
   </g>
   <g id="line2d_38">
    <path d="M 138.436364 104.236687 
L 150.859369 135.487995 
L 163.282375 162.94421 
L 175.70538 202.793235 
L 188.128386 229.043935 
L 200.551391 253.904779 
L 212.974397 256.433928 
L 225.397403 273.966866 
L 237.820408 278.310159 
L 250.243414 292.467358 
L 262.666419 291.028089 
L 275.089425 300.69301 
L 287.51243 304.619682 
L 299.935436 308.407233 
L 312.358442 309.750082 
L 324.781447 314.314433 
L 337.204453 310.052129 
L 349.627458 311.379647 
L 362.050464 314.624307 
L 374.473469 315.033348 
" clip-path="url(#p43aabfa1fe)" style="fill: none; stroke: #fde725; stroke-width: 1.5; stroke-linecap: square"/>
   </g>
   <g id="patch_3">
    <path d="M 108 384.48 
L 108 51.84 
" style="fill: none; stroke: #000000; stroke-width: 0.8; stroke-linejoin: miter; stroke-linecap: square"/>
   </g>
   <g id="patch_4">
    <path d="M 777.6 384.48 
L 777.6 51.84 
" style="fill: none; stroke: #000000; stroke-width: 0.8; stroke-linejoin: miter; stroke-linecap: square"/>
   </g>
   <g id="patch_5">
    <path d="M 108 384.48 
L 777.6 384.48 
" style="fill: none; stroke: #000000; stroke-width: 0.8; stroke-linejoin: miter; stroke-linecap: square"/>
   </g>
   <g id="patch_6">
    <path d="M 108 51.84 
L 777.6 51.84 
" style="fill: none; stroke: #000000; stroke-width: 0.8; stroke-linejoin: miter; stroke-linecap: square"/>
   </g>
   <g id="text_16">
    <!-- Training Loss for Each Fold -->
    <g transform="translate(363.140625 45.84) scale(0.12 -0.12)">
     <defs>
      <path id="DejaVuSans-54" d="M -19 4666 
L 3928 4666 
L 3928 4134 
L 2272 4134 
L 2272 0 
L 1638 0 
L 1638 4134 
L -19 4134 
L -19 4666 
z
" transform="scale(0.015625)"/>
      <path id="DejaVuSans-72" d="M 2631 2963 
Q 2534 3019 2420 3045 
Q 2306 3072 2169 3072 
Q 1681 3072 1420 2755 
Q 1159 2438 1159 1844 
L 1159 0 
L 581 0 
L 581 3500 
L 1159 3500 
L 1159 2956 
Q 1341 3275 1631 3429 
Q 1922 3584 2338 3584 
Q 2397 3584 2469 3576 
Q 2541 3569 2628 3553 
L 2631 2963 
z
" transform="scale(0.015625)"/>
      <path id="DejaVuSans-61" d="M 2194 1759 
Q 1497 1759 1228 1600 
Q 959 1441 959 1056 
Q 959 750 1161 570 
Q 1363 391 1709 391 
Q 2188 391 2477 730 
Q 2766 1069 2766 1631 
L 2766 1759 
L 2194 1759 
z
M 3341 1997 
L 3341 0 
L 2766 0 
L 2766 531 
Q 2569 213 2275 61 
Q 1981 -91 1556 -91 
Q 1019 -91 701 211 
Q 384 513 384 1019 
Q 384 1609 779 1909 
Q 1175 2209 1959 2209 
L 2766 2209 
L 2766 2266 
Q 2766 2663 2505 2880 
Q 2244 3097 1772 3097 
Q 1472 3097 1187 3025 
Q 903 2953 641 2809 
L 641 3341 
Q 956 3463 1253 3523 
Q 1550 3584 1831 3584 
Q 2591 3584 2966 3190 
Q 3341 2797 3341 1997 
z
" transform="scale(0.015625)"/>
      <path id="DejaVuSans-69" d="M 603 3500 
L 1178 3500 
L 1178 0 
L 603 0 
L 603 3500 
z
M 603 4863 
L 1178 4863 
L 1178 4134 
L 603 4134 
L 603 4863 
z
" transform="scale(0.015625)"/>
      <path id="DejaVuSans-6e" d="M 3513 2113 
L 3513 0 
L 2938 0 
L 2938 2094 
Q 2938 2591 2744 2837 
Q 2550 3084 2163 3084 
Q 1697 3084 1428 2787 
Q 1159 2491 1159 1978 
L 1159 0 
L 581 0 
L 581 3500 
L 1159 3500 
L 1159 2956 
Q 1366 3272 1645 3428 
Q 1925 3584 2291 3584 
Q 2894 3584 3203 3211 
Q 3513 2838 3513 2113 
z
" transform="scale(0.015625)"/>
      <path id="DejaVuSans-67" d="M 2906 1791 
Q 2906 2416 2648 2759 
Q 2391 3103 1925 3103 
Q 1463 3103 1205 2759 
Q 947 2416 947 1791 
Q 947 1169 1205 825 
Q 1463 481 1925 481 
Q 2391 481 2648 825 
Q 2906 1169 2906 1791 
z
M 3481 434 
Q 3481 -459 3084 -895 
Q 2688 -1331 1869 -1331 
Q 1566 -1331 1297 -1286 
Q 1028 -1241 775 -1147 
L 775 -588 
Q 1028 -725 1275 -790 
Q 1522 -856 1778 -856 
Q 2344 -856 2625 -561 
Q 2906 -266 2906 331 
L 2906 616 
Q 2728 306 2450 153 
Q 2172 0 1784 0 
Q 1141 0 747 490 
Q 353 981 353 1791 
Q 353 2603 747 3093 
Q 1141 3584 1784 3584 
Q 2172 3584 2450 3431 
Q 2728 3278 2906 2969 
L 2906 3500 
L 3481 3500 
L 3481 434 
z
" transform="scale(0.015625)"/>
      <path id="DejaVuSans-20" transform="scale(0.015625)"/>
      <path id="DejaVuSans-66" d="M 2375 4863 
L 2375 4384 
L 1825 4384 
Q 1516 4384 1395 4259 
Q 1275 4134 1275 3809 
L 1275 3500 
L 2222 3500 
L 2222 3053 
L 1275 3053 
L 1275 0 
L 697 0 
L 697 3053 
L 147 3053 
L 147 3500 
L 697 3500 
L 697 3744 
Q 697 4328 969 4595 
Q 1241 4863 1831 4863 
L 2375 4863 
z
" transform="scale(0.015625)"/>
      <path id="DejaVuSans-46" d="M 628 4666 
L 3309 4666 
L 3309 4134 
L 1259 4134 
L 1259 2759 
L 3109 2759 
L 3109 2228 
L 1259 2228 
L 1259 0 
L 628 0 
L 628 4666 
z
" transform="scale(0.015625)"/>
      <path id="DejaVuSans-6c" d="M 603 4863 
L 1178 4863 
L 1178 0 
L 603 0 
L 603 4863 
z
" transform="scale(0.015625)"/>
      <path id="DejaVuSans-64" d="M 2906 2969 
L 2906 4863 
L 3481 4863 
L 3481 0 
L 2906 0 
L 2906 525 
Q 2725 213 2448 61 
Q 2172 -91 1784 -91 
Q 1150 -91 751 415 
Q 353 922 353 1747 
Q 353 2572 751 3078 
Q 1150 3584 1784 3584 
Q 2172 3584 2448 3432 
Q 2725 3281 2906 2969 
z
M 947 1747 
Q 947 1113 1208 752 
Q 1469 391 1925 391 
Q 2381 391 2643 752 
Q 2906 1113 2906 1747 
Q 2906 2381 2643 2742 
Q 2381 3103 1925 3103 
Q 1469 3103 1208 2742 
Q 947 2381 947 1747 
z
" transform="scale(0.015625)"/>
     </defs>
     <use xlink:href="#DejaVuSans-54"/>
     <use xlink:href="#DejaVuSans-72" transform="translate(46.333984 0)"/>
     <use xlink:href="#DejaVuSans-61" transform="translate(87.447266 0)"/>
     <use xlink:href="#DejaVuSans-69" transform="translate(148.726562 0)"/>
     <use xlink:href="#DejaVuSans-6e" transform="translate(176.509766 0)"/>
     <use xlink:href="#DejaVuSans-69" transform="translate(239.888672 0)"/>
     <use xlink:href="#DejaVuSans-6e" transform="translate(267.671875 0)"/>
     <use xlink:href="#DejaVuSans-67" transform="translate(331.050781 0)"/>
     <use xlink:href="#DejaVuSans-20" transform="translate(394.527344 0)"/>
     <use xlink:href="#DejaVuSans-4c" transform="translate(426.314453 0)"/>
     <use xlink:href="#DejaVuSans-6f" transform="translate(480.277344 0)"/>
     <use xlink:href="#DejaVuSans-73" transform="translate(541.458984 0)"/>
     <use xlink:href="#DejaVuSans-73" transform="translate(593.558594 0)"/>
     <use xlink:href="#DejaVuSans-20" transform="translate(645.658203 0)"/>
     <use xlink:href="#DejaVuSans-66" transform="translate(677.445312 0)"/>
     <use xlink:href="#DejaVuSans-6f" transform="translate(712.650391 0)"/>
     <use xlink:href="#DejaVuSans-72" transform="translate(773.832031 0)"/>
     <use xlink:href="#DejaVuSans-20" transform="translate(814.945312 0)"/>
     <use xlink:href="#DejaVuSans-45" transform="translate(846.732422 0)"/>
     <use xlink:href="#DejaVuSans-61" transform="translate(909.916016 0)"/>
     <use xlink:href="#DejaVuSans-63" transform="translate(971.195312 0)"/>
     <use xlink:href="#DejaVuSans-68" transform="translate(1026.175781 0)"/>
     <use xlink:href="#DejaVuSans-20" transform="translate(1089.554688 0)"/>
     <use xlink:href="#DejaVuSans-46" transform="translate(1121.341797 0)"/>
     <use xlink:href="#DejaVuSans-6f" transform="translate(1175.236328 0)"/>
     <use xlink:href="#DejaVuSans-6c" transform="translate(1236.417969 0)"/>
     <use xlink:href="#DejaVuSans-64" transform="translate(1264.201172 0)"/>
    </g>
   </g>
   <g id="legend_1">
    <g id="patch_7">
     <path d="M 634.320312 426.793125 
L 770.6 426.793125 
Q 772.6 426.793125 772.6 424.793125 
L 772.6 58.84 
Q 772.6 56.84 770.6 56.84 
L 634.320312 56.84 
Q 632.320312 56.84 632.320312 58.84 
L 632.320312 424.793125 
Q 632.320312 426.793125 634.320312 426.793125 
z
" style="fill: #ffffff; opacity: 0.8; stroke: #cccccc; stroke-linejoin: miter"/>
    </g>
    <g id="line2d_39">
     <path d="M 636.320312 64.938437 
L 646.320312 64.938437 
L 656.320312 64.938437 
" style="fill: none; stroke: #440154; stroke-width: 1.5; stroke-linecap: square"/>
    </g>
    <g id="text_17">
     <!-- Fold 1 Training Loss -->
     <g transform="translate(664.320312 68.438437) scale(0.1 -0.1)">
      <use xlink:href="#DejaVuSans-46"/>
      <use xlink:href="#DejaVuSans-6f" transform="translate(53.894531 0)"/>
      <use xlink:href="#DejaVuSans-6c" transform="translate(115.076172 0)"/>
      <use xlink:href="#DejaVuSans-64" transform="translate(142.859375 0)"/>
      <use xlink:href="#DejaVuSans-20" transform="translate(206.335938 0)"/>
      <use xlink:href="#DejaVuSans-31" transform="translate(238.123047 0)"/>
      <use xlink:href="#DejaVuSans-20" transform="translate(301.746094 0)"/>
      <use xlink:href="#DejaVuSans-54" transform="translate(333.533203 0)"/>
      <use xlink:href="#DejaVuSans-72" transform="translate(379.867188 0)"/>
      <use xlink:href="#DejaVuSans-61" transform="translate(420.980469 0)"/>
      <use xlink:href="#DejaVuSans-69" transform="translate(482.259766 0)"/>
      <use xlink:href="#DejaVuSans-6e" transform="translate(510.042969 0)"/>
      <use xlink:href="#DejaVuSans-69" transform="translate(573.421875 0)"/>
      <use xlink:href="#DejaVuSans-6e" transform="translate(601.205078 0)"/>
      <use xlink:href="#DejaVuSans-67" transform="translate(664.583984 0)"/>
      <use xlink:href="#DejaVuSans-20" transform="translate(728.060547 0)"/>
      <use xlink:href="#DejaVuSans-4c" transform="translate(759.847656 0)"/>
      <use xlink:href="#DejaVuSans-6f" transform="translate(813.810547 0)"/>
      <use xlink:href="#DejaVuSans-73" transform="translate(874.992188 0)"/>
      <use xlink:href="#DejaVuSans-73" transform="translate(927.091797 0)"/>
     </g>
    </g>
    <g id="line2d_40">
     <path d="M 636.320312 79.616562 
L 646.320312 79.616562 
L 656.320312 79.616562 
" style="fill: none; stroke: #440154; stroke-width: 1.5; stroke-linecap: square"/>
    </g>
    <g id="text_18">
     <!-- Fold 2 Training Loss -->
     <g transform="translate(664.320312 83.116562) scale(0.1 -0.1)">
      <use xlink:href="#DejaVuSans-46"/>
      <use xlink:href="#DejaVuSans-6f" transform="translate(53.894531 0)"/>
      <use xlink:href="#DejaVuSans-6c" transform="translate(115.076172 0)"/>
      <use xlink:href="#DejaVuSans-64" transform="translate(142.859375 0)"/>
      <use xlink:href="#DejaVuSans-20" transform="translate(206.335938 0)"/>
      <use xlink:href="#DejaVuSans-32" transform="translate(238.123047 0)"/>
      <use xlink:href="#DejaVuSans-20" transform="translate(301.746094 0)"/>
      <use xlink:href="#DejaVuSans-54" transform="translate(333.533203 0)"/>
      <use xlink:href="#DejaVuSans-72" transform="translate(379.867188 0)"/>
      <use xlink:href="#DejaVuSans-61" transform="translate(420.980469 0)"/>
      <use xlink:href="#DejaVuSans-69" transform="translate(482.259766 0)"/>
      <use xlink:href="#DejaVuSans-6e" transform="translate(510.042969 0)"/>
      <use xlink:href="#DejaVuSans-69" transform="translate(573.421875 0)"/>
      <use xlink:href="#DejaVuSans-6e" transform="translate(601.205078 0)"/>
      <use xlink:href="#DejaVuSans-67" transform="translate(664.583984 0)"/>
      <use xlink:href="#DejaVuSans-20" transform="translate(728.060547 0)"/>
      <use xlink:href="#DejaVuSans-4c" transform="translate(759.847656 0)"/>
      <use xlink:href="#DejaVuSans-6f" transform="translate(813.810547 0)"/>
      <use xlink:href="#DejaVuSans-73" transform="translate(874.992188 0)"/>
      <use xlink:href="#DejaVuSans-73" transform="translate(927.091797 0)"/>
     </g>
    </g>
    <g id="line2d_41">
     <path d="M 636.320312 94.294687 
L 646.320312 94.294687 
L 656.320312 94.294687 
" style="fill: none; stroke: #440154; stroke-width: 1.5; stroke-linecap: square"/>
    </g>
    <g id="text_19">
     <!-- Fold 3 Training Loss -->
     <g transform="translate(664.320312 97.794687) scale(0.1 -0.1)">
      <use xlink:href="#DejaVuSans-46"/>
      <use xlink:href="#DejaVuSans-6f" transform="translate(53.894531 0)"/>
      <use xlink:href="#DejaVuSans-6c" transform="translate(115.076172 0)"/>
      <use xlink:href="#DejaVuSans-64" transform="translate(142.859375 0)"/>
      <use xlink:href="#DejaVuSans-20" transform="translate(206.335938 0)"/>
      <use xlink:href="#DejaVuSans-33" transform="translate(238.123047 0)"/>
      <use xlink:href="#DejaVuSans-20" transform="translate(301.746094 0)"/>
      <use xlink:href="#DejaVuSans-54" transform="translate(333.533203 0)"/>
      <use xlink:href="#DejaVuSans-72" transform="translate(379.867188 0)"/>
      <use xlink:href="#DejaVuSans-61" transform="translate(420.980469 0)"/>
      <use xlink:href="#DejaVuSans-69" transform="translate(482.259766 0)"/>
      <use xlink:href="#DejaVuSans-6e" transform="translate(510.042969 0)"/>
      <use xlink:href="#DejaVuSans-69" transform="translate(573.421875 0)"/>
      <use xlink:href="#DejaVuSans-6e" transform="translate(601.205078 0)"/>
      <use xlink:href="#DejaVuSans-67" transform="translate(664.583984 0)"/>
      <use xlink:href="#DejaVuSans-20" transform="translate(728.060547 0)"/>
      <use xlink:href="#DejaVuSans-4c" transform="translate(759.847656 0)"/>
      <use xlink:href="#DejaVuSans-6f" transform="translate(813.810547 0)"/>
      <use xlink:href="#DejaVuSans-73" transform="translate(874.992188 0)"/>
      <use xlink:href="#DejaVuSans-73" transform="translate(927.091797 0)"/>
     </g>
    </g>
    <g id="line2d_42">
     <path d="M 636.320312 108.972812 
L 646.320312 108.972812 
L 656.320312 108.972812 
" style="fill: none; stroke: #440154; stroke-width: 1.5; stroke-linecap: square"/>
    </g>
    <g id="text_20">
     <!-- Fold 4 Training Loss -->
     <g transform="translate(664.320312 112.472812) scale(0.1 -0.1)">
      <use xlink:href="#DejaVuSans-46"/>
      <use xlink:href="#DejaVuSans-6f" transform="translate(53.894531 0)"/>
      <use xlink:href="#DejaVuSans-6c" transform="translate(115.076172 0)"/>
      <use xlink:href="#DejaVuSans-64" transform="translate(142.859375 0)"/>
      <use xlink:href="#DejaVuSans-20" transform="translate(206.335938 0)"/>
      <use xlink:href="#DejaVuSans-34" transform="translate(238.123047 0)"/>
      <use xlink:href="#DejaVuSans-20" transform="translate(301.746094 0)"/>
      <use xlink:href="#DejaVuSans-54" transform="translate(333.533203 0)"/>
      <use xlink:href="#DejaVuSans-72" transform="translate(379.867188 0)"/>
      <use xlink:href="#DejaVuSans-61" transform="translate(420.980469 0)"/>
      <use xlink:href="#DejaVuSans-69" transform="translate(482.259766 0)"/>
      <use xlink:href="#DejaVuSans-6e" transform="translate(510.042969 0)"/>
      <use xlink:href="#DejaVuSans-69" transform="translate(573.421875 0)"/>
      <use xlink:href="#DejaVuSans-6e" transform="translate(601.205078 0)"/>
      <use xlink:href="#DejaVuSans-67" transform="translate(664.583984 0)"/>
      <use xlink:href="#DejaVuSans-20" transform="translate(728.060547 0)"/>
      <use xlink:href="#DejaVuSans-4c" transform="translate(759.847656 0)"/>
      <use xlink:href="#DejaVuSans-6f" transform="translate(813.810547 0)"/>
      <use xlink:href="#DejaVuSans-73" transform="translate(874.992188 0)"/>
      <use xlink:href="#DejaVuSans-73" transform="translate(927.091797 0)"/>
     </g>
    </g>
    <g id="line2d_43">
     <path d="M 636.320312 123.650937 
L 646.320312 123.650937 
L 656.320312 123.650937 
" style="fill: none; stroke: #440154; stroke-width: 1.5; stroke-linecap: square"/>
    </g>
    <g id="text_21">
     <!-- Fold 5 Training Loss -->
     <g transform="translate(664.320312 127.150937) scale(0.1 -0.1)">
      <use xlink:href="#DejaVuSans-46"/>
      <use xlink:href="#DejaVuSans-6f" transform="translate(53.894531 0)"/>
      <use xlink:href="#DejaVuSans-6c" transform="translate(115.076172 0)"/>
      <use xlink:href="#DejaVuSans-64" transform="translate(142.859375 0)"/>
      <use xlink:href="#DejaVuSans-20" transform="translate(206.335938 0)"/>
      <use xlink:href="#DejaVuSans-35" transform="translate(238.123047 0)"/>
      <use xlink:href="#DejaVuSans-20" transform="translate(301.746094 0)"/>
      <use xlink:href="#DejaVuSans-54" transform="translate(333.533203 0)"/>
      <use xlink:href="#DejaVuSans-72" transform="translate(379.867188 0)"/>
      <use xlink:href="#DejaVuSans-61" transform="translate(420.980469 0)"/>
      <use xlink:href="#DejaVuSans-69" transform="translate(482.259766 0)"/>
      <use xlink:href="#DejaVuSans-6e" transform="translate(510.042969 0)"/>
      <use xlink:href="#DejaVuSans-69" transform="translate(573.421875 0)"/>
      <use xlink:href="#DejaVuSans-6e" transform="translate(601.205078 0)"/>
      <use xlink:href="#DejaVuSans-67" transform="translate(664.583984 0)"/>
      <use xlink:href="#DejaVuSans-20" transform="translate(728.060547 0)"/>
      <use xlink:href="#DejaVuSans-4c" transform="translate(759.847656 0)"/>
      <use xlink:href="#DejaVuSans-6f" transform="translate(813.810547 0)"/>
      <use xlink:href="#DejaVuSans-73" transform="translate(874.992188 0)"/>
      <use xlink:href="#DejaVuSans-73" transform="translate(927.091797 0)"/>
     </g>
    </g>
    <g id="line2d_44">
     <path d="M 636.320312 138.329062 
L 646.320312 138.329062 
L 656.320312 138.329062 
" style="fill: none; stroke: #3b528b; stroke-width: 1.5; stroke-linecap: square"/>
    </g>
    <g id="text_22">
     <!-- Fold 6 Training Loss -->
     <g transform="translate(664.320312 141.829062) scale(0.1 -0.1)">
      <use xlink:href="#DejaVuSans-46"/>
      <use xlink:href="#DejaVuSans-6f" transform="translate(53.894531 0)"/>
      <use xlink:href="#DejaVuSans-6c" transform="translate(115.076172 0)"/>
      <use xlink:href="#DejaVuSans-64" transform="translate(142.859375 0)"/>
      <use xlink:href="#DejaVuSans-20" transform="translate(206.335938 0)"/>
      <use xlink:href="#DejaVuSans-36" transform="translate(238.123047 0)"/>
      <use xlink:href="#DejaVuSans-20" transform="translate(301.746094 0)"/>
      <use xlink:href="#DejaVuSans-54" transform="translate(333.533203 0)"/>
      <use xlink:href="#DejaVuSans-72" transform="translate(379.867188 0)"/>
      <use xlink:href="#DejaVuSans-61" transform="translate(420.980469 0)"/>
      <use xlink:href="#DejaVuSans-69" transform="translate(482.259766 0)"/>
      <use xlink:href="#DejaVuSans-6e" transform="translate(510.042969 0)"/>
      <use xlink:href="#DejaVuSans-69" transform="translate(573.421875 0)"/>
      <use xlink:href="#DejaVuSans-6e" transform="translate(601.205078 0)"/>
      <use xlink:href="#DejaVuSans-67" transform="translate(664.583984 0)"/>
      <use xlink:href="#DejaVuSans-20" transform="translate(728.060547 0)"/>
      <use xlink:href="#DejaVuSans-4c" transform="translate(759.847656 0)"/>
      <use xlink:href="#DejaVuSans-6f" transform="translate(813.810547 0)"/>
      <use xlink:href="#DejaVuSans-73" transform="translate(874.992188 0)"/>
      <use xlink:href="#DejaVuSans-73" transform="translate(927.091797 0)"/>
     </g>
    </g>
    <g id="line2d_45">
     <path d="M 636.320312 153.007187 
L 646.320312 153.007187 
L 656.320312 153.007187 
" style="fill: none; stroke: #3b528b; stroke-width: 1.5; stroke-linecap: square"/>
    </g>
    <g id="text_23">
     <!-- Fold 7 Training Loss -->
     <g transform="translate(664.320312 156.507187) scale(0.1 -0.1)">
      <use xlink:href="#DejaVuSans-46"/>
      <use xlink:href="#DejaVuSans-6f" transform="translate(53.894531 0)"/>
      <use xlink:href="#DejaVuSans-6c" transform="translate(115.076172 0)"/>
      <use xlink:href="#DejaVuSans-64" transform="translate(142.859375 0)"/>
      <use xlink:href="#DejaVuSans-20" transform="translate(206.335938 0)"/>
      <use xlink:href="#DejaVuSans-37" transform="translate(238.123047 0)"/>
      <use xlink:href="#DejaVuSans-20" transform="translate(301.746094 0)"/>
      <use xlink:href="#DejaVuSans-54" transform="translate(333.533203 0)"/>
      <use xlink:href="#DejaVuSans-72" transform="translate(379.867188 0)"/>
      <use xlink:href="#DejaVuSans-61" transform="translate(420.980469 0)"/>
      <use xlink:href="#DejaVuSans-69" transform="translate(482.259766 0)"/>
      <use xlink:href="#DejaVuSans-6e" transform="translate(510.042969 0)"/>
      <use xlink:href="#DejaVuSans-69" transform="translate(573.421875 0)"/>
      <use xlink:href="#DejaVuSans-6e" transform="translate(601.205078 0)"/>
      <use xlink:href="#DejaVuSans-67" transform="translate(664.583984 0)"/>
      <use xlink:href="#DejaVuSans-20" transform="translate(728.060547 0)"/>
      <use xlink:href="#DejaVuSans-4c" transform="translate(759.847656 0)"/>
      <use xlink:href="#DejaVuSans-6f" transform="translate(813.810547 0)"/>
      <use xlink:href="#DejaVuSans-73" transform="translate(874.992188 0)"/>
      <use xlink:href="#DejaVuSans-73" transform="translate(927.091797 0)"/>
     </g>
    </g>
    <g id="line2d_46">
     <path d="M 636.320312 167.685312 
L 646.320312 167.685312 
L 656.320312 167.685312 
" style="fill: none; stroke: #3b528b; stroke-width: 1.5; stroke-linecap: square"/>
    </g>
    <g id="text_24">
     <!-- Fold 8 Training Loss -->
     <g transform="translate(664.320312 171.185312) scale(0.1 -0.1)">
      <defs>
       <path id="DejaVuSans-38" d="M 2034 2216 
Q 1584 2216 1326 1975 
Q 1069 1734 1069 1313 
Q 1069 891 1326 650 
Q 1584 409 2034 409 
Q 2484 409 2743 651 
Q 3003 894 3003 1313 
Q 3003 1734 2745 1975 
Q 2488 2216 2034 2216 
z
M 1403 2484 
Q 997 2584 770 2862 
Q 544 3141 544 3541 
Q 544 4100 942 4425 
Q 1341 4750 2034 4750 
Q 2731 4750 3128 4425 
Q 3525 4100 3525 3541 
Q 3525 3141 3298 2862 
Q 3072 2584 2669 2484 
Q 3125 2378 3379 2068 
Q 3634 1759 3634 1313 
Q 3634 634 3220 271 
Q 2806 -91 2034 -91 
Q 1263 -91 848 271 
Q 434 634 434 1313 
Q 434 1759 690 2068 
Q 947 2378 1403 2484 
z
M 1172 3481 
Q 1172 3119 1398 2916 
Q 1625 2713 2034 2713 
Q 2441 2713 2670 2916 
Q 2900 3119 2900 3481 
Q 2900 3844 2670 4047 
Q 2441 4250 2034 4250 
Q 1625 4250 1398 4047 
Q 1172 3844 1172 3481 
z
" transform="scale(0.015625)"/>
      </defs>
      <use xlink:href="#DejaVuSans-46"/>
      <use xlink:href="#DejaVuSans-6f" transform="translate(53.894531 0)"/>
      <use xlink:href="#DejaVuSans-6c" transform="translate(115.076172 0)"/>
      <use xlink:href="#DejaVuSans-64" transform="translate(142.859375 0)"/>
      <use xlink:href="#DejaVuSans-20" transform="translate(206.335938 0)"/>
      <use xlink:href="#DejaVuSans-38" transform="translate(238.123047 0)"/>
      <use xlink:href="#DejaVuSans-20" transform="translate(301.746094 0)"/>
      <use xlink:href="#DejaVuSans-54" transform="translate(333.533203 0)"/>
      <use xlink:href="#DejaVuSans-72" transform="translate(379.867188 0)"/>
      <use xlink:href="#DejaVuSans-61" transform="translate(420.980469 0)"/>
      <use xlink:href="#DejaVuSans-69" transform="translate(482.259766 0)"/>
      <use xlink:href="#DejaVuSans-6e" transform="translate(510.042969 0)"/>
      <use xlink:href="#DejaVuSans-69" transform="translate(573.421875 0)"/>
      <use xlink:href="#DejaVuSans-6e" transform="translate(601.205078 0)"/>
      <use xlink:href="#DejaVuSans-67" transform="translate(664.583984 0)"/>
      <use xlink:href="#DejaVuSans-20" transform="translate(728.060547 0)"/>
      <use xlink:href="#DejaVuSans-4c" transform="translate(759.847656 0)"/>
      <use xlink:href="#DejaVuSans-6f" transform="translate(813.810547 0)"/>
      <use xlink:href="#DejaVuSans-73" transform="translate(874.992188 0)"/>
      <use xlink:href="#DejaVuSans-73" transform="translate(927.091797 0)"/>
     </g>
    </g>
    <g id="line2d_47">
     <path d="M 636.320312 182.363437 
L 646.320312 182.363437 
L 656.320312 182.363437 
" style="fill: none; stroke: #3b528b; stroke-width: 1.5; stroke-linecap: square"/>
    </g>
    <g id="text_25">
     <!-- Fold 9 Training Loss -->
     <g transform="translate(664.320312 185.863437) scale(0.1 -0.1)">
      <defs>
       <path id="DejaVuSans-39" d="M 703 97 
L 703 672 
Q 941 559 1184 500 
Q 1428 441 1663 441 
Q 2288 441 2617 861 
Q 2947 1281 2994 2138 
Q 2813 1869 2534 1725 
Q 2256 1581 1919 1581 
Q 1219 1581 811 2004 
Q 403 2428 403 3163 
Q 403 3881 828 4315 
Q 1253 4750 1959 4750 
Q 2769 4750 3195 4129 
Q 3622 3509 3622 2328 
Q 3622 1225 3098 567 
Q 2575 -91 1691 -91 
Q 1453 -91 1209 -44 
Q 966 3 703 97 
z
M 1959 2075 
Q 2384 2075 2632 2365 
Q 2881 2656 2881 3163 
Q 2881 3666 2632 3958 
Q 2384 4250 1959 4250 
Q 1534 4250 1286 3958 
Q 1038 3666 1038 3163 
Q 1038 2656 1286 2365 
Q 1534 2075 1959 2075 
z
" transform="scale(0.015625)"/>
      </defs>
      <use xlink:href="#DejaVuSans-46"/>
      <use xlink:href="#DejaVuSans-6f" transform="translate(53.894531 0)"/>
      <use xlink:href="#DejaVuSans-6c" transform="translate(115.076172 0)"/>
      <use xlink:href="#DejaVuSans-64" transform="translate(142.859375 0)"/>
      <use xlink:href="#DejaVuSans-20" transform="translate(206.335938 0)"/>
      <use xlink:href="#DejaVuSans-39" transform="translate(238.123047 0)"/>
      <use xlink:href="#DejaVuSans-20" transform="translate(301.746094 0)"/>
      <use xlink:href="#DejaVuSans-54" transform="translate(333.533203 0)"/>
      <use xlink:href="#DejaVuSans-72" transform="translate(379.867188 0)"/>
      <use xlink:href="#DejaVuSans-61" transform="translate(420.980469 0)"/>
      <use xlink:href="#DejaVuSans-69" transform="translate(482.259766 0)"/>
      <use xlink:href="#DejaVuSans-6e" transform="translate(510.042969 0)"/>
      <use xlink:href="#DejaVuSans-69" transform="translate(573.421875 0)"/>
      <use xlink:href="#DejaVuSans-6e" transform="translate(601.205078 0)"/>
      <use xlink:href="#DejaVuSans-67" transform="translate(664.583984 0)"/>
      <use xlink:href="#DejaVuSans-20" transform="translate(728.060547 0)"/>
      <use xlink:href="#DejaVuSans-4c" transform="translate(759.847656 0)"/>
      <use xlink:href="#DejaVuSans-6f" transform="translate(813.810547 0)"/>
      <use xlink:href="#DejaVuSans-73" transform="translate(874.992188 0)"/>
      <use xlink:href="#DejaVuSans-73" transform="translate(927.091797 0)"/>
     </g>
    </g>
    <g id="line2d_48">
     <path d="M 636.320312 197.041562 
L 646.320312 197.041562 
L 656.320312 197.041562 
" style="fill: none; stroke: #3b528b; stroke-width: 1.5; stroke-linecap: square"/>
    </g>
    <g id="text_26">
     <!-- Fold 10 Training Loss -->
     <g transform="translate(664.320312 200.541562) scale(0.1 -0.1)">
      <use xlink:href="#DejaVuSans-46"/>
      <use xlink:href="#DejaVuSans-6f" transform="translate(53.894531 0)"/>
      <use xlink:href="#DejaVuSans-6c" transform="translate(115.076172 0)"/>
      <use xlink:href="#DejaVuSans-64" transform="translate(142.859375 0)"/>
      <use xlink:href="#DejaVuSans-20" transform="translate(206.335938 0)"/>
      <use xlink:href="#DejaVuSans-31" transform="translate(238.123047 0)"/>
      <use xlink:href="#DejaVuSans-30" transform="translate(301.746094 0)"/>
      <use xlink:href="#DejaVuSans-20" transform="translate(365.369141 0)"/>
      <use xlink:href="#DejaVuSans-54" transform="translate(397.15625 0)"/>
      <use xlink:href="#DejaVuSans-72" transform="translate(443.490234 0)"/>
      <use xlink:href="#DejaVuSans-61" transform="translate(484.603516 0)"/>
      <use xlink:href="#DejaVuSans-69" transform="translate(545.882812 0)"/>
      <use xlink:href="#DejaVuSans-6e" transform="translate(573.666016 0)"/>
      <use xlink:href="#DejaVuSans-69" transform="translate(637.044922 0)"/>
      <use xlink:href="#DejaVuSans-6e" transform="translate(664.828125 0)"/>
      <use xlink:href="#DejaVuSans-67" transform="translate(728.207031 0)"/>
      <use xlink:href="#DejaVuSans-20" transform="translate(791.683594 0)"/>
      <use xlink:href="#DejaVuSans-4c" transform="translate(823.470703 0)"/>
      <use xlink:href="#DejaVuSans-6f" transform="translate(877.433594 0)"/>
      <use xlink:href="#DejaVuSans-73" transform="translate(938.615234 0)"/>
      <use xlink:href="#DejaVuSans-73" transform="translate(990.714844 0)"/>
     </g>
    </g>
    <g id="line2d_49">
     <path d="M 636.320312 211.719687 
L 646.320312 211.719687 
L 656.320312 211.719687 
" style="fill: none; stroke: #21918c; stroke-width: 1.5; stroke-linecap: square"/>
    </g>
    <g id="text_27">
     <!-- Fold 11 Training Loss -->
     <g transform="translate(664.320312 215.219687) scale(0.1 -0.1)">
      <use xlink:href="#DejaVuSans-46"/>
      <use xlink:href="#DejaVuSans-6f" transform="translate(53.894531 0)"/>
      <use xlink:href="#DejaVuSans-6c" transform="translate(115.076172 0)"/>
      <use xlink:href="#DejaVuSans-64" transform="translate(142.859375 0)"/>
      <use xlink:href="#DejaVuSans-20" transform="translate(206.335938 0)"/>
      <use xlink:href="#DejaVuSans-31" transform="translate(238.123047 0)"/>
      <use xlink:href="#DejaVuSans-31" transform="translate(301.746094 0)"/>
      <use xlink:href="#DejaVuSans-20" transform="translate(365.369141 0)"/>
      <use xlink:href="#DejaVuSans-54" transform="translate(397.15625 0)"/>
      <use xlink:href="#DejaVuSans-72" transform="translate(443.490234 0)"/>
      <use xlink:href="#DejaVuSans-61" transform="translate(484.603516 0)"/>
      <use xlink:href="#DejaVuSans-69" transform="translate(545.882812 0)"/>
      <use xlink:href="#DejaVuSans-6e" transform="translate(573.666016 0)"/>
      <use xlink:href="#DejaVuSans-69" transform="translate(637.044922 0)"/>
      <use xlink:href="#DejaVuSans-6e" transform="translate(664.828125 0)"/>
      <use xlink:href="#DejaVuSans-67" transform="translate(728.207031 0)"/>
      <use xlink:href="#DejaVuSans-20" transform="translate(791.683594 0)"/>
      <use xlink:href="#DejaVuSans-4c" transform="translate(823.470703 0)"/>
      <use xlink:href="#DejaVuSans-6f" transform="translate(877.433594 0)"/>
      <use xlink:href="#DejaVuSans-73" transform="translate(938.615234 0)"/>
      <use xlink:href="#DejaVuSans-73" transform="translate(990.714844 0)"/>
     </g>
    </g>
    <g id="line2d_50">
     <path d="M 636.320312 226.397812 
L 646.320312 226.397812 
L 656.320312 226.397812 
" style="fill: none; stroke: #21918c; stroke-width: 1.5; stroke-linecap: square"/>
    </g>
    <g id="text_28">
     <!-- Fold 12 Training Loss -->
     <g transform="translate(664.320312 229.897812) scale(0.1 -0.1)">
      <use xlink:href="#DejaVuSans-46"/>
      <use xlink:href="#DejaVuSans-6f" transform="translate(53.894531 0)"/>
      <use xlink:href="#DejaVuSans-6c" transform="translate(115.076172 0)"/>
      <use xlink:href="#DejaVuSans-64" transform="translate(142.859375 0)"/>
      <use xlink:href="#DejaVuSans-20" transform="translate(206.335938 0)"/>
      <use xlink:href="#DejaVuSans-31" transform="translate(238.123047 0)"/>
      <use xlink:href="#DejaVuSans-32" transform="translate(301.746094 0)"/>
      <use xlink:href="#DejaVuSans-20" transform="translate(365.369141 0)"/>
      <use xlink:href="#DejaVuSans-54" transform="translate(397.15625 0)"/>
      <use xlink:href="#DejaVuSans-72" transform="translate(443.490234 0)"/>
      <use xlink:href="#DejaVuSans-61" transform="translate(484.603516 0)"/>
      <use xlink:href="#DejaVuSans-69" transform="translate(545.882812 0)"/>
      <use xlink:href="#DejaVuSans-6e" transform="translate(573.666016 0)"/>
      <use xlink:href="#DejaVuSans-69" transform="translate(637.044922 0)"/>
      <use xlink:href="#DejaVuSans-6e" transform="translate(664.828125 0)"/>
      <use xlink:href="#DejaVuSans-67" transform="translate(728.207031 0)"/>
      <use xlink:href="#DejaVuSans-20" transform="translate(791.683594 0)"/>
      <use xlink:href="#DejaVuSans-4c" transform="translate(823.470703 0)"/>
      <use xlink:href="#DejaVuSans-6f" transform="translate(877.433594 0)"/>
      <use xlink:href="#DejaVuSans-73" transform="translate(938.615234 0)"/>
      <use xlink:href="#DejaVuSans-73" transform="translate(990.714844 0)"/>
     </g>
    </g>
    <g id="line2d_51">
     <path d="M 636.320312 241.075937 
L 646.320312 241.075937 
L 656.320312 241.075937 
" style="fill: none; stroke: #21918c; stroke-width: 1.5; stroke-linecap: square"/>
    </g>
    <g id="text_29">
     <!-- Fold 13 Training Loss -->
     <g transform="translate(664.320312 244.575937) scale(0.1 -0.1)">
      <use xlink:href="#DejaVuSans-46"/>
      <use xlink:href="#DejaVuSans-6f" transform="translate(53.894531 0)"/>
      <use xlink:href="#DejaVuSans-6c" transform="translate(115.076172 0)"/>
      <use xlink:href="#DejaVuSans-64" transform="translate(142.859375 0)"/>
      <use xlink:href="#DejaVuSans-20" transform="translate(206.335938 0)"/>
      <use xlink:href="#DejaVuSans-31" transform="translate(238.123047 0)"/>
      <use xlink:href="#DejaVuSans-33" transform="translate(301.746094 0)"/>
      <use xlink:href="#DejaVuSans-20" transform="translate(365.369141 0)"/>
      <use xlink:href="#DejaVuSans-54" transform="translate(397.15625 0)"/>
      <use xlink:href="#DejaVuSans-72" transform="translate(443.490234 0)"/>
      <use xlink:href="#DejaVuSans-61" transform="translate(484.603516 0)"/>
      <use xlink:href="#DejaVuSans-69" transform="translate(545.882812 0)"/>
      <use xlink:href="#DejaVuSans-6e" transform="translate(573.666016 0)"/>
      <use xlink:href="#DejaVuSans-69" transform="translate(637.044922 0)"/>
      <use xlink:href="#DejaVuSans-6e" transform="translate(664.828125 0)"/>
      <use xlink:href="#DejaVuSans-67" transform="translate(728.207031 0)"/>
      <use xlink:href="#DejaVuSans-20" transform="translate(791.683594 0)"/>
      <use xlink:href="#DejaVuSans-4c" transform="translate(823.470703 0)"/>
      <use xlink:href="#DejaVuSans-6f" transform="translate(877.433594 0)"/>
      <use xlink:href="#DejaVuSans-73" transform="translate(938.615234 0)"/>
      <use xlink:href="#DejaVuSans-73" transform="translate(990.714844 0)"/>
     </g>
    </g>
    <g id="line2d_52">
     <path d="M 636.320312 255.754062 
L 646.320312 255.754062 
L 656.320312 255.754062 
" style="fill: none; stroke: #21918c; stroke-width: 1.5; stroke-linecap: square"/>
    </g>
    <g id="text_30">
     <!-- Fold 14 Training Loss -->
     <g transform="translate(664.320312 259.254062) scale(0.1 -0.1)">
      <use xlink:href="#DejaVuSans-46"/>
      <use xlink:href="#DejaVuSans-6f" transform="translate(53.894531 0)"/>
      <use xlink:href="#DejaVuSans-6c" transform="translate(115.076172 0)"/>
      <use xlink:href="#DejaVuSans-64" transform="translate(142.859375 0)"/>
      <use xlink:href="#DejaVuSans-20" transform="translate(206.335938 0)"/>
      <use xlink:href="#DejaVuSans-31" transform="translate(238.123047 0)"/>
      <use xlink:href="#DejaVuSans-34" transform="translate(301.746094 0)"/>
      <use xlink:href="#DejaVuSans-20" transform="translate(365.369141 0)"/>
      <use xlink:href="#DejaVuSans-54" transform="translate(397.15625 0)"/>
      <use xlink:href="#DejaVuSans-72" transform="translate(443.490234 0)"/>
      <use xlink:href="#DejaVuSans-61" transform="translate(484.603516 0)"/>
      <use xlink:href="#DejaVuSans-69" transform="translate(545.882812 0)"/>
      <use xlink:href="#DejaVuSans-6e" transform="translate(573.666016 0)"/>
      <use xlink:href="#DejaVuSans-69" transform="translate(637.044922 0)"/>
      <use xlink:href="#DejaVuSans-6e" transform="translate(664.828125 0)"/>
      <use xlink:href="#DejaVuSans-67" transform="translate(728.207031 0)"/>
      <use xlink:href="#DejaVuSans-20" transform="translate(791.683594 0)"/>
      <use xlink:href="#DejaVuSans-4c" transform="translate(823.470703 0)"/>
      <use xlink:href="#DejaVuSans-6f" transform="translate(877.433594 0)"/>
      <use xlink:href="#DejaVuSans-73" transform="translate(938.615234 0)"/>
      <use xlink:href="#DejaVuSans-73" transform="translate(990.714844 0)"/>
     </g>
    </g>
    <g id="line2d_53">
     <path d="M 636.320312 270.432187 
L 646.320312 270.432187 
L 656.320312 270.432187 
" style="fill: none; stroke: #21918c; stroke-width: 1.5; stroke-linecap: square"/>
    </g>
    <g id="text_31">
     <!-- Fold 15 Training Loss -->
     <g transform="translate(664.320312 273.932187) scale(0.1 -0.1)">
      <use xlink:href="#DejaVuSans-46"/>
      <use xlink:href="#DejaVuSans-6f" transform="translate(53.894531 0)"/>
      <use xlink:href="#DejaVuSans-6c" transform="translate(115.076172 0)"/>
      <use xlink:href="#DejaVuSans-64" transform="translate(142.859375 0)"/>
      <use xlink:href="#DejaVuSans-20" transform="translate(206.335938 0)"/>
      <use xlink:href="#DejaVuSans-31" transform="translate(238.123047 0)"/>
      <use xlink:href="#DejaVuSans-35" transform="translate(301.746094 0)"/>
      <use xlink:href="#DejaVuSans-20" transform="translate(365.369141 0)"/>
      <use xlink:href="#DejaVuSans-54" transform="translate(397.15625 0)"/>
      <use xlink:href="#DejaVuSans-72" transform="translate(443.490234 0)"/>
      <use xlink:href="#DejaVuSans-61" transform="translate(484.603516 0)"/>
      <use xlink:href="#DejaVuSans-69" transform="translate(545.882812 0)"/>
      <use xlink:href="#DejaVuSans-6e" transform="translate(573.666016 0)"/>
      <use xlink:href="#DejaVuSans-69" transform="translate(637.044922 0)"/>
      <use xlink:href="#DejaVuSans-6e" transform="translate(664.828125 0)"/>
      <use xlink:href="#DejaVuSans-67" transform="translate(728.207031 0)"/>
      <use xlink:href="#DejaVuSans-20" transform="translate(791.683594 0)"/>
      <use xlink:href="#DejaVuSans-4c" transform="translate(823.470703 0)"/>
      <use xlink:href="#DejaVuSans-6f" transform="translate(877.433594 0)"/>
      <use xlink:href="#DejaVuSans-73" transform="translate(938.615234 0)"/>
      <use xlink:href="#DejaVuSans-73" transform="translate(990.714844 0)"/>
     </g>
    </g>
    <g id="line2d_54">
     <path d="M 636.320312 285.110312 
L 646.320312 285.110312 
L 656.320312 285.110312 
" style="fill: none; stroke: #5ec962; stroke-width: 1.5; stroke-linecap: square"/>
    </g>
    <g id="text_32">
     <!-- Fold 16 Training Loss -->
     <g transform="translate(664.320312 288.610312) scale(0.1 -0.1)">
      <use xlink:href="#DejaVuSans-46"/>
      <use xlink:href="#DejaVuSans-6f" transform="translate(53.894531 0)"/>
      <use xlink:href="#DejaVuSans-6c" transform="translate(115.076172 0)"/>
      <use xlink:href="#DejaVuSans-64" transform="translate(142.859375 0)"/>
      <use xlink:href="#DejaVuSans-20" transform="translate(206.335938 0)"/>
      <use xlink:href="#DejaVuSans-31" transform="translate(238.123047 0)"/>
      <use xlink:href="#DejaVuSans-36" transform="translate(301.746094 0)"/>
      <use xlink:href="#DejaVuSans-20" transform="translate(365.369141 0)"/>
      <use xlink:href="#DejaVuSans-54" transform="translate(397.15625 0)"/>
      <use xlink:href="#DejaVuSans-72" transform="translate(443.490234 0)"/>
      <use xlink:href="#DejaVuSans-61" transform="translate(484.603516 0)"/>
      <use xlink:href="#DejaVuSans-69" transform="translate(545.882812 0)"/>
      <use xlink:href="#DejaVuSans-6e" transform="translate(573.666016 0)"/>
      <use xlink:href="#DejaVuSans-69" transform="translate(637.044922 0)"/>
      <use xlink:href="#DejaVuSans-6e" transform="translate(664.828125 0)"/>
      <use xlink:href="#DejaVuSans-67" transform="translate(728.207031 0)"/>
      <use xlink:href="#DejaVuSans-20" transform="translate(791.683594 0)"/>
      <use xlink:href="#DejaVuSans-4c" transform="translate(823.470703 0)"/>
      <use xlink:href="#DejaVuSans-6f" transform="translate(877.433594 0)"/>
      <use xlink:href="#DejaVuSans-73" transform="translate(938.615234 0)"/>
      <use xlink:href="#DejaVuSans-73" transform="translate(990.714844 0)"/>
     </g>
    </g>
    <g id="line2d_55">
     <path d="M 636.320312 299.788437 
L 646.320312 299.788437 
L 656.320312 299.788437 
" style="fill: none; stroke: #5ec962; stroke-width: 1.5; stroke-linecap: square"/>
    </g>
    <g id="text_33">
     <!-- Fold 17 Training Loss -->
     <g transform="translate(664.320312 303.288437) scale(0.1 -0.1)">
      <use xlink:href="#DejaVuSans-46"/>
      <use xlink:href="#DejaVuSans-6f" transform="translate(53.894531 0)"/>
      <use xlink:href="#DejaVuSans-6c" transform="translate(115.076172 0)"/>
      <use xlink:href="#DejaVuSans-64" transform="translate(142.859375 0)"/>
      <use xlink:href="#DejaVuSans-20" transform="translate(206.335938 0)"/>
      <use xlink:href="#DejaVuSans-31" transform="translate(238.123047 0)"/>
      <use xlink:href="#DejaVuSans-37" transform="translate(301.746094 0)"/>
      <use xlink:href="#DejaVuSans-20" transform="translate(365.369141 0)"/>
      <use xlink:href="#DejaVuSans-54" transform="translate(397.15625 0)"/>
      <use xlink:href="#DejaVuSans-72" transform="translate(443.490234 0)"/>
      <use xlink:href="#DejaVuSans-61" transform="translate(484.603516 0)"/>
      <use xlink:href="#DejaVuSans-69" transform="translate(545.882812 0)"/>
      <use xlink:href="#DejaVuSans-6e" transform="translate(573.666016 0)"/>
      <use xlink:href="#DejaVuSans-69" transform="translate(637.044922 0)"/>
      <use xlink:href="#DejaVuSans-6e" transform="translate(664.828125 0)"/>
      <use xlink:href="#DejaVuSans-67" transform="translate(728.207031 0)"/>
      <use xlink:href="#DejaVuSans-20" transform="translate(791.683594 0)"/>
      <use xlink:href="#DejaVuSans-4c" transform="translate(823.470703 0)"/>
      <use xlink:href="#DejaVuSans-6f" transform="translate(877.433594 0)"/>
      <use xlink:href="#DejaVuSans-73" transform="translate(938.615234 0)"/>
      <use xlink:href="#DejaVuSans-73" transform="translate(990.714844 0)"/>
     </g>
    </g>
    <g id="line2d_56">
     <path d="M 636.320312 314.466562 
L 646.320312 314.466562 
L 656.320312 314.466562 
" style="fill: none; stroke: #5ec962; stroke-width: 1.5; stroke-linecap: square"/>
    </g>
    <g id="text_34">
     <!-- Fold 18 Training Loss -->
     <g transform="translate(664.320312 317.966562) scale(0.1 -0.1)">
      <use xlink:href="#DejaVuSans-46"/>
      <use xlink:href="#DejaVuSans-6f" transform="translate(53.894531 0)"/>
      <use xlink:href="#DejaVuSans-6c" transform="translate(115.076172 0)"/>
      <use xlink:href="#DejaVuSans-64" transform="translate(142.859375 0)"/>
      <use xlink:href="#DejaVuSans-20" transform="translate(206.335938 0)"/>
      <use xlink:href="#DejaVuSans-31" transform="translate(238.123047 0)"/>
      <use xlink:href="#DejaVuSans-38" transform="translate(301.746094 0)"/>
      <use xlink:href="#DejaVuSans-20" transform="translate(365.369141 0)"/>
      <use xlink:href="#DejaVuSans-54" transform="translate(397.15625 0)"/>
      <use xlink:href="#DejaVuSans-72" transform="translate(443.490234 0)"/>
      <use xlink:href="#DejaVuSans-61" transform="translate(484.603516 0)"/>
      <use xlink:href="#DejaVuSans-69" transform="translate(545.882812 0)"/>
      <use xlink:href="#DejaVuSans-6e" transform="translate(573.666016 0)"/>
      <use xlink:href="#DejaVuSans-69" transform="translate(637.044922 0)"/>
      <use xlink:href="#DejaVuSans-6e" transform="translate(664.828125 0)"/>
      <use xlink:href="#DejaVuSans-67" transform="translate(728.207031 0)"/>
      <use xlink:href="#DejaVuSans-20" transform="translate(791.683594 0)"/>
      <use xlink:href="#DejaVuSans-4c" transform="translate(823.470703 0)"/>
      <use xlink:href="#DejaVuSans-6f" transform="translate(877.433594 0)"/>
      <use xlink:href="#DejaVuSans-73" transform="translate(938.615234 0)"/>
      <use xlink:href="#DejaVuSans-73" transform="translate(990.714844 0)"/>
     </g>
    </g>
    <g id="line2d_57">
     <path d="M 636.320312 329.144687 
L 646.320312 329.144687 
L 656.320312 329.144687 
" style="fill: none; stroke: #5ec962; stroke-width: 1.5; stroke-linecap: square"/>
    </g>
    <g id="text_35">
     <!-- Fold 19 Training Loss -->
     <g transform="translate(664.320312 332.644687) scale(0.1 -0.1)">
      <use xlink:href="#DejaVuSans-46"/>
      <use xlink:href="#DejaVuSans-6f" transform="translate(53.894531 0)"/>
      <use xlink:href="#DejaVuSans-6c" transform="translate(115.076172 0)"/>
      <use xlink:href="#DejaVuSans-64" transform="translate(142.859375 0)"/>
      <use xlink:href="#DejaVuSans-20" transform="translate(206.335938 0)"/>
      <use xlink:href="#DejaVuSans-31" transform="translate(238.123047 0)"/>
      <use xlink:href="#DejaVuSans-39" transform="translate(301.746094 0)"/>
      <use xlink:href="#DejaVuSans-20" transform="translate(365.369141 0)"/>
      <use xlink:href="#DejaVuSans-54" transform="translate(397.15625 0)"/>
      <use xlink:href="#DejaVuSans-72" transform="translate(443.490234 0)"/>
      <use xlink:href="#DejaVuSans-61" transform="translate(484.603516 0)"/>
      <use xlink:href="#DejaVuSans-69" transform="translate(545.882812 0)"/>
      <use xlink:href="#DejaVuSans-6e" transform="translate(573.666016 0)"/>
      <use xlink:href="#DejaVuSans-69" transform="translate(637.044922 0)"/>
      <use xlink:href="#DejaVuSans-6e" transform="translate(664.828125 0)"/>
      <use xlink:href="#DejaVuSans-67" transform="translate(728.207031 0)"/>
      <use xlink:href="#DejaVuSans-20" transform="translate(791.683594 0)"/>
      <use xlink:href="#DejaVuSans-4c" transform="translate(823.470703 0)"/>
      <use xlink:href="#DejaVuSans-6f" transform="translate(877.433594 0)"/>
      <use xlink:href="#DejaVuSans-73" transform="translate(938.615234 0)"/>
      <use xlink:href="#DejaVuSans-73" transform="translate(990.714844 0)"/>
     </g>
    </g>
    <g id="line2d_58">
     <path d="M 636.320312 343.822812 
L 646.320312 343.822812 
L 656.320312 343.822812 
" style="fill: none; stroke: #5ec962; stroke-width: 1.5; stroke-linecap: square"/>
    </g>
    <g id="text_36">
     <!-- Fold 20 Training Loss -->
     <g transform="translate(664.320312 347.322812) scale(0.1 -0.1)">
      <use xlink:href="#DejaVuSans-46"/>
      <use xlink:href="#DejaVuSans-6f" transform="translate(53.894531 0)"/>
      <use xlink:href="#DejaVuSans-6c" transform="translate(115.076172 0)"/>
      <use xlink:href="#DejaVuSans-64" transform="translate(142.859375 0)"/>
      <use xlink:href="#DejaVuSans-20" transform="translate(206.335938 0)"/>
      <use xlink:href="#DejaVuSans-32" transform="translate(238.123047 0)"/>
      <use xlink:href="#DejaVuSans-30" transform="translate(301.746094 0)"/>
      <use xlink:href="#DejaVuSans-20" transform="translate(365.369141 0)"/>
      <use xlink:href="#DejaVuSans-54" transform="translate(397.15625 0)"/>
      <use xlink:href="#DejaVuSans-72" transform="translate(443.490234 0)"/>
      <use xlink:href="#DejaVuSans-61" transform="translate(484.603516 0)"/>
      <use xlink:href="#DejaVuSans-69" transform="translate(545.882812 0)"/>
      <use xlink:href="#DejaVuSans-6e" transform="translate(573.666016 0)"/>
      <use xlink:href="#DejaVuSans-69" transform="translate(637.044922 0)"/>
      <use xlink:href="#DejaVuSans-6e" transform="translate(664.828125 0)"/>
      <use xlink:href="#DejaVuSans-67" transform="translate(728.207031 0)"/>
      <use xlink:href="#DejaVuSans-20" transform="translate(791.683594 0)"/>
      <use xlink:href="#DejaVuSans-4c" transform="translate(823.470703 0)"/>
      <use xlink:href="#DejaVuSans-6f" transform="translate(877.433594 0)"/>
      <use xlink:href="#DejaVuSans-73" transform="translate(938.615234 0)"/>
      <use xlink:href="#DejaVuSans-73" transform="translate(990.714844 0)"/>
     </g>
    </g>
    <g id="line2d_59">
     <path d="M 636.320312 358.500937 
L 646.320312 358.500937 
L 656.320312 358.500937 
" style="fill: none; stroke: #fde725; stroke-width: 1.5; stroke-linecap: square"/>
    </g>
    <g id="text_37">
     <!-- Fold 21 Training Loss -->
     <g transform="translate(664.320312 362.000937) scale(0.1 -0.1)">
      <use xlink:href="#DejaVuSans-46"/>
      <use xlink:href="#DejaVuSans-6f" transform="translate(53.894531 0)"/>
      <use xlink:href="#DejaVuSans-6c" transform="translate(115.076172 0)"/>
      <use xlink:href="#DejaVuSans-64" transform="translate(142.859375 0)"/>
      <use xlink:href="#DejaVuSans-20" transform="translate(206.335938 0)"/>
      <use xlink:href="#DejaVuSans-32" transform="translate(238.123047 0)"/>
      <use xlink:href="#DejaVuSans-31" transform="translate(301.746094 0)"/>
      <use xlink:href="#DejaVuSans-20" transform="translate(365.369141 0)"/>
      <use xlink:href="#DejaVuSans-54" transform="translate(397.15625 0)"/>
      <use xlink:href="#DejaVuSans-72" transform="translate(443.490234 0)"/>
      <use xlink:href="#DejaVuSans-61" transform="translate(484.603516 0)"/>
      <use xlink:href="#DejaVuSans-69" transform="translate(545.882812 0)"/>
      <use xlink:href="#DejaVuSans-6e" transform="translate(573.666016 0)"/>
      <use xlink:href="#DejaVuSans-69" transform="translate(637.044922 0)"/>
      <use xlink:href="#DejaVuSans-6e" transform="translate(664.828125 0)"/>
      <use xlink:href="#DejaVuSans-67" transform="translate(728.207031 0)"/>
      <use xlink:href="#DejaVuSans-20" transform="translate(791.683594 0)"/>
      <use xlink:href="#DejaVuSans-4c" transform="translate(823.470703 0)"/>
      <use xlink:href="#DejaVuSans-6f" transform="translate(877.433594 0)"/>
      <use xlink:href="#DejaVuSans-73" transform="translate(938.615234 0)"/>
      <use xlink:href="#DejaVuSans-73" transform="translate(990.714844 0)"/>
     </g>
    </g>
    <g id="line2d_60">
     <path d="M 636.320312 373.179062 
L 646.320312 373.179062 
L 656.320312 373.179062 
" style="fill: none; stroke: #fde725; stroke-width: 1.5; stroke-linecap: square"/>
    </g>
    <g id="text_38">
     <!-- Fold 22 Training Loss -->
     <g transform="translate(664.320312 376.679062) scale(0.1 -0.1)">
      <use xlink:href="#DejaVuSans-46"/>
      <use xlink:href="#DejaVuSans-6f" transform="translate(53.894531 0)"/>
      <use xlink:href="#DejaVuSans-6c" transform="translate(115.076172 0)"/>
      <use xlink:href="#DejaVuSans-64" transform="translate(142.859375 0)"/>
      <use xlink:href="#DejaVuSans-20" transform="translate(206.335938 0)"/>
      <use xlink:href="#DejaVuSans-32" transform="translate(238.123047 0)"/>
      <use xlink:href="#DejaVuSans-32" transform="translate(301.746094 0)"/>
      <use xlink:href="#DejaVuSans-20" transform="translate(365.369141 0)"/>
      <use xlink:href="#DejaVuSans-54" transform="translate(397.15625 0)"/>
      <use xlink:href="#DejaVuSans-72" transform="translate(443.490234 0)"/>
      <use xlink:href="#DejaVuSans-61" transform="translate(484.603516 0)"/>
      <use xlink:href="#DejaVuSans-69" transform="translate(545.882812 0)"/>
      <use xlink:href="#DejaVuSans-6e" transform="translate(573.666016 0)"/>
      <use xlink:href="#DejaVuSans-69" transform="translate(637.044922 0)"/>
      <use xlink:href="#DejaVuSans-6e" transform="translate(664.828125 0)"/>
      <use xlink:href="#DejaVuSans-67" transform="translate(728.207031 0)"/>
      <use xlink:href="#DejaVuSans-20" transform="translate(791.683594 0)"/>
      <use xlink:href="#DejaVuSans-4c" transform="translate(823.470703 0)"/>
      <use xlink:href="#DejaVuSans-6f" transform="translate(877.433594 0)"/>
      <use xlink:href="#DejaVuSans-73" transform="translate(938.615234 0)"/>
      <use xlink:href="#DejaVuSans-73" transform="translate(990.714844 0)"/>
     </g>
    </g>
    <g id="line2d_61">
     <path d="M 636.320312 387.857188 
L 646.320312 387.857188 
L 656.320312 387.857188 
" style="fill: none; stroke: #fde725; stroke-width: 1.5; stroke-linecap: square"/>
    </g>
    <g id="text_39">
     <!-- Fold 23 Training Loss -->
     <g transform="translate(664.320312 391.357188) scale(0.1 -0.1)">
      <use xlink:href="#DejaVuSans-46"/>
      <use xlink:href="#DejaVuSans-6f" transform="translate(53.894531 0)"/>
      <use xlink:href="#DejaVuSans-6c" transform="translate(115.076172 0)"/>
      <use xlink:href="#DejaVuSans-64" transform="translate(142.859375 0)"/>
      <use xlink:href="#DejaVuSans-20" transform="translate(206.335938 0)"/>
      <use xlink:href="#DejaVuSans-32" transform="translate(238.123047 0)"/>
      <use xlink:href="#DejaVuSans-33" transform="translate(301.746094 0)"/>
      <use xlink:href="#DejaVuSans-20" transform="translate(365.369141 0)"/>
      <use xlink:href="#DejaVuSans-54" transform="translate(397.15625 0)"/>
      <use xlink:href="#DejaVuSans-72" transform="translate(443.490234 0)"/>
      <use xlink:href="#DejaVuSans-61" transform="translate(484.603516 0)"/>
      <use xlink:href="#DejaVuSans-69" transform="translate(545.882812 0)"/>
      <use xlink:href="#DejaVuSans-6e" transform="translate(573.666016 0)"/>
      <use xlink:href="#DejaVuSans-69" transform="translate(637.044922 0)"/>
      <use xlink:href="#DejaVuSans-6e" transform="translate(664.828125 0)"/>
      <use xlink:href="#DejaVuSans-67" transform="translate(728.207031 0)"/>
      <use xlink:href="#DejaVuSans-20" transform="translate(791.683594 0)"/>
      <use xlink:href="#DejaVuSans-4c" transform="translate(823.470703 0)"/>
      <use xlink:href="#DejaVuSans-6f" transform="translate(877.433594 0)"/>
      <use xlink:href="#DejaVuSans-73" transform="translate(938.615234 0)"/>
      <use xlink:href="#DejaVuSans-73" transform="translate(990.714844 0)"/>
     </g>
    </g>
    <g id="line2d_62">
     <path d="M 636.320312 402.535313 
L 646.320312 402.535313 
L 656.320312 402.535313 
" style="fill: none; stroke: #fde725; stroke-width: 1.5; stroke-linecap: square"/>
    </g>
    <g id="text_40">
     <!-- Fold 24 Training Loss -->
     <g transform="translate(664.320312 406.035313) scale(0.1 -0.1)">
      <use xlink:href="#DejaVuSans-46"/>
      <use xlink:href="#DejaVuSans-6f" transform="translate(53.894531 0)"/>
      <use xlink:href="#DejaVuSans-6c" transform="translate(115.076172 0)"/>
      <use xlink:href="#DejaVuSans-64" transform="translate(142.859375 0)"/>
      <use xlink:href="#DejaVuSans-20" transform="translate(206.335938 0)"/>
      <use xlink:href="#DejaVuSans-32" transform="translate(238.123047 0)"/>
      <use xlink:href="#DejaVuSans-34" transform="translate(301.746094 0)"/>
      <use xlink:href="#DejaVuSans-20" transform="translate(365.369141 0)"/>
      <use xlink:href="#DejaVuSans-54" transform="translate(397.15625 0)"/>
      <use xlink:href="#DejaVuSans-72" transform="translate(443.490234 0)"/>
      <use xlink:href="#DejaVuSans-61" transform="translate(484.603516 0)"/>
      <use xlink:href="#DejaVuSans-69" transform="translate(545.882812 0)"/>
      <use xlink:href="#DejaVuSans-6e" transform="translate(573.666016 0)"/>
      <use xlink:href="#DejaVuSans-69" transform="translate(637.044922 0)"/>
      <use xlink:href="#DejaVuSans-6e" transform="translate(664.828125 0)"/>
      <use xlink:href="#DejaVuSans-67" transform="translate(728.207031 0)"/>
      <use xlink:href="#DejaVuSans-20" transform="translate(791.683594 0)"/>
      <use xlink:href="#DejaVuSans-4c" transform="translate(823.470703 0)"/>
      <use xlink:href="#DejaVuSans-6f" transform="translate(877.433594 0)"/>
      <use xlink:href="#DejaVuSans-73" transform="translate(938.615234 0)"/>
      <use xlink:href="#DejaVuSans-73" transform="translate(990.714844 0)"/>
     </g>
    </g>
    <g id="line2d_63">
     <path d="M 636.320312 417.213438 
L 646.320312 417.213438 
L 656.320312 417.213438 
" style="fill: none; stroke: #fde725; stroke-width: 1.5; stroke-linecap: square"/>
    </g>
    <g id="text_41">
     <!-- Fold 25 Training Loss -->
     <g transform="translate(664.320312 420.713438) scale(0.1 -0.1)">
      <use xlink:href="#DejaVuSans-46"/>
      <use xlink:href="#DejaVuSans-6f" transform="translate(53.894531 0)"/>
      <use xlink:href="#DejaVuSans-6c" transform="translate(115.076172 0)"/>
      <use xlink:href="#DejaVuSans-64" transform="translate(142.859375 0)"/>
      <use xlink:href="#DejaVuSans-20" transform="translate(206.335938 0)"/>
      <use xlink:href="#DejaVuSans-32" transform="translate(238.123047 0)"/>
      <use xlink:href="#DejaVuSans-35" transform="translate(301.746094 0)"/>
      <use xlink:href="#DejaVuSans-20" transform="translate(365.369141 0)"/>
      <use xlink:href="#DejaVuSans-54" transform="translate(397.15625 0)"/>
      <use xlink:href="#DejaVuSans-72" transform="translate(443.490234 0)"/>
      <use xlink:href="#DejaVuSans-61" transform="translate(484.603516 0)"/>
      <use xlink:href="#DejaVuSans-69" transform="translate(545.882812 0)"/>
      <use xlink:href="#DejaVuSans-6e" transform="translate(573.666016 0)"/>
      <use xlink:href="#DejaVuSans-69" transform="translate(637.044922 0)"/>
      <use xlink:href="#DejaVuSans-6e" transform="translate(664.828125 0)"/>
      <use xlink:href="#DejaVuSans-67" transform="translate(728.207031 0)"/>
      <use xlink:href="#DejaVuSans-20" transform="translate(791.683594 0)"/>
      <use xlink:href="#DejaVuSans-4c" transform="translate(823.470703 0)"/>
      <use xlink:href="#DejaVuSans-6f" transform="translate(877.433594 0)"/>
      <use xlink:href="#DejaVuSans-73" transform="translate(938.615234 0)"/>
      <use xlink:href="#DejaVuSans-73" transform="translate(990.714844 0)"/>
     </g>
    </g>
   </g>
  </g>
 </g>
 <defs>
  <clipPath id="p43aabfa1fe">
   <rect x="108" y="51.84" width="669.6" height="332.64"/>
  </clipPath>
 </defs>
</svg>
