<?xml version="1.0" encoding="utf-8" standalone="no"?>
<!DOCTYPE svg PUBLIC "-//W3C//DTD SVG 1.1//EN"
  "http://www.w3.org/Graphics/SVG/1.1/DTD/svg11.dtd">
<svg xmlns:xlink="http://www.w3.org/1999/xlink" width="864pt" height="432pt" viewBox="0 0 864 432" xmlns="http://www.w3.org/2000/svg" version="1.1">
 <metadata>
  <rdf:RDF xmlns:dc="http://purl.org/dc/elements/1.1/" xmlns:cc="http://creativecommons.org/ns#" xmlns:rdf="http://www.w3.org/1999/02/22-rdf-syntax-ns#">
   <cc:Work>
    <dc:type rdf:resource="http://purl.org/dc/dcmitype/StillImage"/>
    <dc:date>2025-02-15T22:32:12.413343</dc:date>
    <dc:format>image/svg+xml</dc:format>
    <dc:creator>
     <cc:Agent>
      <dc:title>Matplotlib v3.10.0, https://matplotlib.org/</dc:title>
     </cc:Agent>
    </dc:creator>
   </cc:Work>
  </rdf:RDF>
 </metadata>
 <defs>
  <style type="text/css">*{stroke-linejoin: round; stroke-linecap: butt}</style>
 </defs>
 <g id="figure_1">
  <g id="patch_1">
   <path d="M 0 432 
L 864 432 
L 864 0 
L 0 0 
z
" style="fill: #ffffff"/>
  </g>
  <g id="axes_1">
   <g id="patch_2">
    <path d="M 108 384.48 
L 777.6 384.48 
L 777.6 51.84 
L 108 51.84 
z
" style="fill: #ffffff"/>
   </g>
   <g id="matplotlib.axis_1">
    <g id="xtick_1">
     <g id="line2d_1">
      <defs>
       <path id="m0a5d5f89e9" d="M 0 0 
L 0 3.5 
" style="stroke: #000000; stroke-width: 0.8"/>
      </defs>
      <g>
       <use xlink:href="#m0a5d5f89e9" x="186.49378" y="384.48" style="stroke: #000000; stroke-width: 0.8"/>
      </g>
     </g>
     <g id="text_1">
      <!-- 2.5 -->
      <g transform="translate(178.542217 399.078438) scale(0.1 -0.1)">
       <defs>
        <path id="DejaVuSans-32" d="M 1228 531 
L 3431 531 
L 3431 0 
L 469 0 
L 469 531 
Q 828 903 1448 1529 
Q 2069 2156 2228 2338 
Q 2531 2678 2651 2914 
Q 2772 3150 2772 3378 
Q 2772 3750 2511 3984 
Q 2250 4219 1831 4219 
Q 1534 4219 1204 4116 
Q 875 4013 500 3803 
L 500 4441 
Q 881 4594 1212 4672 
Q 1544 4750 1819 4750 
Q 2544 4750 2975 4387 
Q 3406 4025 3406 3419 
Q 3406 3131 3298 2873 
Q 3191 2616 2906 2266 
Q 2828 2175 2409 1742 
Q 1991 1309 1228 531 
z
" transform="scale(0.015625)"/>
        <path id="DejaVuSans-2e" d="M 684 794 
L 1344 794 
L 1344 0 
L 684 0 
L 684 794 
z
" transform="scale(0.015625)"/>
        <path id="DejaVuSans-35" d="M 691 4666 
L 3169 4666 
L 3169 4134 
L 1269 4134 
L 1269 2991 
Q 1406 3038 1543 3061 
Q 1681 3084 1819 3084 
Q 2600 3084 3056 2656 
Q 3513 2228 3513 1497 
Q 3513 744 3044 326 
Q 2575 -91 1722 -91 
Q 1428 -91 1123 -41 
Q 819 9 494 109 
L 494 744 
Q 775 591 1075 516 
Q 1375 441 1709 441 
Q 2250 441 2565 725 
Q 2881 1009 2881 1497 
Q 2881 1984 2565 2268 
Q 2250 2553 1709 2553 
Q 1456 2553 1204 2497 
Q 953 2441 691 2322 
L 691 4666 
z
" transform="scale(0.015625)"/>
       </defs>
       <use xlink:href="#DejaVuSans-32"/>
       <use xlink:href="#DejaVuSans-2e" transform="translate(63.623047 0)"/>
       <use xlink:href="#DejaVuSans-35" transform="translate(95.410156 0)"/>
      </g>
     </g>
    </g>
    <g id="xtick_2">
     <g id="line2d_2">
      <g>
       <use xlink:href="#m0a5d5f89e9" x="266.589474" y="384.48" style="stroke: #000000; stroke-width: 0.8"/>
      </g>
     </g>
     <g id="text_2">
      <!-- 5.0 -->
      <g transform="translate(258.637911 399.078438) scale(0.1 -0.1)">
       <defs>
        <path id="DejaVuSans-30" d="M 2034 4250 
Q 1547 4250 1301 3770 
Q 1056 3291 1056 2328 
Q 1056 1369 1301 889 
Q 1547 409 2034 409 
Q 2525 409 2770 889 
Q 3016 1369 3016 2328 
Q 3016 3291 2770 3770 
Q 2525 4250 2034 4250 
z
M 2034 4750 
Q 2819 4750 3233 4129 
Q 3647 3509 3647 2328 
Q 3647 1150 3233 529 
Q 2819 -91 2034 -91 
Q 1250 -91 836 529 
Q 422 1150 422 2328 
Q 422 3509 836 4129 
Q 1250 4750 2034 4750 
z
" transform="scale(0.015625)"/>
       </defs>
       <use xlink:href="#DejaVuSans-35"/>
       <use xlink:href="#DejaVuSans-2e" transform="translate(63.623047 0)"/>
       <use xlink:href="#DejaVuSans-30" transform="translate(95.410156 0)"/>
      </g>
     </g>
    </g>
    <g id="xtick_3">
     <g id="line2d_3">
      <g>
       <use xlink:href="#m0a5d5f89e9" x="346.685167" y="384.48" style="stroke: #000000; stroke-width: 0.8"/>
      </g>
     </g>
     <g id="text_3">
      <!-- 7.5 -->
      <g transform="translate(338.733605 399.078438) scale(0.1 -0.1)">
       <defs>
        <path id="DejaVuSans-37" d="M 525 4666 
L 3525 4666 
L 3525 4397 
L 1831 0 
L 1172 0 
L 2766 4134 
L 525 4134 
L 525 4666 
z
" transform="scale(0.015625)"/>
       </defs>
       <use xlink:href="#DejaVuSans-37"/>
       <use xlink:href="#DejaVuSans-2e" transform="translate(63.623047 0)"/>
       <use xlink:href="#DejaVuSans-35" transform="translate(95.410156 0)"/>
      </g>
     </g>
    </g>
    <g id="xtick_4">
     <g id="line2d_4">
      <g>
       <use xlink:href="#m0a5d5f89e9" x="426.780861" y="384.48" style="stroke: #000000; stroke-width: 0.8"/>
      </g>
     </g>
     <g id="text_4">
      <!-- 10.0 -->
      <g transform="translate(415.648049 399.078438) scale(0.1 -0.1)">
       <defs>
        <path id="DejaVuSans-31" d="M 794 531 
L 1825 531 
L 1825 4091 
L 703 3866 
L 703 4441 
L 1819 4666 
L 2450 4666 
L 2450 531 
L 3481 531 
L 3481 0 
L 794 0 
L 794 531 
z
" transform="scale(0.015625)"/>
       </defs>
       <use xlink:href="#DejaVuSans-31"/>
       <use xlink:href="#DejaVuSans-30" transform="translate(63.623047 0)"/>
       <use xlink:href="#DejaVuSans-2e" transform="translate(127.246094 0)"/>
       <use xlink:href="#DejaVuSans-30" transform="translate(159.033203 0)"/>
      </g>
     </g>
    </g>
    <g id="xtick_5">
     <g id="line2d_5">
      <g>
       <use xlink:href="#m0a5d5f89e9" x="506.876555" y="384.48" style="stroke: #000000; stroke-width: 0.8"/>
      </g>
     </g>
     <g id="text_5">
      <!-- 12.5 -->
      <g transform="translate(495.743743 399.078438) scale(0.1 -0.1)">
       <use xlink:href="#DejaVuSans-31"/>
       <use xlink:href="#DejaVuSans-32" transform="translate(63.623047 0)"/>
       <use xlink:href="#DejaVuSans-2e" transform="translate(127.246094 0)"/>
       <use xlink:href="#DejaVuSans-35" transform="translate(159.033203 0)"/>
      </g>
     </g>
    </g>
    <g id="xtick_6">
     <g id="line2d_6">
      <g>
       <use xlink:href="#m0a5d5f89e9" x="586.972249" y="384.48" style="stroke: #000000; stroke-width: 0.8"/>
      </g>
     </g>
     <g id="text_6">
      <!-- 15.0 -->
      <g transform="translate(575.839436 399.078438) scale(0.1 -0.1)">
       <use xlink:href="#DejaVuSans-31"/>
       <use xlink:href="#DejaVuSans-35" transform="translate(63.623047 0)"/>
       <use xlink:href="#DejaVuSans-2e" transform="translate(127.246094 0)"/>
       <use xlink:href="#DejaVuSans-30" transform="translate(159.033203 0)"/>
      </g>
     </g>
    </g>
    <g id="xtick_7">
     <g id="line2d_7">
      <g>
       <use xlink:href="#m0a5d5f89e9" x="667.067943" y="384.48" style="stroke: #000000; stroke-width: 0.8"/>
      </g>
     </g>
     <g id="text_7">
      <!-- 17.5 -->
      <g transform="translate(655.93513 399.078438) scale(0.1 -0.1)">
       <use xlink:href="#DejaVuSans-31"/>
       <use xlink:href="#DejaVuSans-37" transform="translate(63.623047 0)"/>
       <use xlink:href="#DejaVuSans-2e" transform="translate(127.246094 0)"/>
       <use xlink:href="#DejaVuSans-35" transform="translate(159.033203 0)"/>
      </g>
     </g>
    </g>
    <g id="xtick_8">
     <g id="line2d_8">
      <g>
       <use xlink:href="#m0a5d5f89e9" x="747.163636" y="384.48" style="stroke: #000000; stroke-width: 0.8"/>
      </g>
     </g>
     <g id="text_8">
      <!-- 20.0 -->
      <g transform="translate(736.030824 399.078438) scale(0.1 -0.1)">
       <use xlink:href="#DejaVuSans-32"/>
       <use xlink:href="#DejaVuSans-30" transform="translate(63.623047 0)"/>
       <use xlink:href="#DejaVuSans-2e" transform="translate(127.246094 0)"/>
       <use xlink:href="#DejaVuSans-30" transform="translate(159.033203 0)"/>
      </g>
     </g>
    </g>
    <g id="text_9">
     <!-- Epochs -->
     <g transform="translate(424.884375 412.756563) scale(0.1 -0.1)">
      <defs>
       <path id="DejaVuSans-45" d="M 628 4666 
L 3578 4666 
L 3578 4134 
L 1259 4134 
L 1259 2753 
L 3481 2753 
L 3481 2222 
L 1259 2222 
L 1259 531 
L 3634 531 
L 3634 0 
L 628 0 
L 628 4666 
z
" transform="scale(0.015625)"/>
       <path id="DejaVuSans-70" d="M 1159 525 
L 1159 -1331 
L 581 -1331 
L 581 3500 
L 1159 3500 
L 1159 2969 
Q 1341 3281 1617 3432 
Q 1894 3584 2278 3584 
Q 2916 3584 3314 3078 
Q 3713 2572 3713 1747 
Q 3713 922 3314 415 
Q 2916 -91 2278 -91 
Q 1894 -91 1617 61 
Q 1341 213 1159 525 
z
M 3116 1747 
Q 3116 2381 2855 2742 
Q 2594 3103 2138 3103 
Q 1681 3103 1420 2742 
Q 1159 2381 1159 1747 
Q 1159 1113 1420 752 
Q 1681 391 2138 391 
Q 2594 391 2855 752 
Q 3116 1113 3116 1747 
z
" transform="scale(0.015625)"/>
       <path id="DejaVuSans-6f" d="M 1959 3097 
Q 1497 3097 1228 2736 
Q 959 2375 959 1747 
Q 959 1119 1226 758 
Q 1494 397 1959 397 
Q 2419 397 2687 759 
Q 2956 1122 2956 1747 
Q 2956 2369 2687 2733 
Q 2419 3097 1959 3097 
z
M 1959 3584 
Q 2709 3584 3137 3096 
Q 3566 2609 3566 1747 
Q 3566 888 3137 398 
Q 2709 -91 1959 -91 
Q 1206 -91 779 398 
Q 353 888 353 1747 
Q 353 2609 779 3096 
Q 1206 3584 1959 3584 
z
" transform="scale(0.015625)"/>
       <path id="DejaVuSans-63" d="M 3122 3366 
L 3122 2828 
Q 2878 2963 2633 3030 
Q 2388 3097 2138 3097 
Q 1578 3097 1268 2742 
Q 959 2388 959 1747 
Q 959 1106 1268 751 
Q 1578 397 2138 397 
Q 2388 397 2633 464 
Q 2878 531 3122 666 
L 3122 134 
Q 2881 22 2623 -34 
Q 2366 -91 2075 -91 
Q 1284 -91 818 406 
Q 353 903 353 1747 
Q 353 2603 823 3093 
Q 1294 3584 2113 3584 
Q 2378 3584 2631 3529 
Q 2884 3475 3122 3366 
z
" transform="scale(0.015625)"/>
       <path id="DejaVuSans-68" d="M 3513 2113 
L 3513 0 
L 2938 0 
L 2938 2094 
Q 2938 2591 2744 2837 
Q 2550 3084 2163 3084 
Q 1697 3084 1428 2787 
Q 1159 2491 1159 1978 
L 1159 0 
L 581 0 
L 581 4863 
L 1159 4863 
L 1159 2956 
Q 1366 3272 1645 3428 
Q 1925 3584 2291 3584 
Q 2894 3584 3203 3211 
Q 3513 2838 3513 2113 
z
" transform="scale(0.015625)"/>
       <path id="DejaVuSans-73" d="M 2834 3397 
L 2834 2853 
Q 2591 2978 2328 3040 
Q 2066 3103 1784 3103 
Q 1356 3103 1142 2972 
Q 928 2841 928 2578 
Q 928 2378 1081 2264 
Q 1234 2150 1697 2047 
L 1894 2003 
Q 2506 1872 2764 1633 
Q 3022 1394 3022 966 
Q 3022 478 2636 193 
Q 2250 -91 1575 -91 
Q 1294 -91 989 -36 
Q 684 19 347 128 
L 347 722 
Q 666 556 975 473 
Q 1284 391 1588 391 
Q 1994 391 2212 530 
Q 2431 669 2431 922 
Q 2431 1156 2273 1281 
Q 2116 1406 1581 1522 
L 1381 1569 
Q 847 1681 609 1914 
Q 372 2147 372 2553 
Q 372 3047 722 3315 
Q 1072 3584 1716 3584 
Q 2034 3584 2315 3537 
Q 2597 3491 2834 3397 
z
" transform="scale(0.015625)"/>
      </defs>
      <use xlink:href="#DejaVuSans-45"/>
      <use xlink:href="#DejaVuSans-70" transform="translate(63.183594 0)"/>
      <use xlink:href="#DejaVuSans-6f" transform="translate(126.660156 0)"/>
      <use xlink:href="#DejaVuSans-63" transform="translate(187.841797 0)"/>
      <use xlink:href="#DejaVuSans-68" transform="translate(242.822266 0)"/>
      <use xlink:href="#DejaVuSans-73" transform="translate(306.201172 0)"/>
     </g>
    </g>
   </g>
   <g id="matplotlib.axis_2">
    <g id="ytick_1">
     <g id="line2d_9">
      <defs>
       <path id="m7dfe88993d" d="M 0 0 
L -3.5 0 
" style="stroke: #000000; stroke-width: 0.8"/>
      </defs>
      <g>
       <use xlink:href="#m7dfe88993d" x="108" y="371.922716" style="stroke: #000000; stroke-width: 0.8"/>
      </g>
     </g>
     <g id="text_10">
      <!-- 0.30 -->
      <g transform="translate(78.734375 375.721935) scale(0.1 -0.1)">
       <defs>
        <path id="DejaVuSans-33" d="M 2597 2516 
Q 3050 2419 3304 2112 
Q 3559 1806 3559 1356 
Q 3559 666 3084 287 
Q 2609 -91 1734 -91 
Q 1441 -91 1130 -33 
Q 819 25 488 141 
L 488 750 
Q 750 597 1062 519 
Q 1375 441 1716 441 
Q 2309 441 2620 675 
Q 2931 909 2931 1356 
Q 2931 1769 2642 2001 
Q 2353 2234 1838 2234 
L 1294 2234 
L 1294 2753 
L 1863 2753 
Q 2328 2753 2575 2939 
Q 2822 3125 2822 3475 
Q 2822 3834 2567 4026 
Q 2313 4219 1838 4219 
Q 1578 4219 1281 4162 
Q 984 4106 628 3988 
L 628 4550 
Q 988 4650 1302 4700 
Q 1616 4750 1894 4750 
Q 2613 4750 3031 4423 
Q 3450 4097 3450 3541 
Q 3450 3153 3228 2886 
Q 3006 2619 2597 2516 
z
" transform="scale(0.015625)"/>
       </defs>
       <use xlink:href="#DejaVuSans-30"/>
       <use xlink:href="#DejaVuSans-2e" transform="translate(63.623047 0)"/>
       <use xlink:href="#DejaVuSans-33" transform="translate(95.410156 0)"/>
       <use xlink:href="#DejaVuSans-30" transform="translate(159.033203 0)"/>
      </g>
     </g>
    </g>
    <g id="ytick_2">
     <g id="line2d_10">
      <g>
       <use xlink:href="#m7dfe88993d" x="108" y="333.293629" style="stroke: #000000; stroke-width: 0.8"/>
      </g>
     </g>
     <g id="text_11">
      <!-- 0.35 -->
      <g transform="translate(78.734375 337.092848) scale(0.1 -0.1)">
       <use xlink:href="#DejaVuSans-30"/>
       <use xlink:href="#DejaVuSans-2e" transform="translate(63.623047 0)"/>
       <use xlink:href="#DejaVuSans-33" transform="translate(95.410156 0)"/>
       <use xlink:href="#DejaVuSans-35" transform="translate(159.033203 0)"/>
      </g>
     </g>
    </g>
    <g id="ytick_3">
     <g id="line2d_11">
      <g>
       <use xlink:href="#m7dfe88993d" x="108" y="294.664542" style="stroke: #000000; stroke-width: 0.8"/>
      </g>
     </g>
     <g id="text_12">
      <!-- 0.40 -->
      <g transform="translate(78.734375 298.463761) scale(0.1 -0.1)">
       <defs>
        <path id="DejaVuSans-34" d="M 2419 4116 
L 825 1625 
L 2419 1625 
L 2419 4116 
z
M 2253 4666 
L 3047 4666 
L 3047 1625 
L 3713 1625 
L 3713 1100 
L 3047 1100 
L 3047 0 
L 2419 0 
L 2419 1100 
L 313 1100 
L 313 1709 
L 2253 4666 
z
" transform="scale(0.015625)"/>
       </defs>
       <use xlink:href="#DejaVuSans-30"/>
       <use xlink:href="#DejaVuSans-2e" transform="translate(63.623047 0)"/>
       <use xlink:href="#DejaVuSans-34" transform="translate(95.410156 0)"/>
       <use xlink:href="#DejaVuSans-30" transform="translate(159.033203 0)"/>
      </g>
     </g>
    </g>
    <g id="ytick_4">
     <g id="line2d_12">
      <g>
       <use xlink:href="#m7dfe88993d" x="108" y="256.035456" style="stroke: #000000; stroke-width: 0.8"/>
      </g>
     </g>
     <g id="text_13">
      <!-- 0.45 -->
      <g transform="translate(78.734375 259.834674) scale(0.1 -0.1)">
       <use xlink:href="#DejaVuSans-30"/>
       <use xlink:href="#DejaVuSans-2e" transform="translate(63.623047 0)"/>
       <use xlink:href="#DejaVuSans-34" transform="translate(95.410156 0)"/>
       <use xlink:href="#DejaVuSans-35" transform="translate(159.033203 0)"/>
      </g>
     </g>
    </g>
    <g id="ytick_5">
     <g id="line2d_13">
      <g>
       <use xlink:href="#m7dfe88993d" x="108" y="217.406369" style="stroke: #000000; stroke-width: 0.8"/>
      </g>
     </g>
     <g id="text_14">
      <!-- 0.50 -->
      <g transform="translate(78.734375 221.205588) scale(0.1 -0.1)">
       <use xlink:href="#DejaVuSans-30"/>
       <use xlink:href="#DejaVuSans-2e" transform="translate(63.623047 0)"/>
       <use xlink:href="#DejaVuSans-35" transform="translate(95.410156 0)"/>
       <use xlink:href="#DejaVuSans-30" transform="translate(159.033203 0)"/>
      </g>
     </g>
    </g>
    <g id="ytick_6">
     <g id="line2d_14">
      <g>
       <use xlink:href="#m7dfe88993d" x="108" y="178.777282" style="stroke: #000000; stroke-width: 0.8"/>
      </g>
     </g>
     <g id="text_15">
      <!-- 0.55 -->
      <g transform="translate(78.734375 182.576501) scale(0.1 -0.1)">
       <use xlink:href="#DejaVuSans-30"/>
       <use xlink:href="#DejaVuSans-2e" transform="translate(63.623047 0)"/>
       <use xlink:href="#DejaVuSans-35" transform="translate(95.410156 0)"/>
       <use xlink:href="#DejaVuSans-35" transform="translate(159.033203 0)"/>
      </g>
     </g>
    </g>
    <g id="ytick_7">
     <g id="line2d_15">
      <g>
       <use xlink:href="#m7dfe88993d" x="108" y="140.148195" style="stroke: #000000; stroke-width: 0.8"/>
      </g>
     </g>
     <g id="text_16">
      <!-- 0.60 -->
      <g transform="translate(78.734375 143.947414) scale(0.1 -0.1)">
       <defs>
        <path id="DejaVuSans-36" d="M 2113 2584 
Q 1688 2584 1439 2293 
Q 1191 2003 1191 1497 
Q 1191 994 1439 701 
Q 1688 409 2113 409 
Q 2538 409 2786 701 
Q 3034 994 3034 1497 
Q 3034 2003 2786 2293 
Q 2538 2584 2113 2584 
z
M 3366 4563 
L 3366 3988 
Q 3128 4100 2886 4159 
Q 2644 4219 2406 4219 
Q 1781 4219 1451 3797 
Q 1122 3375 1075 2522 
Q 1259 2794 1537 2939 
Q 1816 3084 2150 3084 
Q 2853 3084 3261 2657 
Q 3669 2231 3669 1497 
Q 3669 778 3244 343 
Q 2819 -91 2113 -91 
Q 1303 -91 875 529 
Q 447 1150 447 2328 
Q 447 3434 972 4092 
Q 1497 4750 2381 4750 
Q 2619 4750 2861 4703 
Q 3103 4656 3366 4563 
z
" transform="scale(0.015625)"/>
       </defs>
       <use xlink:href="#DejaVuSans-30"/>
       <use xlink:href="#DejaVuSans-2e" transform="translate(63.623047 0)"/>
       <use xlink:href="#DejaVuSans-36" transform="translate(95.410156 0)"/>
       <use xlink:href="#DejaVuSans-30" transform="translate(159.033203 0)"/>
      </g>
     </g>
    </g>
    <g id="ytick_8">
     <g id="line2d_16">
      <g>
       <use xlink:href="#m7dfe88993d" x="108" y="101.519109" style="stroke: #000000; stroke-width: 0.8"/>
      </g>
     </g>
     <g id="text_17">
      <!-- 0.65 -->
      <g transform="translate(78.734375 105.318327) scale(0.1 -0.1)">
       <use xlink:href="#DejaVuSans-30"/>
       <use xlink:href="#DejaVuSans-2e" transform="translate(63.623047 0)"/>
       <use xlink:href="#DejaVuSans-36" transform="translate(95.410156 0)"/>
       <use xlink:href="#DejaVuSans-35" transform="translate(159.033203 0)"/>
      </g>
     </g>
    </g>
    <g id="ytick_9">
     <g id="line2d_17">
      <g>
       <use xlink:href="#m7dfe88993d" x="108" y="62.890022" style="stroke: #000000; stroke-width: 0.8"/>
      </g>
     </g>
     <g id="text_18">
      <!-- 0.70 -->
      <g transform="translate(78.734375 66.689241) scale(0.1 -0.1)">
       <use xlink:href="#DejaVuSans-30"/>
       <use xlink:href="#DejaVuSans-2e" transform="translate(63.623047 0)"/>
       <use xlink:href="#DejaVuSans-37" transform="translate(95.410156 0)"/>
       <use xlink:href="#DejaVuSans-30" transform="translate(159.033203 0)"/>
      </g>
     </g>
    </g>
    <g id="text_19">
     <!-- Loss -->
     <g transform="translate(72.654687 229.127187) rotate(-90) scale(0.1 -0.1)">
      <defs>
       <path id="DejaVuSans-4c" d="M 628 4666 
L 1259 4666 
L 1259 531 
L 3531 531 
L 3531 0 
L 628 0 
L 628 4666 
z
" transform="scale(0.015625)"/>
      </defs>
      <use xlink:href="#DejaVuSans-4c"/>
      <use xlink:href="#DejaVuSans-6f" transform="translate(53.962891 0)"/>
      <use xlink:href="#DejaVuSans-73" transform="translate(115.144531 0)"/>
      <use xlink:href="#DejaVuSans-73" transform="translate(167.244141 0)"/>
     </g>
    </g>
   </g>
   <g id="line2d_18">
    <path d="M 138.436364 104.389473 
L 170.474641 158.348721 
L 202.512919 201.011292 
L 234.551196 215.487507 
L 266.589474 228.266365 
L 298.627751 233.318125 
L 330.666029 239.651477 
L 362.704306 252.679405 
L 394.742584 254.761203 
L 426.780861 254.210483 
" clip-path="url(#p6dcf2fb6d1)" style="fill: none; stroke: #440154; stroke-width: 1.5; stroke-linecap: square"/>
   </g>
   <g id="line2d_19">
    <path d="M 138.436364 94.592757 
L 170.474641 145.964552 
L 202.512919 188.444158 
L 234.551196 210.989576 
L 266.589474 219.199875 
L 298.627751 234.093899 
L 330.666029 241.022538 
L 362.704306 246.819058 
L 394.742584 256.056365 
L 426.780861 266.458878 
L 458.819139 262.825728 
L 490.857416 266.992647 
" clip-path="url(#p6dcf2fb6d1)" style="fill: none; stroke: #440154; stroke-width: 1.5; stroke-linecap: square"/>
   </g>
   <g id="line2d_20">
    <path d="M 138.436364 96.230358 
L 170.474641 139.986335 
L 202.512919 190.435282 
L 234.551196 210.594701 
L 266.589474 211.424977 
L 298.627751 226.698695 
L 330.666029 232.145903 
L 362.704306 237.736413 
L 394.742584 242.333021 
L 426.780861 246.625183 
L 458.819139 245.893144 
" clip-path="url(#p6dcf2fb6d1)" style="fill: none; stroke: #440154; stroke-width: 1.5; stroke-linecap: square"/>
   </g>
   <g id="line2d_21">
    <path d="M 138.436364 103.056172 
L 170.474641 150.020715 
L 202.512919 185.272228 
L 234.551196 206.624157 
L 266.589474 218.302042 
L 298.627751 231.718869 
L 330.666029 239.678277 
L 362.704306 245.748786 
L 394.742584 256.712253 
L 426.780861 268.77142 
L 458.819139 266.838481 
L 490.857416 267.834808 
" clip-path="url(#p6dcf2fb6d1)" style="fill: none; stroke: #440154; stroke-width: 1.5; stroke-linecap: square"/>
   </g>
   <g id="line2d_22">
    <path d="M 138.436364 83.131101 
L 170.474641 137.36091 
L 202.512919 185.879415 
L 234.551196 209.823588 
L 266.589474 227.361443 
L 298.627751 241.414449 
L 330.666029 248.681459 
L 362.704306 255.396671 
L 394.742584 261.659611 
L 426.780861 257.056321 
L 458.819139 258.254698 
" clip-path="url(#p6dcf2fb6d1)" style="fill: none; stroke: #440154; stroke-width: 1.5; stroke-linecap: square"/>
   </g>
   <g id="line2d_23">
    <path d="M 138.436364 101.344842 
L 170.474641 159.712136 
L 202.512919 205.093496 
L 234.551196 234.929299 
L 266.589474 251.662429 
L 298.627751 256.799018 
L 330.666029 267.836098 
L 362.704306 270.944211 
L 394.742584 271.897189 
L 426.780861 280.618468 
" clip-path="url(#p6dcf2fb6d1)" style="fill: none; stroke: #3b528b; stroke-width: 1.5; stroke-linecap: square"/>
   </g>
   <g id="line2d_24">
    <path d="M 138.436364 86.811649 
L 170.474641 136.34014 
L 202.512919 178.243123 
L 234.551196 210.174001 
L 266.589474 223.838705 
L 298.627751 229.242578 
L 330.666029 238.806828 
L 362.704306 253.077414 
L 394.742584 262.088653 
L 426.780861 268.333951 
L 458.819139 280.115541 
L 490.857416 289.606626 
L 522.895694 299.924232 
L 554.933971 312.84868 
L 586.972249 316.65137 
L 619.010526 321.460099 
" clip-path="url(#p6dcf2fb6d1)" style="fill: none; stroke: #3b528b; stroke-width: 1.5; stroke-linecap: square"/>
   </g>
   <g id="line2d_25">
    <path d="M 138.436364 80.370291 
L 170.474641 130.654717 
L 202.512919 169.345559 
L 234.551196 196.253255 
L 266.589474 219.326352 
L 298.627751 229.841535 
L 330.666029 239.570078 
L 362.704306 249.721811 
L 394.742584 268.153297 
L 426.780861 274.174714 
L 458.819139 287.070584 
L 490.857416 288.300413 
L 522.895694 284.903621 
" clip-path="url(#p6dcf2fb6d1)" style="fill: none; stroke: #3b528b; stroke-width: 1.5; stroke-linecap: square"/>
   </g>
   <g id="line2d_26">
    <path d="M 138.436364 69.329233 
L 170.474641 117.93493 
L 202.512919 161.86297 
L 234.551196 196.86117 
L 266.589474 216.88687 
L 298.627751 232.162067 
L 330.666029 238.62043 
L 362.704306 246.181269 
L 394.742584 258.612369 
L 426.780861 265.039375 
L 458.819139 277.565363 
L 490.857416 283.021973 
L 522.895694 291.561309 
L 554.933971 295.183314 
L 586.972249 296.936442 
L 619.010526 299.247017 
L 651.048804 302.168732 
L 683.087081 300.573175 
L 715.125359 300.509147 
" clip-path="url(#p6dcf2fb6d1)" style="fill: none; stroke: #3b528b; stroke-width: 1.5; stroke-linecap: square"/>
   </g>
   <g id="line2d_27">
    <path d="M 138.436364 72.458088 
L 170.474641 127.869357 
L 202.512919 183.71761 
L 234.551196 210.045527 
L 266.589474 221.314691 
L 298.627751 232.007591 
L 330.666029 238.350277 
L 362.704306 246.659986 
L 394.742584 255.253594 
L 426.780861 262.668691 
L 458.819139 261.53213 
L 490.857416 265.307143 
L 522.895694 264.372586 
L 554.933971 260.245351 
L 586.972249 264.449121 
L 619.010526 263.238239 
" clip-path="url(#p6dcf2fb6d1)" style="fill: none; stroke: #3b528b; stroke-width: 1.5; stroke-linecap: square"/>
   </g>
   <g id="line2d_28">
    <path d="M 138.436364 87.536898 
L 170.474641 138.198247 
L 202.512919 184.479481 
L 234.551196 210.715652 
L 266.589474 224.131074 
L 298.627751 235.681215 
L 330.666029 243.367426 
L 362.704306 257.631384 
L 394.742584 260.751654 
L 426.780861 269.900577 
L 458.819139 280.252307 
L 490.857416 282.997856 
L 522.895694 296.369784 
L 554.933971 307.716206 
L 586.972249 316.50443 
L 619.010526 334.352372 
L 651.048804 355.233157 
L 683.087081 365.849019 
L 715.125359 369.239644 
L 747.163636 369.36 
" clip-path="url(#p6dcf2fb6d1)" style="fill: none; stroke: #21918c; stroke-width: 1.5; stroke-linecap: square"/>
   </g>
   <g id="line2d_29">
    <path d="M 138.436364 91.192314 
L 170.474641 140.751488 
L 202.512919 186.551245 
L 234.551196 210.822997 
L 266.589474 223.065381 
L 298.627751 240.649048 
L 330.666029 247.393241 
L 362.704306 259.864612 
L 394.742584 254.90001 
L 426.780861 274.145509 
L 458.819139 275.527615 
L 490.857416 269.76686 
L 522.895694 274.931631 
" clip-path="url(#p6dcf2fb6d1)" style="fill: none; stroke: #21918c; stroke-width: 1.5; stroke-linecap: square"/>
   </g>
   <g id="line2d_30">
    <path d="M 138.436364 77.901202 
L 170.474641 130.901906 
L 202.512919 175.660998 
L 234.551196 201.530903 
L 266.589474 211.716735 
L 298.627751 213.228208 
L 330.666029 228.176564 
L 362.704306 242.836647 
L 394.742584 252.29165 
L 426.780861 258.94056 
L 458.819139 272.352919 
L 490.857416 283.433897 
L 522.895694 291.642718 
L 554.933971 312.502488 
L 586.972249 320.486236 
L 619.010526 316.11805 
" clip-path="url(#p6dcf2fb6d1)" style="fill: none; stroke: #21918c; stroke-width: 1.5; stroke-linecap: square"/>
   </g>
   <g id="line2d_31">
    <path d="M 138.436364 66.96 
L 170.474641 123.082209 
L 202.512919 174.009622 
L 234.551196 205.346651 
L 266.589474 225.62441 
L 298.627751 229.30978 
L 330.666029 234.609569 
L 362.704306 244.84929 
L 394.742584 251.668264 
L 426.780861 264.003828 
L 458.819139 277.24891 
L 490.857416 286.21719 
L 522.895694 295.734173 
L 554.933971 295.219592 
L 586.972249 295.193265 
" clip-path="url(#p6dcf2fb6d1)" style="fill: none; stroke: #21918c; stroke-width: 1.5; stroke-linecap: square"/>
   </g>
   <g id="line2d_32">
    <path d="M 138.436364 90.310977 
L 170.474641 141.759262 
L 202.512919 193.782362 
L 234.551196 217.953037 
L 266.589474 229.334192 
L 298.627751 238.086728 
L 330.666029 249.120218 
L 362.704306 249.996365 
L 394.742584 249.455725 
L 426.780861 260.80514 
L 458.819139 251.904852 
L 490.857416 253.367697 
L 522.895694 253.018988 
L 554.933971 253.501141 
L 586.972249 254.307784 
L 619.010526 254.199475 
L 651.048804 257.007856 
L 683.087081 253.934697 
L 715.125359 253.362321 
L 747.163636 252.045953 
" clip-path="url(#p6dcf2fb6d1)" style="fill: none; stroke: #21918c; stroke-width: 1.5; stroke-linecap: square"/>
   </g>
   <g id="line2d_33">
    <path d="M 138.436364 101.117358 
L 170.474641 157.945812 
L 202.512919 195.897209 
L 234.551196 206.599604 
L 266.589474 223.341876 
L 298.627751 236.466614 
L 330.666029 239.489722 
L 362.704306 251.216522 
L 394.742584 259.289154 
L 426.780861 264.398114 
L 458.819139 273.970769 
L 490.857416 276.552054 
L 522.895694 277.637351 
L 554.933971 282.830245 
L 586.972249 279.051508 
L 619.010526 280.481831 
L 651.048804 279.238731 
L 683.087081 285.643592 
" clip-path="url(#p6dcf2fb6d1)" style="fill: none; stroke: #5ec962; stroke-width: 1.5; stroke-linecap: square"/>
   </g>
   <g id="line2d_34">
    <path d="M 138.436364 109.47728 
L 170.474641 154.711655 
L 202.512919 193.012911 
L 234.551196 212.346498 
L 266.589474 227.876449 
L 298.627751 235.827845 
L 330.666029 255.107582 
L 362.704306 258.073161 
L 394.742584 268.539973 
L 426.780861 263.116454 
L 458.819139 270.90978 
" clip-path="url(#p6dcf2fb6d1)" style="fill: none; stroke: #5ec962; stroke-width: 1.5; stroke-linecap: square"/>
   </g>
   <g id="line2d_35">
    <path d="M 138.436364 103.514589 
L 170.474641 149.858205 
L 202.512919 181.852883 
L 234.551196 198.359741 
L 266.589474 216.661382 
L 298.627751 230.081467 
L 330.666029 236.521849 
L 362.704306 242.110635 
L 394.742584 259.722229 
L 426.780861 265.92286 
L 458.819139 277.351201 
L 490.857416 290.365615 
L 522.895694 305.040883 
L 554.933971 302.033022 
L 586.972249 307.105757 
" clip-path="url(#p6dcf2fb6d1)" style="fill: none; stroke: #5ec962; stroke-width: 1.5; stroke-linecap: square"/>
   </g>
   <g id="line2d_36">
    <path d="M 138.436364 96.78762 
L 170.474641 159.305462 
L 202.512919 195.951789 
L 234.551196 210.460229 
L 266.589474 222.296497 
L 298.627751 234.473308 
L 330.666029 245.374977 
L 362.704306 245.860388 
L 394.742584 246.822432 
L 426.780861 250.389097 
" clip-path="url(#p6dcf2fb6d1)" style="fill: none; stroke: #5ec962; stroke-width: 1.5; stroke-linecap: square"/>
   </g>
   <g id="line2d_37">
    <path d="M 138.436364 87.591834 
L 170.474641 143.369325 
L 202.512919 186.889438 
L 234.551196 223.034081 
L 266.589474 234.503226 
L 298.627751 233.701375 
L 330.666029 246.300329 
L 362.704306 255.868959 
L 394.742584 257.500576 
L 426.780861 271.470425 
L 458.819139 266.379292 
L 490.857416 271.844764 
" clip-path="url(#p6dcf2fb6d1)" style="fill: none; stroke: #5ec962; stroke-width: 1.5; stroke-linecap: square"/>
   </g>
   <g id="line2d_38">
    <path d="M 138.436364 98.0598 
L 170.474641 143.186823 
L 202.512919 184.423347 
L 234.551196 207.905006 
L 266.589474 231.550673 
L 298.627751 237.615858 
L 330.666029 247.101665 
L 362.704306 263.725607 
L 394.742584 273.852653 
L 426.780861 285.336108 
L 458.819139 292.519976 
L 490.857416 311.46079 
L 522.895694 323.501656 
L 554.933971 334.377965 
L 586.972249 332.137573 
L 619.010526 329.142277 
L 651.048804 336.91904 
L 683.087081 334.134017 
L 715.125359 339.685131 
L 747.163636 340.949879 
" clip-path="url(#p6dcf2fb6d1)" style="fill: none; stroke: #fde725; stroke-width: 1.5; stroke-linecap: square"/>
   </g>
   <g id="line2d_39">
    <path d="M 138.436364 89.5116 
L 170.474641 144.929157 
L 202.512919 190.722056 
L 234.551196 217.07353 
L 266.589474 218.403869 
L 298.627751 236.573764 
L 330.666029 244.513499 
L 362.704306 260.852521 
L 394.742584 265.764085 
L 426.780861 272.678699 
L 458.819139 266.613182 
" clip-path="url(#p6dcf2fb6d1)" style="fill: none; stroke: #fde725; stroke-width: 1.5; stroke-linecap: square"/>
   </g>
   <g id="line2d_40">
    <path d="M 138.436364 89.699372 
L 170.474641 139.329047 
L 202.512919 180.174371 
L 234.551196 212.903096 
L 266.589474 229.330064 
L 298.627751 232.615348 
L 330.666029 244.385974 
L 362.704306 253.117077 
L 394.742584 259.197428 
L 426.780861 269.803899 
L 458.819139 274.628287 
L 490.857416 289.098161 
L 522.895694 288.192856 
L 554.933971 287.080144 
L 586.972249 291.181354 
L 619.010526 292.073617 
L 651.048804 289.998364 
L 683.087081 286.204211 
" clip-path="url(#p6dcf2fb6d1)" style="fill: none; stroke: #fde725; stroke-width: 1.5; stroke-linecap: square"/>
   </g>
   <g id="line2d_41">
    <path d="M 138.436364 92.554347 
L 170.474641 148.681353 
L 202.512919 192.758044 
L 234.551196 220.097188 
L 266.589474 218.349748 
L 298.627751 237.391753 
L 330.666029 244.610099 
L 362.704306 255.351619 
L 394.742584 262.827144 
L 426.780861 274.21674 
L 458.819139 279.518613 
L 490.857416 294.060584 
L 522.895694 295.316697 
L 554.933971 300.362534 
" clip-path="url(#p6dcf2fb6d1)" style="fill: none; stroke: #fde725; stroke-width: 1.5; stroke-linecap: square"/>
   </g>
   <g id="line2d_42">
    <path d="M 138.436364 79.999455 
L 170.474641 138.563349 
L 202.512919 191.262448 
L 234.551196 221.428973 
L 266.589474 241.330922 
L 298.627751 246.828045 
L 330.666029 254.336958 
L 362.704306 263.800006 
L 394.742584 267.255418 
L 426.780861 265.702418 
" clip-path="url(#p6dcf2fb6d1)" style="fill: none; stroke: #fde725; stroke-width: 1.5; stroke-linecap: square"/>
   </g>
   <g id="patch_3">
    <path d="M 108 384.48 
L 108 51.84 
" style="fill: none; stroke: #000000; stroke-width: 0.8; stroke-linejoin: miter; stroke-linecap: square"/>
   </g>
   <g id="patch_4">
    <path d="M 777.6 384.48 
L 777.6 51.84 
" style="fill: none; stroke: #000000; stroke-width: 0.8; stroke-linejoin: miter; stroke-linecap: square"/>
   </g>
   <g id="patch_5">
    <path d="M 108 384.48 
L 777.6 384.48 
" style="fill: none; stroke: #000000; stroke-width: 0.8; stroke-linejoin: miter; stroke-linecap: square"/>
   </g>
   <g id="patch_6">
    <path d="M 108 51.84 
L 777.6 51.84 
" style="fill: none; stroke: #000000; stroke-width: 0.8; stroke-linejoin: miter; stroke-linecap: square"/>
   </g>
   <g id="text_20">
    <!-- Training Loss for Each Fold -->
    <g transform="translate(363.140625 45.84) scale(0.12 -0.12)">
     <defs>
      <path id="DejaVuSans-54" d="M -19 4666 
L 3928 4666 
L 3928 4134 
L 2272 4134 
L 2272 0 
L 1638 0 
L 1638 4134 
L -19 4134 
L -19 4666 
z
" transform="scale(0.015625)"/>
      <path id="DejaVuSans-72" d="M 2631 2963 
Q 2534 3019 2420 3045 
Q 2306 3072 2169 3072 
Q 1681 3072 1420 2755 
Q 1159 2438 1159 1844 
L 1159 0 
L 581 0 
L 581 3500 
L 1159 3500 
L 1159 2956 
Q 1341 3275 1631 3429 
Q 1922 3584 2338 3584 
Q 2397 3584 2469 3576 
Q 2541 3569 2628 3553 
L 2631 2963 
z
" transform="scale(0.015625)"/>
      <path id="DejaVuSans-61" d="M 2194 1759 
Q 1497 1759 1228 1600 
Q 959 1441 959 1056 
Q 959 750 1161 570 
Q 1363 391 1709 391 
Q 2188 391 2477 730 
Q 2766 1069 2766 1631 
L 2766 1759 
L 2194 1759 
z
M 3341 1997 
L 3341 0 
L 2766 0 
L 2766 531 
Q 2569 213 2275 61 
Q 1981 -91 1556 -91 
Q 1019 -91 701 211 
Q 384 513 384 1019 
Q 384 1609 779 1909 
Q 1175 2209 1959 2209 
L 2766 2209 
L 2766 2266 
Q 2766 2663 2505 2880 
Q 2244 3097 1772 3097 
Q 1472 3097 1187 3025 
Q 903 2953 641 2809 
L 641 3341 
Q 956 3463 1253 3523 
Q 1550 3584 1831 3584 
Q 2591 3584 2966 3190 
Q 3341 2797 3341 1997 
z
" transform="scale(0.015625)"/>
      <path id="DejaVuSans-69" d="M 603 3500 
L 1178 3500 
L 1178 0 
L 603 0 
L 603 3500 
z
M 603 4863 
L 1178 4863 
L 1178 4134 
L 603 4134 
L 603 4863 
z
" transform="scale(0.015625)"/>
      <path id="DejaVuSans-6e" d="M 3513 2113 
L 3513 0 
L 2938 0 
L 2938 2094 
Q 2938 2591 2744 2837 
Q 2550 3084 2163 3084 
Q 1697 3084 1428 2787 
Q 1159 2491 1159 1978 
L 1159 0 
L 581 0 
L 581 3500 
L 1159 3500 
L 1159 2956 
Q 1366 3272 1645 3428 
Q 1925 3584 2291 3584 
Q 2894 3584 3203 3211 
Q 3513 2838 3513 2113 
z
" transform="scale(0.015625)"/>
      <path id="DejaVuSans-67" d="M 2906 1791 
Q 2906 2416 2648 2759 
Q 2391 3103 1925 3103 
Q 1463 3103 1205 2759 
Q 947 2416 947 1791 
Q 947 1169 1205 825 
Q 1463 481 1925 481 
Q 2391 481 2648 825 
Q 2906 1169 2906 1791 
z
M 3481 434 
Q 3481 -459 3084 -895 
Q 2688 -1331 1869 -1331 
Q 1566 -1331 1297 -1286 
Q 1028 -1241 775 -1147 
L 775 -588 
Q 1028 -725 1275 -790 
Q 1522 -856 1778 -856 
Q 2344 -856 2625 -561 
Q 2906 -266 2906 331 
L 2906 616 
Q 2728 306 2450 153 
Q 2172 0 1784 0 
Q 1141 0 747 490 
Q 353 981 353 1791 
Q 353 2603 747 3093 
Q 1141 3584 1784 3584 
Q 2172 3584 2450 3431 
Q 2728 3278 2906 2969 
L 2906 3500 
L 3481 3500 
L 3481 434 
z
" transform="scale(0.015625)"/>
      <path id="DejaVuSans-20" transform="scale(0.015625)"/>
      <path id="DejaVuSans-66" d="M 2375 4863 
L 2375 4384 
L 1825 4384 
Q 1516 4384 1395 4259 
Q 1275 4134 1275 3809 
L 1275 3500 
L 2222 3500 
L 2222 3053 
L 1275 3053 
L 1275 0 
L 697 0 
L 697 3053 
L 147 3053 
L 147 3500 
L 697 3500 
L 697 3744 
Q 697 4328 969 4595 
Q 1241 4863 1831 4863 
L 2375 4863 
z
" transform="scale(0.015625)"/>
      <path id="DejaVuSans-46" d="M 628 4666 
L 3309 4666 
L 3309 4134 
L 1259 4134 
L 1259 2759 
L 3109 2759 
L 3109 2228 
L 1259 2228 
L 1259 0 
L 628 0 
L 628 4666 
z
" transform="scale(0.015625)"/>
      <path id="DejaVuSans-6c" d="M 603 4863 
L 1178 4863 
L 1178 0 
L 603 0 
L 603 4863 
z
" transform="scale(0.015625)"/>
      <path id="DejaVuSans-64" d="M 2906 2969 
L 2906 4863 
L 3481 4863 
L 3481 0 
L 2906 0 
L 2906 525 
Q 2725 213 2448 61 
Q 2172 -91 1784 -91 
Q 1150 -91 751 415 
Q 353 922 353 1747 
Q 353 2572 751 3078 
Q 1150 3584 1784 3584 
Q 2172 3584 2448 3432 
Q 2725 3281 2906 2969 
z
M 947 1747 
Q 947 1113 1208 752 
Q 1469 391 1925 391 
Q 2381 391 2643 752 
Q 2906 1113 2906 1747 
Q 2906 2381 2643 2742 
Q 2381 3103 1925 3103 
Q 1469 3103 1208 2742 
Q 947 2381 947 1747 
z
" transform="scale(0.015625)"/>
     </defs>
     <use xlink:href="#DejaVuSans-54"/>
     <use xlink:href="#DejaVuSans-72" transform="translate(46.333984 0)"/>
     <use xlink:href="#DejaVuSans-61" transform="translate(87.447266 0)"/>
     <use xlink:href="#DejaVuSans-69" transform="translate(148.726562 0)"/>
     <use xlink:href="#DejaVuSans-6e" transform="translate(176.509766 0)"/>
     <use xlink:href="#DejaVuSans-69" transform="translate(239.888672 0)"/>
     <use xlink:href="#DejaVuSans-6e" transform="translate(267.671875 0)"/>
     <use xlink:href="#DejaVuSans-67" transform="translate(331.050781 0)"/>
     <use xlink:href="#DejaVuSans-20" transform="translate(394.527344 0)"/>
     <use xlink:href="#DejaVuSans-4c" transform="translate(426.314453 0)"/>
     <use xlink:href="#DejaVuSans-6f" transform="translate(480.277344 0)"/>
     <use xlink:href="#DejaVuSans-73" transform="translate(541.458984 0)"/>
     <use xlink:href="#DejaVuSans-73" transform="translate(593.558594 0)"/>
     <use xlink:href="#DejaVuSans-20" transform="translate(645.658203 0)"/>
     <use xlink:href="#DejaVuSans-66" transform="translate(677.445312 0)"/>
     <use xlink:href="#DejaVuSans-6f" transform="translate(712.650391 0)"/>
     <use xlink:href="#DejaVuSans-72" transform="translate(773.832031 0)"/>
     <use xlink:href="#DejaVuSans-20" transform="translate(814.945312 0)"/>
     <use xlink:href="#DejaVuSans-45" transform="translate(846.732422 0)"/>
     <use xlink:href="#DejaVuSans-61" transform="translate(909.916016 0)"/>
     <use xlink:href="#DejaVuSans-63" transform="translate(971.195312 0)"/>
     <use xlink:href="#DejaVuSans-68" transform="translate(1026.175781 0)"/>
     <use xlink:href="#DejaVuSans-20" transform="translate(1089.554688 0)"/>
     <use xlink:href="#DejaVuSans-46" transform="translate(1121.341797 0)"/>
     <use xlink:href="#DejaVuSans-6f" transform="translate(1175.236328 0)"/>
     <use xlink:href="#DejaVuSans-6c" transform="translate(1236.417969 0)"/>
     <use xlink:href="#DejaVuSans-64" transform="translate(1264.201172 0)"/>
    </g>
   </g>
   <g id="legend_1">
    <g id="patch_7">
     <path d="M 634.320312 426.793125 
L 770.6 426.793125 
Q 772.6 426.793125 772.6 424.793125 
L 772.6 58.84 
Q 772.6 56.84 770.6 56.84 
L 634.320312 56.84 
Q 632.320312 56.84 632.320312 58.84 
L 632.320312 424.793125 
Q 632.320312 426.793125 634.320312 426.793125 
z
" style="fill: #ffffff; opacity: 0.8; stroke: #cccccc; stroke-linejoin: miter"/>
    </g>
    <g id="line2d_43">
     <path d="M 636.320312 64.938437 
L 646.320312 64.938437 
L 656.320312 64.938437 
" style="fill: none; stroke: #440154; stroke-width: 1.5; stroke-linecap: square"/>
    </g>
    <g id="text_21">
     <!-- Fold 1 Training Loss -->
     <g transform="translate(664.320312 68.438437) scale(0.1 -0.1)">
      <use xlink:href="#DejaVuSans-46"/>
      <use xlink:href="#DejaVuSans-6f" transform="translate(53.894531 0)"/>
      <use xlink:href="#DejaVuSans-6c" transform="translate(115.076172 0)"/>
      <use xlink:href="#DejaVuSans-64" transform="translate(142.859375 0)"/>
      <use xlink:href="#DejaVuSans-20" transform="translate(206.335938 0)"/>
      <use xlink:href="#DejaVuSans-31" transform="translate(238.123047 0)"/>
      <use xlink:href="#DejaVuSans-20" transform="translate(301.746094 0)"/>
      <use xlink:href="#DejaVuSans-54" transform="translate(333.533203 0)"/>
      <use xlink:href="#DejaVuSans-72" transform="translate(379.867188 0)"/>
      <use xlink:href="#DejaVuSans-61" transform="translate(420.980469 0)"/>
      <use xlink:href="#DejaVuSans-69" transform="translate(482.259766 0)"/>
      <use xlink:href="#DejaVuSans-6e" transform="translate(510.042969 0)"/>
      <use xlink:href="#DejaVuSans-69" transform="translate(573.421875 0)"/>
      <use xlink:href="#DejaVuSans-6e" transform="translate(601.205078 0)"/>
      <use xlink:href="#DejaVuSans-67" transform="translate(664.583984 0)"/>
      <use xlink:href="#DejaVuSans-20" transform="translate(728.060547 0)"/>
      <use xlink:href="#DejaVuSans-4c" transform="translate(759.847656 0)"/>
      <use xlink:href="#DejaVuSans-6f" transform="translate(813.810547 0)"/>
      <use xlink:href="#DejaVuSans-73" transform="translate(874.992188 0)"/>
      <use xlink:href="#DejaVuSans-73" transform="translate(927.091797 0)"/>
     </g>
    </g>
    <g id="line2d_44">
     <path d="M 636.320312 79.616562 
L 646.320312 79.616562 
L 656.320312 79.616562 
" style="fill: none; stroke: #440154; stroke-width: 1.5; stroke-linecap: square"/>
    </g>
    <g id="text_22">
     <!-- Fold 2 Training Loss -->
     <g transform="translate(664.320312 83.116562) scale(0.1 -0.1)">
      <use xlink:href="#DejaVuSans-46"/>
      <use xlink:href="#DejaVuSans-6f" transform="translate(53.894531 0)"/>
      <use xlink:href="#DejaVuSans-6c" transform="translate(115.076172 0)"/>
      <use xlink:href="#DejaVuSans-64" transform="translate(142.859375 0)"/>
      <use xlink:href="#DejaVuSans-20" transform="translate(206.335938 0)"/>
      <use xlink:href="#DejaVuSans-32" transform="translate(238.123047 0)"/>
      <use xlink:href="#DejaVuSans-20" transform="translate(301.746094 0)"/>
      <use xlink:href="#DejaVuSans-54" transform="translate(333.533203 0)"/>
      <use xlink:href="#DejaVuSans-72" transform="translate(379.867188 0)"/>
      <use xlink:href="#DejaVuSans-61" transform="translate(420.980469 0)"/>
      <use xlink:href="#DejaVuSans-69" transform="translate(482.259766 0)"/>
      <use xlink:href="#DejaVuSans-6e" transform="translate(510.042969 0)"/>
      <use xlink:href="#DejaVuSans-69" transform="translate(573.421875 0)"/>
      <use xlink:href="#DejaVuSans-6e" transform="translate(601.205078 0)"/>
      <use xlink:href="#DejaVuSans-67" transform="translate(664.583984 0)"/>
      <use xlink:href="#DejaVuSans-20" transform="translate(728.060547 0)"/>
      <use xlink:href="#DejaVuSans-4c" transform="translate(759.847656 0)"/>
      <use xlink:href="#DejaVuSans-6f" transform="translate(813.810547 0)"/>
      <use xlink:href="#DejaVuSans-73" transform="translate(874.992188 0)"/>
      <use xlink:href="#DejaVuSans-73" transform="translate(927.091797 0)"/>
     </g>
    </g>
    <g id="line2d_45">
     <path d="M 636.320312 94.294687 
L 646.320312 94.294687 
L 656.320312 94.294687 
" style="fill: none; stroke: #440154; stroke-width: 1.5; stroke-linecap: square"/>
    </g>
    <g id="text_23">
     <!-- Fold 3 Training Loss -->
     <g transform="translate(664.320312 97.794687) scale(0.1 -0.1)">
      <use xlink:href="#DejaVuSans-46"/>
      <use xlink:href="#DejaVuSans-6f" transform="translate(53.894531 0)"/>
      <use xlink:href="#DejaVuSans-6c" transform="translate(115.076172 0)"/>
      <use xlink:href="#DejaVuSans-64" transform="translate(142.859375 0)"/>
      <use xlink:href="#DejaVuSans-20" transform="translate(206.335938 0)"/>
      <use xlink:href="#DejaVuSans-33" transform="translate(238.123047 0)"/>
      <use xlink:href="#DejaVuSans-20" transform="translate(301.746094 0)"/>
      <use xlink:href="#DejaVuSans-54" transform="translate(333.533203 0)"/>
      <use xlink:href="#DejaVuSans-72" transform="translate(379.867188 0)"/>
      <use xlink:href="#DejaVuSans-61" transform="translate(420.980469 0)"/>
      <use xlink:href="#DejaVuSans-69" transform="translate(482.259766 0)"/>
      <use xlink:href="#DejaVuSans-6e" transform="translate(510.042969 0)"/>
      <use xlink:href="#DejaVuSans-69" transform="translate(573.421875 0)"/>
      <use xlink:href="#DejaVuSans-6e" transform="translate(601.205078 0)"/>
      <use xlink:href="#DejaVuSans-67" transform="translate(664.583984 0)"/>
      <use xlink:href="#DejaVuSans-20" transform="translate(728.060547 0)"/>
      <use xlink:href="#DejaVuSans-4c" transform="translate(759.847656 0)"/>
      <use xlink:href="#DejaVuSans-6f" transform="translate(813.810547 0)"/>
      <use xlink:href="#DejaVuSans-73" transform="translate(874.992188 0)"/>
      <use xlink:href="#DejaVuSans-73" transform="translate(927.091797 0)"/>
     </g>
    </g>
    <g id="line2d_46">
     <path d="M 636.320312 108.972812 
L 646.320312 108.972812 
L 656.320312 108.972812 
" style="fill: none; stroke: #440154; stroke-width: 1.5; stroke-linecap: square"/>
    </g>
    <g id="text_24">
     <!-- Fold 4 Training Loss -->
     <g transform="translate(664.320312 112.472812) scale(0.1 -0.1)">
      <use xlink:href="#DejaVuSans-46"/>
      <use xlink:href="#DejaVuSans-6f" transform="translate(53.894531 0)"/>
      <use xlink:href="#DejaVuSans-6c" transform="translate(115.076172 0)"/>
      <use xlink:href="#DejaVuSans-64" transform="translate(142.859375 0)"/>
      <use xlink:href="#DejaVuSans-20" transform="translate(206.335938 0)"/>
      <use xlink:href="#DejaVuSans-34" transform="translate(238.123047 0)"/>
      <use xlink:href="#DejaVuSans-20" transform="translate(301.746094 0)"/>
      <use xlink:href="#DejaVuSans-54" transform="translate(333.533203 0)"/>
      <use xlink:href="#DejaVuSans-72" transform="translate(379.867188 0)"/>
      <use xlink:href="#DejaVuSans-61" transform="translate(420.980469 0)"/>
      <use xlink:href="#DejaVuSans-69" transform="translate(482.259766 0)"/>
      <use xlink:href="#DejaVuSans-6e" transform="translate(510.042969 0)"/>
      <use xlink:href="#DejaVuSans-69" transform="translate(573.421875 0)"/>
      <use xlink:href="#DejaVuSans-6e" transform="translate(601.205078 0)"/>
      <use xlink:href="#DejaVuSans-67" transform="translate(664.583984 0)"/>
      <use xlink:href="#DejaVuSans-20" transform="translate(728.060547 0)"/>
      <use xlink:href="#DejaVuSans-4c" transform="translate(759.847656 0)"/>
      <use xlink:href="#DejaVuSans-6f" transform="translate(813.810547 0)"/>
      <use xlink:href="#DejaVuSans-73" transform="translate(874.992188 0)"/>
      <use xlink:href="#DejaVuSans-73" transform="translate(927.091797 0)"/>
     </g>
    </g>
    <g id="line2d_47">
     <path d="M 636.320312 123.650937 
L 646.320312 123.650937 
L 656.320312 123.650937 
" style="fill: none; stroke: #440154; stroke-width: 1.5; stroke-linecap: square"/>
    </g>
    <g id="text_25">
     <!-- Fold 5 Training Loss -->
     <g transform="translate(664.320312 127.150937) scale(0.1 -0.1)">
      <use xlink:href="#DejaVuSans-46"/>
      <use xlink:href="#DejaVuSans-6f" transform="translate(53.894531 0)"/>
      <use xlink:href="#DejaVuSans-6c" transform="translate(115.076172 0)"/>
      <use xlink:href="#DejaVuSans-64" transform="translate(142.859375 0)"/>
      <use xlink:href="#DejaVuSans-20" transform="translate(206.335938 0)"/>
      <use xlink:href="#DejaVuSans-35" transform="translate(238.123047 0)"/>
      <use xlink:href="#DejaVuSans-20" transform="translate(301.746094 0)"/>
      <use xlink:href="#DejaVuSans-54" transform="translate(333.533203 0)"/>
      <use xlink:href="#DejaVuSans-72" transform="translate(379.867188 0)"/>
      <use xlink:href="#DejaVuSans-61" transform="translate(420.980469 0)"/>
      <use xlink:href="#DejaVuSans-69" transform="translate(482.259766 0)"/>
      <use xlink:href="#DejaVuSans-6e" transform="translate(510.042969 0)"/>
      <use xlink:href="#DejaVuSans-69" transform="translate(573.421875 0)"/>
      <use xlink:href="#DejaVuSans-6e" transform="translate(601.205078 0)"/>
      <use xlink:href="#DejaVuSans-67" transform="translate(664.583984 0)"/>
      <use xlink:href="#DejaVuSans-20" transform="translate(728.060547 0)"/>
      <use xlink:href="#DejaVuSans-4c" transform="translate(759.847656 0)"/>
      <use xlink:href="#DejaVuSans-6f" transform="translate(813.810547 0)"/>
      <use xlink:href="#DejaVuSans-73" transform="translate(874.992188 0)"/>
      <use xlink:href="#DejaVuSans-73" transform="translate(927.091797 0)"/>
     </g>
    </g>
    <g id="line2d_48">
     <path d="M 636.320312 138.329062 
L 646.320312 138.329062 
L 656.320312 138.329062 
" style="fill: none; stroke: #3b528b; stroke-width: 1.5; stroke-linecap: square"/>
    </g>
    <g id="text_26">
     <!-- Fold 6 Training Loss -->
     <g transform="translate(664.320312 141.829062) scale(0.1 -0.1)">
      <use xlink:href="#DejaVuSans-46"/>
      <use xlink:href="#DejaVuSans-6f" transform="translate(53.894531 0)"/>
      <use xlink:href="#DejaVuSans-6c" transform="translate(115.076172 0)"/>
      <use xlink:href="#DejaVuSans-64" transform="translate(142.859375 0)"/>
      <use xlink:href="#DejaVuSans-20" transform="translate(206.335938 0)"/>
      <use xlink:href="#DejaVuSans-36" transform="translate(238.123047 0)"/>
      <use xlink:href="#DejaVuSans-20" transform="translate(301.746094 0)"/>
      <use xlink:href="#DejaVuSans-54" transform="translate(333.533203 0)"/>
      <use xlink:href="#DejaVuSans-72" transform="translate(379.867188 0)"/>
      <use xlink:href="#DejaVuSans-61" transform="translate(420.980469 0)"/>
      <use xlink:href="#DejaVuSans-69" transform="translate(482.259766 0)"/>
      <use xlink:href="#DejaVuSans-6e" transform="translate(510.042969 0)"/>
      <use xlink:href="#DejaVuSans-69" transform="translate(573.421875 0)"/>
      <use xlink:href="#DejaVuSans-6e" transform="translate(601.205078 0)"/>
      <use xlink:href="#DejaVuSans-67" transform="translate(664.583984 0)"/>
      <use xlink:href="#DejaVuSans-20" transform="translate(728.060547 0)"/>
      <use xlink:href="#DejaVuSans-4c" transform="translate(759.847656 0)"/>
      <use xlink:href="#DejaVuSans-6f" transform="translate(813.810547 0)"/>
      <use xlink:href="#DejaVuSans-73" transform="translate(874.992188 0)"/>
      <use xlink:href="#DejaVuSans-73" transform="translate(927.091797 0)"/>
     </g>
    </g>
    <g id="line2d_49">
     <path d="M 636.320312 153.007187 
L 646.320312 153.007187 
L 656.320312 153.007187 
" style="fill: none; stroke: #3b528b; stroke-width: 1.5; stroke-linecap: square"/>
    </g>
    <g id="text_27">
     <!-- Fold 7 Training Loss -->
     <g transform="translate(664.320312 156.507187) scale(0.1 -0.1)">
      <use xlink:href="#DejaVuSans-46"/>
      <use xlink:href="#DejaVuSans-6f" transform="translate(53.894531 0)"/>
      <use xlink:href="#DejaVuSans-6c" transform="translate(115.076172 0)"/>
      <use xlink:href="#DejaVuSans-64" transform="translate(142.859375 0)"/>
      <use xlink:href="#DejaVuSans-20" transform="translate(206.335938 0)"/>
      <use xlink:href="#DejaVuSans-37" transform="translate(238.123047 0)"/>
      <use xlink:href="#DejaVuSans-20" transform="translate(301.746094 0)"/>
      <use xlink:href="#DejaVuSans-54" transform="translate(333.533203 0)"/>
      <use xlink:href="#DejaVuSans-72" transform="translate(379.867188 0)"/>
      <use xlink:href="#DejaVuSans-61" transform="translate(420.980469 0)"/>
      <use xlink:href="#DejaVuSans-69" transform="translate(482.259766 0)"/>
      <use xlink:href="#DejaVuSans-6e" transform="translate(510.042969 0)"/>
      <use xlink:href="#DejaVuSans-69" transform="translate(573.421875 0)"/>
      <use xlink:href="#DejaVuSans-6e" transform="translate(601.205078 0)"/>
      <use xlink:href="#DejaVuSans-67" transform="translate(664.583984 0)"/>
      <use xlink:href="#DejaVuSans-20" transform="translate(728.060547 0)"/>
      <use xlink:href="#DejaVuSans-4c" transform="translate(759.847656 0)"/>
      <use xlink:href="#DejaVuSans-6f" transform="translate(813.810547 0)"/>
      <use xlink:href="#DejaVuSans-73" transform="translate(874.992188 0)"/>
      <use xlink:href="#DejaVuSans-73" transform="translate(927.091797 0)"/>
     </g>
    </g>
    <g id="line2d_50">
     <path d="M 636.320312 167.685312 
L 646.320312 167.685312 
L 656.320312 167.685312 
" style="fill: none; stroke: #3b528b; stroke-width: 1.5; stroke-linecap: square"/>
    </g>
    <g id="text_28">
     <!-- Fold 8 Training Loss -->
     <g transform="translate(664.320312 171.185312) scale(0.1 -0.1)">
      <defs>
       <path id="DejaVuSans-38" d="M 2034 2216 
Q 1584 2216 1326 1975 
Q 1069 1734 1069 1313 
Q 1069 891 1326 650 
Q 1584 409 2034 409 
Q 2484 409 2743 651 
Q 3003 894 3003 1313 
Q 3003 1734 2745 1975 
Q 2488 2216 2034 2216 
z
M 1403 2484 
Q 997 2584 770 2862 
Q 544 3141 544 3541 
Q 544 4100 942 4425 
Q 1341 4750 2034 4750 
Q 2731 4750 3128 4425 
Q 3525 4100 3525 3541 
Q 3525 3141 3298 2862 
Q 3072 2584 2669 2484 
Q 3125 2378 3379 2068 
Q 3634 1759 3634 1313 
Q 3634 634 3220 271 
Q 2806 -91 2034 -91 
Q 1263 -91 848 271 
Q 434 634 434 1313 
Q 434 1759 690 2068 
Q 947 2378 1403 2484 
z
M 1172 3481 
Q 1172 3119 1398 2916 
Q 1625 2713 2034 2713 
Q 2441 2713 2670 2916 
Q 2900 3119 2900 3481 
Q 2900 3844 2670 4047 
Q 2441 4250 2034 4250 
Q 1625 4250 1398 4047 
Q 1172 3844 1172 3481 
z
" transform="scale(0.015625)"/>
      </defs>
      <use xlink:href="#DejaVuSans-46"/>
      <use xlink:href="#DejaVuSans-6f" transform="translate(53.894531 0)"/>
      <use xlink:href="#DejaVuSans-6c" transform="translate(115.076172 0)"/>
      <use xlink:href="#DejaVuSans-64" transform="translate(142.859375 0)"/>
      <use xlink:href="#DejaVuSans-20" transform="translate(206.335938 0)"/>
      <use xlink:href="#DejaVuSans-38" transform="translate(238.123047 0)"/>
      <use xlink:href="#DejaVuSans-20" transform="translate(301.746094 0)"/>
      <use xlink:href="#DejaVuSans-54" transform="translate(333.533203 0)"/>
      <use xlink:href="#DejaVuSans-72" transform="translate(379.867188 0)"/>
      <use xlink:href="#DejaVuSans-61" transform="translate(420.980469 0)"/>
      <use xlink:href="#DejaVuSans-69" transform="translate(482.259766 0)"/>
      <use xlink:href="#DejaVuSans-6e" transform="translate(510.042969 0)"/>
      <use xlink:href="#DejaVuSans-69" transform="translate(573.421875 0)"/>
      <use xlink:href="#DejaVuSans-6e" transform="translate(601.205078 0)"/>
      <use xlink:href="#DejaVuSans-67" transform="translate(664.583984 0)"/>
      <use xlink:href="#DejaVuSans-20" transform="translate(728.060547 0)"/>
      <use xlink:href="#DejaVuSans-4c" transform="translate(759.847656 0)"/>
      <use xlink:href="#DejaVuSans-6f" transform="translate(813.810547 0)"/>
      <use xlink:href="#DejaVuSans-73" transform="translate(874.992188 0)"/>
      <use xlink:href="#DejaVuSans-73" transform="translate(927.091797 0)"/>
     </g>
    </g>
    <g id="line2d_51">
     <path d="M 636.320312 182.363437 
L 646.320312 182.363437 
L 656.320312 182.363437 
" style="fill: none; stroke: #3b528b; stroke-width: 1.5; stroke-linecap: square"/>
    </g>
    <g id="text_29">
     <!-- Fold 9 Training Loss -->
     <g transform="translate(664.320312 185.863437) scale(0.1 -0.1)">
      <defs>
       <path id="DejaVuSans-39" d="M 703 97 
L 703 672 
Q 941 559 1184 500 
Q 1428 441 1663 441 
Q 2288 441 2617 861 
Q 2947 1281 2994 2138 
Q 2813 1869 2534 1725 
Q 2256 1581 1919 1581 
Q 1219 1581 811 2004 
Q 403 2428 403 3163 
Q 403 3881 828 4315 
Q 1253 4750 1959 4750 
Q 2769 4750 3195 4129 
Q 3622 3509 3622 2328 
Q 3622 1225 3098 567 
Q 2575 -91 1691 -91 
Q 1453 -91 1209 -44 
Q 966 3 703 97 
z
M 1959 2075 
Q 2384 2075 2632 2365 
Q 2881 2656 2881 3163 
Q 2881 3666 2632 3958 
Q 2384 4250 1959 4250 
Q 1534 4250 1286 3958 
Q 1038 3666 1038 3163 
Q 1038 2656 1286 2365 
Q 1534 2075 1959 2075 
z
" transform="scale(0.015625)"/>
      </defs>
      <use xlink:href="#DejaVuSans-46"/>
      <use xlink:href="#DejaVuSans-6f" transform="translate(53.894531 0)"/>
      <use xlink:href="#DejaVuSans-6c" transform="translate(115.076172 0)"/>
      <use xlink:href="#DejaVuSans-64" transform="translate(142.859375 0)"/>
      <use xlink:href="#DejaVuSans-20" transform="translate(206.335938 0)"/>
      <use xlink:href="#DejaVuSans-39" transform="translate(238.123047 0)"/>
      <use xlink:href="#DejaVuSans-20" transform="translate(301.746094 0)"/>
      <use xlink:href="#DejaVuSans-54" transform="translate(333.533203 0)"/>
      <use xlink:href="#DejaVuSans-72" transform="translate(379.867188 0)"/>
      <use xlink:href="#DejaVuSans-61" transform="translate(420.980469 0)"/>
      <use xlink:href="#DejaVuSans-69" transform="translate(482.259766 0)"/>
      <use xlink:href="#DejaVuSans-6e" transform="translate(510.042969 0)"/>
      <use xlink:href="#DejaVuSans-69" transform="translate(573.421875 0)"/>
      <use xlink:href="#DejaVuSans-6e" transform="translate(601.205078 0)"/>
      <use xlink:href="#DejaVuSans-67" transform="translate(664.583984 0)"/>
      <use xlink:href="#DejaVuSans-20" transform="translate(728.060547 0)"/>
      <use xlink:href="#DejaVuSans-4c" transform="translate(759.847656 0)"/>
      <use xlink:href="#DejaVuSans-6f" transform="translate(813.810547 0)"/>
      <use xlink:href="#DejaVuSans-73" transform="translate(874.992188 0)"/>
      <use xlink:href="#DejaVuSans-73" transform="translate(927.091797 0)"/>
     </g>
    </g>
    <g id="line2d_52">
     <path d="M 636.320312 197.041562 
L 646.320312 197.041562 
L 656.320312 197.041562 
" style="fill: none; stroke: #3b528b; stroke-width: 1.5; stroke-linecap: square"/>
    </g>
    <g id="text_30">
     <!-- Fold 10 Training Loss -->
     <g transform="translate(664.320312 200.541562) scale(0.1 -0.1)">
      <use xlink:href="#DejaVuSans-46"/>
      <use xlink:href="#DejaVuSans-6f" transform="translate(53.894531 0)"/>
      <use xlink:href="#DejaVuSans-6c" transform="translate(115.076172 0)"/>
      <use xlink:href="#DejaVuSans-64" transform="translate(142.859375 0)"/>
      <use xlink:href="#DejaVuSans-20" transform="translate(206.335938 0)"/>
      <use xlink:href="#DejaVuSans-31" transform="translate(238.123047 0)"/>
      <use xlink:href="#DejaVuSans-30" transform="translate(301.746094 0)"/>
      <use xlink:href="#DejaVuSans-20" transform="translate(365.369141 0)"/>
      <use xlink:href="#DejaVuSans-54" transform="translate(397.15625 0)"/>
      <use xlink:href="#DejaVuSans-72" transform="translate(443.490234 0)"/>
      <use xlink:href="#DejaVuSans-61" transform="translate(484.603516 0)"/>
      <use xlink:href="#DejaVuSans-69" transform="translate(545.882812 0)"/>
      <use xlink:href="#DejaVuSans-6e" transform="translate(573.666016 0)"/>
      <use xlink:href="#DejaVuSans-69" transform="translate(637.044922 0)"/>
      <use xlink:href="#DejaVuSans-6e" transform="translate(664.828125 0)"/>
      <use xlink:href="#DejaVuSans-67" transform="translate(728.207031 0)"/>
      <use xlink:href="#DejaVuSans-20" transform="translate(791.683594 0)"/>
      <use xlink:href="#DejaVuSans-4c" transform="translate(823.470703 0)"/>
      <use xlink:href="#DejaVuSans-6f" transform="translate(877.433594 0)"/>
      <use xlink:href="#DejaVuSans-73" transform="translate(938.615234 0)"/>
      <use xlink:href="#DejaVuSans-73" transform="translate(990.714844 0)"/>
     </g>
    </g>
    <g id="line2d_53">
     <path d="M 636.320312 211.719687 
L 646.320312 211.719687 
L 656.320312 211.719687 
" style="fill: none; stroke: #21918c; stroke-width: 1.5; stroke-linecap: square"/>
    </g>
    <g id="text_31">
     <!-- Fold 11 Training Loss -->
     <g transform="translate(664.320312 215.219687) scale(0.1 -0.1)">
      <use xlink:href="#DejaVuSans-46"/>
      <use xlink:href="#DejaVuSans-6f" transform="translate(53.894531 0)"/>
      <use xlink:href="#DejaVuSans-6c" transform="translate(115.076172 0)"/>
      <use xlink:href="#DejaVuSans-64" transform="translate(142.859375 0)"/>
      <use xlink:href="#DejaVuSans-20" transform="translate(206.335938 0)"/>
      <use xlink:href="#DejaVuSans-31" transform="translate(238.123047 0)"/>
      <use xlink:href="#DejaVuSans-31" transform="translate(301.746094 0)"/>
      <use xlink:href="#DejaVuSans-20" transform="translate(365.369141 0)"/>
      <use xlink:href="#DejaVuSans-54" transform="translate(397.15625 0)"/>
      <use xlink:href="#DejaVuSans-72" transform="translate(443.490234 0)"/>
      <use xlink:href="#DejaVuSans-61" transform="translate(484.603516 0)"/>
      <use xlink:href="#DejaVuSans-69" transform="translate(545.882812 0)"/>
      <use xlink:href="#DejaVuSans-6e" transform="translate(573.666016 0)"/>
      <use xlink:href="#DejaVuSans-69" transform="translate(637.044922 0)"/>
      <use xlink:href="#DejaVuSans-6e" transform="translate(664.828125 0)"/>
      <use xlink:href="#DejaVuSans-67" transform="translate(728.207031 0)"/>
      <use xlink:href="#DejaVuSans-20" transform="translate(791.683594 0)"/>
      <use xlink:href="#DejaVuSans-4c" transform="translate(823.470703 0)"/>
      <use xlink:href="#DejaVuSans-6f" transform="translate(877.433594 0)"/>
      <use xlink:href="#DejaVuSans-73" transform="translate(938.615234 0)"/>
      <use xlink:href="#DejaVuSans-73" transform="translate(990.714844 0)"/>
     </g>
    </g>
    <g id="line2d_54">
     <path d="M 636.320312 226.397812 
L 646.320312 226.397812 
L 656.320312 226.397812 
" style="fill: none; stroke: #21918c; stroke-width: 1.5; stroke-linecap: square"/>
    </g>
    <g id="text_32">
     <!-- Fold 12 Training Loss -->
     <g transform="translate(664.320312 229.897812) scale(0.1 -0.1)">
      <use xlink:href="#DejaVuSans-46"/>
      <use xlink:href="#DejaVuSans-6f" transform="translate(53.894531 0)"/>
      <use xlink:href="#DejaVuSans-6c" transform="translate(115.076172 0)"/>
      <use xlink:href="#DejaVuSans-64" transform="translate(142.859375 0)"/>
      <use xlink:href="#DejaVuSans-20" transform="translate(206.335938 0)"/>
      <use xlink:href="#DejaVuSans-31" transform="translate(238.123047 0)"/>
      <use xlink:href="#DejaVuSans-32" transform="translate(301.746094 0)"/>
      <use xlink:href="#DejaVuSans-20" transform="translate(365.369141 0)"/>
      <use xlink:href="#DejaVuSans-54" transform="translate(397.15625 0)"/>
      <use xlink:href="#DejaVuSans-72" transform="translate(443.490234 0)"/>
      <use xlink:href="#DejaVuSans-61" transform="translate(484.603516 0)"/>
      <use xlink:href="#DejaVuSans-69" transform="translate(545.882812 0)"/>
      <use xlink:href="#DejaVuSans-6e" transform="translate(573.666016 0)"/>
      <use xlink:href="#DejaVuSans-69" transform="translate(637.044922 0)"/>
      <use xlink:href="#DejaVuSans-6e" transform="translate(664.828125 0)"/>
      <use xlink:href="#DejaVuSans-67" transform="translate(728.207031 0)"/>
      <use xlink:href="#DejaVuSans-20" transform="translate(791.683594 0)"/>
      <use xlink:href="#DejaVuSans-4c" transform="translate(823.470703 0)"/>
      <use xlink:href="#DejaVuSans-6f" transform="translate(877.433594 0)"/>
      <use xlink:href="#DejaVuSans-73" transform="translate(938.615234 0)"/>
      <use xlink:href="#DejaVuSans-73" transform="translate(990.714844 0)"/>
     </g>
    </g>
    <g id="line2d_55">
     <path d="M 636.320312 241.075937 
L 646.320312 241.075937 
L 656.320312 241.075937 
" style="fill: none; stroke: #21918c; stroke-width: 1.5; stroke-linecap: square"/>
    </g>
    <g id="text_33">
     <!-- Fold 13 Training Loss -->
     <g transform="translate(664.320312 244.575937) scale(0.1 -0.1)">
      <use xlink:href="#DejaVuSans-46"/>
      <use xlink:href="#DejaVuSans-6f" transform="translate(53.894531 0)"/>
      <use xlink:href="#DejaVuSans-6c" transform="translate(115.076172 0)"/>
      <use xlink:href="#DejaVuSans-64" transform="translate(142.859375 0)"/>
      <use xlink:href="#DejaVuSans-20" transform="translate(206.335938 0)"/>
      <use xlink:href="#DejaVuSans-31" transform="translate(238.123047 0)"/>
      <use xlink:href="#DejaVuSans-33" transform="translate(301.746094 0)"/>
      <use xlink:href="#DejaVuSans-20" transform="translate(365.369141 0)"/>
      <use xlink:href="#DejaVuSans-54" transform="translate(397.15625 0)"/>
      <use xlink:href="#DejaVuSans-72" transform="translate(443.490234 0)"/>
      <use xlink:href="#DejaVuSans-61" transform="translate(484.603516 0)"/>
      <use xlink:href="#DejaVuSans-69" transform="translate(545.882812 0)"/>
      <use xlink:href="#DejaVuSans-6e" transform="translate(573.666016 0)"/>
      <use xlink:href="#DejaVuSans-69" transform="translate(637.044922 0)"/>
      <use xlink:href="#DejaVuSans-6e" transform="translate(664.828125 0)"/>
      <use xlink:href="#DejaVuSans-67" transform="translate(728.207031 0)"/>
      <use xlink:href="#DejaVuSans-20" transform="translate(791.683594 0)"/>
      <use xlink:href="#DejaVuSans-4c" transform="translate(823.470703 0)"/>
      <use xlink:href="#DejaVuSans-6f" transform="translate(877.433594 0)"/>
      <use xlink:href="#DejaVuSans-73" transform="translate(938.615234 0)"/>
      <use xlink:href="#DejaVuSans-73" transform="translate(990.714844 0)"/>
     </g>
    </g>
    <g id="line2d_56">
     <path d="M 636.320312 255.754062 
L 646.320312 255.754062 
L 656.320312 255.754062 
" style="fill: none; stroke: #21918c; stroke-width: 1.5; stroke-linecap: square"/>
    </g>
    <g id="text_34">
     <!-- Fold 14 Training Loss -->
     <g transform="translate(664.320312 259.254062) scale(0.1 -0.1)">
      <use xlink:href="#DejaVuSans-46"/>
      <use xlink:href="#DejaVuSans-6f" transform="translate(53.894531 0)"/>
      <use xlink:href="#DejaVuSans-6c" transform="translate(115.076172 0)"/>
      <use xlink:href="#DejaVuSans-64" transform="translate(142.859375 0)"/>
      <use xlink:href="#DejaVuSans-20" transform="translate(206.335938 0)"/>
      <use xlink:href="#DejaVuSans-31" transform="translate(238.123047 0)"/>
      <use xlink:href="#DejaVuSans-34" transform="translate(301.746094 0)"/>
      <use xlink:href="#DejaVuSans-20" transform="translate(365.369141 0)"/>
      <use xlink:href="#DejaVuSans-54" transform="translate(397.15625 0)"/>
      <use xlink:href="#DejaVuSans-72" transform="translate(443.490234 0)"/>
      <use xlink:href="#DejaVuSans-61" transform="translate(484.603516 0)"/>
      <use xlink:href="#DejaVuSans-69" transform="translate(545.882812 0)"/>
      <use xlink:href="#DejaVuSans-6e" transform="translate(573.666016 0)"/>
      <use xlink:href="#DejaVuSans-69" transform="translate(637.044922 0)"/>
      <use xlink:href="#DejaVuSans-6e" transform="translate(664.828125 0)"/>
      <use xlink:href="#DejaVuSans-67" transform="translate(728.207031 0)"/>
      <use xlink:href="#DejaVuSans-20" transform="translate(791.683594 0)"/>
      <use xlink:href="#DejaVuSans-4c" transform="translate(823.470703 0)"/>
      <use xlink:href="#DejaVuSans-6f" transform="translate(877.433594 0)"/>
      <use xlink:href="#DejaVuSans-73" transform="translate(938.615234 0)"/>
      <use xlink:href="#DejaVuSans-73" transform="translate(990.714844 0)"/>
     </g>
    </g>
    <g id="line2d_57">
     <path d="M 636.320312 270.432187 
L 646.320312 270.432187 
L 656.320312 270.432187 
" style="fill: none; stroke: #21918c; stroke-width: 1.5; stroke-linecap: square"/>
    </g>
    <g id="text_35">
     <!-- Fold 15 Training Loss -->
     <g transform="translate(664.320312 273.932187) scale(0.1 -0.1)">
      <use xlink:href="#DejaVuSans-46"/>
      <use xlink:href="#DejaVuSans-6f" transform="translate(53.894531 0)"/>
      <use xlink:href="#DejaVuSans-6c" transform="translate(115.076172 0)"/>
      <use xlink:href="#DejaVuSans-64" transform="translate(142.859375 0)"/>
      <use xlink:href="#DejaVuSans-20" transform="translate(206.335938 0)"/>
      <use xlink:href="#DejaVuSans-31" transform="translate(238.123047 0)"/>
      <use xlink:href="#DejaVuSans-35" transform="translate(301.746094 0)"/>
      <use xlink:href="#DejaVuSans-20" transform="translate(365.369141 0)"/>
      <use xlink:href="#DejaVuSans-54" transform="translate(397.15625 0)"/>
      <use xlink:href="#DejaVuSans-72" transform="translate(443.490234 0)"/>
      <use xlink:href="#DejaVuSans-61" transform="translate(484.603516 0)"/>
      <use xlink:href="#DejaVuSans-69" transform="translate(545.882812 0)"/>
      <use xlink:href="#DejaVuSans-6e" transform="translate(573.666016 0)"/>
      <use xlink:href="#DejaVuSans-69" transform="translate(637.044922 0)"/>
      <use xlink:href="#DejaVuSans-6e" transform="translate(664.828125 0)"/>
      <use xlink:href="#DejaVuSans-67" transform="translate(728.207031 0)"/>
      <use xlink:href="#DejaVuSans-20" transform="translate(791.683594 0)"/>
      <use xlink:href="#DejaVuSans-4c" transform="translate(823.470703 0)"/>
      <use xlink:href="#DejaVuSans-6f" transform="translate(877.433594 0)"/>
      <use xlink:href="#DejaVuSans-73" transform="translate(938.615234 0)"/>
      <use xlink:href="#DejaVuSans-73" transform="translate(990.714844 0)"/>
     </g>
    </g>
    <g id="line2d_58">
     <path d="M 636.320312 285.110312 
L 646.320312 285.110312 
L 656.320312 285.110312 
" style="fill: none; stroke: #5ec962; stroke-width: 1.5; stroke-linecap: square"/>
    </g>
    <g id="text_36">
     <!-- Fold 16 Training Loss -->
     <g transform="translate(664.320312 288.610312) scale(0.1 -0.1)">
      <use xlink:href="#DejaVuSans-46"/>
      <use xlink:href="#DejaVuSans-6f" transform="translate(53.894531 0)"/>
      <use xlink:href="#DejaVuSans-6c" transform="translate(115.076172 0)"/>
      <use xlink:href="#DejaVuSans-64" transform="translate(142.859375 0)"/>
      <use xlink:href="#DejaVuSans-20" transform="translate(206.335938 0)"/>
      <use xlink:href="#DejaVuSans-31" transform="translate(238.123047 0)"/>
      <use xlink:href="#DejaVuSans-36" transform="translate(301.746094 0)"/>
      <use xlink:href="#DejaVuSans-20" transform="translate(365.369141 0)"/>
      <use xlink:href="#DejaVuSans-54" transform="translate(397.15625 0)"/>
      <use xlink:href="#DejaVuSans-72" transform="translate(443.490234 0)"/>
      <use xlink:href="#DejaVuSans-61" transform="translate(484.603516 0)"/>
      <use xlink:href="#DejaVuSans-69" transform="translate(545.882812 0)"/>
      <use xlink:href="#DejaVuSans-6e" transform="translate(573.666016 0)"/>
      <use xlink:href="#DejaVuSans-69" transform="translate(637.044922 0)"/>
      <use xlink:href="#DejaVuSans-6e" transform="translate(664.828125 0)"/>
      <use xlink:href="#DejaVuSans-67" transform="translate(728.207031 0)"/>
      <use xlink:href="#DejaVuSans-20" transform="translate(791.683594 0)"/>
      <use xlink:href="#DejaVuSans-4c" transform="translate(823.470703 0)"/>
      <use xlink:href="#DejaVuSans-6f" transform="translate(877.433594 0)"/>
      <use xlink:href="#DejaVuSans-73" transform="translate(938.615234 0)"/>
      <use xlink:href="#DejaVuSans-73" transform="translate(990.714844 0)"/>
     </g>
    </g>
    <g id="line2d_59">
     <path d="M 636.320312 299.788437 
L 646.320312 299.788437 
L 656.320312 299.788437 
" style="fill: none; stroke: #5ec962; stroke-width: 1.5; stroke-linecap: square"/>
    </g>
    <g id="text_37">
     <!-- Fold 17 Training Loss -->
     <g transform="translate(664.320312 303.288437) scale(0.1 -0.1)">
      <use xlink:href="#DejaVuSans-46"/>
      <use xlink:href="#DejaVuSans-6f" transform="translate(53.894531 0)"/>
      <use xlink:href="#DejaVuSans-6c" transform="translate(115.076172 0)"/>
      <use xlink:href="#DejaVuSans-64" transform="translate(142.859375 0)"/>
      <use xlink:href="#DejaVuSans-20" transform="translate(206.335938 0)"/>
      <use xlink:href="#DejaVuSans-31" transform="translate(238.123047 0)"/>
      <use xlink:href="#DejaVuSans-37" transform="translate(301.746094 0)"/>
      <use xlink:href="#DejaVuSans-20" transform="translate(365.369141 0)"/>
      <use xlink:href="#DejaVuSans-54" transform="translate(397.15625 0)"/>
      <use xlink:href="#DejaVuSans-72" transform="translate(443.490234 0)"/>
      <use xlink:href="#DejaVuSans-61" transform="translate(484.603516 0)"/>
      <use xlink:href="#DejaVuSans-69" transform="translate(545.882812 0)"/>
      <use xlink:href="#DejaVuSans-6e" transform="translate(573.666016 0)"/>
      <use xlink:href="#DejaVuSans-69" transform="translate(637.044922 0)"/>
      <use xlink:href="#DejaVuSans-6e" transform="translate(664.828125 0)"/>
      <use xlink:href="#DejaVuSans-67" transform="translate(728.207031 0)"/>
      <use xlink:href="#DejaVuSans-20" transform="translate(791.683594 0)"/>
      <use xlink:href="#DejaVuSans-4c" transform="translate(823.470703 0)"/>
      <use xlink:href="#DejaVuSans-6f" transform="translate(877.433594 0)"/>
      <use xlink:href="#DejaVuSans-73" transform="translate(938.615234 0)"/>
      <use xlink:href="#DejaVuSans-73" transform="translate(990.714844 0)"/>
     </g>
    </g>
    <g id="line2d_60">
     <path d="M 636.320312 314.466562 
L 646.320312 314.466562 
L 656.320312 314.466562 
" style="fill: none; stroke: #5ec962; stroke-width: 1.5; stroke-linecap: square"/>
    </g>
    <g id="text_38">
     <!-- Fold 18 Training Loss -->
     <g transform="translate(664.320312 317.966562) scale(0.1 -0.1)">
      <use xlink:href="#DejaVuSans-46"/>
      <use xlink:href="#DejaVuSans-6f" transform="translate(53.894531 0)"/>
      <use xlink:href="#DejaVuSans-6c" transform="translate(115.076172 0)"/>
      <use xlink:href="#DejaVuSans-64" transform="translate(142.859375 0)"/>
      <use xlink:href="#DejaVuSans-20" transform="translate(206.335938 0)"/>
      <use xlink:href="#DejaVuSans-31" transform="translate(238.123047 0)"/>
      <use xlink:href="#DejaVuSans-38" transform="translate(301.746094 0)"/>
      <use xlink:href="#DejaVuSans-20" transform="translate(365.369141 0)"/>
      <use xlink:href="#DejaVuSans-54" transform="translate(397.15625 0)"/>
      <use xlink:href="#DejaVuSans-72" transform="translate(443.490234 0)"/>
      <use xlink:href="#DejaVuSans-61" transform="translate(484.603516 0)"/>
      <use xlink:href="#DejaVuSans-69" transform="translate(545.882812 0)"/>
      <use xlink:href="#DejaVuSans-6e" transform="translate(573.666016 0)"/>
      <use xlink:href="#DejaVuSans-69" transform="translate(637.044922 0)"/>
      <use xlink:href="#DejaVuSans-6e" transform="translate(664.828125 0)"/>
      <use xlink:href="#DejaVuSans-67" transform="translate(728.207031 0)"/>
      <use xlink:href="#DejaVuSans-20" transform="translate(791.683594 0)"/>
      <use xlink:href="#DejaVuSans-4c" transform="translate(823.470703 0)"/>
      <use xlink:href="#DejaVuSans-6f" transform="translate(877.433594 0)"/>
      <use xlink:href="#DejaVuSans-73" transform="translate(938.615234 0)"/>
      <use xlink:href="#DejaVuSans-73" transform="translate(990.714844 0)"/>
     </g>
    </g>
    <g id="line2d_61">
     <path d="M 636.320312 329.144687 
L 646.320312 329.144687 
L 656.320312 329.144687 
" style="fill: none; stroke: #5ec962; stroke-width: 1.5; stroke-linecap: square"/>
    </g>
    <g id="text_39">
     <!-- Fold 19 Training Loss -->
     <g transform="translate(664.320312 332.644687) scale(0.1 -0.1)">
      <use xlink:href="#DejaVuSans-46"/>
      <use xlink:href="#DejaVuSans-6f" transform="translate(53.894531 0)"/>
      <use xlink:href="#DejaVuSans-6c" transform="translate(115.076172 0)"/>
      <use xlink:href="#DejaVuSans-64" transform="translate(142.859375 0)"/>
      <use xlink:href="#DejaVuSans-20" transform="translate(206.335938 0)"/>
      <use xlink:href="#DejaVuSans-31" transform="translate(238.123047 0)"/>
      <use xlink:href="#DejaVuSans-39" transform="translate(301.746094 0)"/>
      <use xlink:href="#DejaVuSans-20" transform="translate(365.369141 0)"/>
      <use xlink:href="#DejaVuSans-54" transform="translate(397.15625 0)"/>
      <use xlink:href="#DejaVuSans-72" transform="translate(443.490234 0)"/>
      <use xlink:href="#DejaVuSans-61" transform="translate(484.603516 0)"/>
      <use xlink:href="#DejaVuSans-69" transform="translate(545.882812 0)"/>
      <use xlink:href="#DejaVuSans-6e" transform="translate(573.666016 0)"/>
      <use xlink:href="#DejaVuSans-69" transform="translate(637.044922 0)"/>
      <use xlink:href="#DejaVuSans-6e" transform="translate(664.828125 0)"/>
      <use xlink:href="#DejaVuSans-67" transform="translate(728.207031 0)"/>
      <use xlink:href="#DejaVuSans-20" transform="translate(791.683594 0)"/>
      <use xlink:href="#DejaVuSans-4c" transform="translate(823.470703 0)"/>
      <use xlink:href="#DejaVuSans-6f" transform="translate(877.433594 0)"/>
      <use xlink:href="#DejaVuSans-73" transform="translate(938.615234 0)"/>
      <use xlink:href="#DejaVuSans-73" transform="translate(990.714844 0)"/>
     </g>
    </g>
    <g id="line2d_62">
     <path d="M 636.320312 343.822812 
L 646.320312 343.822812 
L 656.320312 343.822812 
" style="fill: none; stroke: #5ec962; stroke-width: 1.5; stroke-linecap: square"/>
    </g>
    <g id="text_40">
     <!-- Fold 20 Training Loss -->
     <g transform="translate(664.320312 347.322812) scale(0.1 -0.1)">
      <use xlink:href="#DejaVuSans-46"/>
      <use xlink:href="#DejaVuSans-6f" transform="translate(53.894531 0)"/>
      <use xlink:href="#DejaVuSans-6c" transform="translate(115.076172 0)"/>
      <use xlink:href="#DejaVuSans-64" transform="translate(142.859375 0)"/>
      <use xlink:href="#DejaVuSans-20" transform="translate(206.335938 0)"/>
      <use xlink:href="#DejaVuSans-32" transform="translate(238.123047 0)"/>
      <use xlink:href="#DejaVuSans-30" transform="translate(301.746094 0)"/>
      <use xlink:href="#DejaVuSans-20" transform="translate(365.369141 0)"/>
      <use xlink:href="#DejaVuSans-54" transform="translate(397.15625 0)"/>
      <use xlink:href="#DejaVuSans-72" transform="translate(443.490234 0)"/>
      <use xlink:href="#DejaVuSans-61" transform="translate(484.603516 0)"/>
      <use xlink:href="#DejaVuSans-69" transform="translate(545.882812 0)"/>
      <use xlink:href="#DejaVuSans-6e" transform="translate(573.666016 0)"/>
      <use xlink:href="#DejaVuSans-69" transform="translate(637.044922 0)"/>
      <use xlink:href="#DejaVuSans-6e" transform="translate(664.828125 0)"/>
      <use xlink:href="#DejaVuSans-67" transform="translate(728.207031 0)"/>
      <use xlink:href="#DejaVuSans-20" transform="translate(791.683594 0)"/>
      <use xlink:href="#DejaVuSans-4c" transform="translate(823.470703 0)"/>
      <use xlink:href="#DejaVuSans-6f" transform="translate(877.433594 0)"/>
      <use xlink:href="#DejaVuSans-73" transform="translate(938.615234 0)"/>
      <use xlink:href="#DejaVuSans-73" transform="translate(990.714844 0)"/>
     </g>
    </g>
    <g id="line2d_63">
     <path d="M 636.320312 358.500937 
L 646.320312 358.500937 
L 656.320312 358.500937 
" style="fill: none; stroke: #fde725; stroke-width: 1.5; stroke-linecap: square"/>
    </g>
    <g id="text_41">
     <!-- Fold 21 Training Loss -->
     <g transform="translate(664.320312 362.000937) scale(0.1 -0.1)">
      <use xlink:href="#DejaVuSans-46"/>
      <use xlink:href="#DejaVuSans-6f" transform="translate(53.894531 0)"/>
      <use xlink:href="#DejaVuSans-6c" transform="translate(115.076172 0)"/>
      <use xlink:href="#DejaVuSans-64" transform="translate(142.859375 0)"/>
      <use xlink:href="#DejaVuSans-20" transform="translate(206.335938 0)"/>
      <use xlink:href="#DejaVuSans-32" transform="translate(238.123047 0)"/>
      <use xlink:href="#DejaVuSans-31" transform="translate(301.746094 0)"/>
      <use xlink:href="#DejaVuSans-20" transform="translate(365.369141 0)"/>
      <use xlink:href="#DejaVuSans-54" transform="translate(397.15625 0)"/>
      <use xlink:href="#DejaVuSans-72" transform="translate(443.490234 0)"/>
      <use xlink:href="#DejaVuSans-61" transform="translate(484.603516 0)"/>
      <use xlink:href="#DejaVuSans-69" transform="translate(545.882812 0)"/>
      <use xlink:href="#DejaVuSans-6e" transform="translate(573.666016 0)"/>
      <use xlink:href="#DejaVuSans-69" transform="translate(637.044922 0)"/>
      <use xlink:href="#DejaVuSans-6e" transform="translate(664.828125 0)"/>
      <use xlink:href="#DejaVuSans-67" transform="translate(728.207031 0)"/>
      <use xlink:href="#DejaVuSans-20" transform="translate(791.683594 0)"/>
      <use xlink:href="#DejaVuSans-4c" transform="translate(823.470703 0)"/>
      <use xlink:href="#DejaVuSans-6f" transform="translate(877.433594 0)"/>
      <use xlink:href="#DejaVuSans-73" transform="translate(938.615234 0)"/>
      <use xlink:href="#DejaVuSans-73" transform="translate(990.714844 0)"/>
     </g>
    </g>
    <g id="line2d_64">
     <path d="M 636.320312 373.179062 
L 646.320312 373.179062 
L 656.320312 373.179062 
" style="fill: none; stroke: #fde725; stroke-width: 1.5; stroke-linecap: square"/>
    </g>
    <g id="text_42">
     <!-- Fold 22 Training Loss -->
     <g transform="translate(664.320312 376.679062) scale(0.1 -0.1)">
      <use xlink:href="#DejaVuSans-46"/>
      <use xlink:href="#DejaVuSans-6f" transform="translate(53.894531 0)"/>
      <use xlink:href="#DejaVuSans-6c" transform="translate(115.076172 0)"/>
      <use xlink:href="#DejaVuSans-64" transform="translate(142.859375 0)"/>
      <use xlink:href="#DejaVuSans-20" transform="translate(206.335938 0)"/>
      <use xlink:href="#DejaVuSans-32" transform="translate(238.123047 0)"/>
      <use xlink:href="#DejaVuSans-32" transform="translate(301.746094 0)"/>
      <use xlink:href="#DejaVuSans-20" transform="translate(365.369141 0)"/>
      <use xlink:href="#DejaVuSans-54" transform="translate(397.15625 0)"/>
      <use xlink:href="#DejaVuSans-72" transform="translate(443.490234 0)"/>
      <use xlink:href="#DejaVuSans-61" transform="translate(484.603516 0)"/>
      <use xlink:href="#DejaVuSans-69" transform="translate(545.882812 0)"/>
      <use xlink:href="#DejaVuSans-6e" transform="translate(573.666016 0)"/>
      <use xlink:href="#DejaVuSans-69" transform="translate(637.044922 0)"/>
      <use xlink:href="#DejaVuSans-6e" transform="translate(664.828125 0)"/>
      <use xlink:href="#DejaVuSans-67" transform="translate(728.207031 0)"/>
      <use xlink:href="#DejaVuSans-20" transform="translate(791.683594 0)"/>
      <use xlink:href="#DejaVuSans-4c" transform="translate(823.470703 0)"/>
      <use xlink:href="#DejaVuSans-6f" transform="translate(877.433594 0)"/>
      <use xlink:href="#DejaVuSans-73" transform="translate(938.615234 0)"/>
      <use xlink:href="#DejaVuSans-73" transform="translate(990.714844 0)"/>
     </g>
    </g>
    <g id="line2d_65">
     <path d="M 636.320312 387.857188 
L 646.320312 387.857188 
L 656.320312 387.857188 
" style="fill: none; stroke: #fde725; stroke-width: 1.5; stroke-linecap: square"/>
    </g>
    <g id="text_43">
     <!-- Fold 23 Training Loss -->
     <g transform="translate(664.320312 391.357188) scale(0.1 -0.1)">
      <use xlink:href="#DejaVuSans-46"/>
      <use xlink:href="#DejaVuSans-6f" transform="translate(53.894531 0)"/>
      <use xlink:href="#DejaVuSans-6c" transform="translate(115.076172 0)"/>
      <use xlink:href="#DejaVuSans-64" transform="translate(142.859375 0)"/>
      <use xlink:href="#DejaVuSans-20" transform="translate(206.335938 0)"/>
      <use xlink:href="#DejaVuSans-32" transform="translate(238.123047 0)"/>
      <use xlink:href="#DejaVuSans-33" transform="translate(301.746094 0)"/>
      <use xlink:href="#DejaVuSans-20" transform="translate(365.369141 0)"/>
      <use xlink:href="#DejaVuSans-54" transform="translate(397.15625 0)"/>
      <use xlink:href="#DejaVuSans-72" transform="translate(443.490234 0)"/>
      <use xlink:href="#DejaVuSans-61" transform="translate(484.603516 0)"/>
      <use xlink:href="#DejaVuSans-69" transform="translate(545.882812 0)"/>
      <use xlink:href="#DejaVuSans-6e" transform="translate(573.666016 0)"/>
      <use xlink:href="#DejaVuSans-69" transform="translate(637.044922 0)"/>
      <use xlink:href="#DejaVuSans-6e" transform="translate(664.828125 0)"/>
      <use xlink:href="#DejaVuSans-67" transform="translate(728.207031 0)"/>
      <use xlink:href="#DejaVuSans-20" transform="translate(791.683594 0)"/>
      <use xlink:href="#DejaVuSans-4c" transform="translate(823.470703 0)"/>
      <use xlink:href="#DejaVuSans-6f" transform="translate(877.433594 0)"/>
      <use xlink:href="#DejaVuSans-73" transform="translate(938.615234 0)"/>
      <use xlink:href="#DejaVuSans-73" transform="translate(990.714844 0)"/>
     </g>
    </g>
    <g id="line2d_66">
     <path d="M 636.320312 402.535313 
L 646.320312 402.535313 
L 656.320312 402.535313 
" style="fill: none; stroke: #fde725; stroke-width: 1.5; stroke-linecap: square"/>
    </g>
    <g id="text_44">
     <!-- Fold 24 Training Loss -->
     <g transform="translate(664.320312 406.035313) scale(0.1 -0.1)">
      <use xlink:href="#DejaVuSans-46"/>
      <use xlink:href="#DejaVuSans-6f" transform="translate(53.894531 0)"/>
      <use xlink:href="#DejaVuSans-6c" transform="translate(115.076172 0)"/>
      <use xlink:href="#DejaVuSans-64" transform="translate(142.859375 0)"/>
      <use xlink:href="#DejaVuSans-20" transform="translate(206.335938 0)"/>
      <use xlink:href="#DejaVuSans-32" transform="translate(238.123047 0)"/>
      <use xlink:href="#DejaVuSans-34" transform="translate(301.746094 0)"/>
      <use xlink:href="#DejaVuSans-20" transform="translate(365.369141 0)"/>
      <use xlink:href="#DejaVuSans-54" transform="translate(397.15625 0)"/>
      <use xlink:href="#DejaVuSans-72" transform="translate(443.490234 0)"/>
      <use xlink:href="#DejaVuSans-61" transform="translate(484.603516 0)"/>
      <use xlink:href="#DejaVuSans-69" transform="translate(545.882812 0)"/>
      <use xlink:href="#DejaVuSans-6e" transform="translate(573.666016 0)"/>
      <use xlink:href="#DejaVuSans-69" transform="translate(637.044922 0)"/>
      <use xlink:href="#DejaVuSans-6e" transform="translate(664.828125 0)"/>
      <use xlink:href="#DejaVuSans-67" transform="translate(728.207031 0)"/>
      <use xlink:href="#DejaVuSans-20" transform="translate(791.683594 0)"/>
      <use xlink:href="#DejaVuSans-4c" transform="translate(823.470703 0)"/>
      <use xlink:href="#DejaVuSans-6f" transform="translate(877.433594 0)"/>
      <use xlink:href="#DejaVuSans-73" transform="translate(938.615234 0)"/>
      <use xlink:href="#DejaVuSans-73" transform="translate(990.714844 0)"/>
     </g>
    </g>
    <g id="line2d_67">
     <path d="M 636.320312 417.213438 
L 646.320312 417.213438 
L 656.320312 417.213438 
" style="fill: none; stroke: #fde725; stroke-width: 1.5; stroke-linecap: square"/>
    </g>
    <g id="text_45">
     <!-- Fold 25 Training Loss -->
     <g transform="translate(664.320312 420.713438) scale(0.1 -0.1)">
      <use xlink:href="#DejaVuSans-46"/>
      <use xlink:href="#DejaVuSans-6f" transform="translate(53.894531 0)"/>
      <use xlink:href="#DejaVuSans-6c" transform="translate(115.076172 0)"/>
      <use xlink:href="#DejaVuSans-64" transform="translate(142.859375 0)"/>
      <use xlink:href="#DejaVuSans-20" transform="translate(206.335938 0)"/>
      <use xlink:href="#DejaVuSans-32" transform="translate(238.123047 0)"/>
      <use xlink:href="#DejaVuSans-35" transform="translate(301.746094 0)"/>
      <use xlink:href="#DejaVuSans-20" transform="translate(365.369141 0)"/>
      <use xlink:href="#DejaVuSans-54" transform="translate(397.15625 0)"/>
      <use xlink:href="#DejaVuSans-72" transform="translate(443.490234 0)"/>
      <use xlink:href="#DejaVuSans-61" transform="translate(484.603516 0)"/>
      <use xlink:href="#DejaVuSans-69" transform="translate(545.882812 0)"/>
      <use xlink:href="#DejaVuSans-6e" transform="translate(573.666016 0)"/>
      <use xlink:href="#DejaVuSans-69" transform="translate(637.044922 0)"/>
      <use xlink:href="#DejaVuSans-6e" transform="translate(664.828125 0)"/>
      <use xlink:href="#DejaVuSans-67" transform="translate(728.207031 0)"/>
      <use xlink:href="#DejaVuSans-20" transform="translate(791.683594 0)"/>
      <use xlink:href="#DejaVuSans-4c" transform="translate(823.470703 0)"/>
      <use xlink:href="#DejaVuSans-6f" transform="translate(877.433594 0)"/>
      <use xlink:href="#DejaVuSans-73" transform="translate(938.615234 0)"/>
      <use xlink:href="#DejaVuSans-73" transform="translate(990.714844 0)"/>
     </g>
    </g>
   </g>
  </g>
 </g>
 <defs>
  <clipPath id="p6dcf2fb6d1">
   <rect x="108" y="51.84" width="669.6" height="332.64"/>
  </clipPath>
 </defs>
</svg>
