<?xml version="1.0" encoding="utf-8" standalone="no"?>
<!DOCTYPE svg PUBLIC "-//W3C//DTD SVG 1.1//EN"
  "http://www.w3.org/Graphics/SVG/1.1/DTD/svg11.dtd">
<svg xmlns:xlink="http://www.w3.org/1999/xlink" width="864pt" height="432pt" viewBox="0 0 864 432" xmlns="http://www.w3.org/2000/svg" version="1.1">
 <metadata>
  <rdf:RDF xmlns:dc="http://purl.org/dc/elements/1.1/" xmlns:cc="http://creativecommons.org/ns#" xmlns:rdf="http://www.w3.org/1999/02/22-rdf-syntax-ns#">
   <cc:Work>
    <dc:type rdf:resource="http://purl.org/dc/dcmitype/StillImage"/>
    <dc:date>2025-03-24T07:47:37.222853</dc:date>
    <dc:format>image/svg+xml</dc:format>
    <dc:creator>
     <cc:Agent>
      <dc:title>Matplotlib v3.10.0, https://matplotlib.org/</dc:title>
     </cc:Agent>
    </dc:creator>
   </cc:Work>
  </rdf:RDF>
 </metadata>
 <defs>
  <style type="text/css">*{stroke-linejoin: round; stroke-linecap: butt}</style>
 </defs>
 <g id="figure_1">
  <g id="patch_1">
   <path d="M 0 432 
L 864 432 
L 864 0 
L 0 0 
z
" style="fill: #ffffff"/>
  </g>
  <g id="axes_1">
   <g id="patch_2">
    <path d="M 108 384.48 
L 777.6 384.48 
L 777.6 51.84 
L 108 51.84 
z
" style="fill: #ffffff"/>
   </g>
   <g id="matplotlib.axis_1">
    <g id="xtick_1">
     <g id="line2d_1">
      <defs>
       <path id="m8396b9d1e5" d="M 0 0 
L 0 3.5 
" style="stroke: #000000; stroke-width: 0.8"/>
      </defs>
      <g>
       <use xlink:href="#m8396b9d1e5" x="126.013358" y="384.48" style="stroke: #000000; stroke-width: 0.8"/>
      </g>
     </g>
     <g id="text_1">
      <!-- 0 -->
      <g transform="translate(122.832108 399.078438) scale(0.1 -0.1)">
       <defs>
        <path id="DejaVuSans-30" d="M 2034 4250 
Q 1547 4250 1301 3770 
Q 1056 3291 1056 2328 
Q 1056 1369 1301 889 
Q 1547 409 2034 409 
Q 2525 409 2770 889 
Q 3016 1369 3016 2328 
Q 3016 3291 2770 3770 
Q 2525 4250 2034 4250 
z
M 2034 4750 
Q 2819 4750 3233 4129 
Q 3647 3509 3647 2328 
Q 3647 1150 3233 529 
Q 2819 -91 2034 -91 
Q 1250 -91 836 529 
Q 422 1150 422 2328 
Q 422 3509 836 4129 
Q 1250 4750 2034 4750 
z
" transform="scale(0.015625)"/>
       </defs>
       <use xlink:href="#DejaVuSans-30"/>
      </g>
     </g>
    </g>
    <g id="xtick_2">
     <g id="line2d_2">
      <g>
       <use xlink:href="#m8396b9d1e5" x="250.243414" y="384.48" style="stroke: #000000; stroke-width: 0.8"/>
      </g>
     </g>
     <g id="text_2">
      <!-- 10 -->
      <g transform="translate(243.880914 399.078438) scale(0.1 -0.1)">
       <defs>
        <path id="DejaVuSans-31" d="M 794 531 
L 1825 531 
L 1825 4091 
L 703 3866 
L 703 4441 
L 1819 4666 
L 2450 4666 
L 2450 531 
L 3481 531 
L 3481 0 
L 794 0 
L 794 531 
z
" transform="scale(0.015625)"/>
       </defs>
       <use xlink:href="#DejaVuSans-31"/>
       <use xlink:href="#DejaVuSans-30" transform="translate(63.623047 0)"/>
      </g>
     </g>
    </g>
    <g id="xtick_3">
     <g id="line2d_3">
      <g>
       <use xlink:href="#m8396b9d1e5" x="374.473469" y="384.48" style="stroke: #000000; stroke-width: 0.8"/>
      </g>
     </g>
     <g id="text_3">
      <!-- 20 -->
      <g transform="translate(368.110969 399.078438) scale(0.1 -0.1)">
       <defs>
        <path id="DejaVuSans-32" d="M 1228 531 
L 3431 531 
L 3431 0 
L 469 0 
L 469 531 
Q 828 903 1448 1529 
Q 2069 2156 2228 2338 
Q 2531 2678 2651 2914 
Q 2772 3150 2772 3378 
Q 2772 3750 2511 3984 
Q 2250 4219 1831 4219 
Q 1534 4219 1204 4116 
Q 875 4013 500 3803 
L 500 4441 
Q 881 4594 1212 4672 
Q 1544 4750 1819 4750 
Q 2544 4750 2975 4387 
Q 3406 4025 3406 3419 
Q 3406 3131 3298 2873 
Q 3191 2616 2906 2266 
Q 2828 2175 2409 1742 
Q 1991 1309 1228 531 
z
" transform="scale(0.015625)"/>
       </defs>
       <use xlink:href="#DejaVuSans-32"/>
       <use xlink:href="#DejaVuSans-30" transform="translate(63.623047 0)"/>
      </g>
     </g>
    </g>
    <g id="xtick_4">
     <g id="line2d_4">
      <g>
       <use xlink:href="#m8396b9d1e5" x="498.703525" y="384.48" style="stroke: #000000; stroke-width: 0.8"/>
      </g>
     </g>
     <g id="text_4">
      <!-- 30 -->
      <g transform="translate(492.341025 399.078438) scale(0.1 -0.1)">
       <defs>
        <path id="DejaVuSans-33" d="M 2597 2516 
Q 3050 2419 3304 2112 
Q 3559 1806 3559 1356 
Q 3559 666 3084 287 
Q 2609 -91 1734 -91 
Q 1441 -91 1130 -33 
Q 819 25 488 141 
L 488 750 
Q 750 597 1062 519 
Q 1375 441 1716 441 
Q 2309 441 2620 675 
Q 2931 909 2931 1356 
Q 2931 1769 2642 2001 
Q 2353 2234 1838 2234 
L 1294 2234 
L 1294 2753 
L 1863 2753 
Q 2328 2753 2575 2939 
Q 2822 3125 2822 3475 
Q 2822 3834 2567 4026 
Q 2313 4219 1838 4219 
Q 1578 4219 1281 4162 
Q 984 4106 628 3988 
L 628 4550 
Q 988 4650 1302 4700 
Q 1616 4750 1894 4750 
Q 2613 4750 3031 4423 
Q 3450 4097 3450 3541 
Q 3450 3153 3228 2886 
Q 3006 2619 2597 2516 
z
" transform="scale(0.015625)"/>
       </defs>
       <use xlink:href="#DejaVuSans-33"/>
       <use xlink:href="#DejaVuSans-30" transform="translate(63.623047 0)"/>
      </g>
     </g>
    </g>
    <g id="xtick_5">
     <g id="line2d_5">
      <g>
       <use xlink:href="#m8396b9d1e5" x="622.933581" y="384.48" style="stroke: #000000; stroke-width: 0.8"/>
      </g>
     </g>
     <g id="text_5">
      <!-- 40 -->
      <g transform="translate(616.571081 399.078438) scale(0.1 -0.1)">
       <defs>
        <path id="DejaVuSans-34" d="M 2419 4116 
L 825 1625 
L 2419 1625 
L 2419 4116 
z
M 2253 4666 
L 3047 4666 
L 3047 1625 
L 3713 1625 
L 3713 1100 
L 3047 1100 
L 3047 0 
L 2419 0 
L 2419 1100 
L 313 1100 
L 313 1709 
L 2253 4666 
z
" transform="scale(0.015625)"/>
       </defs>
       <use xlink:href="#DejaVuSans-34"/>
       <use xlink:href="#DejaVuSans-30" transform="translate(63.623047 0)"/>
      </g>
     </g>
    </g>
    <g id="xtick_6">
     <g id="line2d_6">
      <g>
       <use xlink:href="#m8396b9d1e5" x="747.163636" y="384.48" style="stroke: #000000; stroke-width: 0.8"/>
      </g>
     </g>
     <g id="text_6">
      <!-- 50 -->
      <g transform="translate(740.801136 399.078438) scale(0.1 -0.1)">
       <defs>
        <path id="DejaVuSans-35" d="M 691 4666 
L 3169 4666 
L 3169 4134 
L 1269 4134 
L 1269 2991 
Q 1406 3038 1543 3061 
Q 1681 3084 1819 3084 
Q 2600 3084 3056 2656 
Q 3513 2228 3513 1497 
Q 3513 744 3044 326 
Q 2575 -91 1722 -91 
Q 1428 -91 1123 -41 
Q 819 9 494 109 
L 494 744 
Q 775 591 1075 516 
Q 1375 441 1709 441 
Q 2250 441 2565 725 
Q 2881 1009 2881 1497 
Q 2881 1984 2565 2268 
Q 2250 2553 1709 2553 
Q 1456 2553 1204 2497 
Q 953 2441 691 2322 
L 691 4666 
z
" transform="scale(0.015625)"/>
       </defs>
       <use xlink:href="#DejaVuSans-35"/>
       <use xlink:href="#DejaVuSans-30" transform="translate(63.623047 0)"/>
      </g>
     </g>
    </g>
    <g id="text_7">
     <!-- Epochs -->
     <g transform="translate(424.884375 412.756563) scale(0.1 -0.1)">
      <defs>
       <path id="DejaVuSans-45" d="M 628 4666 
L 3578 4666 
L 3578 4134 
L 1259 4134 
L 1259 2753 
L 3481 2753 
L 3481 2222 
L 1259 2222 
L 1259 531 
L 3634 531 
L 3634 0 
L 628 0 
L 628 4666 
z
" transform="scale(0.015625)"/>
       <path id="DejaVuSans-70" d="M 1159 525 
L 1159 -1331 
L 581 -1331 
L 581 3500 
L 1159 3500 
L 1159 2969 
Q 1341 3281 1617 3432 
Q 1894 3584 2278 3584 
Q 2916 3584 3314 3078 
Q 3713 2572 3713 1747 
Q 3713 922 3314 415 
Q 2916 -91 2278 -91 
Q 1894 -91 1617 61 
Q 1341 213 1159 525 
z
M 3116 1747 
Q 3116 2381 2855 2742 
Q 2594 3103 2138 3103 
Q 1681 3103 1420 2742 
Q 1159 2381 1159 1747 
Q 1159 1113 1420 752 
Q 1681 391 2138 391 
Q 2594 391 2855 752 
Q 3116 1113 3116 1747 
z
" transform="scale(0.015625)"/>
       <path id="DejaVuSans-6f" d="M 1959 3097 
Q 1497 3097 1228 2736 
Q 959 2375 959 1747 
Q 959 1119 1226 758 
Q 1494 397 1959 397 
Q 2419 397 2687 759 
Q 2956 1122 2956 1747 
Q 2956 2369 2687 2733 
Q 2419 3097 1959 3097 
z
M 1959 3584 
Q 2709 3584 3137 3096 
Q 3566 2609 3566 1747 
Q 3566 888 3137 398 
Q 2709 -91 1959 -91 
Q 1206 -91 779 398 
Q 353 888 353 1747 
Q 353 2609 779 3096 
Q 1206 3584 1959 3584 
z
" transform="scale(0.015625)"/>
       <path id="DejaVuSans-63" d="M 3122 3366 
L 3122 2828 
Q 2878 2963 2633 3030 
Q 2388 3097 2138 3097 
Q 1578 3097 1268 2742 
Q 959 2388 959 1747 
Q 959 1106 1268 751 
Q 1578 397 2138 397 
Q 2388 397 2633 464 
Q 2878 531 3122 666 
L 3122 134 
Q 2881 22 2623 -34 
Q 2366 -91 2075 -91 
Q 1284 -91 818 406 
Q 353 903 353 1747 
Q 353 2603 823 3093 
Q 1294 3584 2113 3584 
Q 2378 3584 2631 3529 
Q 2884 3475 3122 3366 
z
" transform="scale(0.015625)"/>
       <path id="DejaVuSans-68" d="M 3513 2113 
L 3513 0 
L 2938 0 
L 2938 2094 
Q 2938 2591 2744 2837 
Q 2550 3084 2163 3084 
Q 1697 3084 1428 2787 
Q 1159 2491 1159 1978 
L 1159 0 
L 581 0 
L 581 4863 
L 1159 4863 
L 1159 2956 
Q 1366 3272 1645 3428 
Q 1925 3584 2291 3584 
Q 2894 3584 3203 3211 
Q 3513 2838 3513 2113 
z
" transform="scale(0.015625)"/>
       <path id="DejaVuSans-73" d="M 2834 3397 
L 2834 2853 
Q 2591 2978 2328 3040 
Q 2066 3103 1784 3103 
Q 1356 3103 1142 2972 
Q 928 2841 928 2578 
Q 928 2378 1081 2264 
Q 1234 2150 1697 2047 
L 1894 2003 
Q 2506 1872 2764 1633 
Q 3022 1394 3022 966 
Q 3022 478 2636 193 
Q 2250 -91 1575 -91 
Q 1294 -91 989 -36 
Q 684 19 347 128 
L 347 722 
Q 666 556 975 473 
Q 1284 391 1588 391 
Q 1994 391 2212 530 
Q 2431 669 2431 922 
Q 2431 1156 2273 1281 
Q 2116 1406 1581 1522 
L 1381 1569 
Q 847 1681 609 1914 
Q 372 2147 372 2553 
Q 372 3047 722 3315 
Q 1072 3584 1716 3584 
Q 2034 3584 2315 3537 
Q 2597 3491 2834 3397 
z
" transform="scale(0.015625)"/>
      </defs>
      <use xlink:href="#DejaVuSans-45"/>
      <use xlink:href="#DejaVuSans-70" transform="translate(63.183594 0)"/>
      <use xlink:href="#DejaVuSans-6f" transform="translate(126.660156 0)"/>
      <use xlink:href="#DejaVuSans-63" transform="translate(187.841797 0)"/>
      <use xlink:href="#DejaVuSans-68" transform="translate(242.822266 0)"/>
      <use xlink:href="#DejaVuSans-73" transform="translate(306.201172 0)"/>
     </g>
    </g>
   </g>
   <g id="matplotlib.axis_2">
    <g id="ytick_1">
     <g id="line2d_7">
      <defs>
       <path id="m217f797ad2" d="M 0 0 
L -3.5 0 
" style="stroke: #000000; stroke-width: 0.8"/>
      </defs>
      <g>
       <use xlink:href="#m217f797ad2" x="108" y="361.927239" style="stroke: #000000; stroke-width: 0.8"/>
      </g>
     </g>
     <g id="text_8">
      <!-- 0.3 -->
      <g transform="translate(85.096875 365.726458) scale(0.1 -0.1)">
       <defs>
        <path id="DejaVuSans-2e" d="M 684 794 
L 1344 794 
L 1344 0 
L 684 0 
L 684 794 
z
" transform="scale(0.015625)"/>
       </defs>
       <use xlink:href="#DejaVuSans-30"/>
       <use xlink:href="#DejaVuSans-2e" transform="translate(63.623047 0)"/>
       <use xlink:href="#DejaVuSans-33" transform="translate(95.410156 0)"/>
      </g>
     </g>
    </g>
    <g id="ytick_2">
     <g id="line2d_8">
      <g>
       <use xlink:href="#m217f797ad2" x="108" y="288.963431" style="stroke: #000000; stroke-width: 0.8"/>
      </g>
     </g>
     <g id="text_9">
      <!-- 0.4 -->
      <g transform="translate(85.096875 292.76265) scale(0.1 -0.1)">
       <use xlink:href="#DejaVuSans-30"/>
       <use xlink:href="#DejaVuSans-2e" transform="translate(63.623047 0)"/>
       <use xlink:href="#DejaVuSans-34" transform="translate(95.410156 0)"/>
      </g>
     </g>
    </g>
    <g id="ytick_3">
     <g id="line2d_9">
      <g>
       <use xlink:href="#m217f797ad2" x="108" y="215.999624" style="stroke: #000000; stroke-width: 0.8"/>
      </g>
     </g>
     <g id="text_10">
      <!-- 0.5 -->
      <g transform="translate(85.096875 219.798842) scale(0.1 -0.1)">
       <use xlink:href="#DejaVuSans-30"/>
       <use xlink:href="#DejaVuSans-2e" transform="translate(63.623047 0)"/>
       <use xlink:href="#DejaVuSans-35" transform="translate(95.410156 0)"/>
      </g>
     </g>
    </g>
    <g id="ytick_4">
     <g id="line2d_10">
      <g>
       <use xlink:href="#m217f797ad2" x="108" y="143.035816" style="stroke: #000000; stroke-width: 0.8"/>
      </g>
     </g>
     <g id="text_11">
      <!-- 0.6 -->
      <g transform="translate(85.096875 146.835034) scale(0.1 -0.1)">
       <defs>
        <path id="DejaVuSans-36" d="M 2113 2584 
Q 1688 2584 1439 2293 
Q 1191 2003 1191 1497 
Q 1191 994 1439 701 
Q 1688 409 2113 409 
Q 2538 409 2786 701 
Q 3034 994 3034 1497 
Q 3034 2003 2786 2293 
Q 2538 2584 2113 2584 
z
M 3366 4563 
L 3366 3988 
Q 3128 4100 2886 4159 
Q 2644 4219 2406 4219 
Q 1781 4219 1451 3797 
Q 1122 3375 1075 2522 
Q 1259 2794 1537 2939 
Q 1816 3084 2150 3084 
Q 2853 3084 3261 2657 
Q 3669 2231 3669 1497 
Q 3669 778 3244 343 
Q 2819 -91 2113 -91 
Q 1303 -91 875 529 
Q 447 1150 447 2328 
Q 447 3434 972 4092 
Q 1497 4750 2381 4750 
Q 2619 4750 2861 4703 
Q 3103 4656 3366 4563 
z
" transform="scale(0.015625)"/>
       </defs>
       <use xlink:href="#DejaVuSans-30"/>
       <use xlink:href="#DejaVuSans-2e" transform="translate(63.623047 0)"/>
       <use xlink:href="#DejaVuSans-36" transform="translate(95.410156 0)"/>
      </g>
     </g>
    </g>
    <g id="ytick_5">
     <g id="line2d_11">
      <g>
       <use xlink:href="#m217f797ad2" x="108" y="70.072008" style="stroke: #000000; stroke-width: 0.8"/>
      </g>
     </g>
     <g id="text_12">
      <!-- 0.7 -->
      <g transform="translate(85.096875 73.871226) scale(0.1 -0.1)">
       <defs>
        <path id="DejaVuSans-37" d="M 525 4666 
L 3525 4666 
L 3525 4397 
L 1831 0 
L 1172 0 
L 2766 4134 
L 525 4134 
L 525 4666 
z
" transform="scale(0.015625)"/>
       </defs>
       <use xlink:href="#DejaVuSans-30"/>
       <use xlink:href="#DejaVuSans-2e" transform="translate(63.623047 0)"/>
       <use xlink:href="#DejaVuSans-37" transform="translate(95.410156 0)"/>
      </g>
     </g>
    </g>
    <g id="text_13">
     <!-- Loss -->
     <g transform="translate(79.017187 229.127187) rotate(-90) scale(0.1 -0.1)">
      <defs>
       <path id="DejaVuSans-4c" d="M 628 4666 
L 1259 4666 
L 1259 531 
L 3531 531 
L 3531 0 
L 628 0 
L 628 4666 
z
" transform="scale(0.015625)"/>
      </defs>
      <use xlink:href="#DejaVuSans-4c"/>
      <use xlink:href="#DejaVuSans-6f" transform="translate(53.962891 0)"/>
      <use xlink:href="#DejaVuSans-73" transform="translate(115.144531 0)"/>
      <use xlink:href="#DejaVuSans-73" transform="translate(167.244141 0)"/>
     </g>
    </g>
   </g>
   <g id="line2d_12">
    <path d="M 138.436364 99.733367 
L 150.859369 186.952991 
L 163.282375 216.449947 
L 175.70538 230.042045 
L 188.128386 234.165869 
L 200.551391 235.006444 
L 212.974397 241.005865 
L 225.397403 240.249981 
L 237.820408 243.429982 
L 250.243414 246.519348 
L 262.666419 247.859912 
L 275.089425 250.991555 
L 287.51243 250.694883 
L 299.935436 252.430989 
L 312.358442 259.251267 
L 324.781447 256.1099 
L 337.204453 257.080122 
L 349.627458 265.875056 
L 362.050464 264.875034 
L 374.473469 267.649851 
L 386.896475 265.425069 
L 399.319481 274.263784 
L 411.742486 274.48651 
L 424.165492 273.047983 
L 436.588497 277.004739 
L 449.011503 275.647048 
L 461.434508 276.215422 
" clip-path="url(#pd0a0f1aa77)" style="fill: none; stroke: #440154; stroke-width: 1.5; stroke-linecap: square"/>
   </g>
   <g id="line2d_13">
    <path d="M 138.436364 96.532522 
L 150.859369 187.30498 
L 163.282375 206.560901 
L 175.70538 213.852558 
L 188.128386 223.462478 
L 200.551391 228.235299 
L 212.974397 231.540167 
L 225.397403 230.815759 
L 237.820408 237.712245 
L 250.243414 240.758992 
L 262.666419 240.192031 
L 275.089425 240.599159 
L 287.51243 240.827679 
L 299.935436 240.910238 
L 312.358442 239.632229 
" clip-path="url(#pd0a0f1aa77)" style="fill: none; stroke: #440154; stroke-width: 1.5; stroke-linecap: square"/>
   </g>
   <g id="line2d_14">
    <path d="M 138.436364 129.573504 
L 150.859369 190.617637 
L 163.282375 214.986088 
L 175.70538 217.19166 
L 188.128386 225.37105 
L 200.551391 228.704985 
L 212.974397 234.398707 
L 225.397403 232.913754 
L 237.820408 236.457565 
L 250.243414 241.083876 
L 262.666419 239.175852 
L 275.089425 235.8717 
L 287.51243 238.385108 
L 299.935436 234.924945 
" clip-path="url(#pd0a0f1aa77)" style="fill: none; stroke: #440154; stroke-width: 1.5; stroke-linecap: square"/>
   </g>
   <g id="line2d_15">
    <path d="M 138.436364 128.89767 
L 150.859369 185.851353 
L 163.282375 206.944816 
L 175.70538 215.170582 
L 188.128386 219.626102 
L 200.551391 224.786893 
L 212.974397 229.0645 
L 225.397403 231.735385 
L 237.820408 236.476338 
L 250.243414 235.048549 
L 262.666419 237.967191 
L 275.089425 245.34317 
L 287.51243 243.981488 
L 299.935436 253.476533 
L 312.358442 251.939139 
L 324.781447 253.168587 
L 337.204453 256.447646 
L 349.627458 258.125938 
L 362.050464 258.707021 
L 374.473469 262.20911 
L 386.896475 261.31091 
L 399.319481 265.717985 
L 411.742486 262.049352 
L 424.165492 263.473475 
" clip-path="url(#pd0a0f1aa77)" style="fill: none; stroke: #440154; stroke-width: 1.5; stroke-linecap: square"/>
   </g>
   <g id="line2d_16">
    <path d="M 138.436364 97.462764 
L 150.859369 172.87684 
L 163.282375 205.481684 
L 175.70538 216.778271 
L 188.128386 228.172613 
L 200.551391 225.195715 
L 212.974397 232.232378 
L 225.397403 236.36752 
L 237.820408 235.715471 
L 250.243414 243.26423 
L 262.666419 240.8211 
L 275.089425 247.489636 
L 287.51243 246.923215 
L 299.935436 247.132242 
L 312.358442 255.761767 
L 324.781447 254.969682 
L 337.204453 259.079413 
L 349.627458 256.004126 
L 362.050464 265.117609 
L 374.473469 262.530818 
L 386.896475 263.069046 
L 399.319481 264.677015 
L 411.742486 270.758962 
L 424.165492 270.585878 
L 436.588497 271.871988 
L 449.011503 281.630938 
L 461.434508 279.869815 
L 473.857514 284.238649 
L 486.280519 286.962035 
L 498.703525 291.318257 
L 511.126531 297.481382 
L 523.549536 292.683935 
L 535.972542 298.171235 
L 548.395547 301.56579 
L 560.818553 302.659415 
L 573.241558 317.043681 
L 585.664564 305.177598 
L 598.08757 311.776567 
L 610.510575 320.707191 
L 622.933581 320.553058 
L 635.356586 324.023102 
L 647.779592 323.337298 
L 660.202597 325.490924 
L 672.625603 334.54929 
L 685.048609 330.300243 
L 697.471614 334.229643 
L 709.89462 331.346311 
L 722.317625 346.780399 
L 734.740631 352.440287 
L 747.163636 354.687914 
" clip-path="url(#pd0a0f1aa77)" style="fill: none; stroke: #440154; stroke-width: 1.5; stroke-linecap: square"/>
   </g>
   <g id="line2d_17">
    <path d="M 138.436364 144.460358 
L 150.859369 201.093964 
L 163.282375 219.437285 
L 175.70538 229.62259 
L 188.128386 237.688031 
L 200.551391 242.317453 
L 212.974397 247.332918 
L 225.397403 248.920705 
L 237.820408 254.687813 
L 250.243414 256.034425 
L 262.666419 260.643102 
L 275.089425 261.694784 
L 287.51243 264.703135 
L 299.935436 262.715111 
L 312.358442 262.182192 
L 324.781447 266.00578 
" clip-path="url(#pd0a0f1aa77)" style="fill: none; stroke: #3b528b; stroke-width: 1.5; stroke-linecap: square"/>
   </g>
   <g id="line2d_18">
    <path d="M 138.436364 69.494143 
L 150.859369 167.65804 
L 163.282375 195.864357 
L 175.70538 212.600084 
L 188.128386 217.388272 
L 200.551391 224.000392 
L 212.974397 229.525603 
L 225.397403 237.346211 
L 237.820408 237.34636 
L 250.243414 236.330967 
L 262.666419 240.200578 
L 275.089425 244.380327 
L 287.51243 244.587944 
L 299.935436 246.985054 
L 312.358442 252.637302 
L 324.781447 256.865679 
L 337.204453 257.865715 
L 349.627458 259.286532 
L 362.050464 264.661651 
L 374.473469 270.112309 
L 386.896475 273.399886 
L 399.319481 277.304398 
L 411.742486 282.308305 
L 424.165492 285.238754 
L 436.588497 288.326769 
L 449.011503 294.788796 
L 461.434508 293.251904 
L 473.857514 296.916137 
L 486.280519 302.580736 
L 498.703525 301.101526 
L 511.126531 299.703665 
L 523.549536 298.544216 
L 535.972542 303.512649 
" clip-path="url(#pd0a0f1aa77)" style="fill: none; stroke: #3b528b; stroke-width: 1.5; stroke-linecap: square"/>
   </g>
   <g id="line2d_19">
    <path d="M 138.436364 97.263109 
L 150.859369 165.587917 
L 163.282375 196.60865 
L 175.70538 213.62117 
L 188.128386 218.427592 
L 200.551391 226.664734 
L 212.974397 227.134486 
L 225.397403 230.833967 
L 237.820408 232.058418 
L 250.243414 236.756652 
L 262.666419 239.327294 
L 275.089425 243.335548 
L 287.51243 246.700443 
L 299.935436 248.331479 
L 312.358442 247.448048 
L 324.781447 253.630524 
L 337.204453 259.495482 
L 349.627458 259.512597 
L 362.050464 266.760512 
L 374.473469 256.657726 
L 386.896475 262.942794 
L 399.319481 262.412368 
L 411.742486 263.112605 
" clip-path="url(#pd0a0f1aa77)" style="fill: none; stroke: #3b528b; stroke-width: 1.5; stroke-linecap: square"/>
   </g>
   <g id="line2d_20">
    <path d="M 138.436364 148.396901 
L 150.859369 193.85804 
L 163.282375 216.686215 
L 175.70538 227.897239 
L 188.128386 234.133168 
L 200.551391 237.122804 
L 212.974397 240.085349 
L 225.397403 244.524489 
L 237.820408 248.26215 
L 250.243414 249.012663 
L 262.666419 250.56147 
L 275.089425 254.675912 
L 287.51243 255.641895 
L 299.935436 258.364122 
L 312.358442 262.034762 
L 324.781447 259.419118 
L 337.204453 270.446972 
L 349.627458 269.383579 
L 362.050464 268.975412 
L 374.473469 268.648344 
L 386.896475 273.702897 
L 399.319481 272.039862 
L 411.742486 271.845883 
" clip-path="url(#pd0a0f1aa77)" style="fill: none; stroke: #3b528b; stroke-width: 1.5; stroke-linecap: square"/>
   </g>
   <g id="line2d_21">
    <path d="M 138.436364 144.586607 
L 150.859369 191.480481 
L 163.282375 212.395925 
L 175.70538 214.787817 
L 188.128386 223.358574 
L 200.551391 223.101907 
L 212.974397 228.706217 
L 225.397403 234.701824 
L 237.820408 239.027566 
L 250.243414 238.162447 
L 262.666419 238.237441 
L 275.089425 239.720057 
L 287.51243 246.333909 
L 299.935436 249.719885 
L 312.358442 248.123469 
L 324.781447 250.489832 
L 337.204453 256.688501 
L 349.627458 260.025939 
L 362.050464 263.818395 
L 374.473469 268.766961 
L 386.896475 273.275695 
L 399.319481 273.791304 
L 411.742486 273.163571 
L 424.165492 274.728324 
L 436.588497 274.91248 
" clip-path="url(#pd0a0f1aa77)" style="fill: none; stroke: #3b528b; stroke-width: 1.5; stroke-linecap: square"/>
   </g>
   <g id="line2d_22">
    <path d="M 138.436364 80.007957 
L 150.859369 167.293973 
L 163.282375 198.010754 
L 175.70538 213.918486 
L 188.128386 222.07013 
L 200.551391 227.75926 
L 212.974397 235.321097 
L 225.397403 234.38191 
L 237.820408 237.662491 
L 250.243414 243.724436 
L 262.666419 247.114825 
L 275.089425 247.10639 
L 287.51243 253.230577 
L 299.935436 251.3634 
L 312.358442 260.063431 
L 324.781447 258.627862 
L 337.204453 257.395711 
L 349.627458 262.231121 
L 362.050464 260.913299 
L 374.473469 259.207495 
L 386.896475 262.20317 
" clip-path="url(#pd0a0f1aa77)" style="fill: none; stroke: #21918c; stroke-width: 1.5; stroke-linecap: square"/>
   </g>
   <g id="line2d_23">
    <path d="M 138.436364 147.968828 
L 150.859369 197.545285 
L 163.282375 214.436124 
L 175.70538 221.386685 
L 188.128386 231.323313 
L 200.551391 239.653724 
L 212.974397 241.66958 
L 225.397403 244.76155 
L 237.820408 251.211982 
L 250.243414 252.914968 
L 262.666419 259.477123 
L 275.089425 258.51092 
L 287.51243 255.406484 
L 299.935436 260.35057 
L 312.358442 262.786386 
L 324.781447 263.71805 
L 337.204453 271.566096 
L 349.627458 272.191155 
L 362.050464 278.294243 
L 374.473469 279.40395 
L 386.896475 278.945138 
L 399.319481 286.411828 
L 411.742486 288.538218 
L 424.165492 292.543672 
L 436.588497 301.431664 
L 449.011503 295.476444 
L 461.434508 297.167561 
L 473.857514 297.782309 
L 486.280519 296.319823 
L 498.703525 300.292717 
" clip-path="url(#pd0a0f1aa77)" style="fill: none; stroke: #21918c; stroke-width: 1.5; stroke-linecap: square"/>
   </g>
   <g id="line2d_24">
    <path d="M 138.436364 122.979033 
L 150.859369 178.115641 
L 163.282375 196.036306 
L 175.70538 205.477186 
L 188.128386 210.771813 
L 200.551391 218.516968 
L 212.974397 218.091025 
L 225.397403 223.010394 
L 237.820408 223.682703 
L 250.243414 225.584485 
L 262.666419 230.659505 
L 275.089425 233.336417 
L 287.51243 234.580973 
L 299.935436 237.748988 
L 312.358442 240.314164 
L 324.781447 241.48376 
L 337.204453 247.048311 
L 349.627458 245.623724 
L 362.050464 255.115484 
L 374.473469 258.79257 
L 386.896475 259.818503 
L 399.319481 268.288625 
L 411.742486 275.500496 
L 424.165492 275.543951 
L 436.588497 277.440537 
L 449.011503 278.389244 
L 461.434508 274.419916 
L 473.857514 277.561124 
" clip-path="url(#pd0a0f1aa77)" style="fill: none; stroke: #21918c; stroke-width: 1.5; stroke-linecap: square"/>
   </g>
   <g id="line2d_25">
    <path d="M 138.436364 146.324349 
L 150.859369 195.783457 
L 163.282375 223.824735 
L 175.70538 231.361618 
L 188.128386 231.601863 
L 200.551391 241.443764 
L 212.974397 238.898887 
L 225.397403 244.533124 
L 237.820408 246.330638 
L 250.243414 249.872817 
L 262.666419 250.66798 
L 275.089425 253.561867 
L 287.51243 256.53419 
L 299.935436 255.071598 
L 312.358442 261.639831 
L 324.781447 258.265705 
L 337.204453 260.025903 
L 349.627458 267.058869 
L 362.050464 265.026248 
L 374.473469 264.130172 
L 386.896475 274.241102 
L 399.319481 271.400835 
L 411.742486 265.522843 
L 424.165492 269.258433 
L 436.588497 278.887532 
L 449.011503 288.161412 
L 461.434508 283.363421 
L 473.857514 285.919476 
L 486.280519 290.573765 
L 498.703525 291.326478 
L 511.126531 296.773386 
L 523.549536 305.979442 
L 535.972542 297.357238 
L 548.395547 309.968306 
L 560.818553 311.082908 
L 573.241558 311.015249 
L 585.664564 316.966824 
L 598.08757 322.751979 
L 610.510575 327.87645 
L 622.933581 321.714638 
L 635.356586 325.632343 
L 647.779592 324.722786 
" clip-path="url(#pd0a0f1aa77)" style="fill: none; stroke: #21918c; stroke-width: 1.5; stroke-linecap: square"/>
   </g>
   <g id="line2d_26">
    <path d="M 138.436364 119.896714 
L 150.859369 182.873487 
L 163.282375 211.000193 
L 175.70538 224.81852 
L 188.128386 231.875592 
L 200.551391 240.886883 
L 212.974397 242.755589 
L 225.397403 245.825535 
L 237.820408 253.009613 
L 250.243414 251.726705 
L 262.666419 255.257699 
L 275.089425 257.208233 
L 287.51243 261.561995 
L 299.935436 262.558648 
L 312.358442 264.685033 
L 324.781447 268.915754 
L 337.204453 272.209583 
L 349.627458 271.146411 
L 362.050464 275.685136 
L 374.473469 279.310706 
L 386.896475 278.461216 
L 399.319481 278.672787 
L 411.742486 280.655023 
L 424.165492 278.793141 
" clip-path="url(#pd0a0f1aa77)" style="fill: none; stroke: #21918c; stroke-width: 1.5; stroke-linecap: square"/>
   </g>
   <g id="line2d_27">
    <path d="M 138.436364 153.624328 
L 150.859369 193.117766 
L 163.282375 212.632532 
L 175.70538 225.120572 
L 188.128386 231.52421 
L 200.551391 237.998038 
L 212.974397 243.162432 
L 225.397403 246.277768 
L 237.820408 247.270468 
L 250.243414 251.382972 
L 262.666419 257.483053 
L 275.089425 256.231589 
L 287.51243 255.130084 
L 299.935436 254.542393 
L 312.358442 256.8159 
L 324.781447 258.603499 
" clip-path="url(#pd0a0f1aa77)" style="fill: none; stroke: #5ec962; stroke-width: 1.5; stroke-linecap: square"/>
   </g>
   <g id="line2d_28">
    <path d="M 138.436364 133.920275 
L 150.859369 189.310607 
L 163.282375 214.428997 
L 175.70538 223.115975 
L 188.128386 228.82844 
L 200.551391 230.460312 
L 212.974397 234.913133 
L 225.397403 237.041689 
L 237.820408 239.20776 
L 250.243414 243.711615 
L 262.666419 242.540281 
L 275.089425 246.661189 
L 287.51243 247.16183 
L 299.935436 251.875453 
L 312.358442 252.012787 
L 324.781447 255.088826 
L 337.204453 257.780208 
L 349.627458 257.574466 
L 362.050464 258.813608 
L 374.473469 263.394632 
L 386.896475 267.977268 
L 399.319481 271.032053 
L 411.742486 272.634002 
L 424.165492 280.45493 
L 436.588497 279.453028 
L 449.011503 283.216906 
L 461.434508 285.633774 
L 473.857514 295.02637 
L 486.280519 291.475862 
L 498.703525 296.876754 
L 511.126531 302.058602 
L 523.549536 302.161712 
L 535.972542 309.947618 
L 548.395547 311.894994 
L 560.818553 315.15945 
L 573.241558 314.777887 
L 585.664564 323.43235 
L 598.08757 321.524257 
L 610.510575 329.533169 
L 622.933581 334.048871 
L 635.356586 332.79956 
L 647.779592 327.054851 
L 660.202597 345.425363 
L 672.625603 349.536649 
L 685.048609 356.405032 
L 697.471614 353.185648 
L 709.89462 360.421291 
L 722.317625 363.042221 
L 734.740631 369.36 
L 747.163636 357.885553 
" clip-path="url(#pd0a0f1aa77)" style="fill: none; stroke: #5ec962; stroke-width: 1.5; stroke-linecap: square"/>
   </g>
   <g id="line2d_29">
    <path d="M 138.436364 128.112103 
L 150.859369 182.759644 
L 163.282375 201.552925 
L 175.70538 210.476413 
L 188.128386 217.911925 
L 200.551391 223.45973 
L 212.974397 230.202633 
L 225.397403 228.431707 
L 237.820408 233.024156 
L 250.243414 233.724777 
L 262.666419 238.179777 
L 275.089425 240.677525 
L 287.51243 243.689607 
L 299.935436 242.31144 
L 312.358442 251.109889 
L 324.781447 251.541232 
L 337.204453 251.008432 
L 349.627458 252.37054 
L 362.050464 249.731311 
L 374.473469 253.22257 
" clip-path="url(#pd0a0f1aa77)" style="fill: none; stroke: #5ec962; stroke-width: 1.5; stroke-linecap: square"/>
   </g>
   <g id="line2d_30">
    <path d="M 138.436364 137.39016 
L 150.859369 189.725626 
L 163.282375 207.028636 
L 175.70538 217.964667 
L 188.128386 227.179103 
L 200.551391 225.717467 
L 212.974397 231.59877 
L 225.397403 231.332174 
L 237.820408 234.739133 
L 250.243414 240.122495 
L 262.666419 245.94659 
L 275.089425 244.345014 
L 287.51243 247.640536 
L 299.935436 248.166663 
L 312.358442 246.622122 
L 324.781447 251.479708 
L 337.204453 252.082484 
L 349.627458 250.097013 
L 362.050464 252.321073 
L 374.473469 247.285944 
L 386.896475 251.222639 
L 399.319481 253.513425 
L 411.742486 252.871568 
L 424.165492 258.340149 
L 436.588497 251.050829 
L 449.011503 250.403047 
L 461.434508 251.332468 
L 473.857514 253.446054 
L 486.280519 251.783149 
L 498.703525 252.393646 
L 511.126531 250.780496 
" clip-path="url(#pd0a0f1aa77)" style="fill: none; stroke: #5ec962; stroke-width: 1.5; stroke-linecap: square"/>
   </g>
   <g id="line2d_31">
    <path d="M 138.436364 140.553896 
L 150.859369 189.261086 
L 163.282375 198.729579 
L 175.70538 212.933003 
L 188.128386 223.179412 
L 200.551391 227.345728 
L 212.974397 234.419847 
L 225.397403 236.656132 
L 237.820408 239.327855 
L 250.243414 246.381872 
L 262.666419 247.039896 
L 275.089425 250.763024 
L 287.51243 252.266056 
L 299.935436 256.959461 
L 312.358442 260.250332 
L 324.781447 266.714973 
L 337.204453 261.401641 
L 349.627458 271.624299 
L 362.050464 274.141538 
L 374.473469 280.675575 
L 386.896475 279.901118 
L 399.319481 285.217561 
L 411.742486 289.328582 
L 424.165492 285.26278 
L 436.588497 290.2418 
L 449.011503 287.059898 
" clip-path="url(#pd0a0f1aa77)" style="fill: none; stroke: #5ec962; stroke-width: 1.5; stroke-linecap: square"/>
   </g>
   <g id="line2d_32">
    <path d="M 138.436364 126.314607 
L 150.859369 185.90029 
L 163.282375 208.000735 
L 175.70538 221.372198 
L 188.128386 231.828396 
L 200.551391 235.75197 
L 212.974397 236.568125 
L 225.397403 245.847882 
L 237.820408 247.242416 
L 250.243414 250.542522 
L 262.666419 255.186601 
L 275.089425 260.636987 
L 287.51243 261.889678 
L 299.935436 267.345142 
L 312.358442 264.341823 
L 324.781447 268.579733 
L 337.204453 269.20193 
L 349.627458 265.331053 
L 362.050464 267.321185 
" clip-path="url(#pd0a0f1aa77)" style="fill: none; stroke: #fde725; stroke-width: 1.5; stroke-linecap: square"/>
   </g>
   <g id="line2d_33">
    <path d="M 138.436364 146.650187 
L 150.859369 198.694874 
L 163.282375 214.115919 
L 175.70538 220.584928 
L 188.128386 231.007635 
L 200.551391 239.55809 
L 212.974397 242.633748 
L 225.397403 245.877368 
L 237.820408 248.349189 
L 250.243414 253.84365 
L 262.666419 254.905534 
L 275.089425 254.543563 
L 287.51243 261.08563 
L 299.935436 267.171798 
L 312.358442 273.192764 
L 324.781447 268.059255 
L 337.204453 275.694763 
L 349.627458 275.249814 
L 362.050464 278.878996 
L 374.473469 279.633509 
L 386.896475 286.869341 
L 399.319481 287.359078 
L 411.742486 280.020054 
L 424.165492 287.411105 
L 436.588497 286.990364 
" clip-path="url(#pd0a0f1aa77)" style="fill: none; stroke: #fde725; stroke-width: 1.5; stroke-linecap: square"/>
   </g>
   <g id="line2d_34">
    <path d="M 138.436364 108.410656 
L 150.859369 170.926766 
L 163.282375 196.144659 
L 175.70538 206.700359 
L 188.128386 215.894441 
L 200.551391 223.473786 
L 212.974397 228.424943 
L 225.397403 230.325949 
L 237.820408 233.873894 
L 250.243414 234.470948 
L 262.666419 242.840412 
L 275.089425 245.872588 
L 287.51243 250.430366 
L 299.935436 251.342199 
L 312.358442 253.554465 
L 324.781447 257.164987 
L 337.204453 259.366235 
L 349.627458 255.171537 
L 362.050464 255.551598 
L 374.473469 256.991303 
" clip-path="url(#pd0a0f1aa77)" style="fill: none; stroke: #fde725; stroke-width: 1.5; stroke-linecap: square"/>
   </g>
   <g id="line2d_35">
    <path d="M 138.436364 110.27722 
L 150.859369 181.755925 
L 163.282375 211.059003 
L 175.70538 225.407588 
L 188.128386 230.28659 
L 200.551391 233.828217 
L 212.974397 237.718468 
L 225.397403 240.099103 
L 237.820408 241.164822 
L 250.243414 244.539423 
L 262.666419 246.615911 
L 275.089425 251.576659 
L 287.51243 252.920514 
L 299.935436 255.039464 
L 312.358442 257.285516 
L 324.781447 255.209501 
L 337.204453 259.325746 
L 349.627458 269.015213 
L 362.050464 263.852591 
L 374.473469 265.530825 
L 386.896475 264.027305 
L 399.319481 261.74424 
L 411.742486 263.613397 
" clip-path="url(#pd0a0f1aa77)" style="fill: none; stroke: #fde725; stroke-width: 1.5; stroke-linecap: square"/>
   </g>
   <g id="line2d_36">
    <path d="M 138.436364 66.96 
L 150.859369 174.137699 
L 163.282375 211.187707 
L 175.70538 225.294911 
L 188.128386 233.934716 
L 200.551391 240.632422 
L 212.974397 246.020162 
L 225.397403 246.799786 
L 237.820408 250.413609 
L 250.243414 258.819532 
L 262.666419 257.229694 
L 275.089425 255.288682 
L 287.51243 264.015961 
L 299.935436 266.12699 
L 312.358442 263.650505 
L 324.781447 263.502586 
L 337.204453 263.619743 
L 349.627458 263.579646 
" clip-path="url(#pd0a0f1aa77)" style="fill: none; stroke: #fde725; stroke-width: 1.5; stroke-linecap: square"/>
   </g>
   <g id="patch_3">
    <path d="M 108 384.48 
L 108 51.84 
" style="fill: none; stroke: #000000; stroke-width: 0.8; stroke-linejoin: miter; stroke-linecap: square"/>
   </g>
   <g id="patch_4">
    <path d="M 777.6 384.48 
L 777.6 51.84 
" style="fill: none; stroke: #000000; stroke-width: 0.8; stroke-linejoin: miter; stroke-linecap: square"/>
   </g>
   <g id="patch_5">
    <path d="M 108 384.48 
L 777.6 384.48 
" style="fill: none; stroke: #000000; stroke-width: 0.8; stroke-linejoin: miter; stroke-linecap: square"/>
   </g>
   <g id="patch_6">
    <path d="M 108 51.84 
L 777.6 51.84 
" style="fill: none; stroke: #000000; stroke-width: 0.8; stroke-linejoin: miter; stroke-linecap: square"/>
   </g>
   <g id="text_14">
    <!-- Training Loss for Each Fold -->
    <g transform="translate(363.140625 45.84) scale(0.12 -0.12)">
     <defs>
      <path id="DejaVuSans-54" d="M -19 4666 
L 3928 4666 
L 3928 4134 
L 2272 4134 
L 2272 0 
L 1638 0 
L 1638 4134 
L -19 4134 
L -19 4666 
z
" transform="scale(0.015625)"/>
      <path id="DejaVuSans-72" d="M 2631 2963 
Q 2534 3019 2420 3045 
Q 2306 3072 2169 3072 
Q 1681 3072 1420 2755 
Q 1159 2438 1159 1844 
L 1159 0 
L 581 0 
L 581 3500 
L 1159 3500 
L 1159 2956 
Q 1341 3275 1631 3429 
Q 1922 3584 2338 3584 
Q 2397 3584 2469 3576 
Q 2541 3569 2628 3553 
L 2631 2963 
z
" transform="scale(0.015625)"/>
      <path id="DejaVuSans-61" d="M 2194 1759 
Q 1497 1759 1228 1600 
Q 959 1441 959 1056 
Q 959 750 1161 570 
Q 1363 391 1709 391 
Q 2188 391 2477 730 
Q 2766 1069 2766 1631 
L 2766 1759 
L 2194 1759 
z
M 3341 1997 
L 3341 0 
L 2766 0 
L 2766 531 
Q 2569 213 2275 61 
Q 1981 -91 1556 -91 
Q 1019 -91 701 211 
Q 384 513 384 1019 
Q 384 1609 779 1909 
Q 1175 2209 1959 2209 
L 2766 2209 
L 2766 2266 
Q 2766 2663 2505 2880 
Q 2244 3097 1772 3097 
Q 1472 3097 1187 3025 
Q 903 2953 641 2809 
L 641 3341 
Q 956 3463 1253 3523 
Q 1550 3584 1831 3584 
Q 2591 3584 2966 3190 
Q 3341 2797 3341 1997 
z
" transform="scale(0.015625)"/>
      <path id="DejaVuSans-69" d="M 603 3500 
L 1178 3500 
L 1178 0 
L 603 0 
L 603 3500 
z
M 603 4863 
L 1178 4863 
L 1178 4134 
L 603 4134 
L 603 4863 
z
" transform="scale(0.015625)"/>
      <path id="DejaVuSans-6e" d="M 3513 2113 
L 3513 0 
L 2938 0 
L 2938 2094 
Q 2938 2591 2744 2837 
Q 2550 3084 2163 3084 
Q 1697 3084 1428 2787 
Q 1159 2491 1159 1978 
L 1159 0 
L 581 0 
L 581 3500 
L 1159 3500 
L 1159 2956 
Q 1366 3272 1645 3428 
Q 1925 3584 2291 3584 
Q 2894 3584 3203 3211 
Q 3513 2838 3513 2113 
z
" transform="scale(0.015625)"/>
      <path id="DejaVuSans-67" d="M 2906 1791 
Q 2906 2416 2648 2759 
Q 2391 3103 1925 3103 
Q 1463 3103 1205 2759 
Q 947 2416 947 1791 
Q 947 1169 1205 825 
Q 1463 481 1925 481 
Q 2391 481 2648 825 
Q 2906 1169 2906 1791 
z
M 3481 434 
Q 3481 -459 3084 -895 
Q 2688 -1331 1869 -1331 
Q 1566 -1331 1297 -1286 
Q 1028 -1241 775 -1147 
L 775 -588 
Q 1028 -725 1275 -790 
Q 1522 -856 1778 -856 
Q 2344 -856 2625 -561 
Q 2906 -266 2906 331 
L 2906 616 
Q 2728 306 2450 153 
Q 2172 0 1784 0 
Q 1141 0 747 490 
Q 353 981 353 1791 
Q 353 2603 747 3093 
Q 1141 3584 1784 3584 
Q 2172 3584 2450 3431 
Q 2728 3278 2906 2969 
L 2906 3500 
L 3481 3500 
L 3481 434 
z
" transform="scale(0.015625)"/>
      <path id="DejaVuSans-20" transform="scale(0.015625)"/>
      <path id="DejaVuSans-66" d="M 2375 4863 
L 2375 4384 
L 1825 4384 
Q 1516 4384 1395 4259 
Q 1275 4134 1275 3809 
L 1275 3500 
L 2222 3500 
L 2222 3053 
L 1275 3053 
L 1275 0 
L 697 0 
L 697 3053 
L 147 3053 
L 147 3500 
L 697 3500 
L 697 3744 
Q 697 4328 969 4595 
Q 1241 4863 1831 4863 
L 2375 4863 
z
" transform="scale(0.015625)"/>
      <path id="DejaVuSans-46" d="M 628 4666 
L 3309 4666 
L 3309 4134 
L 1259 4134 
L 1259 2759 
L 3109 2759 
L 3109 2228 
L 1259 2228 
L 1259 0 
L 628 0 
L 628 4666 
z
" transform="scale(0.015625)"/>
      <path id="DejaVuSans-6c" d="M 603 4863 
L 1178 4863 
L 1178 0 
L 603 0 
L 603 4863 
z
" transform="scale(0.015625)"/>
      <path id="DejaVuSans-64" d="M 2906 2969 
L 2906 4863 
L 3481 4863 
L 3481 0 
L 2906 0 
L 2906 525 
Q 2725 213 2448 61 
Q 2172 -91 1784 -91 
Q 1150 -91 751 415 
Q 353 922 353 1747 
Q 353 2572 751 3078 
Q 1150 3584 1784 3584 
Q 2172 3584 2448 3432 
Q 2725 3281 2906 2969 
z
M 947 1747 
Q 947 1113 1208 752 
Q 1469 391 1925 391 
Q 2381 391 2643 752 
Q 2906 1113 2906 1747 
Q 2906 2381 2643 2742 
Q 2381 3103 1925 3103 
Q 1469 3103 1208 2742 
Q 947 2381 947 1747 
z
" transform="scale(0.015625)"/>
     </defs>
     <use xlink:href="#DejaVuSans-54"/>
     <use xlink:href="#DejaVuSans-72" transform="translate(46.333984 0)"/>
     <use xlink:href="#DejaVuSans-61" transform="translate(87.447266 0)"/>
     <use xlink:href="#DejaVuSans-69" transform="translate(148.726562 0)"/>
     <use xlink:href="#DejaVuSans-6e" transform="translate(176.509766 0)"/>
     <use xlink:href="#DejaVuSans-69" transform="translate(239.888672 0)"/>
     <use xlink:href="#DejaVuSans-6e" transform="translate(267.671875 0)"/>
     <use xlink:href="#DejaVuSans-67" transform="translate(331.050781 0)"/>
     <use xlink:href="#DejaVuSans-20" transform="translate(394.527344 0)"/>
     <use xlink:href="#DejaVuSans-4c" transform="translate(426.314453 0)"/>
     <use xlink:href="#DejaVuSans-6f" transform="translate(480.277344 0)"/>
     <use xlink:href="#DejaVuSans-73" transform="translate(541.458984 0)"/>
     <use xlink:href="#DejaVuSans-73" transform="translate(593.558594 0)"/>
     <use xlink:href="#DejaVuSans-20" transform="translate(645.658203 0)"/>
     <use xlink:href="#DejaVuSans-66" transform="translate(677.445312 0)"/>
     <use xlink:href="#DejaVuSans-6f" transform="translate(712.650391 0)"/>
     <use xlink:href="#DejaVuSans-72" transform="translate(773.832031 0)"/>
     <use xlink:href="#DejaVuSans-20" transform="translate(814.945312 0)"/>
     <use xlink:href="#DejaVuSans-45" transform="translate(846.732422 0)"/>
     <use xlink:href="#DejaVuSans-61" transform="translate(909.916016 0)"/>
     <use xlink:href="#DejaVuSans-63" transform="translate(971.195312 0)"/>
     <use xlink:href="#DejaVuSans-68" transform="translate(1026.175781 0)"/>
     <use xlink:href="#DejaVuSans-20" transform="translate(1089.554688 0)"/>
     <use xlink:href="#DejaVuSans-46" transform="translate(1121.341797 0)"/>
     <use xlink:href="#DejaVuSans-6f" transform="translate(1175.236328 0)"/>
     <use xlink:href="#DejaVuSans-6c" transform="translate(1236.417969 0)"/>
     <use xlink:href="#DejaVuSans-64" transform="translate(1264.201172 0)"/>
    </g>
   </g>
   <g id="legend_1">
    <g id="patch_7">
     <path d="M 634.320312 426.793125 
L 770.6 426.793125 
Q 772.6 426.793125 772.6 424.793125 
L 772.6 58.84 
Q 772.6 56.84 770.6 56.84 
L 634.320312 56.84 
Q 632.320312 56.84 632.320312 58.84 
L 632.320312 424.793125 
Q 632.320312 426.793125 634.320312 426.793125 
z
" style="fill: #ffffff; opacity: 0.8; stroke: #cccccc; stroke-linejoin: miter"/>
    </g>
    <g id="line2d_37">
     <path d="M 636.320312 64.938437 
L 646.320312 64.938437 
L 656.320312 64.938437 
" style="fill: none; stroke: #440154; stroke-width: 1.5; stroke-linecap: square"/>
    </g>
    <g id="text_15">
     <!-- Fold 1 Training Loss -->
     <g transform="translate(664.320312 68.438437) scale(0.1 -0.1)">
      <use xlink:href="#DejaVuSans-46"/>
      <use xlink:href="#DejaVuSans-6f" transform="translate(53.894531 0)"/>
      <use xlink:href="#DejaVuSans-6c" transform="translate(115.076172 0)"/>
      <use xlink:href="#DejaVuSans-64" transform="translate(142.859375 0)"/>
      <use xlink:href="#DejaVuSans-20" transform="translate(206.335938 0)"/>
      <use xlink:href="#DejaVuSans-31" transform="translate(238.123047 0)"/>
      <use xlink:href="#DejaVuSans-20" transform="translate(301.746094 0)"/>
      <use xlink:href="#DejaVuSans-54" transform="translate(333.533203 0)"/>
      <use xlink:href="#DejaVuSans-72" transform="translate(379.867188 0)"/>
      <use xlink:href="#DejaVuSans-61" transform="translate(420.980469 0)"/>
      <use xlink:href="#DejaVuSans-69" transform="translate(482.259766 0)"/>
      <use xlink:href="#DejaVuSans-6e" transform="translate(510.042969 0)"/>
      <use xlink:href="#DejaVuSans-69" transform="translate(573.421875 0)"/>
      <use xlink:href="#DejaVuSans-6e" transform="translate(601.205078 0)"/>
      <use xlink:href="#DejaVuSans-67" transform="translate(664.583984 0)"/>
      <use xlink:href="#DejaVuSans-20" transform="translate(728.060547 0)"/>
      <use xlink:href="#DejaVuSans-4c" transform="translate(759.847656 0)"/>
      <use xlink:href="#DejaVuSans-6f" transform="translate(813.810547 0)"/>
      <use xlink:href="#DejaVuSans-73" transform="translate(874.992188 0)"/>
      <use xlink:href="#DejaVuSans-73" transform="translate(927.091797 0)"/>
     </g>
    </g>
    <g id="line2d_38">
     <path d="M 636.320312 79.616562 
L 646.320312 79.616562 
L 656.320312 79.616562 
" style="fill: none; stroke: #440154; stroke-width: 1.5; stroke-linecap: square"/>
    </g>
    <g id="text_16">
     <!-- Fold 2 Training Loss -->
     <g transform="translate(664.320312 83.116562) scale(0.1 -0.1)">
      <use xlink:href="#DejaVuSans-46"/>
      <use xlink:href="#DejaVuSans-6f" transform="translate(53.894531 0)"/>
      <use xlink:href="#DejaVuSans-6c" transform="translate(115.076172 0)"/>
      <use xlink:href="#DejaVuSans-64" transform="translate(142.859375 0)"/>
      <use xlink:href="#DejaVuSans-20" transform="translate(206.335938 0)"/>
      <use xlink:href="#DejaVuSans-32" transform="translate(238.123047 0)"/>
      <use xlink:href="#DejaVuSans-20" transform="translate(301.746094 0)"/>
      <use xlink:href="#DejaVuSans-54" transform="translate(333.533203 0)"/>
      <use xlink:href="#DejaVuSans-72" transform="translate(379.867188 0)"/>
      <use xlink:href="#DejaVuSans-61" transform="translate(420.980469 0)"/>
      <use xlink:href="#DejaVuSans-69" transform="translate(482.259766 0)"/>
      <use xlink:href="#DejaVuSans-6e" transform="translate(510.042969 0)"/>
      <use xlink:href="#DejaVuSans-69" transform="translate(573.421875 0)"/>
      <use xlink:href="#DejaVuSans-6e" transform="translate(601.205078 0)"/>
      <use xlink:href="#DejaVuSans-67" transform="translate(664.583984 0)"/>
      <use xlink:href="#DejaVuSans-20" transform="translate(728.060547 0)"/>
      <use xlink:href="#DejaVuSans-4c" transform="translate(759.847656 0)"/>
      <use xlink:href="#DejaVuSans-6f" transform="translate(813.810547 0)"/>
      <use xlink:href="#DejaVuSans-73" transform="translate(874.992188 0)"/>
      <use xlink:href="#DejaVuSans-73" transform="translate(927.091797 0)"/>
     </g>
    </g>
    <g id="line2d_39">
     <path d="M 636.320312 94.294687 
L 646.320312 94.294687 
L 656.320312 94.294687 
" style="fill: none; stroke: #440154; stroke-width: 1.5; stroke-linecap: square"/>
    </g>
    <g id="text_17">
     <!-- Fold 3 Training Loss -->
     <g transform="translate(664.320312 97.794687) scale(0.1 -0.1)">
      <use xlink:href="#DejaVuSans-46"/>
      <use xlink:href="#DejaVuSans-6f" transform="translate(53.894531 0)"/>
      <use xlink:href="#DejaVuSans-6c" transform="translate(115.076172 0)"/>
      <use xlink:href="#DejaVuSans-64" transform="translate(142.859375 0)"/>
      <use xlink:href="#DejaVuSans-20" transform="translate(206.335938 0)"/>
      <use xlink:href="#DejaVuSans-33" transform="translate(238.123047 0)"/>
      <use xlink:href="#DejaVuSans-20" transform="translate(301.746094 0)"/>
      <use xlink:href="#DejaVuSans-54" transform="translate(333.533203 0)"/>
      <use xlink:href="#DejaVuSans-72" transform="translate(379.867188 0)"/>
      <use xlink:href="#DejaVuSans-61" transform="translate(420.980469 0)"/>
      <use xlink:href="#DejaVuSans-69" transform="translate(482.259766 0)"/>
      <use xlink:href="#DejaVuSans-6e" transform="translate(510.042969 0)"/>
      <use xlink:href="#DejaVuSans-69" transform="translate(573.421875 0)"/>
      <use xlink:href="#DejaVuSans-6e" transform="translate(601.205078 0)"/>
      <use xlink:href="#DejaVuSans-67" transform="translate(664.583984 0)"/>
      <use xlink:href="#DejaVuSans-20" transform="translate(728.060547 0)"/>
      <use xlink:href="#DejaVuSans-4c" transform="translate(759.847656 0)"/>
      <use xlink:href="#DejaVuSans-6f" transform="translate(813.810547 0)"/>
      <use xlink:href="#DejaVuSans-73" transform="translate(874.992188 0)"/>
      <use xlink:href="#DejaVuSans-73" transform="translate(927.091797 0)"/>
     </g>
    </g>
    <g id="line2d_40">
     <path d="M 636.320312 108.972812 
L 646.320312 108.972812 
L 656.320312 108.972812 
" style="fill: none; stroke: #440154; stroke-width: 1.5; stroke-linecap: square"/>
    </g>
    <g id="text_18">
     <!-- Fold 4 Training Loss -->
     <g transform="translate(664.320312 112.472812) scale(0.1 -0.1)">
      <use xlink:href="#DejaVuSans-46"/>
      <use xlink:href="#DejaVuSans-6f" transform="translate(53.894531 0)"/>
      <use xlink:href="#DejaVuSans-6c" transform="translate(115.076172 0)"/>
      <use xlink:href="#DejaVuSans-64" transform="translate(142.859375 0)"/>
      <use xlink:href="#DejaVuSans-20" transform="translate(206.335938 0)"/>
      <use xlink:href="#DejaVuSans-34" transform="translate(238.123047 0)"/>
      <use xlink:href="#DejaVuSans-20" transform="translate(301.746094 0)"/>
      <use xlink:href="#DejaVuSans-54" transform="translate(333.533203 0)"/>
      <use xlink:href="#DejaVuSans-72" transform="translate(379.867188 0)"/>
      <use xlink:href="#DejaVuSans-61" transform="translate(420.980469 0)"/>
      <use xlink:href="#DejaVuSans-69" transform="translate(482.259766 0)"/>
      <use xlink:href="#DejaVuSans-6e" transform="translate(510.042969 0)"/>
      <use xlink:href="#DejaVuSans-69" transform="translate(573.421875 0)"/>
      <use xlink:href="#DejaVuSans-6e" transform="translate(601.205078 0)"/>
      <use xlink:href="#DejaVuSans-67" transform="translate(664.583984 0)"/>
      <use xlink:href="#DejaVuSans-20" transform="translate(728.060547 0)"/>
      <use xlink:href="#DejaVuSans-4c" transform="translate(759.847656 0)"/>
      <use xlink:href="#DejaVuSans-6f" transform="translate(813.810547 0)"/>
      <use xlink:href="#DejaVuSans-73" transform="translate(874.992188 0)"/>
      <use xlink:href="#DejaVuSans-73" transform="translate(927.091797 0)"/>
     </g>
    </g>
    <g id="line2d_41">
     <path d="M 636.320312 123.650937 
L 646.320312 123.650937 
L 656.320312 123.650937 
" style="fill: none; stroke: #440154; stroke-width: 1.5; stroke-linecap: square"/>
    </g>
    <g id="text_19">
     <!-- Fold 5 Training Loss -->
     <g transform="translate(664.320312 127.150937) scale(0.1 -0.1)">
      <use xlink:href="#DejaVuSans-46"/>
      <use xlink:href="#DejaVuSans-6f" transform="translate(53.894531 0)"/>
      <use xlink:href="#DejaVuSans-6c" transform="translate(115.076172 0)"/>
      <use xlink:href="#DejaVuSans-64" transform="translate(142.859375 0)"/>
      <use xlink:href="#DejaVuSans-20" transform="translate(206.335938 0)"/>
      <use xlink:href="#DejaVuSans-35" transform="translate(238.123047 0)"/>
      <use xlink:href="#DejaVuSans-20" transform="translate(301.746094 0)"/>
      <use xlink:href="#DejaVuSans-54" transform="translate(333.533203 0)"/>
      <use xlink:href="#DejaVuSans-72" transform="translate(379.867188 0)"/>
      <use xlink:href="#DejaVuSans-61" transform="translate(420.980469 0)"/>
      <use xlink:href="#DejaVuSans-69" transform="translate(482.259766 0)"/>
      <use xlink:href="#DejaVuSans-6e" transform="translate(510.042969 0)"/>
      <use xlink:href="#DejaVuSans-69" transform="translate(573.421875 0)"/>
      <use xlink:href="#DejaVuSans-6e" transform="translate(601.205078 0)"/>
      <use xlink:href="#DejaVuSans-67" transform="translate(664.583984 0)"/>
      <use xlink:href="#DejaVuSans-20" transform="translate(728.060547 0)"/>
      <use xlink:href="#DejaVuSans-4c" transform="translate(759.847656 0)"/>
      <use xlink:href="#DejaVuSans-6f" transform="translate(813.810547 0)"/>
      <use xlink:href="#DejaVuSans-73" transform="translate(874.992188 0)"/>
      <use xlink:href="#DejaVuSans-73" transform="translate(927.091797 0)"/>
     </g>
    </g>
    <g id="line2d_42">
     <path d="M 636.320312 138.329062 
L 646.320312 138.329062 
L 656.320312 138.329062 
" style="fill: none; stroke: #3b528b; stroke-width: 1.5; stroke-linecap: square"/>
    </g>
    <g id="text_20">
     <!-- Fold 6 Training Loss -->
     <g transform="translate(664.320312 141.829062) scale(0.1 -0.1)">
      <use xlink:href="#DejaVuSans-46"/>
      <use xlink:href="#DejaVuSans-6f" transform="translate(53.894531 0)"/>
      <use xlink:href="#DejaVuSans-6c" transform="translate(115.076172 0)"/>
      <use xlink:href="#DejaVuSans-64" transform="translate(142.859375 0)"/>
      <use xlink:href="#DejaVuSans-20" transform="translate(206.335938 0)"/>
      <use xlink:href="#DejaVuSans-36" transform="translate(238.123047 0)"/>
      <use xlink:href="#DejaVuSans-20" transform="translate(301.746094 0)"/>
      <use xlink:href="#DejaVuSans-54" transform="translate(333.533203 0)"/>
      <use xlink:href="#DejaVuSans-72" transform="translate(379.867188 0)"/>
      <use xlink:href="#DejaVuSans-61" transform="translate(420.980469 0)"/>
      <use xlink:href="#DejaVuSans-69" transform="translate(482.259766 0)"/>
      <use xlink:href="#DejaVuSans-6e" transform="translate(510.042969 0)"/>
      <use xlink:href="#DejaVuSans-69" transform="translate(573.421875 0)"/>
      <use xlink:href="#DejaVuSans-6e" transform="translate(601.205078 0)"/>
      <use xlink:href="#DejaVuSans-67" transform="translate(664.583984 0)"/>
      <use xlink:href="#DejaVuSans-20" transform="translate(728.060547 0)"/>
      <use xlink:href="#DejaVuSans-4c" transform="translate(759.847656 0)"/>
      <use xlink:href="#DejaVuSans-6f" transform="translate(813.810547 0)"/>
      <use xlink:href="#DejaVuSans-73" transform="translate(874.992188 0)"/>
      <use xlink:href="#DejaVuSans-73" transform="translate(927.091797 0)"/>
     </g>
    </g>
    <g id="line2d_43">
     <path d="M 636.320312 153.007187 
L 646.320312 153.007187 
L 656.320312 153.007187 
" style="fill: none; stroke: #3b528b; stroke-width: 1.5; stroke-linecap: square"/>
    </g>
    <g id="text_21">
     <!-- Fold 7 Training Loss -->
     <g transform="translate(664.320312 156.507187) scale(0.1 -0.1)">
      <use xlink:href="#DejaVuSans-46"/>
      <use xlink:href="#DejaVuSans-6f" transform="translate(53.894531 0)"/>
      <use xlink:href="#DejaVuSans-6c" transform="translate(115.076172 0)"/>
      <use xlink:href="#DejaVuSans-64" transform="translate(142.859375 0)"/>
      <use xlink:href="#DejaVuSans-20" transform="translate(206.335938 0)"/>
      <use xlink:href="#DejaVuSans-37" transform="translate(238.123047 0)"/>
      <use xlink:href="#DejaVuSans-20" transform="translate(301.746094 0)"/>
      <use xlink:href="#DejaVuSans-54" transform="translate(333.533203 0)"/>
      <use xlink:href="#DejaVuSans-72" transform="translate(379.867188 0)"/>
      <use xlink:href="#DejaVuSans-61" transform="translate(420.980469 0)"/>
      <use xlink:href="#DejaVuSans-69" transform="translate(482.259766 0)"/>
      <use xlink:href="#DejaVuSans-6e" transform="translate(510.042969 0)"/>
      <use xlink:href="#DejaVuSans-69" transform="translate(573.421875 0)"/>
      <use xlink:href="#DejaVuSans-6e" transform="translate(601.205078 0)"/>
      <use xlink:href="#DejaVuSans-67" transform="translate(664.583984 0)"/>
      <use xlink:href="#DejaVuSans-20" transform="translate(728.060547 0)"/>
      <use xlink:href="#DejaVuSans-4c" transform="translate(759.847656 0)"/>
      <use xlink:href="#DejaVuSans-6f" transform="translate(813.810547 0)"/>
      <use xlink:href="#DejaVuSans-73" transform="translate(874.992188 0)"/>
      <use xlink:href="#DejaVuSans-73" transform="translate(927.091797 0)"/>
     </g>
    </g>
    <g id="line2d_44">
     <path d="M 636.320312 167.685312 
L 646.320312 167.685312 
L 656.320312 167.685312 
" style="fill: none; stroke: #3b528b; stroke-width: 1.5; stroke-linecap: square"/>
    </g>
    <g id="text_22">
     <!-- Fold 8 Training Loss -->
     <g transform="translate(664.320312 171.185312) scale(0.1 -0.1)">
      <defs>
       <path id="DejaVuSans-38" d="M 2034 2216 
Q 1584 2216 1326 1975 
Q 1069 1734 1069 1313 
Q 1069 891 1326 650 
Q 1584 409 2034 409 
Q 2484 409 2743 651 
Q 3003 894 3003 1313 
Q 3003 1734 2745 1975 
Q 2488 2216 2034 2216 
z
M 1403 2484 
Q 997 2584 770 2862 
Q 544 3141 544 3541 
Q 544 4100 942 4425 
Q 1341 4750 2034 4750 
Q 2731 4750 3128 4425 
Q 3525 4100 3525 3541 
Q 3525 3141 3298 2862 
Q 3072 2584 2669 2484 
Q 3125 2378 3379 2068 
Q 3634 1759 3634 1313 
Q 3634 634 3220 271 
Q 2806 -91 2034 -91 
Q 1263 -91 848 271 
Q 434 634 434 1313 
Q 434 1759 690 2068 
Q 947 2378 1403 2484 
z
M 1172 3481 
Q 1172 3119 1398 2916 
Q 1625 2713 2034 2713 
Q 2441 2713 2670 2916 
Q 2900 3119 2900 3481 
Q 2900 3844 2670 4047 
Q 2441 4250 2034 4250 
Q 1625 4250 1398 4047 
Q 1172 3844 1172 3481 
z
" transform="scale(0.015625)"/>
      </defs>
      <use xlink:href="#DejaVuSans-46"/>
      <use xlink:href="#DejaVuSans-6f" transform="translate(53.894531 0)"/>
      <use xlink:href="#DejaVuSans-6c" transform="translate(115.076172 0)"/>
      <use xlink:href="#DejaVuSans-64" transform="translate(142.859375 0)"/>
      <use xlink:href="#DejaVuSans-20" transform="translate(206.335938 0)"/>
      <use xlink:href="#DejaVuSans-38" transform="translate(238.123047 0)"/>
      <use xlink:href="#DejaVuSans-20" transform="translate(301.746094 0)"/>
      <use xlink:href="#DejaVuSans-54" transform="translate(333.533203 0)"/>
      <use xlink:href="#DejaVuSans-72" transform="translate(379.867188 0)"/>
      <use xlink:href="#DejaVuSans-61" transform="translate(420.980469 0)"/>
      <use xlink:href="#DejaVuSans-69" transform="translate(482.259766 0)"/>
      <use xlink:href="#DejaVuSans-6e" transform="translate(510.042969 0)"/>
      <use xlink:href="#DejaVuSans-69" transform="translate(573.421875 0)"/>
      <use xlink:href="#DejaVuSans-6e" transform="translate(601.205078 0)"/>
      <use xlink:href="#DejaVuSans-67" transform="translate(664.583984 0)"/>
      <use xlink:href="#DejaVuSans-20" transform="translate(728.060547 0)"/>
      <use xlink:href="#DejaVuSans-4c" transform="translate(759.847656 0)"/>
      <use xlink:href="#DejaVuSans-6f" transform="translate(813.810547 0)"/>
      <use xlink:href="#DejaVuSans-73" transform="translate(874.992188 0)"/>
      <use xlink:href="#DejaVuSans-73" transform="translate(927.091797 0)"/>
     </g>
    </g>
    <g id="line2d_45">
     <path d="M 636.320312 182.363437 
L 646.320312 182.363437 
L 656.320312 182.363437 
" style="fill: none; stroke: #3b528b; stroke-width: 1.5; stroke-linecap: square"/>
    </g>
    <g id="text_23">
     <!-- Fold 9 Training Loss -->
     <g transform="translate(664.320312 185.863437) scale(0.1 -0.1)">
      <defs>
       <path id="DejaVuSans-39" d="M 703 97 
L 703 672 
Q 941 559 1184 500 
Q 1428 441 1663 441 
Q 2288 441 2617 861 
Q 2947 1281 2994 2138 
Q 2813 1869 2534 1725 
Q 2256 1581 1919 1581 
Q 1219 1581 811 2004 
Q 403 2428 403 3163 
Q 403 3881 828 4315 
Q 1253 4750 1959 4750 
Q 2769 4750 3195 4129 
Q 3622 3509 3622 2328 
Q 3622 1225 3098 567 
Q 2575 -91 1691 -91 
Q 1453 -91 1209 -44 
Q 966 3 703 97 
z
M 1959 2075 
Q 2384 2075 2632 2365 
Q 2881 2656 2881 3163 
Q 2881 3666 2632 3958 
Q 2384 4250 1959 4250 
Q 1534 4250 1286 3958 
Q 1038 3666 1038 3163 
Q 1038 2656 1286 2365 
Q 1534 2075 1959 2075 
z
" transform="scale(0.015625)"/>
      </defs>
      <use xlink:href="#DejaVuSans-46"/>
      <use xlink:href="#DejaVuSans-6f" transform="translate(53.894531 0)"/>
      <use xlink:href="#DejaVuSans-6c" transform="translate(115.076172 0)"/>
      <use xlink:href="#DejaVuSans-64" transform="translate(142.859375 0)"/>
      <use xlink:href="#DejaVuSans-20" transform="translate(206.335938 0)"/>
      <use xlink:href="#DejaVuSans-39" transform="translate(238.123047 0)"/>
      <use xlink:href="#DejaVuSans-20" transform="translate(301.746094 0)"/>
      <use xlink:href="#DejaVuSans-54" transform="translate(333.533203 0)"/>
      <use xlink:href="#DejaVuSans-72" transform="translate(379.867188 0)"/>
      <use xlink:href="#DejaVuSans-61" transform="translate(420.980469 0)"/>
      <use xlink:href="#DejaVuSans-69" transform="translate(482.259766 0)"/>
      <use xlink:href="#DejaVuSans-6e" transform="translate(510.042969 0)"/>
      <use xlink:href="#DejaVuSans-69" transform="translate(573.421875 0)"/>
      <use xlink:href="#DejaVuSans-6e" transform="translate(601.205078 0)"/>
      <use xlink:href="#DejaVuSans-67" transform="translate(664.583984 0)"/>
      <use xlink:href="#DejaVuSans-20" transform="translate(728.060547 0)"/>
      <use xlink:href="#DejaVuSans-4c" transform="translate(759.847656 0)"/>
      <use xlink:href="#DejaVuSans-6f" transform="translate(813.810547 0)"/>
      <use xlink:href="#DejaVuSans-73" transform="translate(874.992188 0)"/>
      <use xlink:href="#DejaVuSans-73" transform="translate(927.091797 0)"/>
     </g>
    </g>
    <g id="line2d_46">
     <path d="M 636.320312 197.041562 
L 646.320312 197.041562 
L 656.320312 197.041562 
" style="fill: none; stroke: #3b528b; stroke-width: 1.5; stroke-linecap: square"/>
    </g>
    <g id="text_24">
     <!-- Fold 10 Training Loss -->
     <g transform="translate(664.320312 200.541562) scale(0.1 -0.1)">
      <use xlink:href="#DejaVuSans-46"/>
      <use xlink:href="#DejaVuSans-6f" transform="translate(53.894531 0)"/>
      <use xlink:href="#DejaVuSans-6c" transform="translate(115.076172 0)"/>
      <use xlink:href="#DejaVuSans-64" transform="translate(142.859375 0)"/>
      <use xlink:href="#DejaVuSans-20" transform="translate(206.335938 0)"/>
      <use xlink:href="#DejaVuSans-31" transform="translate(238.123047 0)"/>
      <use xlink:href="#DejaVuSans-30" transform="translate(301.746094 0)"/>
      <use xlink:href="#DejaVuSans-20" transform="translate(365.369141 0)"/>
      <use xlink:href="#DejaVuSans-54" transform="translate(397.15625 0)"/>
      <use xlink:href="#DejaVuSans-72" transform="translate(443.490234 0)"/>
      <use xlink:href="#DejaVuSans-61" transform="translate(484.603516 0)"/>
      <use xlink:href="#DejaVuSans-69" transform="translate(545.882812 0)"/>
      <use xlink:href="#DejaVuSans-6e" transform="translate(573.666016 0)"/>
      <use xlink:href="#DejaVuSans-69" transform="translate(637.044922 0)"/>
      <use xlink:href="#DejaVuSans-6e" transform="translate(664.828125 0)"/>
      <use xlink:href="#DejaVuSans-67" transform="translate(728.207031 0)"/>
      <use xlink:href="#DejaVuSans-20" transform="translate(791.683594 0)"/>
      <use xlink:href="#DejaVuSans-4c" transform="translate(823.470703 0)"/>
      <use xlink:href="#DejaVuSans-6f" transform="translate(877.433594 0)"/>
      <use xlink:href="#DejaVuSans-73" transform="translate(938.615234 0)"/>
      <use xlink:href="#DejaVuSans-73" transform="translate(990.714844 0)"/>
     </g>
    </g>
    <g id="line2d_47">
     <path d="M 636.320312 211.719687 
L 646.320312 211.719687 
L 656.320312 211.719687 
" style="fill: none; stroke: #21918c; stroke-width: 1.5; stroke-linecap: square"/>
    </g>
    <g id="text_25">
     <!-- Fold 11 Training Loss -->
     <g transform="translate(664.320312 215.219687) scale(0.1 -0.1)">
      <use xlink:href="#DejaVuSans-46"/>
      <use xlink:href="#DejaVuSans-6f" transform="translate(53.894531 0)"/>
      <use xlink:href="#DejaVuSans-6c" transform="translate(115.076172 0)"/>
      <use xlink:href="#DejaVuSans-64" transform="translate(142.859375 0)"/>
      <use xlink:href="#DejaVuSans-20" transform="translate(206.335938 0)"/>
      <use xlink:href="#DejaVuSans-31" transform="translate(238.123047 0)"/>
      <use xlink:href="#DejaVuSans-31" transform="translate(301.746094 0)"/>
      <use xlink:href="#DejaVuSans-20" transform="translate(365.369141 0)"/>
      <use xlink:href="#DejaVuSans-54" transform="translate(397.15625 0)"/>
      <use xlink:href="#DejaVuSans-72" transform="translate(443.490234 0)"/>
      <use xlink:href="#DejaVuSans-61" transform="translate(484.603516 0)"/>
      <use xlink:href="#DejaVuSans-69" transform="translate(545.882812 0)"/>
      <use xlink:href="#DejaVuSans-6e" transform="translate(573.666016 0)"/>
      <use xlink:href="#DejaVuSans-69" transform="translate(637.044922 0)"/>
      <use xlink:href="#DejaVuSans-6e" transform="translate(664.828125 0)"/>
      <use xlink:href="#DejaVuSans-67" transform="translate(728.207031 0)"/>
      <use xlink:href="#DejaVuSans-20" transform="translate(791.683594 0)"/>
      <use xlink:href="#DejaVuSans-4c" transform="translate(823.470703 0)"/>
      <use xlink:href="#DejaVuSans-6f" transform="translate(877.433594 0)"/>
      <use xlink:href="#DejaVuSans-73" transform="translate(938.615234 0)"/>
      <use xlink:href="#DejaVuSans-73" transform="translate(990.714844 0)"/>
     </g>
    </g>
    <g id="line2d_48">
     <path d="M 636.320312 226.397812 
L 646.320312 226.397812 
L 656.320312 226.397812 
" style="fill: none; stroke: #21918c; stroke-width: 1.5; stroke-linecap: square"/>
    </g>
    <g id="text_26">
     <!-- Fold 12 Training Loss -->
     <g transform="translate(664.320312 229.897812) scale(0.1 -0.1)">
      <use xlink:href="#DejaVuSans-46"/>
      <use xlink:href="#DejaVuSans-6f" transform="translate(53.894531 0)"/>
      <use xlink:href="#DejaVuSans-6c" transform="translate(115.076172 0)"/>
      <use xlink:href="#DejaVuSans-64" transform="translate(142.859375 0)"/>
      <use xlink:href="#DejaVuSans-20" transform="translate(206.335938 0)"/>
      <use xlink:href="#DejaVuSans-31" transform="translate(238.123047 0)"/>
      <use xlink:href="#DejaVuSans-32" transform="translate(301.746094 0)"/>
      <use xlink:href="#DejaVuSans-20" transform="translate(365.369141 0)"/>
      <use xlink:href="#DejaVuSans-54" transform="translate(397.15625 0)"/>
      <use xlink:href="#DejaVuSans-72" transform="translate(443.490234 0)"/>
      <use xlink:href="#DejaVuSans-61" transform="translate(484.603516 0)"/>
      <use xlink:href="#DejaVuSans-69" transform="translate(545.882812 0)"/>
      <use xlink:href="#DejaVuSans-6e" transform="translate(573.666016 0)"/>
      <use xlink:href="#DejaVuSans-69" transform="translate(637.044922 0)"/>
      <use xlink:href="#DejaVuSans-6e" transform="translate(664.828125 0)"/>
      <use xlink:href="#DejaVuSans-67" transform="translate(728.207031 0)"/>
      <use xlink:href="#DejaVuSans-20" transform="translate(791.683594 0)"/>
      <use xlink:href="#DejaVuSans-4c" transform="translate(823.470703 0)"/>
      <use xlink:href="#DejaVuSans-6f" transform="translate(877.433594 0)"/>
      <use xlink:href="#DejaVuSans-73" transform="translate(938.615234 0)"/>
      <use xlink:href="#DejaVuSans-73" transform="translate(990.714844 0)"/>
     </g>
    </g>
    <g id="line2d_49">
     <path d="M 636.320312 241.075937 
L 646.320312 241.075937 
L 656.320312 241.075937 
" style="fill: none; stroke: #21918c; stroke-width: 1.5; stroke-linecap: square"/>
    </g>
    <g id="text_27">
     <!-- Fold 13 Training Loss -->
     <g transform="translate(664.320312 244.575937) scale(0.1 -0.1)">
      <use xlink:href="#DejaVuSans-46"/>
      <use xlink:href="#DejaVuSans-6f" transform="translate(53.894531 0)"/>
      <use xlink:href="#DejaVuSans-6c" transform="translate(115.076172 0)"/>
      <use xlink:href="#DejaVuSans-64" transform="translate(142.859375 0)"/>
      <use xlink:href="#DejaVuSans-20" transform="translate(206.335938 0)"/>
      <use xlink:href="#DejaVuSans-31" transform="translate(238.123047 0)"/>
      <use xlink:href="#DejaVuSans-33" transform="translate(301.746094 0)"/>
      <use xlink:href="#DejaVuSans-20" transform="translate(365.369141 0)"/>
      <use xlink:href="#DejaVuSans-54" transform="translate(397.15625 0)"/>
      <use xlink:href="#DejaVuSans-72" transform="translate(443.490234 0)"/>
      <use xlink:href="#DejaVuSans-61" transform="translate(484.603516 0)"/>
      <use xlink:href="#DejaVuSans-69" transform="translate(545.882812 0)"/>
      <use xlink:href="#DejaVuSans-6e" transform="translate(573.666016 0)"/>
      <use xlink:href="#DejaVuSans-69" transform="translate(637.044922 0)"/>
      <use xlink:href="#DejaVuSans-6e" transform="translate(664.828125 0)"/>
      <use xlink:href="#DejaVuSans-67" transform="translate(728.207031 0)"/>
      <use xlink:href="#DejaVuSans-20" transform="translate(791.683594 0)"/>
      <use xlink:href="#DejaVuSans-4c" transform="translate(823.470703 0)"/>
      <use xlink:href="#DejaVuSans-6f" transform="translate(877.433594 0)"/>
      <use xlink:href="#DejaVuSans-73" transform="translate(938.615234 0)"/>
      <use xlink:href="#DejaVuSans-73" transform="translate(990.714844 0)"/>
     </g>
    </g>
    <g id="line2d_50">
     <path d="M 636.320312 255.754062 
L 646.320312 255.754062 
L 656.320312 255.754062 
" style="fill: none; stroke: #21918c; stroke-width: 1.5; stroke-linecap: square"/>
    </g>
    <g id="text_28">
     <!-- Fold 14 Training Loss -->
     <g transform="translate(664.320312 259.254062) scale(0.1 -0.1)">
      <use xlink:href="#DejaVuSans-46"/>
      <use xlink:href="#DejaVuSans-6f" transform="translate(53.894531 0)"/>
      <use xlink:href="#DejaVuSans-6c" transform="translate(115.076172 0)"/>
      <use xlink:href="#DejaVuSans-64" transform="translate(142.859375 0)"/>
      <use xlink:href="#DejaVuSans-20" transform="translate(206.335938 0)"/>
      <use xlink:href="#DejaVuSans-31" transform="translate(238.123047 0)"/>
      <use xlink:href="#DejaVuSans-34" transform="translate(301.746094 0)"/>
      <use xlink:href="#DejaVuSans-20" transform="translate(365.369141 0)"/>
      <use xlink:href="#DejaVuSans-54" transform="translate(397.15625 0)"/>
      <use xlink:href="#DejaVuSans-72" transform="translate(443.490234 0)"/>
      <use xlink:href="#DejaVuSans-61" transform="translate(484.603516 0)"/>
      <use xlink:href="#DejaVuSans-69" transform="translate(545.882812 0)"/>
      <use xlink:href="#DejaVuSans-6e" transform="translate(573.666016 0)"/>
      <use xlink:href="#DejaVuSans-69" transform="translate(637.044922 0)"/>
      <use xlink:href="#DejaVuSans-6e" transform="translate(664.828125 0)"/>
      <use xlink:href="#DejaVuSans-67" transform="translate(728.207031 0)"/>
      <use xlink:href="#DejaVuSans-20" transform="translate(791.683594 0)"/>
      <use xlink:href="#DejaVuSans-4c" transform="translate(823.470703 0)"/>
      <use xlink:href="#DejaVuSans-6f" transform="translate(877.433594 0)"/>
      <use xlink:href="#DejaVuSans-73" transform="translate(938.615234 0)"/>
      <use xlink:href="#DejaVuSans-73" transform="translate(990.714844 0)"/>
     </g>
    </g>
    <g id="line2d_51">
     <path d="M 636.320312 270.432187 
L 646.320312 270.432187 
L 656.320312 270.432187 
" style="fill: none; stroke: #21918c; stroke-width: 1.5; stroke-linecap: square"/>
    </g>
    <g id="text_29">
     <!-- Fold 15 Training Loss -->
     <g transform="translate(664.320312 273.932187) scale(0.1 -0.1)">
      <use xlink:href="#DejaVuSans-46"/>
      <use xlink:href="#DejaVuSans-6f" transform="translate(53.894531 0)"/>
      <use xlink:href="#DejaVuSans-6c" transform="translate(115.076172 0)"/>
      <use xlink:href="#DejaVuSans-64" transform="translate(142.859375 0)"/>
      <use xlink:href="#DejaVuSans-20" transform="translate(206.335938 0)"/>
      <use xlink:href="#DejaVuSans-31" transform="translate(238.123047 0)"/>
      <use xlink:href="#DejaVuSans-35" transform="translate(301.746094 0)"/>
      <use xlink:href="#DejaVuSans-20" transform="translate(365.369141 0)"/>
      <use xlink:href="#DejaVuSans-54" transform="translate(397.15625 0)"/>
      <use xlink:href="#DejaVuSans-72" transform="translate(443.490234 0)"/>
      <use xlink:href="#DejaVuSans-61" transform="translate(484.603516 0)"/>
      <use xlink:href="#DejaVuSans-69" transform="translate(545.882812 0)"/>
      <use xlink:href="#DejaVuSans-6e" transform="translate(573.666016 0)"/>
      <use xlink:href="#DejaVuSans-69" transform="translate(637.044922 0)"/>
      <use xlink:href="#DejaVuSans-6e" transform="translate(664.828125 0)"/>
      <use xlink:href="#DejaVuSans-67" transform="translate(728.207031 0)"/>
      <use xlink:href="#DejaVuSans-20" transform="translate(791.683594 0)"/>
      <use xlink:href="#DejaVuSans-4c" transform="translate(823.470703 0)"/>
      <use xlink:href="#DejaVuSans-6f" transform="translate(877.433594 0)"/>
      <use xlink:href="#DejaVuSans-73" transform="translate(938.615234 0)"/>
      <use xlink:href="#DejaVuSans-73" transform="translate(990.714844 0)"/>
     </g>
    </g>
    <g id="line2d_52">
     <path d="M 636.320312 285.110312 
L 646.320312 285.110312 
L 656.320312 285.110312 
" style="fill: none; stroke: #5ec962; stroke-width: 1.5; stroke-linecap: square"/>
    </g>
    <g id="text_30">
     <!-- Fold 16 Training Loss -->
     <g transform="translate(664.320312 288.610312) scale(0.1 -0.1)">
      <use xlink:href="#DejaVuSans-46"/>
      <use xlink:href="#DejaVuSans-6f" transform="translate(53.894531 0)"/>
      <use xlink:href="#DejaVuSans-6c" transform="translate(115.076172 0)"/>
      <use xlink:href="#DejaVuSans-64" transform="translate(142.859375 0)"/>
      <use xlink:href="#DejaVuSans-20" transform="translate(206.335938 0)"/>
      <use xlink:href="#DejaVuSans-31" transform="translate(238.123047 0)"/>
      <use xlink:href="#DejaVuSans-36" transform="translate(301.746094 0)"/>
      <use xlink:href="#DejaVuSans-20" transform="translate(365.369141 0)"/>
      <use xlink:href="#DejaVuSans-54" transform="translate(397.15625 0)"/>
      <use xlink:href="#DejaVuSans-72" transform="translate(443.490234 0)"/>
      <use xlink:href="#DejaVuSans-61" transform="translate(484.603516 0)"/>
      <use xlink:href="#DejaVuSans-69" transform="translate(545.882812 0)"/>
      <use xlink:href="#DejaVuSans-6e" transform="translate(573.666016 0)"/>
      <use xlink:href="#DejaVuSans-69" transform="translate(637.044922 0)"/>
      <use xlink:href="#DejaVuSans-6e" transform="translate(664.828125 0)"/>
      <use xlink:href="#DejaVuSans-67" transform="translate(728.207031 0)"/>
      <use xlink:href="#DejaVuSans-20" transform="translate(791.683594 0)"/>
      <use xlink:href="#DejaVuSans-4c" transform="translate(823.470703 0)"/>
      <use xlink:href="#DejaVuSans-6f" transform="translate(877.433594 0)"/>
      <use xlink:href="#DejaVuSans-73" transform="translate(938.615234 0)"/>
      <use xlink:href="#DejaVuSans-73" transform="translate(990.714844 0)"/>
     </g>
    </g>
    <g id="line2d_53">
     <path d="M 636.320312 299.788437 
L 646.320312 299.788437 
L 656.320312 299.788437 
" style="fill: none; stroke: #5ec962; stroke-width: 1.5; stroke-linecap: square"/>
    </g>
    <g id="text_31">
     <!-- Fold 17 Training Loss -->
     <g transform="translate(664.320312 303.288437) scale(0.1 -0.1)">
      <use xlink:href="#DejaVuSans-46"/>
      <use xlink:href="#DejaVuSans-6f" transform="translate(53.894531 0)"/>
      <use xlink:href="#DejaVuSans-6c" transform="translate(115.076172 0)"/>
      <use xlink:href="#DejaVuSans-64" transform="translate(142.859375 0)"/>
      <use xlink:href="#DejaVuSans-20" transform="translate(206.335938 0)"/>
      <use xlink:href="#DejaVuSans-31" transform="translate(238.123047 0)"/>
      <use xlink:href="#DejaVuSans-37" transform="translate(301.746094 0)"/>
      <use xlink:href="#DejaVuSans-20" transform="translate(365.369141 0)"/>
      <use xlink:href="#DejaVuSans-54" transform="translate(397.15625 0)"/>
      <use xlink:href="#DejaVuSans-72" transform="translate(443.490234 0)"/>
      <use xlink:href="#DejaVuSans-61" transform="translate(484.603516 0)"/>
      <use xlink:href="#DejaVuSans-69" transform="translate(545.882812 0)"/>
      <use xlink:href="#DejaVuSans-6e" transform="translate(573.666016 0)"/>
      <use xlink:href="#DejaVuSans-69" transform="translate(637.044922 0)"/>
      <use xlink:href="#DejaVuSans-6e" transform="translate(664.828125 0)"/>
      <use xlink:href="#DejaVuSans-67" transform="translate(728.207031 0)"/>
      <use xlink:href="#DejaVuSans-20" transform="translate(791.683594 0)"/>
      <use xlink:href="#DejaVuSans-4c" transform="translate(823.470703 0)"/>
      <use xlink:href="#DejaVuSans-6f" transform="translate(877.433594 0)"/>
      <use xlink:href="#DejaVuSans-73" transform="translate(938.615234 0)"/>
      <use xlink:href="#DejaVuSans-73" transform="translate(990.714844 0)"/>
     </g>
    </g>
    <g id="line2d_54">
     <path d="M 636.320312 314.466562 
L 646.320312 314.466562 
L 656.320312 314.466562 
" style="fill: none; stroke: #5ec962; stroke-width: 1.5; stroke-linecap: square"/>
    </g>
    <g id="text_32">
     <!-- Fold 18 Training Loss -->
     <g transform="translate(664.320312 317.966562) scale(0.1 -0.1)">
      <use xlink:href="#DejaVuSans-46"/>
      <use xlink:href="#DejaVuSans-6f" transform="translate(53.894531 0)"/>
      <use xlink:href="#DejaVuSans-6c" transform="translate(115.076172 0)"/>
      <use xlink:href="#DejaVuSans-64" transform="translate(142.859375 0)"/>
      <use xlink:href="#DejaVuSans-20" transform="translate(206.335938 0)"/>
      <use xlink:href="#DejaVuSans-31" transform="translate(238.123047 0)"/>
      <use xlink:href="#DejaVuSans-38" transform="translate(301.746094 0)"/>
      <use xlink:href="#DejaVuSans-20" transform="translate(365.369141 0)"/>
      <use xlink:href="#DejaVuSans-54" transform="translate(397.15625 0)"/>
      <use xlink:href="#DejaVuSans-72" transform="translate(443.490234 0)"/>
      <use xlink:href="#DejaVuSans-61" transform="translate(484.603516 0)"/>
      <use xlink:href="#DejaVuSans-69" transform="translate(545.882812 0)"/>
      <use xlink:href="#DejaVuSans-6e" transform="translate(573.666016 0)"/>
      <use xlink:href="#DejaVuSans-69" transform="translate(637.044922 0)"/>
      <use xlink:href="#DejaVuSans-6e" transform="translate(664.828125 0)"/>
      <use xlink:href="#DejaVuSans-67" transform="translate(728.207031 0)"/>
      <use xlink:href="#DejaVuSans-20" transform="translate(791.683594 0)"/>
      <use xlink:href="#DejaVuSans-4c" transform="translate(823.470703 0)"/>
      <use xlink:href="#DejaVuSans-6f" transform="translate(877.433594 0)"/>
      <use xlink:href="#DejaVuSans-73" transform="translate(938.615234 0)"/>
      <use xlink:href="#DejaVuSans-73" transform="translate(990.714844 0)"/>
     </g>
    </g>
    <g id="line2d_55">
     <path d="M 636.320312 329.144687 
L 646.320312 329.144687 
L 656.320312 329.144687 
" style="fill: none; stroke: #5ec962; stroke-width: 1.5; stroke-linecap: square"/>
    </g>
    <g id="text_33">
     <!-- Fold 19 Training Loss -->
     <g transform="translate(664.320312 332.644687) scale(0.1 -0.1)">
      <use xlink:href="#DejaVuSans-46"/>
      <use xlink:href="#DejaVuSans-6f" transform="translate(53.894531 0)"/>
      <use xlink:href="#DejaVuSans-6c" transform="translate(115.076172 0)"/>
      <use xlink:href="#DejaVuSans-64" transform="translate(142.859375 0)"/>
      <use xlink:href="#DejaVuSans-20" transform="translate(206.335938 0)"/>
      <use xlink:href="#DejaVuSans-31" transform="translate(238.123047 0)"/>
      <use xlink:href="#DejaVuSans-39" transform="translate(301.746094 0)"/>
      <use xlink:href="#DejaVuSans-20" transform="translate(365.369141 0)"/>
      <use xlink:href="#DejaVuSans-54" transform="translate(397.15625 0)"/>
      <use xlink:href="#DejaVuSans-72" transform="translate(443.490234 0)"/>
      <use xlink:href="#DejaVuSans-61" transform="translate(484.603516 0)"/>
      <use xlink:href="#DejaVuSans-69" transform="translate(545.882812 0)"/>
      <use xlink:href="#DejaVuSans-6e" transform="translate(573.666016 0)"/>
      <use xlink:href="#DejaVuSans-69" transform="translate(637.044922 0)"/>
      <use xlink:href="#DejaVuSans-6e" transform="translate(664.828125 0)"/>
      <use xlink:href="#DejaVuSans-67" transform="translate(728.207031 0)"/>
      <use xlink:href="#DejaVuSans-20" transform="translate(791.683594 0)"/>
      <use xlink:href="#DejaVuSans-4c" transform="translate(823.470703 0)"/>
      <use xlink:href="#DejaVuSans-6f" transform="translate(877.433594 0)"/>
      <use xlink:href="#DejaVuSans-73" transform="translate(938.615234 0)"/>
      <use xlink:href="#DejaVuSans-73" transform="translate(990.714844 0)"/>
     </g>
    </g>
    <g id="line2d_56">
     <path d="M 636.320312 343.822812 
L 646.320312 343.822812 
L 656.320312 343.822812 
" style="fill: none; stroke: #5ec962; stroke-width: 1.5; stroke-linecap: square"/>
    </g>
    <g id="text_34">
     <!-- Fold 20 Training Loss -->
     <g transform="translate(664.320312 347.322812) scale(0.1 -0.1)">
      <use xlink:href="#DejaVuSans-46"/>
      <use xlink:href="#DejaVuSans-6f" transform="translate(53.894531 0)"/>
      <use xlink:href="#DejaVuSans-6c" transform="translate(115.076172 0)"/>
      <use xlink:href="#DejaVuSans-64" transform="translate(142.859375 0)"/>
      <use xlink:href="#DejaVuSans-20" transform="translate(206.335938 0)"/>
      <use xlink:href="#DejaVuSans-32" transform="translate(238.123047 0)"/>
      <use xlink:href="#DejaVuSans-30" transform="translate(301.746094 0)"/>
      <use xlink:href="#DejaVuSans-20" transform="translate(365.369141 0)"/>
      <use xlink:href="#DejaVuSans-54" transform="translate(397.15625 0)"/>
      <use xlink:href="#DejaVuSans-72" transform="translate(443.490234 0)"/>
      <use xlink:href="#DejaVuSans-61" transform="translate(484.603516 0)"/>
      <use xlink:href="#DejaVuSans-69" transform="translate(545.882812 0)"/>
      <use xlink:href="#DejaVuSans-6e" transform="translate(573.666016 0)"/>
      <use xlink:href="#DejaVuSans-69" transform="translate(637.044922 0)"/>
      <use xlink:href="#DejaVuSans-6e" transform="translate(664.828125 0)"/>
      <use xlink:href="#DejaVuSans-67" transform="translate(728.207031 0)"/>
      <use xlink:href="#DejaVuSans-20" transform="translate(791.683594 0)"/>
      <use xlink:href="#DejaVuSans-4c" transform="translate(823.470703 0)"/>
      <use xlink:href="#DejaVuSans-6f" transform="translate(877.433594 0)"/>
      <use xlink:href="#DejaVuSans-73" transform="translate(938.615234 0)"/>
      <use xlink:href="#DejaVuSans-73" transform="translate(990.714844 0)"/>
     </g>
    </g>
    <g id="line2d_57">
     <path d="M 636.320312 358.500937 
L 646.320312 358.500937 
L 656.320312 358.500937 
" style="fill: none; stroke: #fde725; stroke-width: 1.5; stroke-linecap: square"/>
    </g>
    <g id="text_35">
     <!-- Fold 21 Training Loss -->
     <g transform="translate(664.320312 362.000937) scale(0.1 -0.1)">
      <use xlink:href="#DejaVuSans-46"/>
      <use xlink:href="#DejaVuSans-6f" transform="translate(53.894531 0)"/>
      <use xlink:href="#DejaVuSans-6c" transform="translate(115.076172 0)"/>
      <use xlink:href="#DejaVuSans-64" transform="translate(142.859375 0)"/>
      <use xlink:href="#DejaVuSans-20" transform="translate(206.335938 0)"/>
      <use xlink:href="#DejaVuSans-32" transform="translate(238.123047 0)"/>
      <use xlink:href="#DejaVuSans-31" transform="translate(301.746094 0)"/>
      <use xlink:href="#DejaVuSans-20" transform="translate(365.369141 0)"/>
      <use xlink:href="#DejaVuSans-54" transform="translate(397.15625 0)"/>
      <use xlink:href="#DejaVuSans-72" transform="translate(443.490234 0)"/>
      <use xlink:href="#DejaVuSans-61" transform="translate(484.603516 0)"/>
      <use xlink:href="#DejaVuSans-69" transform="translate(545.882812 0)"/>
      <use xlink:href="#DejaVuSans-6e" transform="translate(573.666016 0)"/>
      <use xlink:href="#DejaVuSans-69" transform="translate(637.044922 0)"/>
      <use xlink:href="#DejaVuSans-6e" transform="translate(664.828125 0)"/>
      <use xlink:href="#DejaVuSans-67" transform="translate(728.207031 0)"/>
      <use xlink:href="#DejaVuSans-20" transform="translate(791.683594 0)"/>
      <use xlink:href="#DejaVuSans-4c" transform="translate(823.470703 0)"/>
      <use xlink:href="#DejaVuSans-6f" transform="translate(877.433594 0)"/>
      <use xlink:href="#DejaVuSans-73" transform="translate(938.615234 0)"/>
      <use xlink:href="#DejaVuSans-73" transform="translate(990.714844 0)"/>
     </g>
    </g>
    <g id="line2d_58">
     <path d="M 636.320312 373.179062 
L 646.320312 373.179062 
L 656.320312 373.179062 
" style="fill: none; stroke: #fde725; stroke-width: 1.5; stroke-linecap: square"/>
    </g>
    <g id="text_36">
     <!-- Fold 22 Training Loss -->
     <g transform="translate(664.320312 376.679062) scale(0.1 -0.1)">
      <use xlink:href="#DejaVuSans-46"/>
      <use xlink:href="#DejaVuSans-6f" transform="translate(53.894531 0)"/>
      <use xlink:href="#DejaVuSans-6c" transform="translate(115.076172 0)"/>
      <use xlink:href="#DejaVuSans-64" transform="translate(142.859375 0)"/>
      <use xlink:href="#DejaVuSans-20" transform="translate(206.335938 0)"/>
      <use xlink:href="#DejaVuSans-32" transform="translate(238.123047 0)"/>
      <use xlink:href="#DejaVuSans-32" transform="translate(301.746094 0)"/>
      <use xlink:href="#DejaVuSans-20" transform="translate(365.369141 0)"/>
      <use xlink:href="#DejaVuSans-54" transform="translate(397.15625 0)"/>
      <use xlink:href="#DejaVuSans-72" transform="translate(443.490234 0)"/>
      <use xlink:href="#DejaVuSans-61" transform="translate(484.603516 0)"/>
      <use xlink:href="#DejaVuSans-69" transform="translate(545.882812 0)"/>
      <use xlink:href="#DejaVuSans-6e" transform="translate(573.666016 0)"/>
      <use xlink:href="#DejaVuSans-69" transform="translate(637.044922 0)"/>
      <use xlink:href="#DejaVuSans-6e" transform="translate(664.828125 0)"/>
      <use xlink:href="#DejaVuSans-67" transform="translate(728.207031 0)"/>
      <use xlink:href="#DejaVuSans-20" transform="translate(791.683594 0)"/>
      <use xlink:href="#DejaVuSans-4c" transform="translate(823.470703 0)"/>
      <use xlink:href="#DejaVuSans-6f" transform="translate(877.433594 0)"/>
      <use xlink:href="#DejaVuSans-73" transform="translate(938.615234 0)"/>
      <use xlink:href="#DejaVuSans-73" transform="translate(990.714844 0)"/>
     </g>
    </g>
    <g id="line2d_59">
     <path d="M 636.320312 387.857188 
L 646.320312 387.857188 
L 656.320312 387.857188 
" style="fill: none; stroke: #fde725; stroke-width: 1.5; stroke-linecap: square"/>
    </g>
    <g id="text_37">
     <!-- Fold 23 Training Loss -->
     <g transform="translate(664.320312 391.357188) scale(0.1 -0.1)">
      <use xlink:href="#DejaVuSans-46"/>
      <use xlink:href="#DejaVuSans-6f" transform="translate(53.894531 0)"/>
      <use xlink:href="#DejaVuSans-6c" transform="translate(115.076172 0)"/>
      <use xlink:href="#DejaVuSans-64" transform="translate(142.859375 0)"/>
      <use xlink:href="#DejaVuSans-20" transform="translate(206.335938 0)"/>
      <use xlink:href="#DejaVuSans-32" transform="translate(238.123047 0)"/>
      <use xlink:href="#DejaVuSans-33" transform="translate(301.746094 0)"/>
      <use xlink:href="#DejaVuSans-20" transform="translate(365.369141 0)"/>
      <use xlink:href="#DejaVuSans-54" transform="translate(397.15625 0)"/>
      <use xlink:href="#DejaVuSans-72" transform="translate(443.490234 0)"/>
      <use xlink:href="#DejaVuSans-61" transform="translate(484.603516 0)"/>
      <use xlink:href="#DejaVuSans-69" transform="translate(545.882812 0)"/>
      <use xlink:href="#DejaVuSans-6e" transform="translate(573.666016 0)"/>
      <use xlink:href="#DejaVuSans-69" transform="translate(637.044922 0)"/>
      <use xlink:href="#DejaVuSans-6e" transform="translate(664.828125 0)"/>
      <use xlink:href="#DejaVuSans-67" transform="translate(728.207031 0)"/>
      <use xlink:href="#DejaVuSans-20" transform="translate(791.683594 0)"/>
      <use xlink:href="#DejaVuSans-4c" transform="translate(823.470703 0)"/>
      <use xlink:href="#DejaVuSans-6f" transform="translate(877.433594 0)"/>
      <use xlink:href="#DejaVuSans-73" transform="translate(938.615234 0)"/>
      <use xlink:href="#DejaVuSans-73" transform="translate(990.714844 0)"/>
     </g>
    </g>
    <g id="line2d_60">
     <path d="M 636.320312 402.535313 
L 646.320312 402.535313 
L 656.320312 402.535313 
" style="fill: none; stroke: #fde725; stroke-width: 1.5; stroke-linecap: square"/>
    </g>
    <g id="text_38">
     <!-- Fold 24 Training Loss -->
     <g transform="translate(664.320312 406.035313) scale(0.1 -0.1)">
      <use xlink:href="#DejaVuSans-46"/>
      <use xlink:href="#DejaVuSans-6f" transform="translate(53.894531 0)"/>
      <use xlink:href="#DejaVuSans-6c" transform="translate(115.076172 0)"/>
      <use xlink:href="#DejaVuSans-64" transform="translate(142.859375 0)"/>
      <use xlink:href="#DejaVuSans-20" transform="translate(206.335938 0)"/>
      <use xlink:href="#DejaVuSans-32" transform="translate(238.123047 0)"/>
      <use xlink:href="#DejaVuSans-34" transform="translate(301.746094 0)"/>
      <use xlink:href="#DejaVuSans-20" transform="translate(365.369141 0)"/>
      <use xlink:href="#DejaVuSans-54" transform="translate(397.15625 0)"/>
      <use xlink:href="#DejaVuSans-72" transform="translate(443.490234 0)"/>
      <use xlink:href="#DejaVuSans-61" transform="translate(484.603516 0)"/>
      <use xlink:href="#DejaVuSans-69" transform="translate(545.882812 0)"/>
      <use xlink:href="#DejaVuSans-6e" transform="translate(573.666016 0)"/>
      <use xlink:href="#DejaVuSans-69" transform="translate(637.044922 0)"/>
      <use xlink:href="#DejaVuSans-6e" transform="translate(664.828125 0)"/>
      <use xlink:href="#DejaVuSans-67" transform="translate(728.207031 0)"/>
      <use xlink:href="#DejaVuSans-20" transform="translate(791.683594 0)"/>
      <use xlink:href="#DejaVuSans-4c" transform="translate(823.470703 0)"/>
      <use xlink:href="#DejaVuSans-6f" transform="translate(877.433594 0)"/>
      <use xlink:href="#DejaVuSans-73" transform="translate(938.615234 0)"/>
      <use xlink:href="#DejaVuSans-73" transform="translate(990.714844 0)"/>
     </g>
    </g>
    <g id="line2d_61">
     <path d="M 636.320312 417.213438 
L 646.320312 417.213438 
L 656.320312 417.213438 
" style="fill: none; stroke: #fde725; stroke-width: 1.5; stroke-linecap: square"/>
    </g>
    <g id="text_39">
     <!-- Fold 25 Training Loss -->
     <g transform="translate(664.320312 420.713438) scale(0.1 -0.1)">
      <use xlink:href="#DejaVuSans-46"/>
      <use xlink:href="#DejaVuSans-6f" transform="translate(53.894531 0)"/>
      <use xlink:href="#DejaVuSans-6c" transform="translate(115.076172 0)"/>
      <use xlink:href="#DejaVuSans-64" transform="translate(142.859375 0)"/>
      <use xlink:href="#DejaVuSans-20" transform="translate(206.335938 0)"/>
      <use xlink:href="#DejaVuSans-32" transform="translate(238.123047 0)"/>
      <use xlink:href="#DejaVuSans-35" transform="translate(301.746094 0)"/>
      <use xlink:href="#DejaVuSans-20" transform="translate(365.369141 0)"/>
      <use xlink:href="#DejaVuSans-54" transform="translate(397.15625 0)"/>
      <use xlink:href="#DejaVuSans-72" transform="translate(443.490234 0)"/>
      <use xlink:href="#DejaVuSans-61" transform="translate(484.603516 0)"/>
      <use xlink:href="#DejaVuSans-69" transform="translate(545.882812 0)"/>
      <use xlink:href="#DejaVuSans-6e" transform="translate(573.666016 0)"/>
      <use xlink:href="#DejaVuSans-69" transform="translate(637.044922 0)"/>
      <use xlink:href="#DejaVuSans-6e" transform="translate(664.828125 0)"/>
      <use xlink:href="#DejaVuSans-67" transform="translate(728.207031 0)"/>
      <use xlink:href="#DejaVuSans-20" transform="translate(791.683594 0)"/>
      <use xlink:href="#DejaVuSans-4c" transform="translate(823.470703 0)"/>
      <use xlink:href="#DejaVuSans-6f" transform="translate(877.433594 0)"/>
      <use xlink:href="#DejaVuSans-73" transform="translate(938.615234 0)"/>
      <use xlink:href="#DejaVuSans-73" transform="translate(990.714844 0)"/>
     </g>
    </g>
   </g>
  </g>
 </g>
 <defs>
  <clipPath id="pd0a0f1aa77">
   <rect x="108" y="51.84" width="669.6" height="332.64"/>
  </clipPath>
 </defs>
</svg>
