<?xml version="1.0" encoding="utf-8" standalone="no"?>
<!DOCTYPE svg PUBLIC "-//W3C//DTD SVG 1.1//EN"
  "http://www.w3.org/Graphics/SVG/1.1/DTD/svg11.dtd">
<svg xmlns:xlink="http://www.w3.org/1999/xlink" width="864pt" height="432pt" viewBox="0 0 864 432" xmlns="http://www.w3.org/2000/svg" version="1.1">
 <metadata>
  <rdf:RDF xmlns:dc="http://purl.org/dc/elements/1.1/" xmlns:cc="http://creativecommons.org/ns#" xmlns:rdf="http://www.w3.org/1999/02/22-rdf-syntax-ns#">
   <cc:Work>
    <dc:type rdf:resource="http://purl.org/dc/dcmitype/StillImage"/>
    <dc:date>2024-08-17T17:00:36.741235</dc:date>
    <dc:format>image/svg+xml</dc:format>
    <dc:creator>
     <cc:Agent>
      <dc:title>Matplotlib v3.9.2, https://matplotlib.org/</dc:title>
     </cc:Agent>
    </dc:creator>
   </cc:Work>
  </rdf:RDF>
 </metadata>
 <defs>
  <style type="text/css">*{stroke-linejoin: round; stroke-linecap: butt}</style>
 </defs>
 <g id="figure_1">
  <g id="patch_1">
   <path d="M 0 432 
L 864 432 
L 864 0 
L 0 0 
z
" style="fill: #ffffff"/>
  </g>
  <g id="axes_1">
   <g id="patch_2">
    <path d="M 108 384.48 
L 777.6 384.48 
L 777.6 51.84 
L 108 51.84 
z
" style="fill: #ffffff"/>
   </g>
   <g id="matplotlib.axis_1">
    <g id="xtick_1">
     <g id="line2d_1">
      <defs>
       <path id="mef47310fe0" d="M 0 0 
L 0 3.5 
" style="stroke: #000000; stroke-width: 0.8"/>
      </defs>
      <g>
       <use xlink:href="#mef47310fe0" x="137.827027" y="384.48" style="stroke: #000000; stroke-width: 0.8"/>
      </g>
     </g>
     <g id="text_1">
      <!-- 0 -->
      <g transform="translate(134.645777 399.078438) scale(0.1 -0.1)">
       <defs>
        <path id="DejaVuSans-30" d="M 2034 4250 
Q 1547 4250 1301 3770 
Q 1056 3291 1056 2328 
Q 1056 1369 1301 889 
Q 1547 409 2034 409 
Q 2525 409 2770 889 
Q 3016 1369 3016 2328 
Q 3016 3291 2770 3770 
Q 2525 4250 2034 4250 
z
M 2034 4750 
Q 2819 4750 3233 4129 
Q 3647 3509 3647 2328 
Q 3647 1150 3233 529 
Q 2819 -91 2034 -91 
Q 1250 -91 836 529 
Q 422 1150 422 2328 
Q 422 3509 836 4129 
Q 1250 4750 2034 4750 
z
" transform="scale(0.015625)"/>
       </defs>
       <use xlink:href="#DejaVuSans-30"/>
      </g>
     </g>
    </g>
    <g id="xtick_2">
     <g id="line2d_2">
      <g>
       <use xlink:href="#mef47310fe0" x="259.694349" y="384.48" style="stroke: #000000; stroke-width: 0.8"/>
      </g>
     </g>
     <g id="text_2">
      <!-- 200 -->
      <g transform="translate(250.150599 399.078438) scale(0.1 -0.1)">
       <defs>
        <path id="DejaVuSans-32" d="M 1228 531 
L 3431 531 
L 3431 0 
L 469 0 
L 469 531 
Q 828 903 1448 1529 
Q 2069 2156 2228 2338 
Q 2531 2678 2651 2914 
Q 2772 3150 2772 3378 
Q 2772 3750 2511 3984 
Q 2250 4219 1831 4219 
Q 1534 4219 1204 4116 
Q 875 4013 500 3803 
L 500 4441 
Q 881 4594 1212 4672 
Q 1544 4750 1819 4750 
Q 2544 4750 2975 4387 
Q 3406 4025 3406 3419 
Q 3406 3131 3298 2873 
Q 3191 2616 2906 2266 
Q 2828 2175 2409 1742 
Q 1991 1309 1228 531 
z
" transform="scale(0.015625)"/>
       </defs>
       <use xlink:href="#DejaVuSans-32"/>
       <use xlink:href="#DejaVuSans-30" x="63.623047"/>
       <use xlink:href="#DejaVuSans-30" x="127.246094"/>
      </g>
     </g>
    </g>
    <g id="xtick_3">
     <g id="line2d_3">
      <g>
       <use xlink:href="#mef47310fe0" x="381.561671" y="384.48" style="stroke: #000000; stroke-width: 0.8"/>
      </g>
     </g>
     <g id="text_3">
      <!-- 400 -->
      <g transform="translate(372.017921 399.078438) scale(0.1 -0.1)">
       <defs>
        <path id="DejaVuSans-34" d="M 2419 4116 
L 825 1625 
L 2419 1625 
L 2419 4116 
z
M 2253 4666 
L 3047 4666 
L 3047 1625 
L 3713 1625 
L 3713 1100 
L 3047 1100 
L 3047 0 
L 2419 0 
L 2419 1100 
L 313 1100 
L 313 1709 
L 2253 4666 
z
" transform="scale(0.015625)"/>
       </defs>
       <use xlink:href="#DejaVuSans-34"/>
       <use xlink:href="#DejaVuSans-30" x="63.623047"/>
       <use xlink:href="#DejaVuSans-30" x="127.246094"/>
      </g>
     </g>
    </g>
    <g id="xtick_4">
     <g id="line2d_4">
      <g>
       <use xlink:href="#mef47310fe0" x="503.428993" y="384.48" style="stroke: #000000; stroke-width: 0.8"/>
      </g>
     </g>
     <g id="text_4">
      <!-- 600 -->
      <g transform="translate(493.885243 399.078438) scale(0.1 -0.1)">
       <defs>
        <path id="DejaVuSans-36" d="M 2113 2584 
Q 1688 2584 1439 2293 
Q 1191 2003 1191 1497 
Q 1191 994 1439 701 
Q 1688 409 2113 409 
Q 2538 409 2786 701 
Q 3034 994 3034 1497 
Q 3034 2003 2786 2293 
Q 2538 2584 2113 2584 
z
M 3366 4563 
L 3366 3988 
Q 3128 4100 2886 4159 
Q 2644 4219 2406 4219 
Q 1781 4219 1451 3797 
Q 1122 3375 1075 2522 
Q 1259 2794 1537 2939 
Q 1816 3084 2150 3084 
Q 2853 3084 3261 2657 
Q 3669 2231 3669 1497 
Q 3669 778 3244 343 
Q 2819 -91 2113 -91 
Q 1303 -91 875 529 
Q 447 1150 447 2328 
Q 447 3434 972 4092 
Q 1497 4750 2381 4750 
Q 2619 4750 2861 4703 
Q 3103 4656 3366 4563 
z
" transform="scale(0.015625)"/>
       </defs>
       <use xlink:href="#DejaVuSans-36"/>
       <use xlink:href="#DejaVuSans-30" x="63.623047"/>
       <use xlink:href="#DejaVuSans-30" x="127.246094"/>
      </g>
     </g>
    </g>
    <g id="xtick_5">
     <g id="line2d_5">
      <g>
       <use xlink:href="#mef47310fe0" x="625.296314" y="384.48" style="stroke: #000000; stroke-width: 0.8"/>
      </g>
     </g>
     <g id="text_5">
      <!-- 800 -->
      <g transform="translate(615.752564 399.078438) scale(0.1 -0.1)">
       <defs>
        <path id="DejaVuSans-38" d="M 2034 2216 
Q 1584 2216 1326 1975 
Q 1069 1734 1069 1313 
Q 1069 891 1326 650 
Q 1584 409 2034 409 
Q 2484 409 2743 651 
Q 3003 894 3003 1313 
Q 3003 1734 2745 1975 
Q 2488 2216 2034 2216 
z
M 1403 2484 
Q 997 2584 770 2862 
Q 544 3141 544 3541 
Q 544 4100 942 4425 
Q 1341 4750 2034 4750 
Q 2731 4750 3128 4425 
Q 3525 4100 3525 3541 
Q 3525 3141 3298 2862 
Q 3072 2584 2669 2484 
Q 3125 2378 3379 2068 
Q 3634 1759 3634 1313 
Q 3634 634 3220 271 
Q 2806 -91 2034 -91 
Q 1263 -91 848 271 
Q 434 634 434 1313 
Q 434 1759 690 2068 
Q 947 2378 1403 2484 
z
M 1172 3481 
Q 1172 3119 1398 2916 
Q 1625 2713 2034 2713 
Q 2441 2713 2670 2916 
Q 2900 3119 2900 3481 
Q 2900 3844 2670 4047 
Q 2441 4250 2034 4250 
Q 1625 4250 1398 4047 
Q 1172 3844 1172 3481 
z
" transform="scale(0.015625)"/>
       </defs>
       <use xlink:href="#DejaVuSans-38"/>
       <use xlink:href="#DejaVuSans-30" x="63.623047"/>
       <use xlink:href="#DejaVuSans-30" x="127.246094"/>
      </g>
     </g>
    </g>
    <g id="xtick_6">
     <g id="line2d_6">
      <g>
       <use xlink:href="#mef47310fe0" x="747.163636" y="384.48" style="stroke: #000000; stroke-width: 0.8"/>
      </g>
     </g>
     <g id="text_6">
      <!-- 1000 -->
      <g transform="translate(734.438636 399.078438) scale(0.1 -0.1)">
       <defs>
        <path id="DejaVuSans-31" d="M 794 531 
L 1825 531 
L 1825 4091 
L 703 3866 
L 703 4441 
L 1819 4666 
L 2450 4666 
L 2450 531 
L 3481 531 
L 3481 0 
L 794 0 
L 794 531 
z
" transform="scale(0.015625)"/>
       </defs>
       <use xlink:href="#DejaVuSans-31"/>
       <use xlink:href="#DejaVuSans-30" x="63.623047"/>
       <use xlink:href="#DejaVuSans-30" x="127.246094"/>
       <use xlink:href="#DejaVuSans-30" x="190.869141"/>
      </g>
     </g>
    </g>
    <g id="text_7">
     <!-- Epochs -->
     <g transform="translate(424.884375 412.756563) scale(0.1 -0.1)">
      <defs>
       <path id="DejaVuSans-45" d="M 628 4666 
L 3578 4666 
L 3578 4134 
L 1259 4134 
L 1259 2753 
L 3481 2753 
L 3481 2222 
L 1259 2222 
L 1259 531 
L 3634 531 
L 3634 0 
L 628 0 
L 628 4666 
z
" transform="scale(0.015625)"/>
       <path id="DejaVuSans-70" d="M 1159 525 
L 1159 -1331 
L 581 -1331 
L 581 3500 
L 1159 3500 
L 1159 2969 
Q 1341 3281 1617 3432 
Q 1894 3584 2278 3584 
Q 2916 3584 3314 3078 
Q 3713 2572 3713 1747 
Q 3713 922 3314 415 
Q 2916 -91 2278 -91 
Q 1894 -91 1617 61 
Q 1341 213 1159 525 
z
M 3116 1747 
Q 3116 2381 2855 2742 
Q 2594 3103 2138 3103 
Q 1681 3103 1420 2742 
Q 1159 2381 1159 1747 
Q 1159 1113 1420 752 
Q 1681 391 2138 391 
Q 2594 391 2855 752 
Q 3116 1113 3116 1747 
z
" transform="scale(0.015625)"/>
       <path id="DejaVuSans-6f" d="M 1959 3097 
Q 1497 3097 1228 2736 
Q 959 2375 959 1747 
Q 959 1119 1226 758 
Q 1494 397 1959 397 
Q 2419 397 2687 759 
Q 2956 1122 2956 1747 
Q 2956 2369 2687 2733 
Q 2419 3097 1959 3097 
z
M 1959 3584 
Q 2709 3584 3137 3096 
Q 3566 2609 3566 1747 
Q 3566 888 3137 398 
Q 2709 -91 1959 -91 
Q 1206 -91 779 398 
Q 353 888 353 1747 
Q 353 2609 779 3096 
Q 1206 3584 1959 3584 
z
" transform="scale(0.015625)"/>
       <path id="DejaVuSans-63" d="M 3122 3366 
L 3122 2828 
Q 2878 2963 2633 3030 
Q 2388 3097 2138 3097 
Q 1578 3097 1268 2742 
Q 959 2388 959 1747 
Q 959 1106 1268 751 
Q 1578 397 2138 397 
Q 2388 397 2633 464 
Q 2878 531 3122 666 
L 3122 134 
Q 2881 22 2623 -34 
Q 2366 -91 2075 -91 
Q 1284 -91 818 406 
Q 353 903 353 1747 
Q 353 2603 823 3093 
Q 1294 3584 2113 3584 
Q 2378 3584 2631 3529 
Q 2884 3475 3122 3366 
z
" transform="scale(0.015625)"/>
       <path id="DejaVuSans-68" d="M 3513 2113 
L 3513 0 
L 2938 0 
L 2938 2094 
Q 2938 2591 2744 2837 
Q 2550 3084 2163 3084 
Q 1697 3084 1428 2787 
Q 1159 2491 1159 1978 
L 1159 0 
L 581 0 
L 581 4863 
L 1159 4863 
L 1159 2956 
Q 1366 3272 1645 3428 
Q 1925 3584 2291 3584 
Q 2894 3584 3203 3211 
Q 3513 2838 3513 2113 
z
" transform="scale(0.015625)"/>
       <path id="DejaVuSans-73" d="M 2834 3397 
L 2834 2853 
Q 2591 2978 2328 3040 
Q 2066 3103 1784 3103 
Q 1356 3103 1142 2972 
Q 928 2841 928 2578 
Q 928 2378 1081 2264 
Q 1234 2150 1697 2047 
L 1894 2003 
Q 2506 1872 2764 1633 
Q 3022 1394 3022 966 
Q 3022 478 2636 193 
Q 2250 -91 1575 -91 
Q 1294 -91 989 -36 
Q 684 19 347 128 
L 347 722 
Q 666 556 975 473 
Q 1284 391 1588 391 
Q 1994 391 2212 530 
Q 2431 669 2431 922 
Q 2431 1156 2273 1281 
Q 2116 1406 1581 1522 
L 1381 1569 
Q 847 1681 609 1914 
Q 372 2147 372 2553 
Q 372 3047 722 3315 
Q 1072 3584 1716 3584 
Q 2034 3584 2315 3537 
Q 2597 3491 2834 3397 
z
" transform="scale(0.015625)"/>
      </defs>
      <use xlink:href="#DejaVuSans-45"/>
      <use xlink:href="#DejaVuSans-70" x="63.183594"/>
      <use xlink:href="#DejaVuSans-6f" x="126.660156"/>
      <use xlink:href="#DejaVuSans-63" x="187.841797"/>
      <use xlink:href="#DejaVuSans-68" x="242.822266"/>
      <use xlink:href="#DejaVuSans-73" x="306.201172"/>
     </g>
    </g>
   </g>
   <g id="matplotlib.axis_2">
    <g id="ytick_1">
     <g id="line2d_7">
      <defs>
       <path id="m26be4cd82f" d="M 0 0 
L -3.5 0 
" style="stroke: #000000; stroke-width: 0.8"/>
      </defs>
      <g>
       <use xlink:href="#m26be4cd82f" x="108" y="368.143157" style="stroke: #000000; stroke-width: 0.8"/>
      </g>
     </g>
     <g id="text_8">
      <!-- 0.5 -->
      <g transform="translate(85.096875 371.942376) scale(0.1 -0.1)">
       <defs>
        <path id="DejaVuSans-2e" d="M 684 794 
L 1344 794 
L 1344 0 
L 684 0 
L 684 794 
z
" transform="scale(0.015625)"/>
        <path id="DejaVuSans-35" d="M 691 4666 
L 3169 4666 
L 3169 4134 
L 1269 4134 
L 1269 2991 
Q 1406 3038 1543 3061 
Q 1681 3084 1819 3084 
Q 2600 3084 3056 2656 
Q 3513 2228 3513 1497 
Q 3513 744 3044 326 
Q 2575 -91 1722 -91 
Q 1428 -91 1123 -41 
Q 819 9 494 109 
L 494 744 
Q 775 591 1075 516 
Q 1375 441 1709 441 
Q 2250 441 2565 725 
Q 2881 1009 2881 1497 
Q 2881 1984 2565 2268 
Q 2250 2553 1709 2553 
Q 1456 2553 1204 2497 
Q 953 2441 691 2322 
L 691 4666 
z
" transform="scale(0.015625)"/>
       </defs>
       <use xlink:href="#DejaVuSans-30"/>
       <use xlink:href="#DejaVuSans-2e" x="63.623047"/>
       <use xlink:href="#DejaVuSans-35" x="95.410156"/>
      </g>
     </g>
    </g>
    <g id="ytick_2">
     <g id="line2d_8">
      <g>
       <use xlink:href="#m26be4cd82f" x="108" y="324.303539" style="stroke: #000000; stroke-width: 0.8"/>
      </g>
     </g>
     <g id="text_9">
      <!-- 0.6 -->
      <g transform="translate(85.096875 328.102758) scale(0.1 -0.1)">
       <use xlink:href="#DejaVuSans-30"/>
       <use xlink:href="#DejaVuSans-2e" x="63.623047"/>
       <use xlink:href="#DejaVuSans-36" x="95.410156"/>
      </g>
     </g>
    </g>
    <g id="ytick_3">
     <g id="line2d_9">
      <g>
       <use xlink:href="#m26be4cd82f" x="108" y="280.463921" style="stroke: #000000; stroke-width: 0.8"/>
      </g>
     </g>
     <g id="text_10">
      <!-- 0.7 -->
      <g transform="translate(85.096875 284.26314) scale(0.1 -0.1)">
       <defs>
        <path id="DejaVuSans-37" d="M 525 4666 
L 3525 4666 
L 3525 4397 
L 1831 0 
L 1172 0 
L 2766 4134 
L 525 4134 
L 525 4666 
z
" transform="scale(0.015625)"/>
       </defs>
       <use xlink:href="#DejaVuSans-30"/>
       <use xlink:href="#DejaVuSans-2e" x="63.623047"/>
       <use xlink:href="#DejaVuSans-37" x="95.410156"/>
      </g>
     </g>
    </g>
    <g id="ytick_4">
     <g id="line2d_10">
      <g>
       <use xlink:href="#m26be4cd82f" x="108" y="236.624303" style="stroke: #000000; stroke-width: 0.8"/>
      </g>
     </g>
     <g id="text_11">
      <!-- 0.8 -->
      <g transform="translate(85.096875 240.423522) scale(0.1 -0.1)">
       <use xlink:href="#DejaVuSans-30"/>
       <use xlink:href="#DejaVuSans-2e" x="63.623047"/>
       <use xlink:href="#DejaVuSans-38" x="95.410156"/>
      </g>
     </g>
    </g>
    <g id="ytick_5">
     <g id="line2d_11">
      <g>
       <use xlink:href="#m26be4cd82f" x="108" y="192.784685" style="stroke: #000000; stroke-width: 0.8"/>
      </g>
     </g>
     <g id="text_12">
      <!-- 0.9 -->
      <g transform="translate(85.096875 196.583903) scale(0.1 -0.1)">
       <defs>
        <path id="DejaVuSans-39" d="M 703 97 
L 703 672 
Q 941 559 1184 500 
Q 1428 441 1663 441 
Q 2288 441 2617 861 
Q 2947 1281 2994 2138 
Q 2813 1869 2534 1725 
Q 2256 1581 1919 1581 
Q 1219 1581 811 2004 
Q 403 2428 403 3163 
Q 403 3881 828 4315 
Q 1253 4750 1959 4750 
Q 2769 4750 3195 4129 
Q 3622 3509 3622 2328 
Q 3622 1225 3098 567 
Q 2575 -91 1691 -91 
Q 1453 -91 1209 -44 
Q 966 3 703 97 
z
M 1959 2075 
Q 2384 2075 2632 2365 
Q 2881 2656 2881 3163 
Q 2881 3666 2632 3958 
Q 2384 4250 1959 4250 
Q 1534 4250 1286 3958 
Q 1038 3666 1038 3163 
Q 1038 2656 1286 2365 
Q 1534 2075 1959 2075 
z
" transform="scale(0.015625)"/>
       </defs>
       <use xlink:href="#DejaVuSans-30"/>
       <use xlink:href="#DejaVuSans-2e" x="63.623047"/>
       <use xlink:href="#DejaVuSans-39" x="95.410156"/>
      </g>
     </g>
    </g>
    <g id="ytick_6">
     <g id="line2d_12">
      <g>
       <use xlink:href="#m26be4cd82f" x="108" y="148.945067" style="stroke: #000000; stroke-width: 0.8"/>
      </g>
     </g>
     <g id="text_13">
      <!-- 1.0 -->
      <g transform="translate(85.096875 152.744285) scale(0.1 -0.1)">
       <use xlink:href="#DejaVuSans-31"/>
       <use xlink:href="#DejaVuSans-2e" x="63.623047"/>
       <use xlink:href="#DejaVuSans-30" x="95.410156"/>
      </g>
     </g>
    </g>
    <g id="ytick_7">
     <g id="line2d_13">
      <g>
       <use xlink:href="#m26be4cd82f" x="108" y="105.105448" style="stroke: #000000; stroke-width: 0.8"/>
      </g>
     </g>
     <g id="text_14">
      <!-- 1.1 -->
      <g transform="translate(85.096875 108.904667) scale(0.1 -0.1)">
       <use xlink:href="#DejaVuSans-31"/>
       <use xlink:href="#DejaVuSans-2e" x="63.623047"/>
       <use xlink:href="#DejaVuSans-31" x="95.410156"/>
      </g>
     </g>
    </g>
    <g id="ytick_8">
     <g id="line2d_14">
      <g>
       <use xlink:href="#m26be4cd82f" x="108" y="61.26583" style="stroke: #000000; stroke-width: 0.8"/>
      </g>
     </g>
     <g id="text_15">
      <!-- 1.2 -->
      <g transform="translate(85.096875 65.065049) scale(0.1 -0.1)">
       <use xlink:href="#DejaVuSans-31"/>
       <use xlink:href="#DejaVuSans-2e" x="63.623047"/>
       <use xlink:href="#DejaVuSans-32" x="95.410156"/>
      </g>
     </g>
    </g>
    <g id="text_16">
     <!-- Loss -->
     <g transform="translate(79.017187 229.127187) rotate(-90) scale(0.1 -0.1)">
      <defs>
       <path id="DejaVuSans-4c" d="M 628 4666 
L 1259 4666 
L 1259 531 
L 3531 531 
L 3531 0 
L 628 0 
L 628 4666 
z
" transform="scale(0.015625)"/>
      </defs>
      <use xlink:href="#DejaVuSans-4c"/>
      <use xlink:href="#DejaVuSans-6f" x="53.962891"/>
      <use xlink:href="#DejaVuSans-73" x="115.144531"/>
      <use xlink:href="#DejaVuSans-73" x="167.244141"/>
     </g>
    </g>
   </g>
   <g id="line2d_15">
    <path d="M 138.436364 66.96 
L 139.0457 72.922707 
L 139.655037 80.820113 
L 140.264373 90.998445 
L 140.87371 97.49322 
L 141.483047 105.264886 
L 142.092383 108.409215 
L 142.70172 122.047428 
L 143.311057 124.79217 
L 143.920393 130.864834 
L 144.52973 140.9168 
L 145.139066 146.25431 
L 145.748403 149.969694 
L 146.967076 164.160722 
L 147.576413 166.808416 
L 148.185749 174.908097 
L 148.795086 177.794676 
L 149.404423 189.301898 
L 150.013759 192.107577 
L 150.623096 201.222217 
L 151.232432 201.225353 
L 152.451106 210.584156 
L 153.060442 215.939539 
L 154.279115 223.175896 
L 156.107125 234.02262 
L 156.716462 234.52226 
L 157.325799 243.758015 
L 157.935135 245.090615 
L 158.544472 248.335547 
L 159.153808 253.397877 
L 159.763145 252.238234 
L 160.372482 256.512914 
L 160.981818 258.681976 
L 161.591155 267.706728 
L 162.200491 269.178656 
L 162.809828 270.345589 
L 164.028501 275.492504 
L 164.637838 275.668492 
L 165.247174 277.51777 
L 165.856511 281.468773 
L 166.465848 282.378426 
L 167.075184 284.097783 
L 167.684521 284.299667 
L 168.293857 286.445343 
L 169.512531 291.825628 
L 170.121867 293.653793 
L 170.731204 295.921524 
L 171.340541 294.829611 
L 171.949877 294.493704 
L 172.559214 297.771246 
L 173.16855 299.433665 
L 173.777887 298.94662 
L 174.387224 300.9433 
L 174.99656 303.41119 
L 175.605897 304.606083 
L 176.215233 302.400542 
L 176.82457 306.029121 
L 177.433907 305.440141 
L 178.043243 307.772832 
L 179.261916 309.066577 
L 179.871253 313.501567 
L 180.48059 310.515144 
L 181.089926 313.935907 
L 181.699263 310.819407 
L 182.3086 312.21702 
L 182.917936 314.797533 
L 183.527273 315.373579 
L 184.136609 315.337336 
L 184.745946 315.418079 
L 185.355283 318.016072 
L 185.964619 317.305821 
L 186.573956 318.651852 
L 187.183292 319.333622 
L 187.792629 318.190101 
L 188.401966 321.20302 
L 189.620639 319.637676 
L 190.229975 320.35041 
L 191.448649 323.196434 
L 192.057985 322.447431 
L 192.667322 324.992693 
L 193.276658 324.986291 
L 193.885995 322.095506 
L 194.495332 325.324445 
L 195.104668 324.683779 
L 195.714005 327.087153 
L 196.323342 325.390007 
L 196.932678 325.528315 
L 197.542015 325.251097 
L 198.151351 324.574057 
L 198.760688 326.182517 
L 199.370025 327.058096 
L 199.979361 326.802122 
L 200.588698 327.463954 
L 201.198034 329.666568 
L 201.807371 330.436606 
L 202.416708 327.790898 
L 203.026044 327.828814 
L 203.635381 329.899338 
L 204.244717 331.106356 
L 204.854054 328.52647 
L 205.463391 330.012587 
L 206.072727 330.367988 
L 206.682064 330.121865 
L 207.2914 330.477004 
L 207.900737 330.99376 
L 208.510074 330.96533 
L 209.11941 330.02432 
L 209.728747 333.211059 
L 210.338084 331.851701 
L 210.94742 332.248309 
L 212.166093 333.983527 
L 212.77543 333.444717 
L 213.384767 334.416692 
L 213.994103 332.332449 
L 214.60344 332.82263 
L 215.212776 335.030365 
L 215.822113 332.863393 
L 216.43145 334.543581 
L 217.040786 333.43876 
L 217.650123 334.235947 
L 218.259459 334.498428 
L 218.868796 336.192569 
L 219.478133 335.203558 
L 220.087469 333.358983 
L 220.696806 336.089432 
L 221.915479 336.741648 
L 222.524816 335.793348 
L 223.134152 337.496871 
L 223.743489 335.169876 
L 224.352826 334.692368 
L 224.962162 335.589688 
L 225.571499 335.931369 
L 226.180835 336.551602 
L 226.790172 337.874064 
L 227.399509 339.686289 
L 228.008845 337.820758 
L 228.618182 337.94344 
L 229.227518 337.053202 
L 230.446192 336.309137 
L 231.055528 336.81578 
L 231.664865 336.249638 
L 232.274201 339.826897 
L 232.883538 338.790824 
L 234.102211 336.192125 
L 234.711548 338.486561 
L 235.320885 337.992539 
L 235.930221 339.252994 
L 236.539558 340.957561 
L 237.148894 336.733313 
L 237.758231 338.009602 
L 238.367568 340.758944 
L 238.976904 336.742955 
L 239.586241 337.377245 
L 240.804914 339.821618 
L 241.414251 339.562012 
L 242.023587 340.570517 
L 242.632924 339.968001 
L 243.24226 338.275218 
L 243.851597 339.067023 
L 244.460934 339.266686 
L 245.07027 339.851668 
L 245.679607 340.139574 
L 246.288943 338.701615 
L 246.89828 339.174472 
L 247.507617 341.687411 
L 248.116953 340.590742 
L 248.72629 340.521967 
L 249.335627 339.411475 
L 249.944963 340.818338 
L 250.5543 341.401962 
L 251.163636 340.771983 
L 251.772973 340.310728 
L 252.38231 343.800789 
L 252.991646 340.632995 
L 253.600983 340.537984 
L 254.210319 344.729727 
L 254.819656 344.161389 
L 255.428993 341.501205 
L 256.038329 341.008385 
L 256.647666 343.059102 
L 257.257002 340.543184 
L 257.866339 345.191164 
L 258.475676 341.98812 
L 259.085012 343.357695 
L 259.694349 344.265833 
L 260.303686 342.669262 
L 260.913022 342.717133 
L 261.522359 343.960969 
L 262.131695 342.52706 
L 262.741032 341.937087 
L 263.350369 340.682355 
L 263.959705 344.021356 
L 264.569042 343.121058 
L 265.178378 341.949342 
L 265.787715 341.774686 
L 266.397052 343.842206 
L 267.006388 342.515929 
L 267.615725 342.594973 
L 268.225061 344.532834 
L 268.834398 345.355028 
L 269.443735 344.875743 
L 270.053071 341.953236 
L 270.662408 343.759555 
L 271.271744 343.765565 
L 271.881081 343.193099 
L 272.490418 344.772189 
L 273.709091 343.579699 
L 274.318428 342.389379 
L 275.537101 345.202635 
L 276.146437 341.809832 
L 276.755774 342.879011 
L 277.974447 346.167581 
L 278.583784 345.577477 
L 279.802457 344.886614 
L 280.411794 343.876358 
L 281.02113 343.245308 
L 281.630467 345.497805 
L 282.239803 346.239596 
L 282.84914 346.037425 
L 284.067813 342.980763 
L 284.67715 347.024555 
L 285.286486 346.865342 
L 285.895823 345.153615 
L 286.50516 345.63107 
L 287.114496 345.453932 
L 287.723833 344.013935 
L 288.33317 346.52434 
L 288.942506 342.4985 
L 289.551843 346.908509 
L 290.161179 346.65541 
L 290.770516 344.741825 
L 291.379853 348.765156 
L 291.989189 347.050764 
L 292.598526 347.353981 
L 293.207862 345.717118 
L 293.817199 347.588972 
L 294.426536 347.155416 
L 295.035872 347.541885 
L 295.645209 345.060564 
L 296.254545 345.484034 
L 296.863882 345.49088 
L 297.473219 344.397426 
L 298.691892 346.998581 
L 299.910565 344.909164 
L 300.519902 346.315949 
L 301.129238 346.362592 
L 301.738575 347.106317 
L 302.347912 347.197042 
L 302.957248 344.597925 
L 303.566585 346.731084 
L 304.175921 347.533994 
L 304.785258 345.802747 
L 305.394595 348.809996 
L 306.003931 345.934784 
L 306.613268 347.524692 
L 307.222604 347.398508 
L 307.831941 349.996318 
L 308.441278 346.927402 
L 309.659951 345.70758 
L 310.269287 349.775673 
L 310.878624 346.868425 
L 311.487961 346.74164 
L 312.097297 349.701306 
L 312.706634 347.946489 
L 313.315971 348.151352 
L 313.925307 345.799638 
L 314.534644 347.582048 
L 315.14398 346.303015 
L 315.753317 346.537666 
L 316.362654 345.74999 
L 316.97199 349.592603 
L 317.581327 347.560255 
L 318.190663 349.005086 
L 318.8 348.585431 
L 319.409337 347.399527 
L 320.018673 347.720592 
L 320.62801 346.476338 
L 321.237346 347.891824 
L 321.846683 347.807005 
L 322.45602 346.990428 
L 323.065356 347.431432 
L 323.674693 348.393111 
L 324.284029 348.109282 
L 324.893366 350.14487 
L 325.502703 349.806611 
L 326.112039 349.723569 
L 326.721376 348.849296 
L 327.330713 346.664085 
L 327.940049 347.864727 
L 328.549386 350.657576 
L 329.158722 348.540069 
L 329.768059 347.306058 
L 330.377396 349.294585 
L 330.986732 350.011448 
L 331.596069 347.708258 
L 332.205405 349.038768 
L 332.814742 349.780429 
L 333.424079 348.492851 
L 334.033415 346.596042 
L 334.642752 348.994843 
L 335.252088 347.743168 
L 335.861425 349.990491 
L 336.470762 348.939838 
L 337.080098 348.482216 
L 337.689435 348.749713 
L 338.908108 350.100997 
L 339.517445 348.406464 
L 340.126781 348.043433 
L 340.736118 350.058221 
L 341.345455 349.384213 
L 341.954791 349.356305 
L 342.564128 350.950028 
L 343.173464 348.868607 
L 343.782801 349.585783 
L 344.392138 350.923923 
L 345.001474 349.241175 
L 346.220147 351.893258 
L 346.829484 351.338222 
L 348.048157 348.832625 
L 348.657494 351.104746 
L 349.26683 350.500532 
L 349.876167 350.799699 
L 350.485504 346.967146 
L 351.09484 347.531616 
L 351.704177 347.815027 
L 352.313514 351.627642 
L 352.92285 350.310041 
L 353.532187 350.118792 
L 354.141523 348.525409 
L 354.75086 349.763261 
L 355.360197 347.277288 
L 356.57887 350.367214 
L 357.188206 349.93209 
L 357.797543 352.299874 
L 358.40688 351.736423 
L 359.016216 349.453981 
L 359.625553 350.467424 
L 360.234889 350.05877 
L 360.844226 351.325313 
L 361.453563 349.997181 
L 362.062899 350.745348 
L 362.672236 349.074985 
L 363.281572 350.584802 
L 363.890909 350.05634 
L 364.500246 348.7939 
L 365.109582 352.570586 
L 365.718919 351.783171 
L 366.328256 351.312431 
L 366.937592 348.32329 
L 367.546929 348.673595 
L 368.156265 350.596796 
L 368.765602 350.92199 
L 369.374939 350.788176 
L 369.984275 349.409742 
L 370.593612 351.158261 
L 371.812285 349.352961 
L 372.421622 348.798551 
L 373.030958 351.978287 
L 373.640295 351.451993 
L 374.249631 352.943075 
L 374.858968 350.598416 
L 375.468305 349.969979 
L 376.077641 352.667399 
L 376.686978 350.436512 
L 377.296314 349.795036 
L 377.905651 350.991288 
L 378.514988 349.367489 
L 379.124324 351.403051 
L 379.733661 351.042921 
L 380.342998 349.325471 
L 381.561671 351.514759 
L 382.171007 352.128354 
L 382.780344 353.868145 
L 383.389681 350.505888 
L 383.999017 349.352046 
L 384.608354 351.985603 
L 385.21769 352.097938 
L 385.827027 350.672052 
L 386.436364 352.987497 
L 387.0457 352.181582 
L 387.655037 350.524937 
L 388.264373 354.877486 
L 389.483047 352.284301 
L 390.092383 351.054994 
L 390.70172 353.699238 
L 391.311057 351.37308 
L 391.920393 352.361621 
L 392.52973 352.289527 
L 393.139066 352.341134 
L 393.748403 350.797321 
L 394.35774 351.480476 
L 394.967076 351.222437 
L 395.576413 352.285947 
L 396.185749 352.273117 
L 396.795086 350.387152 
L 397.404423 353.807941 
L 398.013759 351.948289 
L 398.623096 352.280773 
L 399.232432 351.517163 
L 399.841769 351.701827 
L 400.451106 351.165813 
L 401.060442 351.819884 
L 401.669779 351.845544 
L 402.279115 354.449705 
L 402.888452 352.4692 
L 403.497789 352.694 
L 404.107125 352.669699 
L 404.716462 351.669268 
L 405.325799 352.01939 
L 405.935135 352.178629 
L 406.544472 352.499537 
L 407.153808 353.136441 
L 407.763145 354.506408 
L 408.372482 352.093104 
L 408.981818 353.257425 
L 409.591155 353.361084 
L 410.200491 352.614537 
L 410.809828 353.002339 
L 411.419165 354.349442 
L 412.028501 354.599798 
L 412.637838 354.652477 
L 413.247174 353.379192 
L 413.856511 350.838477 
L 414.465848 350.762986 
L 415.075184 352.478476 
L 415.684521 353.488914 
L 416.903194 353.493017 
L 417.512531 356.246173 
L 418.121867 354.084401 
L 418.731204 354.325794 
L 419.340541 352.516888 
L 419.949877 352.457153 
L 420.559214 351.560461 
L 421.16855 352.935942 
L 421.777887 351.11005 
L 422.387224 351.235398 
L 422.99656 352.358851 
L 423.605897 354.606226 
L 424.215233 349.934729 
L 424.82457 353.643136 
L 425.433907 354.636407 
L 426.043243 352.062714 
L 426.65258 351.659887 
L 427.261916 353.672846 
L 427.871253 353.057631 
L 428.48059 353.236546 
L 429.089926 351.633835 
L 429.699263 352.136481 
L 430.3086 350.877986 
L 430.917936 351.294244 
L 431.527273 356.705599 
L 432.136609 353.912985 
L 432.745946 352.950679 
L 433.355283 353.715178 
L 433.964619 350.827502 
L 434.573956 353.666836 
L 435.183292 353.213107 
L 435.792629 353.697043 
L 436.401966 354.72606 
L 437.011302 352.252657 
L 437.620639 353.702452 
L 438.229975 352.954939 
L 438.839312 353.77418 
L 439.448649 350.319866 
L 440.057985 354.731757 
L 440.667322 353.334875 
L 441.276658 353.921765 
L 441.885995 354.792954 
L 442.495332 352.69839 
L 443.104668 351.646169 
L 443.714005 355.189876 
L 444.323342 353.644939 
L 444.932678 355.003618 
L 445.542015 352.691726 
L 446.151351 354.819451 
L 446.760688 354.170893 
L 447.370025 355.641488 
L 447.979361 355.505192 
L 448.588698 356.336846 
L 449.198034 353.974627 
L 450.416708 352.960138 
L 451.026044 353.287292 
L 451.635381 352.993925 
L 452.244717 355.490663 
L 452.854054 354.071571 
L 453.463391 354.525065 
L 454.072727 354.750309 
L 454.682064 355.67112 
L 455.2914 354.871711 
L 455.900737 354.665229 
L 456.510074 353.460406 
L 457.11941 354.917806 
L 457.728747 355.240308 
L 458.338084 351.511884 
L 458.94742 353.167562 
L 459.556757 354.303583 
L 460.166093 354.545107 
L 460.77543 356.338596 
L 461.384767 355.572452 
L 461.994103 355.051045 
L 462.60344 355.167613 
L 463.212776 354.754098 
L 463.822113 351.97847 
L 464.43145 353.886855 
L 465.040786 354.165902 
L 465.650123 355.673812 
L 466.259459 354.332457 
L 466.868796 353.738408 
L 467.478133 356.01808 
L 468.087469 354.866538 
L 468.696806 355.352041 
L 469.306143 353.783378 
L 469.915479 354.205829 
L 470.524816 355.784735 
L 471.134152 355.331581 
L 471.743489 353.043521 
L 472.352826 353.224552 
L 472.962162 353.14441 
L 473.571499 356.000965 
L 474.180835 350.510252 
L 474.790172 353.989025 
L 475.399509 355.740026 
L 476.008845 353.335189 
L 476.618182 353.886437 
L 477.227518 356.096733 
L 477.836855 353.886541 
L 478.446192 352.825175 
L 479.055528 354.227753 
L 479.664865 354.964605 
L 480.274201 355.142031 
L 480.883538 355.195729 
L 482.102211 353.83415 
L 482.711548 355.514834 
L 483.320885 355.77998 
L 483.930221 353.083945 
L 484.539558 354.766014 
L 485.148894 353.311907 
L 485.758231 355.222278 
L 486.367568 355.025358 
L 486.976904 355.617788 
L 487.586241 354.999646 
L 488.195577 355.27851 
L 488.804914 356.631571 
L 489.414251 355.450579 
L 490.023587 351.87724 
L 490.632924 357.589722 
L 491.24226 356.759297 
L 491.851597 355.080259 
L 492.460934 356.561149 
L 493.07027 354.218084 
L 493.679607 354.064725 
L 494.288943 355.449874 
L 494.89828 354.938527 
L 495.507617 354.791282 
L 496.116953 355.65262 
L 496.72629 354.197729 
L 497.335627 354.263212 
L 497.944963 356.255162 
L 498.5543 353.670077 
L 499.163636 357.399754 
L 499.772973 354.281268 
L 500.991646 354.592481 
L 501.600983 352.760998 
L 502.819656 357.096223 
L 503.428993 353.913848 
L 504.038329 353.882569 
L 504.647666 355.715072 
L 505.257002 355.727013 
L 505.866339 354.002064 
L 506.475676 355.372658 
L 507.085012 355.048693 
L 507.694349 353.102863 
L 508.303686 352.988098 
L 508.913022 354.67103 
L 509.522359 356.692377 
L 510.131695 354.624256 
L 510.741032 354.589372 
L 511.350369 355.519825 
L 511.959705 355.416218 
L 512.569042 354.469198 
L 513.178378 354.136871 
L 513.787715 355.224943 
L 514.397052 355.942041 
L 515.006388 356.223178 
L 515.615725 353.708253 
L 516.225061 355.015533 
L 517.443735 355.360403 
L 518.053071 354.083565 
L 518.662408 355.279477 
L 519.271744 357.684445 
L 519.881081 356.072719 
L 520.490418 354.023961 
L 521.099754 353.441017 
L 521.709091 355.34057 
L 522.318428 355.479845 
L 522.927764 356.792822 
L 523.537101 355.788838 
L 524.146437 353.846692 
L 524.755774 353.5585 
L 525.365111 358.22072 
L 525.974447 355.412063 
L 526.583784 355.992838 
L 527.19312 357.613214 
L 527.802457 354.994786 
L 528.411794 357.114801 
L 529.02113 353.615359 
L 529.630467 354.479154 
L 530.239803 356.027984 
L 530.84914 356.273505 
L 531.458477 356.732722 
L 532.067813 355.286689 
L 532.67715 354.512705 
L 533.286486 357.820742 
L 533.895823 355.515409 
L 534.50516 354.127229 
L 535.114496 356.134648 
L 535.723833 355.616455 
L 536.33317 354.94587 
L 536.942506 355.650164 
L 537.551843 356.705416 
L 538.161179 356.221663 
L 539.379853 354.60586 
L 539.989189 355.716091 
L 540.598526 359.034867 
L 541.207862 356.898676 
L 541.817199 356.418634 
L 542.426536 359.852959 
L 543.035872 355.552201 
L 543.645209 355.257919 
L 544.254545 355.495576 
L 544.863882 357.162489 
L 545.473219 354.002587 
L 546.082555 354.916839 
L 546.691892 354.769463 
L 547.301229 356.104624 
L 547.910565 353.662629 
L 548.519902 355.644258 
L 549.129238 354.692117 
L 549.738575 357.586926 
L 550.347912 354.57048 
L 550.957248 355.876506 
L 551.566585 356.291901 
L 552.175921 358.703167 
L 552.785258 355.170252 
L 553.394595 355.176314 
L 554.003931 357.191547 
L 554.613268 355.315642 
L 555.222604 355.188961 
L 555.831941 355.27203 
L 556.441278 354.682736 
L 557.050614 353.183083 
L 557.659951 355.113261 
L 558.878624 355.345927 
L 559.487961 356.194827 
L 560.097297 359.689748 
L 560.706634 355.700021 
L 561.315971 356.1393 
L 561.925307 355.010699 
L 562.534644 358.369455 
L 563.14398 355.93475 
L 563.753317 357.872245 
L 564.362654 356.883547 
L 564.97199 357.132413 
L 565.581327 354.357804 
L 566.190663 355.967988 
L 566.8 356.394463 
L 567.409337 356.038906 
L 568.62801 357.245924 
L 569.237346 357.145661 
L 569.846683 356.503349 
L 570.45602 357.464113 
L 571.065356 356.620021 
L 571.674693 353.959968 
L 572.284029 356.811113 
L 573.502703 357.292462 
L 574.112039 354.949084 
L 574.721376 358.172693 
L 575.330713 354.670063 
L 575.940049 354.821306 
L 576.549386 355.741829 
L 577.158722 353.883458 
L 577.768059 354.148577 
L 578.377396 357.001421 
L 578.986732 356.001383 
L 579.596069 358.880384 
L 580.205405 355.980191 
L 580.814742 358.108255 
L 581.424079 355.696859 
L 582.033415 357.102154 
L 582.642752 355.272213 
L 583.252088 355.289563 
L 583.861425 356.105069 
L 584.470762 358.644399 
L 585.080098 354.852688 
L 585.689435 357.644753 
L 586.298771 355.852126 
L 586.908108 353.407805 
L 587.517445 357.265287 
L 588.126781 356.219154 
L 588.736118 357.849825 
L 589.345455 355.974991 
L 589.954791 358.057693 
L 590.564128 357.517628 
L 591.173464 357.435396 
L 591.782801 356.480746 
L 592.392138 354.086805 
L 593.001474 358.762823 
L 593.610811 357.050886 
L 594.220147 356.563266 
L 594.829484 356.59329 
L 595.438821 354.751093 
L 596.048157 355.362546 
L 596.657494 358.495665 
L 597.26683 356.145545 
L 597.876167 355.596701 
L 598.485504 356.030806 
L 599.09484 357.383919 
L 599.704177 357.100377 
L 600.313514 355.950481 
L 600.92285 358.266266 
L 601.532187 355.58421 
L 602.141523 354.059682 
L 602.75086 358.732537 
L 603.360197 356.715084 
L 603.969533 358.246694 
L 604.57887 358.237914 
L 605.188206 355.367145 
L 605.797543 355.356327 
L 606.40688 358.130126 
L 607.016216 358.355318 
L 607.625553 356.209538 
L 608.234889 355.5805 
L 608.844226 354.360835 
L 609.453563 358.418188 
L 610.062899 357.402001 
L 610.672236 354.488221 
L 611.281572 356.245781 
L 611.890909 355.116815 
L 613.109582 356.091272 
L 613.718919 356.89136 
L 614.328256 359.239808 
L 614.937592 358.499506 
L 615.546929 355.098289 
L 616.765602 359.467587 
L 617.374939 358.823916 
L 617.984275 356.724047 
L 618.593612 355.067089 
L 619.202948 354.537738 
L 619.812285 355.077672 
L 620.421622 356.548738 
L 621.030958 356.734995 
L 621.640295 358.940849 
L 622.249631 356.492975 
L 622.858968 356.751876 
L 623.468305 356.32527 
L 624.077641 356.58937 
L 624.686978 357.303071 
L 625.296314 358.375831 
L 625.905651 356.184087 
L 626.514988 357.848022 
L 627.124324 358.629714 
L 627.733661 356.085523 
L 628.342998 356.611503 
L 628.952334 358.755898 
L 629.561671 357.8452 
L 630.171007 354.645004 
L 630.780344 357.175424 
L 631.389681 357.066695 
L 631.999017 355.816432 
L 633.21769 359.865345 
L 634.436364 356.537632 
L 635.0457 356.096027 
L 636.264373 357.227136 
L 636.87371 358.254298 
L 637.483047 358.2214 
L 638.092383 357.573365 
L 638.70172 358.217402 
L 639.311057 358.461591 
L 639.920393 361.295882 
L 640.52973 358.429424 
L 641.139066 356.63293 
L 641.748403 358.420096 
L 642.35774 358.868834 
L 642.967076 356.674294 
L 643.576413 355.303805 
L 644.185749 359.709581 
L 644.795086 357.440883 
L 645.404423 356.428773 
L 646.013759 357.436885 
L 646.623096 358.774686 
L 647.232432 355.33341 
L 647.841769 358.193492 
L 648.451106 358.893292 
L 649.060442 357.567329 
L 649.669779 358.873459 
L 650.279115 357.436284 
L 650.888452 358.863111 
L 651.497789 358.725143 
L 652.107125 356.621014 
L 652.716462 360.716988 
L 653.935135 355.122459 
L 654.544472 356.683283 
L 655.153808 358.879887 
L 655.763145 356.996169 
L 656.981818 357.599469 
L 657.591155 358.854201 
L 658.200491 355.365107 
L 658.809828 358.096888 
L 659.419165 357.561214 
L 660.028501 355.51878 
L 660.637838 357.891059 
L 661.247174 358.13739 
L 661.856511 356.975709 
L 662.465848 356.564755 
L 663.075184 357.571353 
L 663.684521 357.131891 
L 664.293857 357.040852 
L 664.903194 359.325542 
L 665.512531 355.98283 
L 666.121867 358.489237 
L 666.731204 358.305697 
L 667.340541 357.901145 
L 667.949877 358.90654 
L 668.559214 359.595417 
L 669.16855 358.080478 
L 669.777887 356.005146 
L 670.387224 358.265273 
L 670.99656 358.403033 
L 671.605897 358.148914 
L 672.215233 357.101057 
L 672.82457 360.113924 
L 673.433907 359.640963 
L 674.043243 356.544217 
L 674.65258 356.682525 
L 675.261916 357.237797 
L 675.871253 358.043321 
L 676.48059 358.210634 
L 677.089926 358.084894 
L 677.699263 356.182728 
L 678.3086 359.279369 
L 678.917936 359.438948 
L 679.527273 356.623131 
L 680.136609 356.778633 
L 680.745946 355.744599 
L 681.355283 358.736744 
L 681.964619 356.738837 
L 682.573956 358.685607 
L 683.183292 358.357618 
L 683.792629 359.823771 
L 684.401966 358.500238 
L 685.011302 358.487251 
L 685.620639 357.665788 
L 686.229975 357.358128 
L 687.448649 358.544738 
L 688.057985 358.694544 
L 688.667322 359.804121 
L 689.276658 357.650711 
L 689.885995 358.275751 
L 690.495332 358.438152 
L 691.104668 357.37898 
L 691.714005 358.031066 
L 692.323342 359.13735 
L 692.932678 358.60604 
L 693.542015 357.86012 
L 694.151351 357.670178 
L 694.760688 357.273256 
L 695.370025 361.885751 
L 695.979361 356.15746 
L 696.588698 359.339861 
L 697.198034 357.823564 
L 697.807371 357.466282 
L 698.416708 359.556352 
L 699.026044 356.752633 
L 699.635381 358.499219 
L 700.854054 356.987781 
L 701.463391 356.71639 
L 702.072727 359.158699 
L 702.682064 360.238357 
L 703.2914 358.284975 
L 703.900737 357.364452 
L 704.510074 357.255514 
L 705.11941 357.943137 
L 705.728747 356.53123 
L 706.338084 357.240593 
L 706.94742 358.501675 
L 707.556757 358.600004 
L 708.166093 357.920638 
L 708.77543 358.98015 
L 709.384767 359.31185 
L 709.994103 358.3676 
L 710.60344 359.034423 
L 711.212776 358.983494 
L 711.822113 357.494242 
L 712.43145 355.460248 
L 713.040786 356.114371 
L 713.650123 358.79039 
L 714.259459 356.870665 
L 714.868796 360.736455 
L 715.478133 358.464962 
L 716.087469 359.181459 
L 716.696806 356.427649 
L 717.306143 359.169804 
L 717.915479 359.394422 
L 718.524816 357.668166 
L 719.134152 357.108582 
L 719.743489 358.531725 
L 720.352826 358.922741 
L 720.962162 359.17341 
L 721.571499 359.249006 
L 722.180835 357.929183 
L 722.790172 359.102388 
L 723.399509 356.111052 
L 724.008845 358.324249 
L 724.618182 358.560312 
L 725.227518 357.321755 
L 726.446192 358.66648 
L 727.055528 356.426212 
L 727.664865 358.577401 
L 728.274201 359.34885 
L 728.883538 361.196508 
L 729.492875 360.801128 
L 730.102211 357.52552 
L 730.711548 357.726724 
L 731.320885 359.392671 
L 731.930221 358.662194 
L 732.539558 357.429281 
L 733.148894 356.987389 
L 733.758231 357.863256 
L 734.367568 357.07281 
L 734.976904 358.629139 
L 735.586241 356.912996 
L 736.195577 358.358114 
L 736.804914 358.205251 
L 737.414251 359.308766 
L 738.023587 356.721198 
L 738.632924 355.962893 
L 739.24226 359.959963 
L 739.851597 357.565134 
L 740.460934 357.934618 
L 741.07027 359.47864 
L 741.679607 361.846477 
L 742.288943 357.62134 
L 742.89828 359.737671 
L 743.507617 359.780682 
L 744.116953 358.820414 
L 744.72629 358.255291 
L 745.335627 360.085363 
L 745.944963 358.857284 
L 746.5543 359.931298 
L 747.163636 359.749979 
L 747.163636 359.749979 
" clip-path="url(#p6fcd998997)" style="fill: none; stroke: #1f77b4; stroke-width: 1.5; stroke-linecap: square"/>
   </g>
   <g id="line2d_16">
    <path d="M 138.436364 218.245865 
L 139.655037 227.67914 
L 140.264373 228.567418 
L 140.87371 235.47738 
L 142.70172 245.632613 
L 143.311057 251.631328 
L 143.920393 251.085071 
L 145.139066 257.175347 
L 146.35774 261.244276 
L 146.967076 262.436268 
L 148.185749 269.927267 
L 148.795086 271.291433 
L 150.013759 273.544453 
L 150.623096 276.40234 
L 151.232432 276.939582 
L 151.841769 281.792294 
L 152.451106 281.17342 
L 153.060442 285.026877 
L 153.669779 285.732818 
L 154.279115 289.24428 
L 154.888452 288.452501 
L 155.497789 289.115953 
L 156.107125 288.023726 
L 156.716462 290.640247 
L 157.325799 293.760457 
L 157.935135 293.013623 
L 158.544472 293.97261 
L 159.153808 296.054763 
L 159.763145 297.270848 
L 160.372482 299.382737 
L 160.981818 299.912584 
L 161.591155 299.75196 
L 162.809828 303.791022 
L 163.419165 302.562603 
L 164.028501 304.535296 
L 164.637838 305.191745 
L 165.247174 307.852269 
L 165.856511 307.7513 
L 166.465848 308.331579 
L 167.075184 311.867055 
L 167.684521 310.44454 
L 168.293857 310.158568 
L 169.512531 311.612362 
L 170.121867 312.835188 
L 170.731204 311.887986 
L 171.949877 316.910101 
L 172.559214 314.52622 
L 173.16855 317.60619 
L 173.777887 316.105963 
L 174.387224 317.640317 
L 174.99656 318.426347 
L 175.605897 321.46213 
L 176.215233 318.930795 
L 176.82457 318.990033 
L 177.433907 321.134376 
L 178.043243 319.414861 
L 178.65258 322.177895 
L 179.261916 321.483818 
L 179.871253 321.274565 
L 180.48059 321.515018 
L 181.089926 321.90295 
L 181.699263 323.457817 
L 182.3086 322.787153 
L 182.917936 323.413212 
L 183.527273 324.899852 
L 184.136609 324.448971 
L 184.745946 323.776556 
L 185.355283 324.692742 
L 185.964619 325.168865 
L 186.573956 327.070247 
L 187.183292 326.553778 
L 187.792629 326.247921 
L 188.401966 326.850464 
L 189.011302 327.148063 
L 189.620639 327.849404 
L 190.229975 327.536937 
L 190.839312 331.606466 
L 191.448649 328.097905 
L 192.057985 328.504077 
L 192.667322 329.938638 
L 193.885995 330.851741 
L 194.495332 330.886468 
L 195.104668 330.459784 
L 195.714005 329.759096 
L 196.323342 331.753032 
L 196.932678 331.561783 
L 197.542015 330.706403 
L 198.151351 333.043328 
L 198.760688 333.766671 
L 199.370025 331.367948 
L 199.979361 332.093094 
L 200.588698 333.276071 
L 201.198034 333.071209 
L 201.807371 334.267199 
L 202.416708 333.753083 
L 203.026044 334.504307 
L 203.635381 332.670864 
L 204.244717 334.591818 
L 204.854054 333.05263 
L 205.463391 334.600807 
L 206.072727 333.207949 
L 206.682064 333.099639 
L 207.2914 336.119979 
L 207.900737 335.852429 
L 208.510074 334.248281 
L 209.11941 334.215618 
L 209.728747 335.006952 
L 210.338084 334.158601 
L 210.94742 336.882936 
L 211.556757 336.413136 
L 212.166093 336.633965 
L 212.77543 334.727592 
L 213.384767 336.829264 
L 213.994103 336.414286 
L 214.60344 338.147597 
L 215.212776 336.765035 
L 215.822113 336.681574 
L 217.040786 336.190453 
L 217.650123 335.875581 
L 218.259459 336.88466 
L 218.868796 336.212455 
L 219.478133 338.798298 
L 220.087469 337.050693 
L 220.696806 337.01351 
L 221.306143 337.85167 
L 221.915479 338.291262 
L 222.524816 338.384313 
L 223.134152 338.74588 
L 223.743489 338.792366 
L 224.352826 339.042565 
L 224.962162 338.779458 
L 225.571499 339.066788 
L 226.180835 340.177933 
L 226.790172 340.109785 
L 227.399509 339.585321 
L 228.008845 338.13205 
L 228.618182 341.485553 
L 229.227518 339.550463 
L 229.836855 339.151503 
L 230.446192 339.322892 
L 231.055528 341.105433 
L 231.664865 339.070028 
L 232.274201 339.998365 
L 232.883538 341.353594 
L 233.492875 341.15205 
L 234.711548 339.19663 
L 235.320885 340.163953 
L 235.930221 340.836368 
L 236.539558 342.363562 
L 237.148894 340.454445 
L 237.758231 341.925877 
L 238.367568 339.45182 
L 239.586241 341.636822 
L 240.195577 338.837859 
L 240.804914 341.320853 
L 241.414251 341.097855 
L 242.023587 343.790311 
L 242.632924 340.756905 
L 243.24226 342.988393 
L 243.851597 342.583659 
L 244.460934 342.639108 
L 245.07027 341.39326 
L 245.679607 343.261248 
L 246.288943 343.338149 
L 246.89828 342.915019 
L 247.507617 344.252715 
L 248.116953 340.691553 
L 248.72629 340.532131 
L 249.335627 344.221333 
L 249.944963 343.50656 
L 250.5543 342.499284 
L 251.163636 344.013569 
L 251.772973 340.694819 
L 252.38231 342.08151 
L 252.991646 344.235208 
L 253.600983 343.931781 
L 254.210319 343.325084 
L 254.819656 344.086708 
L 255.428993 341.753547 
L 256.038329 343.674292 
L 256.647666 344.844047 
L 257.257002 342.587317 
L 257.866339 343.841553 
L 258.475676 343.984146 
L 259.085012 342.08036 
L 259.694349 341.409069 
L 260.303686 343.463863 
L 260.913022 343.412647 
L 261.522359 345.154163 
L 262.131695 344.802709 
L 262.741032 344.680863 
L 263.350369 345.144756 
L 263.959705 346.075105 
L 264.569042 344.755779 
L 265.178378 346.388905 
L 265.787715 343.489497 
L 266.397052 344.324104 
L 267.006388 344.176022 
L 267.615725 344.172233 
L 268.225061 345.652863 
L 268.834398 345.318132 
L 269.443735 345.722605 
L 270.053071 345.236396 
L 270.662408 345.14865 
L 271.271744 343.794126 
L 271.881081 345.427357 
L 272.490418 344.026216 
L 273.099754 344.644959 
L 273.709091 342.718989 
L 274.927764 345.591509 
L 275.537101 344.605293 
L 276.146437 345.263389 
L 276.755774 348.033138 
L 277.365111 343.161717 
L 277.974447 345.905492 
L 278.583784 347.068036 
L 279.19312 344.18752 
L 279.802457 347.512619 
L 280.411794 344.11553 
L 281.02113 347.126725 
L 281.630467 347.465428 
L 282.239803 346.755699 
L 282.84914 345.840898 
L 283.458477 346.506937 
L 284.067813 346.459771 
L 284.67715 347.400729 
L 285.286486 346.571453 
L 285.895823 345.022649 
L 286.50516 347.258553 
L 287.114496 348.614122 
L 287.723833 346.425462 
L 288.33317 344.905402 
L 288.942506 345.91665 
L 289.551843 348.382894 
L 290.161179 348.290758 
L 291.379853 345.245306 
L 291.989189 347.431641 
L 292.598526 346.449267 
L 293.207862 345.228714 
L 293.817199 348.609184 
L 294.426536 347.516826 
L 295.035872 347.362108 
L 295.645209 345.144025 
L 296.254545 345.155862 
L 296.863882 347.451605 
L 298.691892 347.949651 
L 299.301229 347.92224 
L 299.910565 345.344393 
L 300.519902 348.221878 
L 301.129238 348.895939 
L 301.738575 345.879858 
L 302.347912 348.99756 
L 302.957248 347.525763 
L 303.566585 345.019905 
L 304.175921 346.841589 
L 304.785258 349.06158 
L 305.394595 350.165173 
L 306.003931 347.536947 
L 306.613268 346.490657 
L 307.222604 348.178606 
L 307.831941 348.267528 
L 308.441278 349.000696 
L 309.050614 347.738648 
L 309.659951 347.173106 
L 310.269287 347.929844 
L 310.878624 347.09691 
L 311.487961 351.06947 
L 312.097297 349.231637 
L 313.315971 348.865262 
L 313.925307 349.088181 
L 314.534644 348.347618 
L 315.14398 348.093525 
L 315.753317 348.532752 
L 316.362654 347.03323 
L 316.97199 348.692069 
L 317.581327 347.81811 
L 318.190663 350.280017 
L 318.8 348.446783 
L 319.409337 347.191293 
L 320.018673 349.696654 
L 321.237346 349.053584 
L 321.846683 350.120177 
L 322.45602 350.823007 
L 323.065356 348.591755 
L 323.674693 349.418156 
L 324.284029 349.651057 
L 324.893366 349.642225 
L 325.502703 350.544248 
L 326.112039 348.993536 
L 326.721376 350.485376 
L 327.330713 346.806522 
L 327.940049 348.313256 
L 328.549386 350.292324 
L 329.158722 350.743884 
L 329.768059 349.601644 
L 330.377396 350.745034 
L 330.986732 351.130929 
L 331.596069 350.993796 
L 332.205405 348.323107 
L 332.814742 349.427093 
L 333.424079 351.829265 
L 334.033415 348.025037 
L 334.642752 348.537612 
L 335.252088 348.806207 
L 335.861425 348.851413 
L 336.470762 348.437088 
L 337.080098 349.362707 
L 337.689435 349.346376 
L 338.298771 351.113813 
L 338.908108 348.522901 
L 339.517445 349.474049 
L 340.126781 351.58194 
L 340.736118 350.042961 
L 341.345455 350.653447 
L 341.954791 350.841351 
L 342.564128 349.84241 
L 343.173464 350.305755 
L 343.782801 348.912035 
L 344.392138 351.199965 
L 345.001474 348.921181 
L 345.610811 350.312105 
L 346.220147 349.264692 
L 346.829484 350.297341 
L 347.438821 348.379758 
L 348.048157 350.661365 
L 348.657494 349.048384 
L 349.26683 351.190271 
L 349.876167 350.055817 
L 350.485504 349.80601 
L 351.09484 351.2285 
L 351.704177 348.943575 
L 352.313514 350.23651 
L 352.92285 350.884179 
L 353.532187 349.644315 
L 354.141523 350.576623 
L 354.75086 351.985969 
L 355.360197 350.933539 
L 355.969533 349.449121 
L 356.57887 351.3094 
L 357.188206 351.934362 
L 357.797543 349.977949 
L 358.40688 351.306865 
L 359.016216 351.259125 
L 360.234889 350.232642 
L 360.844226 351.968619 
L 361.453563 352.543515 
L 362.062899 351.727957 
L 363.281572 351.121522 
L 363.890909 350.4605 
L 364.500246 349.23229 
L 365.109582 351.222202 
L 365.718919 350.868788 
L 366.328256 351.745569 
L 366.937592 351.412145 
L 367.546929 350.839888 
L 368.156265 350.649763 
L 368.765602 351.789939 
L 369.374939 351.316533 
L 369.984275 352.026837 
L 370.593612 351.854742 
L 371.202948 350.680283 
L 371.812285 351.458448 
L 372.421622 349.506738 
L 373.030958 350.336093 
L 373.640295 350.85844 
L 374.249631 351.911811 
L 374.858968 350.837954 
L 375.468305 351.611494 
L 376.077641 350.421252 
L 376.686978 352.665152 
L 377.296314 352.967377 
L 377.905651 352.366298 
L 378.514988 353.447132 
L 379.124324 352.96411 
L 379.733661 351.013655 
L 380.342998 353.101452 
L 380.952334 349.154003 
L 381.561671 352.100734 
L 382.171007 351.323275 
L 382.780344 352.418219 
L 383.389681 351.836895 
L 383.999017 353.313762 
L 384.608354 353.103568 
L 385.21769 353.444388 
L 385.827027 353.05784 
L 386.436364 353.569318 
L 387.0457 354.814616 
L 387.655037 352.579339 
L 388.264373 351.970108 
L 388.87371 352.306459 
L 389.483047 351.819257 
L 390.092383 352.497786 
L 390.70172 352.940645 
L 391.311057 355.875147 
L 391.920393 351.147757 
L 392.52973 352.92596 
L 393.139066 354.172591 
L 393.748403 353.621866 
L 394.35774 351.21742 
L 394.967076 350.539152 
L 396.185749 353.511543 
L 396.795086 353.840917 
L 397.404423 352.659717 
L 398.013759 350.332356 
L 398.623096 355.156612 
L 399.232432 353.877735 
L 399.841769 353.331583 
L 400.451106 353.506395 
L 401.669779 353.325311 
L 402.279115 352.945662 
L 403.497789 354.44325 
L 404.107125 353.191367 
L 404.716462 353.309921 
L 405.325799 354.77414 
L 405.935135 350.336694 
L 406.544472 354.602228 
L 407.153808 354.266478 
L 407.763145 353.159462 
L 408.372482 352.312783 
L 410.809828 354.035903 
L 411.419165 353.774781 
L 412.028501 353.961614 
L 413.247174 352.362195 
L 413.856511 352.948066 
L 414.465848 352.894264 
L 415.075184 353.875776 
L 415.684521 355.141064 
L 416.293857 355.078665 
L 416.903194 355.620506 
L 417.512531 354.171442 
L 418.121867 351.971388 
L 418.731204 352.362195 
L 419.340541 354.163184 
L 419.949877 355.350944 
L 420.559214 353.51217 
L 421.16855 355.181279 
L 421.777887 353.567907 
L 422.387224 355.587032 
L 422.99656 353.158887 
L 423.605897 352.140635 
L 424.215233 353.372372 
L 424.82457 352.943702 
L 425.433907 352.72682 
L 426.043243 354.779105 
L 426.65258 354.914592 
L 427.261916 353.774102 
L 427.871253 352.305545 
L 428.48059 354.369667 
L 429.089926 354.693841 
L 429.699263 353.405114 
L 430.3086 354.259109 
L 430.917936 355.425755 
L 431.527273 354.800872 
L 432.136609 354.614091 
L 432.745946 355.010464 
L 433.355283 354.865937 
L 433.964619 351.902613 
L 434.573956 355.752909 
L 435.183292 353.331008 
L 435.792629 353.583925 
L 436.401966 355.182977 
L 437.011302 355.645225 
L 437.620639 353.96684 
L 438.229975 354.39193 
L 438.839312 357.812615 
L 440.057985 351.886099 
L 440.667322 354.387462 
L 441.276658 354.919661 
L 441.885995 353.94996 
L 442.495332 356.022575 
L 443.104668 353.076654 
L 443.714005 355.688784 
L 444.323342 355.478983 
L 444.932678 353.39346 
L 445.542015 354.124511 
L 446.760688 354.629979 
L 447.370025 354.458093 
L 447.979361 354.779785 
L 448.588698 355.92179 
L 448.588698 355.92179 
" clip-path="url(#p6fcd998997)" style="fill: none; stroke: #ff7f0e; stroke-width: 1.5; stroke-linecap: square"/>
   </g>
   <g id="line2d_17">
    <path d="M 138.436364 176.06889 
L 139.655037 188.740381 
L 140.264373 196.999301 
L 140.87371 201.15757 
L 141.483047 204.051178 
L 142.092383 210.360166 
L 142.70172 213.882628 
L 143.311057 220.601185 
L 143.920393 228.674553 
L 144.52973 232.754221 
L 145.139066 234.839379 
L 145.748403 237.904167 
L 146.35774 242.979484 
L 146.967076 247.017344 
L 147.576413 248.529461 
L 148.185749 248.900095 
L 148.795086 256.47735 
L 149.404423 257.877576 
L 150.013759 258.588743 
L 150.623096 262.999615 
L 151.232432 263.849612 
L 151.841769 269.677408 
L 152.451106 272.586902 
L 153.060442 269.71744 
L 154.279115 278.868166 
L 154.888452 279.268066 
L 155.497789 281.127012 
L 156.107125 281.782782 
L 156.716462 284.34874 
L 157.325799 287.702479 
L 157.935135 287.868773 
L 159.153808 290.850518 
L 159.763145 293.683686 
L 160.372482 292.892195 
L 160.981818 296.215204 
L 161.591155 298.568747 
L 162.200491 298.703894 
L 162.809828 298.469164 
L 163.419165 303.77294 
L 164.028501 302.551812 
L 164.637838 305.799905 
L 165.247174 305.078312 
L 165.856511 308.314856 
L 166.465848 305.650282 
L 167.075184 309.595483 
L 167.684521 309.23598 
L 168.293857 311.839723 
L 168.903194 313.406112 
L 169.512531 312.303852 
L 170.121867 313.891747 
L 170.731204 312.883451 
L 171.340541 314.841563 
L 171.949877 317.233857 
L 172.559214 318.804141 
L 173.16855 317.067903 
L 173.777887 318.751854 
L 174.387224 321.954924 
L 174.99656 317.930652 
L 175.605897 322.63165 
L 176.215233 321.143626 
L 176.82457 322.020459 
L 177.433907 322.43123 
L 178.043243 322.998156 
L 178.65258 324.784852 
L 179.261916 324.247009 
L 179.871253 325.704643 
L 180.48059 327.508716 
L 181.089926 328.835724 
L 181.699263 329.30521 
L 182.3086 329.599726 
L 182.917936 330.622237 
L 183.527273 328.482388 
L 184.136609 332.532974 
L 184.745946 332.47925 
L 185.355283 330.706429 
L 185.964619 334.05063 
L 186.573956 332.836374 
L 187.183292 333.533326 
L 187.792629 333.60555 
L 188.401966 334.274333 
L 189.011302 335.345472 
L 189.620639 333.282081 
L 190.229975 338.173911 
L 190.839312 336.467618 
L 191.448649 335.833981 
L 192.667322 340.094812 
L 193.276658 338.400697 
L 193.885995 338.613921 
L 194.495332 338.534903 
L 195.104668 341.445364 
L 195.714005 340.742926 
L 196.323342 339.225321 
L 196.932678 341.41116 
L 197.542015 340.299283 
L 198.151351 341.109274 
L 198.760688 339.837532 
L 199.370025 341.99784 
L 199.979361 342.741565 
L 200.588698 341.827888 
L 201.198034 343.519521 
L 201.807371 342.139598 
L 202.416708 342.630276 
L 203.026044 345.073394 
L 203.635381 344.104974 
L 204.244717 343.853677 
L 204.854054 345.823521 
L 205.463391 344.78562 
L 206.072727 344.490476 
L 206.682064 344.972426 
L 207.2914 346.859463 
L 207.900737 346.82335 
L 208.510074 347.605644 
L 209.11941 347.4307 
L 209.728747 349.729474 
L 210.338084 345.177263 
L 210.94742 349.186797 
L 211.556757 350.215475 
L 212.166093 347.866243 
L 212.77543 349.392026 
L 213.384767 347.818894 
L 213.994103 350.516576 
L 214.60344 348.26643 
L 215.212776 350.052812 
L 215.822113 346.654208 
L 216.43145 350.000186 
L 217.040786 349.536658 
L 217.650123 351.374543 
L 218.259459 349.172086 
L 218.868796 348.114691 
L 219.478133 350.933644 
L 220.087469 352.538445 
L 220.696806 352.128276 
L 221.306143 351.184235 
L 221.915479 353.311645 
L 222.524816 352.633508 
L 223.134152 352.193262 
L 223.743489 352.148893 
L 224.352826 352.799645 
L 224.962162 352.231073 
L 225.571499 350.815325 
L 226.180835 353.064112 
L 226.790172 352.967272 
L 227.399509 352.479835 
L 228.008845 352.945636 
L 228.618182 352.418428 
L 229.227518 353.218569 
L 229.836855 354.789845 
L 231.055528 353.672115 
L 231.664865 352.204185 
L 232.274201 355.924011 
L 232.883538 354.047296 
L 233.492875 354.124851 
L 234.102211 355.750478 
L 234.711548 354.627888 
L 235.320885 354.009328 
L 235.930221 355.29411 
L 236.539558 355.078665 
L 237.148894 356.560548 
L 237.758231 355.677183 
L 238.367568 355.644519 
L 238.976904 356.146747 
L 239.586241 357.873159 
L 240.195577 357.66213 
L 240.804914 358.17946 
L 241.414251 356.093806 
L 242.023587 355.399364 
L 242.632924 355.646296 
L 243.851597 359.518306 
L 244.460934 358.605596 
L 245.07027 356.123595 
L 245.679607 357.078689 
L 246.288943 355.723146 
L 246.89828 356.566349 
L 247.507617 357.756382 
L 248.116953 357.594661 
L 248.72629 355.837153 
L 249.335627 355.269286 
L 249.944963 359.209105 
L 251.163636 356.062685 
L 251.772973 356.798623 
L 252.38231 357.908122 
L 252.991646 358.452968 
L 253.600983 358.149175 
L 254.210319 357.19936 
L 254.819656 357.961637 
L 255.428993 358.496214 
L 256.038329 360.648892 
L 256.647666 359.064368 
L 257.257002 359.467665 
L 257.866339 360.044208 
L 258.475676 358.577323 
L 259.085012 358.979157 
L 259.694349 360.971603 
L 260.303686 362.292289 
L 260.913022 360.51709 
L 261.522359 360.156621 
L 262.131695 361.263141 
L 262.741032 359.251959 
L 263.350369 358.941241 
L 263.959705 360.800606 
L 264.569042 359.283002 
L 265.178378 361.059428 
L 265.787715 360.064145 
L 266.397052 360.055992 
L 267.006388 362.573426 
L 267.615725 361.166171 
L 268.225061 359.013936 
L 269.443735 359.724946 
L 270.053071 359.167244 
L 270.662408 362.86384 
L 271.271744 361.308556 
L 271.881081 362.282829 
L 272.490418 361.400953 
L 273.099754 357.463173 
L 273.709091 361.050178 
L 274.318428 358.824412 
L 274.927764 360.868414 
L 275.537101 360.745601 
L 276.146437 363.097707 
L 276.755774 361.482637 
L 277.365111 360.572278 
L 277.974447 361.5887 
L 278.583784 361.504665 
L 279.19312 362.430205 
L 279.802457 361.626171 
L 280.411794 363.761421 
L 281.02113 362.01818 
L 282.239803 364.029598 
L 283.458477 360.829611 
L 284.067813 362.648342 
L 284.67715 361.441638 
L 285.286486 362.984745 
L 285.895823 361.509603 
L 286.50516 363.004395 
L 287.114496 362.350873 
L 287.723833 363.219972 
L 288.33317 361.972661 
L 288.942506 361.173461 
L 289.551843 363.921679 
L 290.161179 361.806576 
L 290.770516 361.849273 
L 291.379853 361.753453 
L 291.989189 362.872907 
L 292.598526 365.587103 
L 293.207862 364.521608 
L 293.817199 364.676614 
L 294.426536 365.12948 
L 295.035872 362.013111 
L 295.645209 362.906641 
L 296.254545 362.5185 
L 296.863882 364.000384 
L 297.473219 363.819012 
L 298.082555 364.320482 
L 298.691892 364.48837 
L 299.301229 367.82873 
L 299.910565 364.193958 
L 300.519902 363.880157 
L 301.129238 363.980525 
L 301.738575 365.912453 
L 302.347912 362.098766 
L 302.957248 364.06132 
L 303.566585 363.885802 
L 304.175921 365.496352 
L 304.785258 363.959411 
L 305.394595 362.902748 
L 306.003931 365.423317 
L 306.613268 365.418797 
L 307.222604 363.751831 
L 307.831941 364.58986 
L 308.441278 366.341646 
L 309.050614 365.436095 
L 309.050614 365.436095 
" clip-path="url(#p6fcd998997)" style="fill: none; stroke: #2ca02c; stroke-width: 1.5; stroke-linecap: square"/>
   </g>
   <g id="line2d_18">
    <path d="M 138.436364 250.151561 
L 139.0457 254.803773 
L 139.655037 254.218948 
L 140.264373 259.265757 
L 140.87371 259.647052 
L 141.483047 262.762246 
L 142.092383 263.441716 
L 142.70172 269.92225 
L 143.311057 269.114924 
L 143.920393 274.995816 
L 144.52973 277.725717 
L 145.139066 277.412282 
L 145.748403 276.053446 
L 146.35774 283.97625 
L 146.967076 284.424518 
L 147.576413 281.751269 
L 148.185749 289.004742 
L 148.795086 289.7192 
L 149.404423 287.455441 
L 150.013759 293.684078 
L 150.623096 292.340581 
L 151.232432 293.208086 
L 151.841769 295.388828 
L 152.451106 296.57813 
L 153.060442 295.490868 
L 153.669779 301.734608 
L 154.279115 300.788973 
L 154.888452 302.102054 
L 155.497789 301.981384 
L 156.107125 304.492415 
L 156.716462 306.197401 
L 157.325799 305.134179 
L 157.935135 307.567865 
L 158.544472 306.857456 
L 159.153808 312.693117 
L 159.763145 312.250781 
L 160.372482 308.983848 
L 160.981818 310.122691 
L 161.591155 312.208058 
L 162.200491 313.514815 
L 162.809828 315.091605 
L 163.419165 315.158055 
L 164.028501 317.829031 
L 164.637838 318.76518 
L 165.247174 316.285191 
L 165.856511 317.764854 
L 166.465848 320.443304 
L 167.075184 319.782726 
L 168.293857 321.716849 
L 168.903194 322.405152 
L 169.512531 321.459151 
L 170.121867 324.628539 
L 170.731204 325.272263 
L 171.340541 326.515602 
L 171.949877 327.461472 
L 172.559214 326.691643 
L 173.16855 323.982255 
L 174.387224 328.268511 
L 174.99656 327.276076 
L 175.605897 328.312227 
L 176.215233 327.688493 
L 176.82457 331.592304 
L 177.433907 329.662831 
L 178.043243 329.173016 
L 178.65258 331.170506 
L 179.261916 334.465373 
L 179.871253 330.255418 
L 180.48059 331.247852 
L 181.089926 332.861146 
L 181.699263 333.475395 
L 182.3086 333.222426 
L 182.917936 332.586698 
L 183.527273 334.223849 
L 184.136609 336.926443 
L 185.355283 333.865339 
L 185.964619 336.105686 
L 186.573956 335.836986 
L 187.183292 334.733131 
L 187.792629 337.705104 
L 188.401966 337.127647 
L 189.011302 337.49039 
L 189.620639 337.334914 
L 190.229975 338.011823 
L 190.839312 336.949072 
L 191.448649 341.393495 
L 192.057985 339.865674 
L 192.667322 340.287655 
L 193.276658 338.737701 
L 194.495332 340.070641 
L 195.714005 342.447101 
L 196.323342 338.928427 
L 196.932678 340.602056 
L 197.542015 343.220249 
L 198.151351 341.343325 
L 198.760688 338.397378 
L 199.370025 340.625025 
L 199.979361 342.316005 
L 200.588698 345.691249 
L 201.198034 341.487722 
L 201.807371 342.960277 
L 202.416708 343.073265 
L 203.026044 343.403371 
L 203.635381 345.431068 
L 204.244717 344.450314 
L 204.854054 344.85024 
L 205.463391 344.60268 
L 206.072727 345.365611 
L 206.682064 347.363911 
L 207.900737 344.939397 
L 208.510074 346.256267 
L 209.11941 345.081181 
L 209.728747 345.271045 
L 210.338084 347.263596 
L 210.94742 343.842284 
L 211.556757 346.921941 
L 212.166093 345.06903 
L 213.384767 347.393752 
L 213.994103 348.230919 
L 214.60344 345.453148 
L 215.212776 349.254109 
L 215.822113 349.178958 
L 216.43145 346.865499 
L 217.040786 348.236642 
L 217.650123 346.516291 
L 218.259459 347.628273 
L 218.868796 346.141842 
L 219.478133 347.314394 
L 220.087469 351.376163 
L 220.696806 349.628297 
L 221.306143 348.664737 
L 221.915479 351.545358 
L 222.524816 349.722315 
L 223.134152 349.885212 
L 223.743489 350.179859 
L 224.352826 346.008368 
L 224.962162 351.580189 
L 225.571499 349.098346 
L 226.180835 352.167889 
L 226.790172 349.189436 
L 227.399509 350.462799 
L 228.008845 349.956548 
L 228.618182 348.632466 
L 229.227518 349.870291 
L 229.836855 353.621814 
L 230.446192 351.692106 
L 231.055528 348.939708 
L 231.664865 351.480763 
L 232.274201 351.438798 
L 232.883538 350.309623 
L 233.492875 350.905188 
L 234.102211 350.611325 
L 234.711548 351.655576 
L 235.320885 352.160364 
L 235.930221 355.026822 
L 236.539558 352.840095 
L 237.148894 352.227258 
L 237.758231 352.483911 
L 238.367568 352.180667 
L 238.976904 353.009081 
L 239.586241 353.098734 
L 240.195577 353.325155 
L 240.804914 353.972746 
L 241.414251 355.474645 
L 242.023587 354.689713 
L 242.632924 352.402619 
L 243.24226 356.10614 
L 243.851597 351.40394 
L 244.460934 354.95593 
L 245.07027 356.018864 
L 245.679607 354.322319 
L 246.288943 354.539541 
L 246.89828 356.296265 
L 247.507617 351.952548 
L 248.116953 352.754257 
L 248.72629 355.581833 
L 249.335627 354.161329 
L 249.944963 355.612849 
L 250.5543 354.618455 
L 251.163636 354.844797 
L 251.772973 354.190046 
L 252.38231 356.036084 
L 252.991646 354.76962 
L 253.600983 355.893438 
L 254.210319 355.66153 
L 254.819656 357.026768 
L 256.038329 354.512339 
L 256.647666 353.71476 
L 257.257002 356.735152 
L 257.866339 354.090306 
L 258.475676 353.720012 
L 259.085012 354.974927 
L 259.694349 356.510639 
L 260.303686 357.218435 
L 260.913022 356.998312 
L 261.522359 355.565266 
L 262.131695 356.341366 
L 262.741032 357.955653 
L 263.350369 356.506929 
L 263.959705 357.266567 
L 264.569042 357.125045 
L 265.178378 356.528408 
L 265.787715 358.13219 
L 266.397052 358.492477 
L 267.615725 354.456734 
L 268.834398 356.921305 
L 269.443735 358.139272 
L 270.053071 358.799013 
L 270.662408 357.346526 
L 271.271744 358.657752 
L 271.881081 357.229436 
L 272.490418 357.280547 
L 273.099754 355.180678 
L 273.709091 356.172903 
L 274.318428 357.441406 
L 274.927764 356.928596 
L 275.537101 359.266644 
L 276.146437 358.681609 
L 276.755774 358.639226 
L 277.365111 357.968013 
L 277.974447 358.217297 
L 278.583784 358.309067 
L 279.19312 359.717446 
L 279.802457 356.074209 
L 280.411794 358.575258 
L 281.02113 357.047986 
L 281.630467 359.41057 
L 282.239803 361.250049 
L 282.84914 358.821329 
L 283.458477 359.29949 
L 284.067813 356.809859 
L 284.67715 359.500041 
L 285.286486 359.877913 
L 285.895823 361.416108 
L 286.50516 357.650397 
L 287.114496 358.446017 
L 287.723833 360.841526 
L 288.33317 358.645915 
L 288.942506 358.140108 
L 289.551843 361.25815 
L 290.161179 359.017516 
L 290.770516 360.686468 
L 291.989189 357.148954 
L 292.598526 359.688703 
L 293.207862 359.400458 
L 293.817199 361.023263 
L 294.426536 361.931375 
L 295.035872 358.839986 
L 295.645209 357.310649 
L 296.254545 358.9663 
L 296.863882 358.026049 
L 297.473219 361.526614 
L 298.082555 360.753153 
L 298.691892 361.463091 
L 299.301229 361.027679 
L 299.910565 361.031102 
L 300.519902 358.89729 
L 301.129238 362.39634 
L 301.738575 359.974152 
L 302.347912 360.603269 
L 302.957248 359.324105 
L 303.566585 359.204088 
L 304.175921 357.888785 
L 304.785258 358.630002 
L 305.394595 360.188552 
L 306.003931 361.292172 
L 306.613268 361.733959 
L 307.222604 358.165637 
L 307.831941 360.09349 
L 308.441278 363.145448 
L 309.050614 360.069763 
L 309.659951 361.115399 
L 310.269287 363.06656 
L 310.878624 364.033047 
L 311.487961 360.744216 
L 312.097297 361.062276 
L 312.706634 360.371596 
L 313.315971 361.211873 
L 313.925307 359.829311 
L 314.534644 361.038863 
L 315.14398 363.843314 
L 315.753317 360.735306 
L 316.362654 362.241622 
L 316.97199 359.849013 
L 317.581327 362.341701 
L 318.190663 360.40601 
L 318.8 361.808274 
L 319.409337 361.721991 
L 320.018673 361.868453 
L 320.62801 363.046936 
L 321.237346 362.610218 
L 321.846683 361.661787 
L 322.45602 362.149433 
L 323.065356 363.787682 
L 323.674693 363.110537 
L 324.284029 360.384243 
L 324.893366 361.985203 
L 325.502703 360.456233 
L 326.112039 361.326376 
L 326.721376 362.759762 
L 327.330713 362.700133 
L 327.940049 363.538633 
L 328.549386 363.641299 
L 329.158722 361.200245 
L 329.768059 363.790321 
L 330.377396 363.387024 
L 330.986732 360.44403 
L 331.596069 361.715276 
L 332.205405 363.780992 
L 332.814742 363.656533 
L 333.424079 360.188213 
L 334.033415 363.649922 
L 334.642752 362.359287 
L 335.252088 364.134564 
L 335.861425 363.28211 
L 336.470762 363.578534 
L 337.080098 362.282411 
L 337.689435 364.668592 
L 338.298771 363.55972 
L 338.908108 362.875311 
L 339.517445 362.72804 
L 340.126781 359.555777 
L 340.736118 362.306817 
L 341.345455 361.964613 
L 341.954791 362.885162 
L 343.173464 364.456438 
L 343.782801 363.823324 
L 344.392138 360.888378 
L 345.001474 360.89329 
L 345.610811 362.960261 
L 346.220147 362.140732 
L 346.829484 359.725756 
L 347.438821 364.1406 
L 348.048157 363.631788 
L 348.657494 364.817587 
L 349.26683 363.907725 
L 349.876167 365.70111 
L 350.485504 362.423725 
L 351.09484 365.251954 
L 351.704177 362.211049 
L 352.313514 365.689351 
L 352.92285 363.507877 
L 353.532187 363.455721 
L 354.141523 365.48164 
L 354.75086 362.77045 
L 355.969533 365.102775 
L 356.57887 363.71969 
L 357.188206 360.614348 
L 357.797543 362.368642 
L 358.40688 361.751859 
L 359.016216 364.324872 
L 359.625553 365.49967 
L 360.234889 363.903649 
L 360.844226 364.147237 
L 361.453563 365.182499 
L 362.062899 363.661419 
L 362.672236 363.861082 
L 363.281572 361.692751 
L 363.890909 362.987489 
L 364.500246 364.655317 
L 365.109582 364.236681 
L 365.718919 362.151759 
L 366.328256 367.069483 
L 366.937592 363.09593 
L 367.546929 363.11741 
L 368.156265 361.789617 
L 368.765602 365.779188 
L 369.374939 362.095552 
L 369.984275 363.852851 
L 370.593612 364.529107 
L 371.812285 363.112497 
L 372.421622 366.385101 
L 373.030958 364.055205 
L 373.640295 363.77851 
L 374.249631 363.974619 
L 374.858968 362.412802 
L 375.468305 362.723101 
L 376.077641 364.222231 
L 376.686978 366.182119 
L 377.296314 363.379237 
L 377.905651 366.607079 
L 378.514988 363.090966 
L 379.124324 365.636908 
L 379.733661 364.293881 
L 380.342998 366.531457 
L 380.952334 363.848095 
L 381.561671 366.705277 
L 382.171007 365.658988 
L 382.780344 362.606011 
L 383.389681 364.79927 
L 383.999017 361.766283 
L 384.608354 364.120087 
L 385.21769 364.493282 
L 385.827027 364.286146 
L 386.436364 365.620602 
L 387.0457 362.034773 
L 387.655037 367.266611 
L 388.264373 363.844777 
L 388.87371 365.015447 
L 389.483047 363.624314 
L 390.092383 364.041461 
L 390.70172 367.402307 
L 391.311057 362.8057 
L 391.920393 368.582332 
L 392.52973 366.454059 
L 393.139066 362.941134 
L 393.748403 365.33646 
L 394.35774 364.359913 
L 394.35774 364.359913 
" clip-path="url(#p6fcd998997)" style="fill: none; stroke: #d62728; stroke-width: 1.5; stroke-linecap: square"/>
   </g>
   <g id="line2d_19">
    <path d="M 138.436364 279.914455 
L 139.0457 284.043981 
L 139.655037 289.219691 
L 140.264373 293.27775 
L 140.87371 296.379643 
L 141.483047 296.662897 
L 142.092383 298.937552 
L 142.70172 303.102981 
L 143.311057 304.813402 
L 143.920393 305.92635 
L 144.52973 307.315209 
L 145.139066 312.333458 
L 145.748403 310.514465 
L 146.35774 311.313586 
L 146.967076 313.654273 
L 147.576413 317.460147 
L 148.185749 316.904039 
L 148.795086 320.154928 
L 149.404423 320.479076 
L 150.013759 320.210063 
L 151.232432 323.652462 
L 151.841769 323.371247 
L 153.060442 328.65728 
L 153.669779 328.094038 
L 154.279115 328.022911 
L 154.888452 329.827427 
L 155.497789 330.799898 
L 156.107125 332.992556 
L 156.716462 331.111399 
L 157.935135 334.585129 
L 158.544472 335.163631 
L 159.153808 333.431156 
L 159.763145 335.63539 
L 160.372482 336.2239 
L 160.981818 335.42355 
L 161.591155 340.111353 
L 162.200491 339.564103 
L 162.809828 338.721814 
L 163.419165 341.090722 
L 164.028501 339.820024 
L 164.637838 340.410572 
L 165.247174 340.84507 
L 165.856511 342.481332 
L 166.465848 341.349544 
L 167.075184 343.243975 
L 167.684521 343.281394 
L 168.293857 343.623729 
L 168.903194 343.736613 
L 169.512531 344.332282 
L 170.121867 343.090903 
L 170.731204 344.398 
L 171.340541 346.073668 
L 171.949877 345.360908 
L 172.559214 347.836428 
L 173.16855 346.752406 
L 173.777887 344.62463 
L 174.387224 347.189621 
L 174.99656 346.987528 
L 175.605897 347.291582 
L 176.215233 347.904498 
L 176.82457 349.335375 
L 177.433907 349.892528 
L 178.043243 348.500246 
L 178.65258 349.658399 
L 179.261916 348.89168 
L 179.871253 350.394364 
L 180.48059 348.772917 
L 181.089926 350.434239 
L 182.3086 350.754311 
L 182.917936 353.34457 
L 183.527273 350.936962 
L 184.136609 352.763298 
L 184.745946 351.505639 
L 185.355283 354.137211 
L 185.964619 352.949739 
L 186.573956 354.489214 
L 187.183292 354.495564 
L 187.792629 352.647357 
L 188.401966 354.696846 
L 189.011302 355.425207 
L 189.620639 353.928481 
L 190.229975 353.72921 
L 190.839312 353.853225 
L 191.448649 354.386338 
L 192.057985 355.321861 
L 192.667322 352.258797 
L 193.276658 356.21027 
L 193.885995 357.767226 
L 194.495332 356.013063 
L 195.104668 358.444894 
L 195.714005 355.57415 
L 196.323342 356.471783 
L 196.932678 357.847499 
L 197.542015 356.336062 
L 198.151351 358.270264 
L 198.760688 357.331893 
L 199.370025 356.911846 
L 199.979361 356.780253 
L 200.588698 358.463916 
L 201.198034 360.687696 
L 201.807371 357.227006 
L 202.416708 359.482717 
L 203.026044 357.310649 
L 203.635381 362.483511 
L 204.244717 359.866913 
L 204.854054 357.762863 
L 205.463391 357.286766 
L 206.072727 360.265402 
L 206.682064 359.042915 
L 207.2914 360.782889 
L 207.900737 358.766403 
L 208.510074 362.14844 
L 209.11941 359.054517 
L 210.338084 360.462634 
L 210.94742 359.091753 
L 211.556757 359.762077 
L 212.166093 360.86601 
L 212.77543 361.323999 
L 213.384767 361.02781 
L 213.994103 358.361955 
L 214.60344 363.325565 
L 215.212776 362.856654 
L 215.822113 361.930591 
L 217.040786 362.727909 
L 217.650123 361.697246 
L 218.259459 362.395478 
L 218.868796 363.710466 
L 219.478133 362.246926 
L 220.087469 361.336907 
L 221.306143 361.900253 
L 221.915479 360.624382 
L 222.524816 362.695873 
L 223.134152 361.493559 
L 223.743489 360.925143 
L 224.352826 361.548668 
L 224.962162 363.23369 
L 225.571499 362.533865 
L 226.790172 362.308202 
L 227.399509 364.402531 
L 228.008845 361.678092 
L 228.618182 364.613352 
L 229.227518 362.202452 
L 229.836855 363.096793 
L 230.446192 362.000019 
L 231.055528 362.289702 
L 231.664865 364.004878 
L 232.274201 364.773531 
L 232.883538 363.161152 
L 233.492875 363.966519 
L 234.102211 363.031258 
L 234.711548 364.057792 
L 235.320885 364.813485 
L 235.930221 364.683852 
L 236.539558 362.463757 
L 237.148894 363.255953 
L 237.758231 363.122035 
L 238.976904 364.89394 
L 239.586241 364.294639 
L 240.195577 364.233415 
L 240.804914 364.000802 
L 241.414251 362.480166 
L 242.023587 364.109034 
L 242.632924 364.671779 
L 243.24226 364.096544 
L 243.851597 363.306254 
L 244.460934 364.06652 
L 245.07027 366.161215 
L 245.679607 365.526611 
L 246.288943 365.667637 
L 246.89828 362.776224 
L 247.507617 363.115842 
L 248.116953 365.207088 
L 248.72629 365.316992 
L 249.335627 365.879267 
L 249.944963 364.993315 
L 250.5543 366.31724 
L 251.163636 363.378897 
L 251.772973 365.74028 
L 252.38231 366.002917 
L 252.991646 366.509455 
L 253.600983 365.445267 
L 254.210319 364.632662 
L 254.819656 364.918346 
L 255.428993 364.724903 
L 256.038329 366.122307 
L 256.647666 365.488852 
L 257.257002 366.918632 
L 257.866339 363.852877 
L 258.475676 365.016545 
L 259.694349 368.584932 
L 260.303686 365.182081 
L 260.913022 365.564761 
L 261.522359 368.11329 
L 262.131695 365.263948 
L 262.741032 365.286498 
L 263.350369 364.758167 
L 263.959705 368.300058 
L 264.569042 364.548862 
L 265.178378 365.301027 
L 265.787715 366.904809 
L 266.397052 365.496273 
L 267.006388 365.793298 
L 267.615725 364.68521 
L 268.225061 367.260575 
L 269.443735 365.901191 
L 270.053071 364.492812 
L 270.662408 367.14534 
L 271.271744 366.053819 
L 271.881081 366.104355 
L 272.490418 364.805881 
L 273.099754 367.319238 
L 273.709091 366.919886 
L 274.318428 367.578191 
L 274.927764 364.953962 
L 275.537101 367.968449 
L 276.146437 369.36 
L 276.755774 366.028812 
L 276.755774 366.028812 
" clip-path="url(#p6fcd998997)" style="fill: none; stroke: #9467bd; stroke-width: 1.5; stroke-linecap: square"/>
   </g>
   <g id="patch_3">
    <path d="M 108 384.48 
L 108 51.84 
" style="fill: none; stroke: #000000; stroke-width: 0.8; stroke-linejoin: miter; stroke-linecap: square"/>
   </g>
   <g id="patch_4">
    <path d="M 777.6 384.48 
L 777.6 51.84 
" style="fill: none; stroke: #000000; stroke-width: 0.8; stroke-linejoin: miter; stroke-linecap: square"/>
   </g>
   <g id="patch_5">
    <path d="M 108 384.48 
L 777.6 384.48 
" style="fill: none; stroke: #000000; stroke-width: 0.8; stroke-linejoin: miter; stroke-linecap: square"/>
   </g>
   <g id="patch_6">
    <path d="M 108 51.84 
L 777.6 51.84 
" style="fill: none; stroke: #000000; stroke-width: 0.8; stroke-linejoin: miter; stroke-linecap: square"/>
   </g>
   <g id="text_17">
    <!-- Training Loss for Each Fold -->
    <g transform="translate(363.140625 45.84) scale(0.12 -0.12)">
     <defs>
      <path id="DejaVuSans-54" d="M -19 4666 
L 3928 4666 
L 3928 4134 
L 2272 4134 
L 2272 0 
L 1638 0 
L 1638 4134 
L -19 4134 
L -19 4666 
z
" transform="scale(0.015625)"/>
      <path id="DejaVuSans-72" d="M 2631 2963 
Q 2534 3019 2420 3045 
Q 2306 3072 2169 3072 
Q 1681 3072 1420 2755 
Q 1159 2438 1159 1844 
L 1159 0 
L 581 0 
L 581 3500 
L 1159 3500 
L 1159 2956 
Q 1341 3275 1631 3429 
Q 1922 3584 2338 3584 
Q 2397 3584 2469 3576 
Q 2541 3569 2628 3553 
L 2631 2963 
z
" transform="scale(0.015625)"/>
      <path id="DejaVuSans-61" d="M 2194 1759 
Q 1497 1759 1228 1600 
Q 959 1441 959 1056 
Q 959 750 1161 570 
Q 1363 391 1709 391 
Q 2188 391 2477 730 
Q 2766 1069 2766 1631 
L 2766 1759 
L 2194 1759 
z
M 3341 1997 
L 3341 0 
L 2766 0 
L 2766 531 
Q 2569 213 2275 61 
Q 1981 -91 1556 -91 
Q 1019 -91 701 211 
Q 384 513 384 1019 
Q 384 1609 779 1909 
Q 1175 2209 1959 2209 
L 2766 2209 
L 2766 2266 
Q 2766 2663 2505 2880 
Q 2244 3097 1772 3097 
Q 1472 3097 1187 3025 
Q 903 2953 641 2809 
L 641 3341 
Q 956 3463 1253 3523 
Q 1550 3584 1831 3584 
Q 2591 3584 2966 3190 
Q 3341 2797 3341 1997 
z
" transform="scale(0.015625)"/>
      <path id="DejaVuSans-69" d="M 603 3500 
L 1178 3500 
L 1178 0 
L 603 0 
L 603 3500 
z
M 603 4863 
L 1178 4863 
L 1178 4134 
L 603 4134 
L 603 4863 
z
" transform="scale(0.015625)"/>
      <path id="DejaVuSans-6e" d="M 3513 2113 
L 3513 0 
L 2938 0 
L 2938 2094 
Q 2938 2591 2744 2837 
Q 2550 3084 2163 3084 
Q 1697 3084 1428 2787 
Q 1159 2491 1159 1978 
L 1159 0 
L 581 0 
L 581 3500 
L 1159 3500 
L 1159 2956 
Q 1366 3272 1645 3428 
Q 1925 3584 2291 3584 
Q 2894 3584 3203 3211 
Q 3513 2838 3513 2113 
z
" transform="scale(0.015625)"/>
      <path id="DejaVuSans-67" d="M 2906 1791 
Q 2906 2416 2648 2759 
Q 2391 3103 1925 3103 
Q 1463 3103 1205 2759 
Q 947 2416 947 1791 
Q 947 1169 1205 825 
Q 1463 481 1925 481 
Q 2391 481 2648 825 
Q 2906 1169 2906 1791 
z
M 3481 434 
Q 3481 -459 3084 -895 
Q 2688 -1331 1869 -1331 
Q 1566 -1331 1297 -1286 
Q 1028 -1241 775 -1147 
L 775 -588 
Q 1028 -725 1275 -790 
Q 1522 -856 1778 -856 
Q 2344 -856 2625 -561 
Q 2906 -266 2906 331 
L 2906 616 
Q 2728 306 2450 153 
Q 2172 0 1784 0 
Q 1141 0 747 490 
Q 353 981 353 1791 
Q 353 2603 747 3093 
Q 1141 3584 1784 3584 
Q 2172 3584 2450 3431 
Q 2728 3278 2906 2969 
L 2906 3500 
L 3481 3500 
L 3481 434 
z
" transform="scale(0.015625)"/>
      <path id="DejaVuSans-20" transform="scale(0.015625)"/>
      <path id="DejaVuSans-66" d="M 2375 4863 
L 2375 4384 
L 1825 4384 
Q 1516 4384 1395 4259 
Q 1275 4134 1275 3809 
L 1275 3500 
L 2222 3500 
L 2222 3053 
L 1275 3053 
L 1275 0 
L 697 0 
L 697 3053 
L 147 3053 
L 147 3500 
L 697 3500 
L 697 3744 
Q 697 4328 969 4595 
Q 1241 4863 1831 4863 
L 2375 4863 
z
" transform="scale(0.015625)"/>
      <path id="DejaVuSans-46" d="M 628 4666 
L 3309 4666 
L 3309 4134 
L 1259 4134 
L 1259 2759 
L 3109 2759 
L 3109 2228 
L 1259 2228 
L 1259 0 
L 628 0 
L 628 4666 
z
" transform="scale(0.015625)"/>
      <path id="DejaVuSans-6c" d="M 603 4863 
L 1178 4863 
L 1178 0 
L 603 0 
L 603 4863 
z
" transform="scale(0.015625)"/>
      <path id="DejaVuSans-64" d="M 2906 2969 
L 2906 4863 
L 3481 4863 
L 3481 0 
L 2906 0 
L 2906 525 
Q 2725 213 2448 61 
Q 2172 -91 1784 -91 
Q 1150 -91 751 415 
Q 353 922 353 1747 
Q 353 2572 751 3078 
Q 1150 3584 1784 3584 
Q 2172 3584 2448 3432 
Q 2725 3281 2906 2969 
z
M 947 1747 
Q 947 1113 1208 752 
Q 1469 391 1925 391 
Q 2381 391 2643 752 
Q 2906 1113 2906 1747 
Q 2906 2381 2643 2742 
Q 2381 3103 1925 3103 
Q 1469 3103 1208 2742 
Q 947 2381 947 1747 
z
" transform="scale(0.015625)"/>
     </defs>
     <use xlink:href="#DejaVuSans-54"/>
     <use xlink:href="#DejaVuSans-72" x="46.333984"/>
     <use xlink:href="#DejaVuSans-61" x="87.447266"/>
     <use xlink:href="#DejaVuSans-69" x="148.726562"/>
     <use xlink:href="#DejaVuSans-6e" x="176.509766"/>
     <use xlink:href="#DejaVuSans-69" x="239.888672"/>
     <use xlink:href="#DejaVuSans-6e" x="267.671875"/>
     <use xlink:href="#DejaVuSans-67" x="331.050781"/>
     <use xlink:href="#DejaVuSans-20" x="394.527344"/>
     <use xlink:href="#DejaVuSans-4c" x="426.314453"/>
     <use xlink:href="#DejaVuSans-6f" x="480.277344"/>
     <use xlink:href="#DejaVuSans-73" x="541.458984"/>
     <use xlink:href="#DejaVuSans-73" x="593.558594"/>
     <use xlink:href="#DejaVuSans-20" x="645.658203"/>
     <use xlink:href="#DejaVuSans-66" x="677.445312"/>
     <use xlink:href="#DejaVuSans-6f" x="712.650391"/>
     <use xlink:href="#DejaVuSans-72" x="773.832031"/>
     <use xlink:href="#DejaVuSans-20" x="814.945312"/>
     <use xlink:href="#DejaVuSans-45" x="846.732422"/>
     <use xlink:href="#DejaVuSans-61" x="909.916016"/>
     <use xlink:href="#DejaVuSans-63" x="971.195312"/>
     <use xlink:href="#DejaVuSans-68" x="1026.175781"/>
     <use xlink:href="#DejaVuSans-20" x="1089.554688"/>
     <use xlink:href="#DejaVuSans-46" x="1121.341797"/>
     <use xlink:href="#DejaVuSans-6f" x="1175.236328"/>
     <use xlink:href="#DejaVuSans-6c" x="1236.417969"/>
     <use xlink:href="#DejaVuSans-64" x="1264.201172"/>
    </g>
   </g>
   <g id="legend_1">
    <g id="patch_7">
     <path d="M 640.682812 133.230625 
L 770.6 133.230625 
Q 772.6 133.230625 772.6 131.230625 
L 772.6 58.84 
Q 772.6 56.84 770.6 56.84 
L 640.682812 56.84 
Q 638.682812 56.84 638.682812 58.84 
L 638.682812 131.230625 
Q 638.682812 133.230625 640.682812 133.230625 
z
" style="fill: #ffffff; opacity: 0.8; stroke: #cccccc; stroke-linejoin: miter"/>
    </g>
    <g id="line2d_20">
     <path d="M 642.682812 64.938437 
L 652.682812 64.938437 
L 662.682812 64.938437 
" style="fill: none; stroke: #1f77b4; stroke-width: 1.5; stroke-linecap: square"/>
    </g>
    <g id="text_18">
     <!-- Fold 1 Training Loss -->
     <g transform="translate(670.682812 68.438437) scale(0.1 -0.1)">
      <use xlink:href="#DejaVuSans-46"/>
      <use xlink:href="#DejaVuSans-6f" x="53.894531"/>
      <use xlink:href="#DejaVuSans-6c" x="115.076172"/>
      <use xlink:href="#DejaVuSans-64" x="142.859375"/>
      <use xlink:href="#DejaVuSans-20" x="206.335938"/>
      <use xlink:href="#DejaVuSans-31" x="238.123047"/>
      <use xlink:href="#DejaVuSans-20" x="301.746094"/>
      <use xlink:href="#DejaVuSans-54" x="333.533203"/>
      <use xlink:href="#DejaVuSans-72" x="379.867188"/>
      <use xlink:href="#DejaVuSans-61" x="420.980469"/>
      <use xlink:href="#DejaVuSans-69" x="482.259766"/>
      <use xlink:href="#DejaVuSans-6e" x="510.042969"/>
      <use xlink:href="#DejaVuSans-69" x="573.421875"/>
      <use xlink:href="#DejaVuSans-6e" x="601.205078"/>
      <use xlink:href="#DejaVuSans-67" x="664.583984"/>
      <use xlink:href="#DejaVuSans-20" x="728.060547"/>
      <use xlink:href="#DejaVuSans-4c" x="759.847656"/>
      <use xlink:href="#DejaVuSans-6f" x="813.810547"/>
      <use xlink:href="#DejaVuSans-73" x="874.992188"/>
      <use xlink:href="#DejaVuSans-73" x="927.091797"/>
     </g>
    </g>
    <g id="line2d_21">
     <path d="M 642.682812 79.616562 
L 652.682812 79.616562 
L 662.682812 79.616562 
" style="fill: none; stroke: #ff7f0e; stroke-width: 1.5; stroke-linecap: square"/>
    </g>
    <g id="text_19">
     <!-- Fold 2 Training Loss -->
     <g transform="translate(670.682812 83.116562) scale(0.1 -0.1)">
      <use xlink:href="#DejaVuSans-46"/>
      <use xlink:href="#DejaVuSans-6f" x="53.894531"/>
      <use xlink:href="#DejaVuSans-6c" x="115.076172"/>
      <use xlink:href="#DejaVuSans-64" x="142.859375"/>
      <use xlink:href="#DejaVuSans-20" x="206.335938"/>
      <use xlink:href="#DejaVuSans-32" x="238.123047"/>
      <use xlink:href="#DejaVuSans-20" x="301.746094"/>
      <use xlink:href="#DejaVuSans-54" x="333.533203"/>
      <use xlink:href="#DejaVuSans-72" x="379.867188"/>
      <use xlink:href="#DejaVuSans-61" x="420.980469"/>
      <use xlink:href="#DejaVuSans-69" x="482.259766"/>
      <use xlink:href="#DejaVuSans-6e" x="510.042969"/>
      <use xlink:href="#DejaVuSans-69" x="573.421875"/>
      <use xlink:href="#DejaVuSans-6e" x="601.205078"/>
      <use xlink:href="#DejaVuSans-67" x="664.583984"/>
      <use xlink:href="#DejaVuSans-20" x="728.060547"/>
      <use xlink:href="#DejaVuSans-4c" x="759.847656"/>
      <use xlink:href="#DejaVuSans-6f" x="813.810547"/>
      <use xlink:href="#DejaVuSans-73" x="874.992188"/>
      <use xlink:href="#DejaVuSans-73" x="927.091797"/>
     </g>
    </g>
    <g id="line2d_22">
     <path d="M 642.682812 94.294687 
L 652.682812 94.294687 
L 662.682812 94.294687 
" style="fill: none; stroke: #2ca02c; stroke-width: 1.5; stroke-linecap: square"/>
    </g>
    <g id="text_20">
     <!-- Fold 3 Training Loss -->
     <g transform="translate(670.682812 97.794687) scale(0.1 -0.1)">
      <defs>
       <path id="DejaVuSans-33" d="M 2597 2516 
Q 3050 2419 3304 2112 
Q 3559 1806 3559 1356 
Q 3559 666 3084 287 
Q 2609 -91 1734 -91 
Q 1441 -91 1130 -33 
Q 819 25 488 141 
L 488 750 
Q 750 597 1062 519 
Q 1375 441 1716 441 
Q 2309 441 2620 675 
Q 2931 909 2931 1356 
Q 2931 1769 2642 2001 
Q 2353 2234 1838 2234 
L 1294 2234 
L 1294 2753 
L 1863 2753 
Q 2328 2753 2575 2939 
Q 2822 3125 2822 3475 
Q 2822 3834 2567 4026 
Q 2313 4219 1838 4219 
Q 1578 4219 1281 4162 
Q 984 4106 628 3988 
L 628 4550 
Q 988 4650 1302 4700 
Q 1616 4750 1894 4750 
Q 2613 4750 3031 4423 
Q 3450 4097 3450 3541 
Q 3450 3153 3228 2886 
Q 3006 2619 2597 2516 
z
" transform="scale(0.015625)"/>
      </defs>
      <use xlink:href="#DejaVuSans-46"/>
      <use xlink:href="#DejaVuSans-6f" x="53.894531"/>
      <use xlink:href="#DejaVuSans-6c" x="115.076172"/>
      <use xlink:href="#DejaVuSans-64" x="142.859375"/>
      <use xlink:href="#DejaVuSans-20" x="206.335938"/>
      <use xlink:href="#DejaVuSans-33" x="238.123047"/>
      <use xlink:href="#DejaVuSans-20" x="301.746094"/>
      <use xlink:href="#DejaVuSans-54" x="333.533203"/>
      <use xlink:href="#DejaVuSans-72" x="379.867188"/>
      <use xlink:href="#DejaVuSans-61" x="420.980469"/>
      <use xlink:href="#DejaVuSans-69" x="482.259766"/>
      <use xlink:href="#DejaVuSans-6e" x="510.042969"/>
      <use xlink:href="#DejaVuSans-69" x="573.421875"/>
      <use xlink:href="#DejaVuSans-6e" x="601.205078"/>
      <use xlink:href="#DejaVuSans-67" x="664.583984"/>
      <use xlink:href="#DejaVuSans-20" x="728.060547"/>
      <use xlink:href="#DejaVuSans-4c" x="759.847656"/>
      <use xlink:href="#DejaVuSans-6f" x="813.810547"/>
      <use xlink:href="#DejaVuSans-73" x="874.992188"/>
      <use xlink:href="#DejaVuSans-73" x="927.091797"/>
     </g>
    </g>
    <g id="line2d_23">
     <path d="M 642.682812 108.972812 
L 652.682812 108.972812 
L 662.682812 108.972812 
" style="fill: none; stroke: #d62728; stroke-width: 1.5; stroke-linecap: square"/>
    </g>
    <g id="text_21">
     <!-- Fold 4 Training Loss -->
     <g transform="translate(670.682812 112.472812) scale(0.1 -0.1)">
      <use xlink:href="#DejaVuSans-46"/>
      <use xlink:href="#DejaVuSans-6f" x="53.894531"/>
      <use xlink:href="#DejaVuSans-6c" x="115.076172"/>
      <use xlink:href="#DejaVuSans-64" x="142.859375"/>
      <use xlink:href="#DejaVuSans-20" x="206.335938"/>
      <use xlink:href="#DejaVuSans-34" x="238.123047"/>
      <use xlink:href="#DejaVuSans-20" x="301.746094"/>
      <use xlink:href="#DejaVuSans-54" x="333.533203"/>
      <use xlink:href="#DejaVuSans-72" x="379.867188"/>
      <use xlink:href="#DejaVuSans-61" x="420.980469"/>
      <use xlink:href="#DejaVuSans-69" x="482.259766"/>
      <use xlink:href="#DejaVuSans-6e" x="510.042969"/>
      <use xlink:href="#DejaVuSans-69" x="573.421875"/>
      <use xlink:href="#DejaVuSans-6e" x="601.205078"/>
      <use xlink:href="#DejaVuSans-67" x="664.583984"/>
      <use xlink:href="#DejaVuSans-20" x="728.060547"/>
      <use xlink:href="#DejaVuSans-4c" x="759.847656"/>
      <use xlink:href="#DejaVuSans-6f" x="813.810547"/>
      <use xlink:href="#DejaVuSans-73" x="874.992188"/>
      <use xlink:href="#DejaVuSans-73" x="927.091797"/>
     </g>
    </g>
    <g id="line2d_24">
     <path d="M 642.682812 123.650937 
L 652.682812 123.650937 
L 662.682812 123.650937 
" style="fill: none; stroke: #9467bd; stroke-width: 1.5; stroke-linecap: square"/>
    </g>
    <g id="text_22">
     <!-- Fold 5 Training Loss -->
     <g transform="translate(670.682812 127.150937) scale(0.1 -0.1)">
      <use xlink:href="#DejaVuSans-46"/>
      <use xlink:href="#DejaVuSans-6f" x="53.894531"/>
      <use xlink:href="#DejaVuSans-6c" x="115.076172"/>
      <use xlink:href="#DejaVuSans-64" x="142.859375"/>
      <use xlink:href="#DejaVuSans-20" x="206.335938"/>
      <use xlink:href="#DejaVuSans-35" x="238.123047"/>
      <use xlink:href="#DejaVuSans-20" x="301.746094"/>
      <use xlink:href="#DejaVuSans-54" x="333.533203"/>
      <use xlink:href="#DejaVuSans-72" x="379.867188"/>
      <use xlink:href="#DejaVuSans-61" x="420.980469"/>
      <use xlink:href="#DejaVuSans-69" x="482.259766"/>
      <use xlink:href="#DejaVuSans-6e" x="510.042969"/>
      <use xlink:href="#DejaVuSans-69" x="573.421875"/>
      <use xlink:href="#DejaVuSans-6e" x="601.205078"/>
      <use xlink:href="#DejaVuSans-67" x="664.583984"/>
      <use xlink:href="#DejaVuSans-20" x="728.060547"/>
      <use xlink:href="#DejaVuSans-4c" x="759.847656"/>
      <use xlink:href="#DejaVuSans-6f" x="813.810547"/>
      <use xlink:href="#DejaVuSans-73" x="874.992188"/>
      <use xlink:href="#DejaVuSans-73" x="927.091797"/>
     </g>
    </g>
   </g>
  </g>
 </g>
 <defs>
  <clipPath id="p6fcd998997">
   <rect x="108" y="51.84" width="669.6" height="332.64"/>
  </clipPath>
 </defs>
</svg>
